<svg width="200" height="208" viewBox="0 0 200 208" fill="none" xmlns="http://www.w3.org/2000/svg">
<g filter="url(#filter0_d_181_836)">
<path d="M100 0L186.603 50V150L100 200L13.3975 150V50L100 0Z" fill="white"/>
<path d="M14.3975 50.5774L100 1.1547L185.603 50.5774V149.423L100 198.845L14.3975 149.423V50.5774Z" stroke="#2CC140" stroke-width="2"/>
</g>
<path d="M53.4041 93.3636V105H51.2962V93.3636H53.4041ZM57.6527 99.8864V105H55.5959V96.2727H57.5618V97.7557H57.6641C57.8648 97.267 58.1849 96.8788 58.6243 96.5909C59.0675 96.303 59.6148 96.1591 60.2663 96.1591C60.8686 96.1591 61.3932 96.2879 61.8402 96.5455C62.291 96.803 62.6394 97.1761 62.8857 97.6648C63.1357 98.1534 63.2588 98.7462 63.255 99.4432V105H61.1982V99.7614C61.1982 99.178 61.0466 98.7216 60.7436 98.392C60.4444 98.0625 60.0296 97.8977 59.4993 97.8977C59.1394 97.8977 58.8194 97.9773 58.5391 98.1364C58.2625 98.2917 58.0447 98.517 57.8857 98.8125C57.7304 99.108 57.6527 99.4659 57.6527 99.8864ZM69.7038 96.2727V97.8636H64.6868V96.2727H69.7038ZM65.9254 94.1818H67.9822V102.375C67.9822 102.652 68.0239 102.864 68.1072 103.011C68.1944 103.155 68.308 103.254 68.4482 103.307C68.5883 103.36 68.7436 103.386 68.9141 103.386C69.0429 103.386 69.1603 103.377 69.2663 103.358C69.3762 103.339 69.4595 103.322 69.5163 103.307L69.8629 104.915C69.7531 104.953 69.5959 104.994 69.3913 105.04C69.1906 105.085 68.9444 105.112 68.6527 105.119C68.1375 105.134 67.6735 105.057 67.2607 104.886C66.8478 104.712 66.5201 104.443 66.2777 104.08C66.0391 103.716 65.9216 103.261 65.9254 102.716V94.1818ZM75.1939 105.17C74.3189 105.17 73.5632 104.989 72.9268 104.625C72.2943 104.258 71.8075 103.739 71.4666 103.068C71.1257 102.394 70.9553 101.6 70.9553 100.688C70.9553 99.7898 71.1257 99.0019 71.4666 98.3239C71.8113 97.642 72.2924 97.1117 72.9098 96.733C73.5272 96.3504 74.2526 96.1591 75.0859 96.1591C75.6238 96.1591 76.1314 96.2462 76.6087 96.4205C77.0897 96.5909 77.514 96.8561 77.8814 97.2159C78.2526 97.5758 78.5443 98.0341 78.7564 98.5909C78.9685 99.1439 79.0746 99.803 79.0746 100.568V101.199H71.9212V99.8125H77.103C77.0992 99.4186 77.014 99.0682 76.8473 98.7614C76.6806 98.4508 76.4477 98.2064 76.1484 98.0284C75.853 97.8504 75.5083 97.7614 75.1143 97.7614C74.6939 97.7614 74.3246 97.8636 74.0064 98.0682C73.6882 98.2689 73.4401 98.5341 73.2621 98.8636C73.0878 99.1894 72.9988 99.5473 72.995 99.9375V101.148C72.995 101.655 73.0878 102.091 73.2734 102.455C73.459 102.814 73.7185 103.091 74.0518 103.284C74.3852 103.473 74.7753 103.568 75.2223 103.568C75.5215 103.568 75.7924 103.527 76.0348 103.443C76.2772 103.356 76.4875 103.229 76.6655 103.062C76.8435 102.896 76.978 102.689 77.0689 102.443L78.9893 102.659C78.8681 103.167 78.6371 103.61 78.2962 103.989C77.959 104.364 77.5272 104.655 77.0007 104.864C76.4742 105.068 75.8719 105.17 75.1939 105.17ZM80.8146 105V96.2727H82.8089V97.7273H82.8999C83.0589 97.2235 83.3317 96.8352 83.718 96.5625C84.1082 96.286 84.5533 96.1477 85.0533 96.1477C85.1669 96.1477 85.2938 96.1534 85.4339 96.1648C85.5779 96.1723 85.6972 96.1856 85.7919 96.2045V98.0966C85.7048 98.0663 85.5665 98.0398 85.3771 98.017C85.1915 97.9905 85.0116 97.9773 84.8374 97.9773C84.4624 97.9773 84.1252 98.0587 83.826 98.2216C83.5305 98.3807 83.2976 98.6023 83.1271 98.8864C82.9567 99.1705 82.8714 99.4981 82.8714 99.8693V105H80.8146ZM87.1584 105V96.2727H89.1243V97.7557H89.2266C89.4084 97.2557 89.7095 96.8655 90.13 96.5852C90.5504 96.3011 91.0523 96.1591 91.6357 96.1591C92.2266 96.1591 92.7247 96.303 93.13 96.5909C93.5391 96.875 93.8269 97.2633 93.9936 97.7557H94.0845C94.2777 97.2708 94.6035 96.8845 95.0618 96.5966C95.5239 96.3049 96.0713 96.1591 96.7038 96.1591C97.5069 96.1591 98.1622 96.4129 98.6697 96.9205C99.1773 97.428 99.4311 98.1686 99.4311 99.142V105H97.3686V99.4602C97.3686 98.9186 97.2247 98.5227 96.9368 98.2727C96.6489 98.0189 96.2966 97.892 95.88 97.892C95.3838 97.892 94.9955 98.0473 94.7152 98.358C94.4387 98.6648 94.3004 99.0644 94.3004 99.5568V105H92.2834V99.375C92.2834 98.9242 92.147 98.5644 91.8743 98.2955C91.6054 98.0265 91.2531 97.892 90.8175 97.892C90.522 97.892 90.2531 97.9678 90.0107 98.1193C89.7682 98.267 89.575 98.4773 89.4311 98.75C89.2872 99.0189 89.2152 99.3333 89.2152 99.6932V105H87.1584ZM105.381 105.17C104.506 105.17 103.751 104.989 103.114 104.625C102.482 104.258 101.995 103.739 101.654 103.068C101.313 102.394 101.143 101.6 101.143 100.688C101.143 99.7898 101.313 99.0019 101.654 98.3239C101.999 97.642 102.48 97.1117 103.097 96.733C103.715 96.3504 104.44 96.1591 105.273 96.1591C105.811 96.1591 106.319 96.2462 106.796 96.4205C107.277 96.5909 107.701 96.8561 108.069 97.2159C108.44 97.5758 108.732 98.0341 108.944 98.5909C109.156 99.1439 109.262 99.803 109.262 100.568V101.199H102.109V99.8125H107.29C107.287 99.4186 107.201 99.0682 107.035 98.7614C106.868 98.4508 106.635 98.2064 106.336 98.0284C106.04 97.8504 105.696 97.7614 105.302 97.7614C104.881 97.7614 104.512 97.8636 104.194 98.0682C103.876 98.2689 103.628 98.5341 103.45 98.8636C103.275 99.1894 103.186 99.5473 103.183 99.9375V101.148C103.183 101.655 103.275 102.091 103.461 102.455C103.647 102.814 103.906 103.091 104.239 103.284C104.573 103.473 104.963 103.568 105.41 103.568C105.709 103.568 105.98 103.527 106.222 103.443C106.465 103.356 106.675 103.229 106.853 103.062C107.031 102.896 107.165 102.689 107.256 102.443L109.177 102.659C109.056 103.167 108.825 103.61 108.484 103.989C108.147 104.364 107.715 104.655 107.188 104.864C106.662 105.068 106.059 105.17 105.381 105.17ZM114.241 105.153C113.555 105.153 112.942 104.977 112.4 104.625C111.858 104.273 111.43 103.761 111.116 103.091C110.801 102.42 110.644 101.606 110.644 100.648C110.644 99.678 110.803 98.8598 111.121 98.1932C111.443 97.5227 111.877 97.017 112.423 96.6761C112.968 96.3314 113.576 96.1591 114.246 96.1591C114.758 96.1591 115.178 96.2462 115.508 96.4205C115.837 96.5909 116.099 96.7973 116.292 97.0398C116.485 97.2784 116.635 97.5038 116.741 97.7159H116.826V93.3636H118.888V105H116.866V103.625H116.741C116.635 103.837 116.481 104.062 116.281 104.301C116.08 104.536 115.815 104.737 115.485 104.903C115.156 105.07 114.741 105.153 114.241 105.153ZM114.815 103.466C115.25 103.466 115.621 103.348 115.928 103.114C116.235 102.875 116.468 102.544 116.627 102.119C116.786 101.695 116.866 101.201 116.866 100.636C116.866 100.072 116.786 99.5814 116.627 99.1648C116.472 98.7481 116.241 98.4242 115.934 98.1932C115.631 97.9621 115.258 97.8466 114.815 97.8466C114.356 97.8466 113.974 97.9659 113.667 98.2045C113.36 98.4432 113.129 98.7727 112.974 99.1932C112.818 99.6136 112.741 100.095 112.741 100.636C112.741 101.182 112.818 101.669 112.974 102.097C113.133 102.521 113.366 102.856 113.673 103.102C113.983 103.345 114.364 103.466 114.815 103.466ZM121.08 105V96.2727H123.137V105H121.08ZM122.114 95.0341C121.789 95.0341 121.508 94.9261 121.273 94.7102C121.039 94.4905 120.921 94.2273 120.921 93.9205C120.921 93.6098 121.039 93.3466 121.273 93.1307C121.508 92.911 121.789 92.8011 122.114 92.8011C122.444 92.8011 122.724 92.911 122.955 93.1307C123.19 93.3466 123.308 93.6098 123.308 93.9205C123.308 94.2273 123.19 94.4905 122.955 94.7102C122.724 94.9261 122.444 95.0341 122.114 95.0341ZM127.763 105.176C127.21 105.176 126.712 105.078 126.269 104.881C125.83 104.68 125.481 104.384 125.224 103.994C124.97 103.604 124.843 103.123 124.843 102.551C124.843 102.059 124.934 101.652 125.116 101.33C125.298 101.008 125.546 100.75 125.86 100.557C126.174 100.364 126.529 100.218 126.923 100.119C127.32 100.017 127.731 99.9432 128.156 99.8977C128.667 99.8447 129.082 99.7973 129.4 99.7557C129.718 99.7102 129.949 99.642 130.093 99.5511C130.241 99.4564 130.315 99.3106 130.315 99.1136V99.0795C130.315 98.6515 130.188 98.3201 129.934 98.0852C129.68 97.8504 129.315 97.733 128.837 97.733C128.334 97.733 127.934 97.8428 127.638 98.0625C127.347 98.2822 127.15 98.5417 127.048 98.8409L125.127 98.5682C125.279 98.0379 125.529 97.5947 125.877 97.2386C126.226 96.8788 126.652 96.6098 127.156 96.4318C127.659 96.25 128.216 96.1591 128.826 96.1591C129.246 96.1591 129.665 96.2083 130.082 96.3068C130.498 96.4053 130.879 96.5682 131.224 96.7955C131.568 97.0189 131.845 97.3239 132.053 97.7102C132.265 98.0966 132.371 98.5795 132.371 99.1591V105H130.394V103.801H130.326C130.201 104.044 130.025 104.271 129.798 104.483C129.574 104.691 129.292 104.86 128.951 104.989C128.614 105.114 128.218 105.176 127.763 105.176ZM128.298 103.665C128.71 103.665 129.068 103.583 129.371 103.42C129.674 103.254 129.907 103.034 130.07 102.761C130.237 102.489 130.32 102.191 130.32 101.869V100.841C130.256 100.894 130.146 100.943 129.991 100.989C129.839 101.034 129.669 101.074 129.479 101.108C129.29 101.142 129.103 101.172 128.917 101.199C128.731 101.225 128.57 101.248 128.434 101.267C128.127 101.309 127.853 101.377 127.61 101.472C127.368 101.566 127.176 101.699 127.036 101.869C126.896 102.036 126.826 102.252 126.826 102.517C126.826 102.896 126.964 103.182 127.241 103.375C127.517 103.568 127.87 103.665 128.298 103.665ZM138.798 96.2727V97.8636H133.781V96.2727H138.798ZM135.019 94.1818H137.076V102.375C137.076 102.652 137.118 102.864 137.201 103.011C137.288 103.155 137.402 103.254 137.542 103.307C137.682 103.36 137.837 103.386 138.008 103.386C138.137 103.386 138.254 103.377 138.36 103.358C138.47 103.339 138.553 103.322 138.61 103.307L138.957 104.915C138.847 104.953 138.69 104.994 138.485 105.04C138.284 105.085 138.038 105.112 137.746 105.119C137.231 105.134 136.767 105.057 136.354 104.886C135.942 104.712 135.614 104.443 135.371 104.08C135.133 103.716 135.015 103.261 135.019 102.716V94.1818ZM144.288 105.17C143.413 105.17 142.657 104.989 142.021 104.625C141.388 104.258 140.901 103.739 140.56 103.068C140.219 102.394 140.049 101.6 140.049 100.688C140.049 99.7898 140.219 99.0019 140.56 98.3239C140.905 97.642 141.386 97.1117 142.004 96.733C142.621 96.3504 143.346 96.1591 144.18 96.1591C144.718 96.1591 145.225 96.2462 145.702 96.4205C146.183 96.5909 146.608 96.8561 146.975 97.2159C147.346 97.5758 147.638 98.0341 147.85 98.5909C148.062 99.1439 148.168 99.803 148.168 100.568V101.199H141.015V99.8125H146.197C146.193 99.4186 146.108 99.0682 145.941 98.7614C145.774 98.4508 145.541 98.2064 145.242 98.0284C144.947 97.8504 144.602 97.7614 144.208 97.7614C143.788 97.7614 143.418 97.8636 143.1 98.0682C142.782 98.2689 142.534 98.5341 142.356 98.8636C142.182 99.1894 142.093 99.5473 142.089 99.9375V101.148C142.089 101.655 142.182 102.091 142.367 102.455C142.553 102.814 142.812 103.091 143.146 103.284C143.479 103.473 143.869 103.568 144.316 103.568C144.615 103.568 144.886 103.527 145.129 103.443C145.371 103.356 145.581 103.229 145.759 103.062C145.937 102.896 146.072 102.689 146.163 102.443L148.083 102.659C147.962 103.167 147.731 103.61 147.39 103.989C147.053 104.364 146.621 104.655 146.094 104.864C145.568 105.068 144.966 105.17 144.288 105.17Z" fill="black"/>
<path d="M59.0384 57.1989C58.5118 57.1989 58.0308 57.0966 57.5952 56.892C57.1596 56.6837 56.813 56.3845 56.5554 55.9943C56.2978 55.6004 56.169 55.1231 56.169 54.5625C56.169 54.1307 56.2505 53.767 56.4134 53.4716C56.5762 53.1761 56.8073 52.9337 57.1065 52.7443C57.4058 52.5549 57.7599 52.4053 58.169 52.2955C58.5781 52.1856 59.0289 52.1004 59.5213 52.0398C60.0099 51.9792 60.4228 51.9261 60.7599 51.8807C61.1009 51.8352 61.3603 51.7633 61.5384 51.6648C61.7164 51.5663 61.8054 51.4072 61.8054 51.1875V50.983C61.8054 50.3883 61.6274 49.9205 61.2713 49.5795C60.919 49.2348 60.4115 49.0625 59.7486 49.0625C59.1198 49.0625 58.6065 49.2008 58.2088 49.4773C57.8149 49.7538 57.5384 50.0795 57.3793 50.4545L56.419 50.108C56.616 49.6307 56.8887 49.25 57.2372 48.9659C57.5857 48.678 57.9759 48.4716 58.4077 48.3466C58.8395 48.2178 59.277 48.1534 59.7202 48.1534C60.0535 48.1534 60.4001 48.197 60.7599 48.2841C61.1236 48.3712 61.4607 48.5227 61.7713 48.7386C62.0819 48.9508 62.3338 49.2481 62.527 49.6307C62.7202 50.0095 62.8168 50.4905 62.8168 51.0739V57H61.8054V55.6193H61.7429C61.6217 55.8769 61.4418 56.1269 61.2031 56.3693C60.9645 56.6117 60.6652 56.8106 60.3054 56.9659C59.9455 57.1212 59.5232 57.1989 59.0384 57.1989ZM59.1747 56.2727C59.7126 56.2727 60.1785 56.1534 60.5724 55.9148C60.9664 55.6761 61.2694 55.3598 61.4815 54.9659C61.6974 54.5682 61.8054 54.1307 61.8054 53.6534V52.392C61.7296 52.464 61.6027 52.5284 61.4247 52.5852C61.2505 52.642 61.0478 52.6932 60.8168 52.7386C60.5895 52.7803 60.3622 52.8163 60.1349 52.8466C59.9077 52.8769 59.7031 52.9034 59.5213 52.9261C59.0289 52.9867 58.6084 53.0814 58.2599 53.2102C57.9115 53.339 57.6444 53.517 57.4588 53.7443C57.2732 53.9678 57.1804 54.2557 57.1804 54.608C57.1804 55.1383 57.3698 55.5492 57.7486 55.8409C58.1274 56.1288 58.6027 56.2727 59.1747 56.2727ZM66.5185 51.5455V57H65.5071V48.2727H66.4901V49.642H66.581C66.7855 49.1951 67.1037 48.8371 67.5355 48.5682C67.9711 48.2955 68.509 48.1591 69.1491 48.1591C69.7363 48.1591 70.2514 48.2822 70.6946 48.5284C71.1416 48.7708 71.4882 49.1288 71.7344 49.6023C71.9844 50.0758 72.1094 50.6572 72.1094 51.3466V57H71.098V51.4091C71.098 50.6932 70.8973 50.1269 70.4957 49.7102C70.098 49.2936 69.5639 49.0852 68.8935 49.0852C68.4351 49.0852 68.0279 49.1837 67.6719 49.3807C67.3158 49.5777 67.0336 49.8617 66.8253 50.233C66.6207 50.6004 66.5185 51.0379 66.5185 51.5455ZM77.9148 57.1818C77.1989 57.1818 76.572 56.9924 76.0341 56.6136C75.4962 56.2348 75.0758 55.7064 74.7727 55.0284C74.4735 54.3504 74.3239 53.5606 74.3239 52.6591C74.3239 51.7614 74.4735 50.9754 74.7727 50.3011C75.0758 49.6231 75.4981 49.0966 76.0398 48.7216C76.5814 48.3428 77.2121 48.1534 77.9318 48.1534C78.4621 48.1534 78.9034 48.2481 79.2557 48.4375C79.608 48.6231 79.8902 48.8542 80.1023 49.1307C80.3144 49.4072 80.4792 49.6761 80.5966 49.9375H80.6875V45.3636H81.7045V57H80.7159V55.3807H80.5966C80.4792 55.6458 80.3125 55.9186 80.0966 56.1989C79.8807 56.4754 79.5947 56.7083 79.2386 56.8977C78.8864 57.0871 78.4451 57.1818 77.9148 57.1818ZM78.0341 56.2557C78.5985 56.2557 79.0795 56.1023 79.4773 55.7955C79.875 55.4848 80.178 55.0587 80.3864 54.517C80.5985 53.9716 80.7045 53.3466 80.7045 52.642C80.7045 51.9451 80.6004 51.3295 80.392 50.7955C80.1837 50.2576 79.8807 49.8371 79.483 49.5341C79.0852 49.2273 78.6023 49.0739 78.0341 49.0739C77.4508 49.0739 76.9583 49.233 76.5568 49.5511C76.1591 49.8655 75.8561 50.2917 75.6477 50.8295C75.4432 51.3674 75.3409 51.9716 75.3409 52.642C75.3409 53.3201 75.4451 53.9318 75.6534 54.4773C75.8617 55.0227 76.1648 55.4564 76.5625 55.7784C76.964 56.0966 77.4545 56.2557 78.0341 56.2557ZM84.5852 57V48.2727H85.5682V49.6136H85.642C85.8163 49.1742 86.1193 48.8201 86.5511 48.5511C86.9867 48.2784 87.4792 48.142 88.0284 48.142C88.1117 48.142 88.2045 48.1439 88.3068 48.1477C88.4091 48.1515 88.4943 48.1553 88.5625 48.1591V49.1875C88.517 49.1799 88.4375 49.1686 88.3239 49.1534C88.2102 49.1383 88.0871 49.1307 87.9545 49.1307C87.5 49.1307 87.0947 49.2273 86.7386 49.4205C86.3864 49.6098 86.108 49.8731 85.9034 50.2102C85.6989 50.5473 85.5966 50.9318 85.5966 51.3636V57H84.5852ZM93.4148 57.1818C92.661 57.1818 91.9943 56.9905 91.4148 56.608C90.839 56.2254 90.3883 55.697 90.0625 55.0227C89.7367 54.3447 89.5739 53.5625 89.5739 52.6761C89.5739 51.7822 89.7367 50.9962 90.0625 50.3182C90.3883 49.6364 90.839 49.1061 91.4148 48.7273C91.9943 48.3447 92.661 48.1534 93.4148 48.1534C94.1686 48.1534 94.8333 48.3447 95.4091 48.7273C95.9848 49.1098 96.4356 49.6402 96.7614 50.3182C97.0909 50.9962 97.2557 51.7822 97.2557 52.6761C97.2557 53.5625 97.0928 54.3447 96.767 55.0227C96.4413 55.697 95.9886 56.2254 95.4091 56.608C94.8333 56.9905 94.1686 57.1818 93.4148 57.1818ZM93.4148 56.2557C94.0208 56.2557 94.5341 56.0928 94.9545 55.767C95.375 55.4413 95.6932 55.0076 95.9091 54.4659C96.1288 53.9242 96.2386 53.3277 96.2386 52.6761C96.2386 52.0246 96.1288 51.4261 95.9091 50.8807C95.6932 50.3352 95.375 49.8977 94.9545 49.5682C94.5341 49.2386 94.0208 49.0739 93.4148 49.0739C92.8125 49.0739 92.2992 49.2386 91.875 49.5682C91.4545 49.8977 91.1345 50.3352 90.9148 50.8807C90.6989 51.4261 90.5909 52.0246 90.5909 52.6761C90.5909 53.3277 90.6989 53.9242 90.9148 54.4659C91.1345 55.0076 91.4545 55.4413 91.875 55.767C92.2955 56.0928 92.8087 56.2557 93.4148 56.2557ZM99.4872 57V48.2727H100.504V57H99.4872ZM100.004 46.7727C99.7959 46.7727 99.6179 46.7027 99.4702 46.5625C99.3224 46.4186 99.2486 46.2462 99.2486 46.0455C99.2486 45.8447 99.3224 45.6742 99.4702 45.5341C99.6179 45.3902 99.7959 45.3182 100.004 45.3182C100.213 45.3182 100.391 45.3902 100.538 45.5341C100.686 45.6742 100.76 45.8447 100.76 46.0455C100.76 46.2462 100.686 46.4186 100.538 46.5625C100.391 46.7027 100.213 46.7727 100.004 46.7727ZM106.321 57.1818C105.605 57.1818 104.978 56.9924 104.44 56.6136C103.902 56.2348 103.482 55.7064 103.179 55.0284C102.88 54.3504 102.73 53.5606 102.73 52.6591C102.73 51.7614 102.88 50.9754 103.179 50.3011C103.482 49.6231 103.904 49.0966 104.446 48.7216C104.988 48.3428 105.618 48.1534 106.338 48.1534C106.868 48.1534 107.31 48.2481 107.662 48.4375C108.014 48.6231 108.296 48.8542 108.509 49.1307C108.721 49.4072 108.885 49.6761 109.003 49.9375H109.094V45.3636H110.111V57H109.122V55.3807H109.003C108.885 55.6458 108.719 55.9186 108.503 56.1989C108.287 56.4754 108.001 56.7083 107.645 56.8977C107.293 57.0871 106.851 57.1818 106.321 57.1818ZM106.44 56.2557C107.005 56.2557 107.486 56.1023 107.884 55.7955C108.281 55.4848 108.584 55.0587 108.793 54.517C109.005 53.9716 109.111 53.3466 109.111 52.642C109.111 51.9451 109.007 51.3295 108.798 50.7955C108.59 50.2576 108.287 49.8371 107.889 49.5341C107.491 49.2273 107.009 49.0739 106.44 49.0739C105.857 49.0739 105.365 49.233 104.963 49.5511C104.565 49.8655 104.262 50.2917 104.054 50.8295C103.849 51.3674 103.747 51.9716 103.747 52.642C103.747 53.3201 103.851 53.9318 104.06 54.4773C104.268 55.0227 104.571 55.4564 104.969 55.7784C105.37 56.0966 105.861 56.2557 106.44 56.2557ZM120.634 57.1818C119.918 57.1818 119.291 56.9924 118.753 56.6136C118.215 56.2348 117.795 55.7064 117.491 55.0284C117.192 54.3504 117.043 53.5606 117.043 52.6591C117.043 51.7614 117.192 50.9754 117.491 50.3011C117.795 49.6231 118.217 49.0966 118.759 48.7216C119.3 48.3428 119.931 48.1534 120.651 48.1534C121.181 48.1534 121.622 48.2481 121.974 48.4375C122.327 48.6231 122.609 48.8542 122.821 49.1307C123.033 49.4072 123.198 49.6761 123.315 49.9375H123.406V45.3636H124.423V57H123.435V55.3807H123.315C123.198 55.6458 123.031 55.9186 122.815 56.1989C122.599 56.4754 122.313 56.7083 121.957 56.8977C121.605 57.0871 121.164 57.1818 120.634 57.1818ZM120.753 56.2557C121.317 56.2557 121.798 56.1023 122.196 55.7955C122.594 55.4848 122.897 55.0587 123.105 54.517C123.317 53.9716 123.423 53.3466 123.423 52.642C123.423 51.9451 123.319 51.3295 123.111 50.7955C122.902 50.2576 122.599 49.8371 122.202 49.5341C121.804 49.2273 121.321 49.0739 120.753 49.0739C120.17 49.0739 119.677 49.233 119.276 49.5511C118.878 49.8655 118.575 50.2917 118.366 50.8295C118.162 51.3674 118.06 51.9716 118.06 52.642C118.06 53.3201 118.164 53.9318 118.372 54.4773C118.58 55.0227 118.884 55.4564 119.281 55.7784C119.683 56.0966 120.173 56.2557 120.753 56.2557ZM130.832 57.1818C130.018 57.1818 129.313 56.9924 128.719 56.6136C128.124 56.2311 127.664 55.7027 127.338 55.0284C127.016 54.3504 126.855 53.5701 126.855 52.6875C126.855 51.8087 127.016 51.0284 127.338 50.3466C127.664 49.661 128.113 49.125 128.685 48.7386C129.26 48.3485 129.925 48.1534 130.679 48.1534C131.152 48.1534 131.609 48.2405 132.048 48.4148C132.488 48.5852 132.882 48.8485 133.23 49.2045C133.582 49.5568 133.861 50.0019 134.065 50.5398C134.27 51.0739 134.372 51.7064 134.372 52.4375V52.9375H127.554V52.0455H133.338C133.338 51.4848 133.224 50.9811 132.997 50.5341C132.774 50.0833 132.461 49.7273 132.06 49.4659C131.662 49.2045 131.202 49.0739 130.679 49.0739C130.126 49.0739 129.639 49.2216 129.219 49.517C128.798 49.8125 128.469 50.2027 128.23 50.6875C127.995 51.1723 127.876 51.7027 127.872 52.2784V52.8125C127.872 53.5057 127.991 54.1117 128.23 54.6307C128.473 55.1458 128.815 55.5455 129.259 55.8295C129.702 56.1136 130.226 56.2557 130.832 56.2557C131.245 56.2557 131.607 56.1913 131.918 56.0625C132.232 55.9337 132.495 55.7614 132.707 55.5455C132.923 55.3258 133.086 55.0852 133.196 54.8239L134.156 55.1364C134.024 55.5038 133.806 55.8428 133.503 56.1534C133.204 56.464 132.829 56.714 132.378 56.9034C131.931 57.089 131.416 57.1818 130.832 57.1818ZM143.091 48.2727L139.903 57H138.824L135.636 48.2727H136.733L139.324 55.6648H139.403L141.994 48.2727H143.091Z" fill="black"/>
<path d="M66.5249 154.159C65.7824 154.159 65.1214 154.019 64.5419 153.739C63.9624 153.458 63.5078 153.076 63.1783 152.591C62.8487 152.102 62.6839 151.551 62.6839 150.938C62.6839 150.456 62.7843 150.008 62.9851 149.591C63.1858 149.17 63.4624 148.818 63.8146 148.534C64.1669 148.246 64.5627 148.059 65.0021 147.972V147.909C64.4302 147.742 63.9699 147.415 63.6214 146.926C63.273 146.434 63.1006 145.875 63.1044 145.25C63.1006 144.67 63.2483 144.152 63.5476 143.693C63.8468 143.235 64.254 142.873 64.7692 142.608C65.2881 142.339 65.8733 142.205 66.5249 142.205C67.1726 142.205 67.754 142.339 68.2692 142.608C68.7843 142.873 69.1915 143.235 69.4908 143.693C69.7938 144.152 69.9472 144.67 69.951 145.25C69.9472 145.871 69.7711 146.43 69.4226 146.926C69.0741 147.419 68.6158 147.746 68.0476 147.909V147.972C68.487 148.055 68.8809 148.241 69.2294 148.528C69.5779 148.816 69.8544 149.17 70.0589 149.591C70.2635 150.008 70.3658 150.456 70.3658 150.938C70.3658 151.551 70.1991 152.102 69.8658 152.591C69.5362 153.076 69.0817 153.458 68.5021 153.739C67.9264 154.019 67.2673 154.159 66.5249 154.159ZM66.5249 153.205C67.0779 153.205 67.5627 153.106 67.9794 152.909C68.3999 152.708 68.7275 152.434 68.9624 152.085C69.201 151.737 69.3203 151.337 69.3203 150.886C69.3203 150.42 69.1972 150.006 68.951 149.642C68.7048 149.275 68.3714 148.985 67.951 148.773C67.5305 148.557 67.0552 148.449 66.5249 148.449C65.9946 148.449 65.5173 148.557 65.093 148.773C64.6726 148.985 64.3393 149.275 64.093 149.642C63.8506 150.006 63.7294 150.42 63.7294 150.886C63.7294 151.337 63.8449 151.737 64.076 152.085C64.3108 152.434 64.6385 152.708 65.0589 152.909C65.4832 153.106 65.9718 153.205 66.5249 153.205ZM66.5249 147.54C66.9794 147.54 67.3866 147.443 67.7464 147.25C68.1063 147.057 68.3904 146.794 68.5987 146.46C68.8108 146.123 68.9188 145.741 68.9226 145.312C68.9188 144.888 68.8127 144.513 68.6044 144.188C68.3961 143.858 68.112 143.602 67.7521 143.42C67.3961 143.235 66.987 143.142 66.5249 143.142C66.0627 143.142 65.6499 143.235 65.2862 143.42C64.9264 143.602 64.6423 143.858 64.4339 144.188C64.2294 144.513 64.129 144.888 64.1328 145.312C64.129 145.741 64.2313 146.123 64.4396 146.46C64.6518 146.794 64.9377 147.057 65.2976 147.25C65.6612 147.443 66.0703 147.54 66.5249 147.54ZM77.2649 154V145.273H78.2479V146.614H78.3388C78.513 146.163 78.8028 145.809 79.2081 145.551C79.6172 145.29 80.1077 145.159 80.6797 145.159C81.282 145.159 81.7763 145.301 82.1626 145.585C82.5528 145.866 82.8445 146.252 83.0376 146.744H83.1115C83.3085 146.259 83.6286 145.875 84.0717 145.591C84.5187 145.303 85.0604 145.159 85.6967 145.159C86.5073 145.159 87.1475 145.415 87.6172 145.926C88.0869 146.434 88.3217 147.176 88.3217 148.153V154H87.3104V148.153C87.3104 147.464 87.1342 146.947 86.782 146.602C86.4297 146.258 85.9657 146.085 85.3899 146.085C84.7232 146.085 84.21 146.29 83.8501 146.699C83.4903 147.108 83.3104 147.627 83.3104 148.256V154H82.2763V148.062C82.2763 147.472 82.1115 146.994 81.782 146.631C81.4524 146.267 80.9884 146.085 80.3899 146.085C79.9884 146.085 79.6267 146.184 79.3047 146.381C78.9865 146.578 78.7346 146.852 78.549 147.205C78.3672 147.553 78.2763 147.955 78.2763 148.409V154H77.2649ZM94.3913 154.182C93.6375 154.182 92.9709 153.991 92.3913 153.608C91.8156 153.225 91.3648 152.697 91.0391 152.023C90.7133 151.345 90.5504 150.562 90.5504 149.676C90.5504 148.782 90.7133 147.996 91.0391 147.318C91.3648 146.636 91.8156 146.106 92.3913 145.727C92.9709 145.345 93.6375 145.153 94.3913 145.153C95.1451 145.153 95.8099 145.345 96.3857 145.727C96.9614 146.11 97.4122 146.64 97.7379 147.318C98.0675 147.996 98.2322 148.782 98.2322 149.676C98.2322 150.562 98.0694 151.345 97.7436 152.023C97.4179 152.697 96.9652 153.225 96.3857 153.608C95.8099 153.991 95.1451 154.182 94.3913 154.182ZM94.3913 153.256C94.9974 153.256 95.5107 153.093 95.9311 152.767C96.3516 152.441 96.6697 152.008 96.8857 151.466C97.1054 150.924 97.2152 150.328 97.2152 149.676C97.2152 149.025 97.1054 148.426 96.8857 147.881C96.6697 147.335 96.3516 146.898 95.9311 146.568C95.5107 146.239 94.9974 146.074 94.3913 146.074C93.7891 146.074 93.2758 146.239 92.8516 146.568C92.4311 146.898 92.111 147.335 91.8913 147.881C91.6754 148.426 91.5675 149.025 91.5675 149.676C91.5675 150.328 91.6754 150.924 91.8913 151.466C92.111 152.008 92.4311 152.441 92.8516 152.767C93.272 153.093 93.7853 153.256 94.3913 153.256ZM101.464 148.545V154H100.452V145.273H101.435V146.642H101.526C101.731 146.195 102.049 145.837 102.481 145.568C102.916 145.295 103.454 145.159 104.094 145.159C104.682 145.159 105.197 145.282 105.64 145.528C106.087 145.771 106.433 146.129 106.68 146.602C106.93 147.076 107.055 147.657 107.055 148.347V154H106.043V148.409C106.043 147.693 105.843 147.127 105.441 146.71C105.043 146.294 104.509 146.085 103.839 146.085C103.38 146.085 102.973 146.184 102.617 146.381C102.261 146.578 101.979 146.862 101.771 147.233C101.566 147.6 101.464 148.038 101.464 148.545ZM113.156 145.273V146.153H108.991V145.273H113.156ZM110.292 143.182H111.309V151.722C111.309 152.085 111.371 152.371 111.496 152.58C111.621 152.784 111.784 152.93 111.985 153.017C112.186 153.1 112.4 153.142 112.627 153.142C112.76 153.142 112.873 153.134 112.968 153.119C113.063 153.1 113.146 153.081 113.218 153.062L113.434 153.977C113.335 154.015 113.214 154.049 113.07 154.08C112.926 154.114 112.748 154.131 112.536 154.131C112.165 154.131 111.807 154.049 111.462 153.886C111.121 153.723 110.841 153.481 110.621 153.159C110.402 152.837 110.292 152.438 110.292 151.96V143.182ZM116.651 148.545V154H115.64V142.364H116.651V146.642H116.742C116.947 146.191 117.263 145.831 117.691 145.562C118.123 145.294 118.668 145.159 119.327 145.159C119.918 145.159 120.437 145.28 120.884 145.523C121.331 145.765 121.68 146.123 121.93 146.597C122.18 147.07 122.305 147.653 122.305 148.347V154H121.288V148.409C121.288 147.689 121.087 147.123 120.685 146.71C120.288 146.294 119.75 146.085 119.072 146.085C118.606 146.085 118.191 146.184 117.827 146.381C117.464 146.578 117.176 146.862 116.964 147.233C116.755 147.6 116.651 148.038 116.651 148.545ZM128.746 141.818L124.996 155.75H124.048L127.798 141.818H128.746ZM136.363 147.188L135.437 147.449C135.346 147.187 135.217 146.951 135.05 146.739C134.884 146.527 134.666 146.358 134.397 146.233C134.132 146.108 133.802 146.045 133.408 146.045C132.817 146.045 132.333 146.186 131.954 146.466C131.575 146.746 131.386 147.108 131.386 147.551C131.386 147.926 131.514 148.231 131.772 148.466C132.033 148.697 132.435 148.881 132.977 149.017L134.295 149.341C135.026 149.519 135.573 149.801 135.937 150.188C136.304 150.574 136.488 151.059 136.488 151.642C136.488 152.134 136.352 152.572 136.079 152.955C135.806 153.337 135.425 153.638 134.937 153.858C134.452 154.074 133.889 154.182 133.249 154.182C132.397 154.182 131.694 153.991 131.141 153.608C130.588 153.222 130.234 152.665 130.079 151.938L131.05 151.699C131.175 152.218 131.42 152.61 131.783 152.875C132.151 153.14 132.634 153.273 133.232 153.273C133.903 153.273 134.439 153.123 134.84 152.824C135.242 152.521 135.442 152.142 135.442 151.688C135.442 151.335 135.325 151.04 135.09 150.801C134.855 150.559 134.499 150.381 134.022 150.267L132.596 149.926C131.838 149.744 131.278 149.456 130.914 149.062C130.55 148.669 130.369 148.18 130.369 147.597C130.369 147.116 130.499 146.693 130.761 146.33C131.022 145.962 131.382 145.674 131.84 145.466C132.299 145.258 132.821 145.153 133.408 145.153C134.208 145.153 134.846 145.335 135.323 145.699C135.804 146.059 136.151 146.555 136.363 147.188Z" fill="black"/>
<defs>
<filter id="filter0_d_181_836" x="9.39746" y="0" width="181.205" height="208" filterUnits="userSpaceOnUse" color-interpolation-filters="sRGB">
<feFlood flood-opacity="0" result="BackgroundImageFix"/>
<feColorMatrix in="SourceAlpha" type="matrix" values="0 0 0 0 0 0 0 0 0 0 0 0 0 0 0 0 0 0 127 0" result="hardAlpha"/>
<feOffset dy="4"/>
<feGaussianBlur stdDeviation="2"/>
<feComposite in2="hardAlpha" operator="out"/>
<feColorMatrix type="matrix" values="0 0 0 0 0 0 0 0 0 0 0 0 0 0 0 0 0 0 0.25 0"/>
<feBlend mode="normal" in2="BackgroundImageFix" result="effect1_dropShadow_181_836"/>
<feBlend mode="normal" in="SourceGraphic" in2="effect1_dropShadow_181_836" result="shape"/>
</filter>
</defs>
</svg>
