<svg width="200" height="208" viewBox="0 0 200 208" fill="none" xmlns="http://www.w3.org/2000/svg">
<g filter="url(#filter0_d_181_848)">
<path d="M100 0L186.603 50V150L100 200L13.3975 150V50L100 0Z" fill="white"/>
<path d="M14.3975 50.5774L100 1.1547L185.603 50.5774V149.423L100 198.845L14.3975 149.423V50.5774Z" stroke="#2CC140" stroke-width="2"/>
</g>
<path d="M53.4041 93.3636V105H51.2962V93.3636H53.4041ZM57.6527 99.8864V105H55.5959V96.2727H57.5618V97.7557H57.6641C57.8648 97.267 58.1849 96.8788 58.6243 96.5909C59.0675 96.303 59.6148 96.1591 60.2663 96.1591C60.8686 96.1591 61.3932 96.2879 61.8402 96.5455C62.291 96.803 62.6394 97.1761 62.8857 97.6648C63.1357 98.1534 63.2588 98.7462 63.255 99.4432V105H61.1982V99.7614C61.1982 99.178 61.0466 98.7216 60.7436 98.392C60.4444 98.0625 60.0296 97.8977 59.4993 97.8977C59.1394 97.8977 58.8194 97.9773 58.5391 98.1364C58.2625 98.2917 58.0447 98.517 57.8857 98.8125C57.7304 99.108 57.6527 99.4659 57.6527 99.8864ZM69.7038 96.2727V97.8636H64.6868V96.2727H69.7038ZM65.9254 94.1818H67.9822V102.375C67.9822 102.652 68.0239 102.864 68.1072 103.011C68.1944 103.155 68.308 103.254 68.4482 103.307C68.5883 103.36 68.7436 103.386 68.9141 103.386C69.0429 103.386 69.1603 103.377 69.2663 103.358C69.3762 103.339 69.4595 103.322 69.5163 103.307L69.8629 104.915C69.7531 104.953 69.5959 104.994 69.3913 105.04C69.1906 105.085 68.9444 105.112 68.6527 105.119C68.1375 105.134 67.6735 105.057 67.2607 104.886C66.8478 104.712 66.5201 104.443 66.2777 104.08C66.0391 103.716 65.9216 103.261 65.9254 102.716V94.1818ZM75.1939 105.17C74.3189 105.17 73.5632 104.989 72.9268 104.625C72.2943 104.258 71.8075 103.739 71.4666 103.068C71.1257 102.394 70.9553 101.6 70.9553 100.688C70.9553 99.7898 71.1257 99.0019 71.4666 98.3239C71.8113 97.642 72.2924 97.1117 72.9098 96.733C73.5272 96.3504 74.2526 96.1591 75.0859 96.1591C75.6238 96.1591 76.1314 96.2462 76.6087 96.4205C77.0897 96.5909 77.514 96.8561 77.8814 97.2159C78.2526 97.5758 78.5443 98.0341 78.7564 98.5909C78.9685 99.1439 79.0746 99.803 79.0746 100.568V101.199H71.9212V99.8125H77.103C77.0992 99.4186 77.014 99.0682 76.8473 98.7614C76.6806 98.4508 76.4477 98.2064 76.1484 98.0284C75.853 97.8504 75.5083 97.7614 75.1143 97.7614C74.6939 97.7614 74.3246 97.8636 74.0064 98.0682C73.6882 98.2689 73.4401 98.5341 73.2621 98.8636C73.0878 99.1894 72.9988 99.5473 72.995 99.9375V101.148C72.995 101.655 73.0878 102.091 73.2734 102.455C73.459 102.814 73.7185 103.091 74.0518 103.284C74.3852 103.473 74.7753 103.568 75.2223 103.568C75.5215 103.568 75.7924 103.527 76.0348 103.443C76.2772 103.356 76.4875 103.229 76.6655 103.062C76.8435 102.896 76.978 102.689 77.0689 102.443L78.9893 102.659C78.8681 103.167 78.6371 103.61 78.2962 103.989C77.959 104.364 77.5272 104.655 77.0007 104.864C76.4742 105.068 75.8719 105.17 75.1939 105.17ZM80.8146 105V96.2727H82.8089V97.7273H82.8999C83.0589 97.2235 83.3317 96.8352 83.718 96.5625C84.1082 96.286 84.5533 96.1477 85.0533 96.1477C85.1669 96.1477 85.2938 96.1534 85.4339 96.1648C85.5779 96.1723 85.6972 96.1856 85.7919 96.2045V98.0966C85.7048 98.0663 85.5665 98.0398 85.3771 98.017C85.1915 97.9905 85.0116 97.9773 84.8374 97.9773C84.4624 97.9773 84.1252 98.0587 83.826 98.2216C83.5305 98.3807 83.2976 98.6023 83.1271 98.8864C82.9567 99.1705 82.8714 99.4981 82.8714 99.8693V105H80.8146ZM87.1584 105V96.2727H89.1243V97.7557H89.2266C89.4084 97.2557 89.7095 96.8655 90.13 96.5852C90.5504 96.3011 91.0523 96.1591 91.6357 96.1591C92.2266 96.1591 92.7247 96.303 93.13 96.5909C93.5391 96.875 93.8269 97.2633 93.9936 97.7557H94.0845C94.2777 97.2708 94.6035 96.8845 95.0618 96.5966C95.5239 96.3049 96.0713 96.1591 96.7038 96.1591C97.5069 96.1591 98.1622 96.4129 98.6697 96.9205C99.1773 97.428 99.4311 98.1686 99.4311 99.142V105H97.3686V99.4602C97.3686 98.9186 97.2247 98.5227 96.9368 98.2727C96.6489 98.0189 96.2966 97.892 95.88 97.892C95.3838 97.892 94.9955 98.0473 94.7152 98.358C94.4387 98.6648 94.3004 99.0644 94.3004 99.5568V105H92.2834V99.375C92.2834 98.9242 92.147 98.5644 91.8743 98.2955C91.6054 98.0265 91.2531 97.892 90.8175 97.892C90.522 97.892 90.2531 97.9678 90.0107 98.1193C89.7682 98.267 89.575 98.4773 89.4311 98.75C89.2872 99.0189 89.2152 99.3333 89.2152 99.6932V105H87.1584ZM105.381 105.17C104.506 105.17 103.751 104.989 103.114 104.625C102.482 104.258 101.995 103.739 101.654 103.068C101.313 102.394 101.143 101.6 101.143 100.688C101.143 99.7898 101.313 99.0019 101.654 98.3239C101.999 97.642 102.48 97.1117 103.097 96.733C103.715 96.3504 104.44 96.1591 105.273 96.1591C105.811 96.1591 106.319 96.2462 106.796 96.4205C107.277 96.5909 107.701 96.8561 108.069 97.2159C108.44 97.5758 108.732 98.0341 108.944 98.5909C109.156 99.1439 109.262 99.803 109.262 100.568V101.199H102.109V99.8125H107.29C107.287 99.4186 107.201 99.0682 107.035 98.7614C106.868 98.4508 106.635 98.2064 106.336 98.0284C106.04 97.8504 105.696 97.7614 105.302 97.7614C104.881 97.7614 104.512 97.8636 104.194 98.0682C103.876 98.2689 103.628 98.5341 103.45 98.8636C103.275 99.1894 103.186 99.5473 103.183 99.9375V101.148C103.183 101.655 103.275 102.091 103.461 102.455C103.647 102.814 103.906 103.091 104.239 103.284C104.573 103.473 104.963 103.568 105.41 103.568C105.709 103.568 105.98 103.527 106.222 103.443C106.465 103.356 106.675 103.229 106.853 103.062C107.031 102.896 107.165 102.689 107.256 102.443L109.177 102.659C109.056 103.167 108.825 103.61 108.484 103.989C108.147 104.364 107.715 104.655 107.188 104.864C106.662 105.068 106.059 105.17 105.381 105.17ZM114.241 105.153C113.555 105.153 112.942 104.977 112.4 104.625C111.858 104.273 111.43 103.761 111.116 103.091C110.801 102.42 110.644 101.606 110.644 100.648C110.644 99.678 110.803 98.8598 111.121 98.1932C111.443 97.5227 111.877 97.017 112.423 96.6761C112.968 96.3314 113.576 96.1591 114.246 96.1591C114.758 96.1591 115.178 96.2462 115.508 96.4205C115.837 96.5909 116.099 96.7973 116.292 97.0398C116.485 97.2784 116.635 97.5038 116.741 97.7159H116.826V93.3636H118.888V105H116.866V103.625H116.741C116.635 103.837 116.481 104.062 116.281 104.301C116.08 104.536 115.815 104.737 115.485 104.903C115.156 105.07 114.741 105.153 114.241 105.153ZM114.815 103.466C115.25 103.466 115.621 103.348 115.928 103.114C116.235 102.875 116.468 102.544 116.627 102.119C116.786 101.695 116.866 101.201 116.866 100.636C116.866 100.072 116.786 99.5814 116.627 99.1648C116.472 98.7481 116.241 98.4242 115.934 98.1932C115.631 97.9621 115.258 97.8466 114.815 97.8466C114.356 97.8466 113.974 97.9659 113.667 98.2045C113.36 98.4432 113.129 98.7727 112.974 99.1932C112.818 99.6136 112.741 100.095 112.741 100.636C112.741 101.182 112.818 101.669 112.974 102.097C113.133 102.521 113.366 102.856 113.673 103.102C113.983 103.345 114.364 103.466 114.815 103.466ZM121.08 105V96.2727H123.137V105H121.08ZM122.114 95.0341C121.789 95.0341 121.508 94.9261 121.273 94.7102C121.039 94.4905 120.921 94.2273 120.921 93.9205C120.921 93.6098 121.039 93.3466 121.273 93.1307C121.508 92.911 121.789 92.8011 122.114 92.8011C122.444 92.8011 122.724 92.911 122.955 93.1307C123.19 93.3466 123.308 93.6098 123.308 93.9205C123.308 94.2273 123.19 94.4905 122.955 94.7102C122.724 94.9261 122.444 95.0341 122.114 95.0341ZM127.763 105.176C127.21 105.176 126.712 105.078 126.269 104.881C125.83 104.68 125.481 104.384 125.224 103.994C124.97 103.604 124.843 103.123 124.843 102.551C124.843 102.059 124.934 101.652 125.116 101.33C125.298 101.008 125.546 100.75 125.86 100.557C126.174 100.364 126.529 100.218 126.923 100.119C127.32 100.017 127.731 99.9432 128.156 99.8977C128.667 99.8447 129.082 99.7973 129.4 99.7557C129.718 99.7102 129.949 99.642 130.093 99.5511C130.241 99.4564 130.315 99.3106 130.315 99.1136V99.0795C130.315 98.6515 130.188 98.3201 129.934 98.0852C129.68 97.8504 129.315 97.733 128.837 97.733C128.334 97.733 127.934 97.8428 127.638 98.0625C127.347 98.2822 127.15 98.5417 127.048 98.8409L125.127 98.5682C125.279 98.0379 125.529 97.5947 125.877 97.2386C126.226 96.8788 126.652 96.6098 127.156 96.4318C127.659 96.25 128.216 96.1591 128.826 96.1591C129.246 96.1591 129.665 96.2083 130.082 96.3068C130.498 96.4053 130.879 96.5682 131.224 96.7955C131.568 97.0189 131.845 97.3239 132.053 97.7102C132.265 98.0966 132.371 98.5795 132.371 99.1591V105H130.394V103.801H130.326C130.201 104.044 130.025 104.271 129.798 104.483C129.574 104.691 129.292 104.86 128.951 104.989C128.614 105.114 128.218 105.176 127.763 105.176ZM128.298 103.665C128.71 103.665 129.068 103.583 129.371 103.42C129.674 103.254 129.907 103.034 130.07 102.761C130.237 102.489 130.32 102.191 130.32 101.869V100.841C130.256 100.894 130.146 100.943 129.991 100.989C129.839 101.034 129.669 101.074 129.479 101.108C129.29 101.142 129.103 101.172 128.917 101.199C128.731 101.225 128.57 101.248 128.434 101.267C128.127 101.309 127.853 101.377 127.61 101.472C127.368 101.566 127.176 101.699 127.036 101.869C126.896 102.036 126.826 102.252 126.826 102.517C126.826 102.896 126.964 103.182 127.241 103.375C127.517 103.568 127.87 103.665 128.298 103.665ZM138.798 96.2727V97.8636H133.781V96.2727H138.798ZM135.019 94.1818H137.076V102.375C137.076 102.652 137.118 102.864 137.201 103.011C137.288 103.155 137.402 103.254 137.542 103.307C137.682 103.36 137.837 103.386 138.008 103.386C138.137 103.386 138.254 103.377 138.36 103.358C138.47 103.339 138.553 103.322 138.61 103.307L138.957 104.915C138.847 104.953 138.69 104.994 138.485 105.04C138.284 105.085 138.038 105.112 137.746 105.119C137.231 105.134 136.767 105.057 136.354 104.886C135.942 104.712 135.614 104.443 135.371 104.08C135.133 103.716 135.015 103.261 135.019 102.716V94.1818ZM144.288 105.17C143.413 105.17 142.657 104.989 142.021 104.625C141.388 104.258 140.901 103.739 140.56 103.068C140.219 102.394 140.049 101.6 140.049 100.688C140.049 99.7898 140.219 99.0019 140.56 98.3239C140.905 97.642 141.386 97.1117 142.004 96.733C142.621 96.3504 143.346 96.1591 144.18 96.1591C144.718 96.1591 145.225 96.2462 145.702 96.4205C146.183 96.5909 146.608 96.8561 146.975 97.2159C147.346 97.5758 147.638 98.0341 147.85 98.5909C148.062 99.1439 148.168 99.803 148.168 100.568V101.199H141.015V99.8125H146.197C146.193 99.4186 146.108 99.0682 145.941 98.7614C145.774 98.4508 145.541 98.2064 145.242 98.0284C144.947 97.8504 144.602 97.7614 144.208 97.7614C143.788 97.7614 143.418 97.8636 143.1 98.0682C142.782 98.2689 142.534 98.5341 142.356 98.8636C142.182 99.1894 142.093 99.5473 142.089 99.9375V101.148C142.089 101.655 142.182 102.091 142.367 102.455C142.553 102.814 142.812 103.091 143.146 103.284C143.479 103.473 143.869 103.568 144.316 103.568C144.615 103.568 144.886 103.527 145.129 103.443C145.371 103.356 145.581 103.229 145.759 103.062C145.937 102.896 146.072 102.689 146.163 102.443L148.083 102.659C147.962 103.167 147.731 103.61 147.39 103.989C147.053 104.364 146.621 104.655 146.094 104.864C145.568 105.068 144.966 105.17 144.288 105.17Z" fill="black"/>
<path d="M82.9205 57V45.3636H83.9375V49.9375H84.0284C84.142 49.6761 84.3049 49.4072 84.517 49.1307C84.733 48.8542 85.0152 48.6231 85.3636 48.4375C85.7159 48.2481 86.1591 48.1534 86.6932 48.1534C87.4091 48.1534 88.0379 48.3428 88.5795 48.7216C89.1212 49.0966 89.5436 49.6231 89.8466 50.3011C90.1496 50.9754 90.3011 51.7614 90.3011 52.6591C90.3011 53.5606 90.1496 54.3504 89.8466 55.0284C89.5473 55.7064 89.1269 56.2348 88.5852 56.6136C88.0473 56.9924 87.4223 57.1818 86.7102 57.1818C86.1799 57.1818 85.7367 57.0871 85.3807 56.8977C85.0284 56.7083 84.7443 56.4754 84.5284 56.1989C84.3125 55.9186 84.1458 55.6458 84.0284 55.3807H83.9034V57H82.9205ZM83.9205 52.642C83.9205 53.3466 84.0246 53.9716 84.233 54.517C84.4451 55.0587 84.7481 55.4848 85.142 55.7955C85.5398 56.1023 86.0208 56.2557 86.5852 56.2557C87.1648 56.2557 87.6553 56.0966 88.0568 55.7784C88.4583 55.4564 88.7633 55.0227 88.9716 54.4773C89.1799 53.9318 89.2841 53.3201 89.2841 52.642C89.2841 51.9716 89.1799 51.3674 88.9716 50.8295C88.767 50.2917 88.464 49.8655 88.0625 49.5511C87.661 49.233 87.1686 49.0739 86.5852 49.0739C86.017 49.0739 85.5341 49.2273 85.1364 49.5341C84.7424 49.8371 84.4413 50.2576 84.233 50.7955C84.0246 51.3295 83.9205 51.9451 83.9205 52.642ZM94.9602 57.1989C94.4337 57.1989 93.9527 57.0966 93.517 56.892C93.0814 56.6837 92.7348 56.3845 92.4773 55.9943C92.2197 55.6004 92.0909 55.1231 92.0909 54.5625C92.0909 54.1307 92.1723 53.767 92.3352 53.4716C92.4981 53.1761 92.7292 52.9337 93.0284 52.7443C93.3277 52.5549 93.6818 52.4053 94.0909 52.2955C94.5 52.1856 94.9508 52.1004 95.4432 52.0398C95.9318 51.9792 96.3447 51.9261 96.6818 51.8807C97.0227 51.8352 97.2822 51.7633 97.4602 51.6648C97.6383 51.5663 97.7273 51.4072 97.7273 51.1875V50.983C97.7273 50.3883 97.5492 49.9205 97.1932 49.5795C96.8409 49.2348 96.3333 49.0625 95.6705 49.0625C95.0417 49.0625 94.5284 49.2008 94.1307 49.4773C93.7367 49.7538 93.4602 50.0795 93.3011 50.4545L92.3409 50.108C92.5379 49.6307 92.8106 49.25 93.1591 48.9659C93.5076 48.678 93.8977 48.4716 94.3295 48.3466C94.7614 48.2178 95.1989 48.1534 95.642 48.1534C95.9754 48.1534 96.322 48.197 96.6818 48.2841C97.0455 48.3712 97.3826 48.5227 97.6932 48.7386C98.0038 48.9508 98.2557 49.2481 98.4489 49.6307C98.642 50.0095 98.7386 50.4905 98.7386 51.0739V57H97.7273V55.6193H97.6648C97.5436 55.8769 97.3636 56.1269 97.125 56.3693C96.8864 56.6117 96.5871 56.8106 96.2273 56.9659C95.8674 57.1212 95.4451 57.1989 94.9602 57.1989ZM95.0966 56.2727C95.6345 56.2727 96.1004 56.1534 96.4943 55.9148C96.8883 55.6761 97.1913 55.3598 97.4034 54.9659C97.6193 54.5682 97.7273 54.1307 97.7273 53.6534V52.392C97.6515 52.464 97.5246 52.5284 97.3466 52.5852C97.1723 52.642 96.9697 52.6932 96.7386 52.7386C96.5114 52.7803 96.2841 52.8163 96.0568 52.8466C95.8295 52.8769 95.625 52.9034 95.4432 52.9261C94.9508 52.9867 94.5303 53.0814 94.1818 53.2102C93.8333 53.339 93.5663 53.517 93.3807 53.7443C93.1951 53.9678 93.1023 54.2557 93.1023 54.608C93.1023 55.1383 93.2917 55.5492 93.6705 55.8409C94.0492 56.1288 94.5246 56.2727 95.0966 56.2727ZM107.293 50.1875L106.366 50.4489C106.276 50.1875 106.147 49.9508 105.98 49.7386C105.813 49.5265 105.596 49.358 105.327 49.233C105.062 49.108 104.732 49.0455 104.338 49.0455C103.747 49.0455 103.262 49.1856 102.884 49.4659C102.505 49.7462 102.315 50.108 102.315 50.5511C102.315 50.9261 102.444 51.2311 102.702 51.4659C102.963 51.697 103.365 51.8807 103.906 52.017L105.224 52.3409C105.955 52.5189 106.503 52.8011 106.866 53.1875C107.234 53.5739 107.418 54.0587 107.418 54.642C107.418 55.1345 107.281 55.572 107.009 55.9545C106.736 56.3371 106.355 56.6383 105.866 56.858C105.382 57.0739 104.819 57.1818 104.179 57.1818C103.327 57.1818 102.624 56.9905 102.071 56.608C101.518 56.2216 101.164 55.6648 101.009 54.9375L101.98 54.6989C102.105 55.2178 102.349 55.6098 102.713 55.875C103.08 56.1402 103.563 56.2727 104.162 56.2727C104.832 56.2727 105.368 56.1231 105.77 55.8239C106.171 55.5208 106.372 55.142 106.372 54.6875C106.372 54.3352 106.255 54.0398 106.02 53.8011C105.785 53.5587 105.429 53.3807 104.952 53.267L103.526 52.9261C102.768 52.7443 102.207 52.4564 101.844 52.0625C101.48 51.6686 101.298 51.1799 101.298 50.5966C101.298 50.1155 101.429 49.6932 101.69 49.3295C101.952 48.9621 102.312 48.6742 102.77 48.4659C103.228 48.2576 103.751 48.1534 104.338 48.1534C105.137 48.1534 105.776 48.3352 106.253 48.6989C106.734 49.0587 107.08 49.5549 107.293 50.1875ZM110.643 51.5455V57H109.632V45.3636H110.643V49.642H110.734C110.939 49.1913 111.255 48.8314 111.683 48.5625C112.115 48.2936 112.661 48.1591 113.32 48.1591C113.911 48.1591 114.429 48.2803 114.876 48.5227C115.323 48.7652 115.672 49.1231 115.922 49.5966C116.172 50.0701 116.297 50.6534 116.297 51.3466V57H115.28V51.4091C115.28 50.6894 115.079 50.1231 114.678 49.7102C114.28 49.2936 113.742 49.0852 113.064 49.0852C112.598 49.0852 112.183 49.1837 111.82 49.3807C111.456 49.5777 111.168 49.8617 110.956 50.233C110.748 50.6004 110.643 51.0379 110.643 51.5455Z" fill="black"/>
<path d="M69.3239 142.364V154H68.2614V143.477H68.1932L65.4659 145.29V144.188L68.2159 142.364H69.3239ZM73.017 154.085C72.7936 154.085 72.6004 154.006 72.4375 153.847C72.2784 153.684 72.1989 153.491 72.1989 153.267C72.1989 153.04 72.2784 152.847 72.4375 152.688C72.6004 152.528 72.7936 152.449 73.017 152.449C73.2443 152.449 73.4375 152.528 73.5966 152.688C73.7557 152.847 73.8352 153.04 73.8352 153.267C73.8352 153.415 73.7973 153.551 73.7216 153.676C73.6496 153.801 73.5511 153.902 73.4261 153.977C73.3049 154.049 73.1686 154.085 73.017 154.085ZM79.7145 154.159C79.0668 154.159 78.4872 154.028 77.9759 153.767C77.4683 153.502 77.063 153.138 76.7599 152.676C76.4607 152.214 76.3016 151.686 76.2827 151.091H77.3111C77.3452 151.708 77.5876 152.216 78.0384 152.614C78.4891 153.008 79.0478 153.205 79.7145 153.205C80.2334 153.205 80.6955 153.081 81.1009 152.835C81.5062 152.585 81.8224 152.244 82.0497 151.812C82.2808 151.377 82.3963 150.886 82.3963 150.341C82.3925 149.773 82.2694 149.273 82.027 148.841C81.7846 148.405 81.455 148.064 81.0384 147.818C80.6255 147.572 80.1615 147.449 79.6463 147.449C79.2562 147.445 78.8736 147.509 78.4986 147.642C78.1236 147.775 77.8111 147.945 77.5611 148.153L76.4986 148.017L77.1974 142.364H82.9474V143.318H78.0895L77.6236 147.21H77.6804C77.938 146.994 78.2505 146.818 78.6179 146.682C78.9891 146.545 79.3812 146.477 79.794 146.477C80.4796 146.477 81.0952 146.642 81.6406 146.972C82.1899 147.301 82.6236 147.756 82.9418 148.335C83.2637 148.911 83.4247 149.574 83.4247 150.324C83.4247 151.059 83.2637 151.716 82.9418 152.295C82.6236 152.871 82.1842 153.326 81.6236 153.659C81.0668 153.992 80.4304 154.159 79.7145 154.159ZM91.0866 157.273C90.8859 157.273 90.6984 157.254 90.5241 157.216C90.3499 157.178 90.2116 157.136 90.1094 157.091L90.3821 156.199C90.7268 156.305 91.0336 156.343 91.3026 156.312C91.5715 156.286 91.8101 156.165 92.0185 155.949C92.2268 155.737 92.4124 155.411 92.5753 154.972L92.8935 154.085L89.6832 145.273H90.7798L93.3707 152.665H93.4503L96.0412 145.273H97.1378L93.4446 155.381C93.2893 155.801 93.098 156.152 92.8707 156.432C92.6435 156.716 92.3802 156.926 92.081 157.062C91.7855 157.203 91.4541 157.273 91.0866 157.273ZM102.332 154.182C101.518 154.182 100.813 153.992 100.219 153.614C99.6241 153.231 99.1638 152.703 98.8381 152.028C98.5161 151.35 98.3551 150.57 98.3551 149.688C98.3551 148.809 98.5161 148.028 98.8381 147.347C99.1638 146.661 99.6127 146.125 100.185 145.739C100.76 145.348 101.425 145.153 102.179 145.153C102.652 145.153 103.109 145.241 103.548 145.415C103.988 145.585 104.382 145.848 104.73 146.205C105.082 146.557 105.361 147.002 105.565 147.54C105.77 148.074 105.872 148.706 105.872 149.438V149.938H99.054V149.045H104.838C104.838 148.485 104.724 147.981 104.497 147.534C104.274 147.083 103.961 146.727 103.56 146.466C103.162 146.205 102.702 146.074 102.179 146.074C101.626 146.074 101.139 146.222 100.719 146.517C100.298 146.812 99.9688 147.203 99.7301 147.688C99.4953 148.172 99.3759 148.703 99.3722 149.278V149.812C99.3722 150.506 99.4915 151.112 99.7301 151.631C99.9725 152.146 100.315 152.545 100.759 152.83C101.202 153.114 101.726 153.256 102.332 153.256C102.745 153.256 103.107 153.191 103.418 153.062C103.732 152.934 103.995 152.761 104.207 152.545C104.423 152.326 104.586 152.085 104.696 151.824L105.656 152.136C105.524 152.504 105.306 152.843 105.003 153.153C104.704 153.464 104.329 153.714 103.878 153.903C103.431 154.089 102.916 154.182 102.332 154.182ZM110.538 154.199C110.012 154.199 109.531 154.097 109.095 153.892C108.66 153.684 108.313 153.384 108.055 152.994C107.798 152.6 107.669 152.123 107.669 151.562C107.669 151.131 107.75 150.767 107.913 150.472C108.076 150.176 108.307 149.934 108.607 149.744C108.906 149.555 109.26 149.405 109.669 149.295C110.078 149.186 110.529 149.1 111.021 149.04C111.51 148.979 111.923 148.926 112.26 148.881C112.601 148.835 112.86 148.763 113.038 148.665C113.216 148.566 113.305 148.407 113.305 148.188V147.983C113.305 147.388 113.127 146.92 112.771 146.58C112.419 146.235 111.911 146.062 111.249 146.062C110.62 146.062 110.107 146.201 109.709 146.477C109.315 146.754 109.038 147.08 108.879 147.455L107.919 147.108C108.116 146.631 108.389 146.25 108.737 145.966C109.086 145.678 109.476 145.472 109.908 145.347C110.339 145.218 110.777 145.153 111.22 145.153C111.554 145.153 111.9 145.197 112.26 145.284C112.624 145.371 112.961 145.523 113.271 145.739C113.582 145.951 113.834 146.248 114.027 146.631C114.22 147.009 114.317 147.491 114.317 148.074V154H113.305V152.619H113.243C113.122 152.877 112.942 153.127 112.703 153.369C112.464 153.612 112.165 153.811 111.805 153.966C111.446 154.121 111.023 154.199 110.538 154.199ZM110.675 153.273C111.213 153.273 111.679 153.153 112.072 152.915C112.466 152.676 112.769 152.36 112.982 151.966C113.197 151.568 113.305 151.131 113.305 150.653V149.392C113.23 149.464 113.103 149.528 112.925 149.585C112.75 149.642 112.548 149.693 112.317 149.739C112.089 149.78 111.862 149.816 111.635 149.847C111.408 149.877 111.203 149.903 111.021 149.926C110.529 149.987 110.108 150.081 109.76 150.21C109.411 150.339 109.144 150.517 108.959 150.744C108.773 150.968 108.68 151.256 108.68 151.608C108.68 152.138 108.87 152.549 109.249 152.841C109.627 153.129 110.103 153.273 110.675 153.273ZM117.007 154V145.273H117.99V146.614H118.064C118.238 146.174 118.541 145.82 118.973 145.551C119.409 145.278 119.901 145.142 120.45 145.142C120.534 145.142 120.626 145.144 120.729 145.148C120.831 145.152 120.916 145.155 120.984 145.159V146.188C120.939 146.18 120.859 146.169 120.746 146.153C120.632 146.138 120.509 146.131 120.376 146.131C119.922 146.131 119.517 146.227 119.161 146.42C118.808 146.61 118.53 146.873 118.325 147.21C118.121 147.547 118.018 147.932 118.018 148.364V154H117.007ZM125.942 141.818L122.192 155.75H121.243L124.993 141.818H125.942ZM133.558 147.188L132.632 147.449C132.541 147.187 132.412 146.951 132.246 146.739C132.079 146.527 131.861 146.358 131.592 146.233C131.327 146.108 130.998 146.045 130.604 146.045C130.013 146.045 129.528 146.186 129.149 146.466C128.77 146.746 128.581 147.108 128.581 147.551C128.581 147.926 128.71 148.231 128.967 148.466C129.229 148.697 129.63 148.881 130.172 149.017L131.49 149.341C132.221 149.519 132.768 149.801 133.132 150.188C133.5 150.574 133.683 151.059 133.683 151.642C133.683 152.134 133.547 152.572 133.274 152.955C133.001 153.337 132.621 153.638 132.132 153.858C131.647 154.074 131.085 154.182 130.445 154.182C129.592 154.182 128.89 153.991 128.337 153.608C127.784 153.222 127.429 152.665 127.274 151.938L128.246 151.699C128.371 152.218 128.615 152.61 128.979 152.875C129.346 153.14 129.829 153.273 130.428 153.273C131.098 153.273 131.634 153.123 132.036 152.824C132.437 152.521 132.638 152.142 132.638 151.688C132.638 151.335 132.52 151.04 132.286 150.801C132.051 150.559 131.695 150.381 131.217 150.267L129.791 149.926C129.034 149.744 128.473 149.456 128.109 149.062C127.746 148.669 127.564 148.18 127.564 147.597C127.564 147.116 127.695 146.693 127.956 146.33C128.217 145.962 128.577 145.674 129.036 145.466C129.494 145.258 130.017 145.153 130.604 145.153C131.403 145.153 132.041 145.335 132.518 145.699C133 146.059 133.346 146.555 133.558 147.188Z" fill="black"/>
<defs>
<filter id="filter0_d_181_848" x="9.39746" y="0" width="181.205" height="208" filterUnits="userSpaceOnUse" color-interpolation-filters="sRGB">
<feFlood flood-opacity="0" result="BackgroundImageFix"/>
<feColorMatrix in="SourceAlpha" type="matrix" values="0 0 0 0 0 0 0 0 0 0 0 0 0 0 0 0 0 0 127 0" result="hardAlpha"/>
<feOffset dy="4"/>
<feGaussianBlur stdDeviation="2"/>
<feComposite in2="hardAlpha" operator="out"/>
<feColorMatrix type="matrix" values="0 0 0 0 0 0 0 0 0 0 0 0 0 0 0 0 0 0 0.25 0"/>
<feBlend mode="normal" in2="BackgroundImageFix" result="effect1_dropShadow_181_848"/>
<feBlend mode="normal" in="SourceGraphic" in2="effect1_dropShadow_181_848" result="shape"/>
</filter>
</defs>
</svg>
