<svg width="200" height="208" viewBox="0 0 200 208" fill="none" xmlns="http://www.w3.org/2000/svg">
<g filter="url(#filter0_d_181_860)">
<path d="M100 0L186.603 50V150L100 200L13.3975 150V50L100 0Z" fill="white"/>
<path d="M14.3975 50.5774L100 1.1547L185.603 50.5774V149.423L100 198.845L14.3975 149.423V50.5774Z" stroke="#2CC140" stroke-width="2"/>
</g>
<path d="M53.4041 93.3636V105H51.2962V93.3636H53.4041ZM57.6527 99.8864V105H55.5959V96.2727H57.5618V97.7557H57.6641C57.8648 97.267 58.1849 96.8788 58.6243 96.5909C59.0675 96.303 59.6148 96.1591 60.2663 96.1591C60.8686 96.1591 61.3932 96.2879 61.8402 96.5455C62.291 96.803 62.6394 97.1761 62.8857 97.6648C63.1357 98.1534 63.2588 98.7462 63.255 99.4432V105H61.1982V99.7614C61.1982 99.178 61.0466 98.7216 60.7436 98.392C60.4444 98.0625 60.0296 97.8977 59.4993 97.8977C59.1394 97.8977 58.8194 97.9773 58.5391 98.1364C58.2625 98.2917 58.0447 98.517 57.8857 98.8125C57.7304 99.108 57.6527 99.4659 57.6527 99.8864ZM69.7038 96.2727V97.8636H64.6868V96.2727H69.7038ZM65.9254 94.1818H67.9822V102.375C67.9822 102.652 68.0239 102.864 68.1072 103.011C68.1944 103.155 68.308 103.254 68.4482 103.307C68.5883 103.36 68.7436 103.386 68.9141 103.386C69.0429 103.386 69.1603 103.377 69.2663 103.358C69.3762 103.339 69.4595 103.322 69.5163 103.307L69.8629 104.915C69.7531 104.953 69.5959 104.994 69.3913 105.04C69.1906 105.085 68.9444 105.112 68.6527 105.119C68.1375 105.134 67.6735 105.057 67.2607 104.886C66.8478 104.712 66.5201 104.443 66.2777 104.08C66.0391 103.716 65.9216 103.261 65.9254 102.716V94.1818ZM75.1939 105.17C74.3189 105.17 73.5632 104.989 72.9268 104.625C72.2943 104.258 71.8075 103.739 71.4666 103.068C71.1257 102.394 70.9553 101.6 70.9553 100.688C70.9553 99.7898 71.1257 99.0019 71.4666 98.3239C71.8113 97.642 72.2924 97.1117 72.9098 96.733C73.5272 96.3504 74.2526 96.1591 75.0859 96.1591C75.6238 96.1591 76.1314 96.2462 76.6087 96.4205C77.0897 96.5909 77.514 96.8561 77.8814 97.2159C78.2526 97.5758 78.5443 98.0341 78.7564 98.5909C78.9685 99.1439 79.0746 99.803 79.0746 100.568V101.199H71.9212V99.8125H77.103C77.0992 99.4186 77.014 99.0682 76.8473 98.7614C76.6806 98.4508 76.4477 98.2064 76.1484 98.0284C75.853 97.8504 75.5083 97.7614 75.1143 97.7614C74.6939 97.7614 74.3246 97.8636 74.0064 98.0682C73.6882 98.2689 73.4401 98.5341 73.2621 98.8636C73.0878 99.1894 72.9988 99.5473 72.995 99.9375V101.148C72.995 101.655 73.0878 102.091 73.2734 102.455C73.459 102.814 73.7185 103.091 74.0518 103.284C74.3852 103.473 74.7753 103.568 75.2223 103.568C75.5215 103.568 75.7924 103.527 76.0348 103.443C76.2772 103.356 76.4875 103.229 76.6655 103.062C76.8435 102.896 76.978 102.689 77.0689 102.443L78.9893 102.659C78.8681 103.167 78.6371 103.61 78.2962 103.989C77.959 104.364 77.5272 104.655 77.0007 104.864C76.4742 105.068 75.8719 105.17 75.1939 105.17ZM80.8146 105V96.2727H82.8089V97.7273H82.8999C83.0589 97.2235 83.3317 96.8352 83.718 96.5625C84.1082 96.286 84.5533 96.1477 85.0533 96.1477C85.1669 96.1477 85.2938 96.1534 85.4339 96.1648C85.5779 96.1723 85.6972 96.1856 85.7919 96.2045V98.0966C85.7048 98.0663 85.5665 98.0398 85.3771 98.017C85.1915 97.9905 85.0116 97.9773 84.8374 97.9773C84.4624 97.9773 84.1252 98.0587 83.826 98.2216C83.5305 98.3807 83.2976 98.6023 83.1271 98.8864C82.9567 99.1705 82.8714 99.4981 82.8714 99.8693V105H80.8146ZM87.1584 105V96.2727H89.1243V97.7557H89.2266C89.4084 97.2557 89.7095 96.8655 90.13 96.5852C90.5504 96.3011 91.0523 96.1591 91.6357 96.1591C92.2266 96.1591 92.7247 96.303 93.13 96.5909C93.5391 96.875 93.8269 97.2633 93.9936 97.7557H94.0845C94.2777 97.2708 94.6035 96.8845 95.0618 96.5966C95.5239 96.3049 96.0713 96.1591 96.7038 96.1591C97.5069 96.1591 98.1622 96.4129 98.6697 96.9205C99.1773 97.428 99.4311 98.1686 99.4311 99.142V105H97.3686V99.4602C97.3686 98.9186 97.2247 98.5227 96.9368 98.2727C96.6489 98.0189 96.2966 97.892 95.88 97.892C95.3838 97.892 94.9955 98.0473 94.7152 98.358C94.4387 98.6648 94.3004 99.0644 94.3004 99.5568V105H92.2834V99.375C92.2834 98.9242 92.147 98.5644 91.8743 98.2955C91.6054 98.0265 91.2531 97.892 90.8175 97.892C90.522 97.892 90.2531 97.9678 90.0107 98.1193C89.7682 98.267 89.575 98.4773 89.4311 98.75C89.2872 99.0189 89.2152 99.3333 89.2152 99.6932V105H87.1584ZM105.381 105.17C104.506 105.17 103.751 104.989 103.114 104.625C102.482 104.258 101.995 103.739 101.654 103.068C101.313 102.394 101.143 101.6 101.143 100.688C101.143 99.7898 101.313 99.0019 101.654 98.3239C101.999 97.642 102.48 97.1117 103.097 96.733C103.715 96.3504 104.44 96.1591 105.273 96.1591C105.811 96.1591 106.319 96.2462 106.796 96.4205C107.277 96.5909 107.701 96.8561 108.069 97.2159C108.44 97.5758 108.732 98.0341 108.944 98.5909C109.156 99.1439 109.262 99.803 109.262 100.568V101.199H102.109V99.8125H107.29C107.287 99.4186 107.201 99.0682 107.035 98.7614C106.868 98.4508 106.635 98.2064 106.336 98.0284C106.04 97.8504 105.696 97.7614 105.302 97.7614C104.881 97.7614 104.512 97.8636 104.194 98.0682C103.876 98.2689 103.628 98.5341 103.45 98.8636C103.275 99.1894 103.186 99.5473 103.183 99.9375V101.148C103.183 101.655 103.275 102.091 103.461 102.455C103.647 102.814 103.906 103.091 104.239 103.284C104.573 103.473 104.963 103.568 105.41 103.568C105.709 103.568 105.98 103.527 106.222 103.443C106.465 103.356 106.675 103.229 106.853 103.062C107.031 102.896 107.165 102.689 107.256 102.443L109.177 102.659C109.056 103.167 108.825 103.61 108.484 103.989C108.147 104.364 107.715 104.655 107.188 104.864C106.662 105.068 106.059 105.17 105.381 105.17ZM114.241 105.153C113.555 105.153 112.942 104.977 112.4 104.625C111.858 104.273 111.43 103.761 111.116 103.091C110.801 102.42 110.644 101.606 110.644 100.648C110.644 99.678 110.803 98.8598 111.121 98.1932C111.443 97.5227 111.877 97.017 112.423 96.6761C112.968 96.3314 113.576 96.1591 114.246 96.1591C114.758 96.1591 115.178 96.2462 115.508 96.4205C115.837 96.5909 116.099 96.7973 116.292 97.0398C116.485 97.2784 116.635 97.5038 116.741 97.7159H116.826V93.3636H118.888V105H116.866V103.625H116.741C116.635 103.837 116.481 104.062 116.281 104.301C116.08 104.536 115.815 104.737 115.485 104.903C115.156 105.07 114.741 105.153 114.241 105.153ZM114.815 103.466C115.25 103.466 115.621 103.348 115.928 103.114C116.235 102.875 116.468 102.544 116.627 102.119C116.786 101.695 116.866 101.201 116.866 100.636C116.866 100.072 116.786 99.5814 116.627 99.1648C116.472 98.7481 116.241 98.4242 115.934 98.1932C115.631 97.9621 115.258 97.8466 114.815 97.8466C114.356 97.8466 113.974 97.9659 113.667 98.2045C113.36 98.4432 113.129 98.7727 112.974 99.1932C112.818 99.6136 112.741 100.095 112.741 100.636C112.741 101.182 112.818 101.669 112.974 102.097C113.133 102.521 113.366 102.856 113.673 103.102C113.983 103.345 114.364 103.466 114.815 103.466ZM121.08 105V96.2727H123.137V105H121.08ZM122.114 95.0341C121.789 95.0341 121.508 94.9261 121.273 94.7102C121.039 94.4905 120.921 94.2273 120.921 93.9205C120.921 93.6098 121.039 93.3466 121.273 93.1307C121.508 92.911 121.789 92.8011 122.114 92.8011C122.444 92.8011 122.724 92.911 122.955 93.1307C123.19 93.3466 123.308 93.6098 123.308 93.9205C123.308 94.2273 123.19 94.4905 122.955 94.7102C122.724 94.9261 122.444 95.0341 122.114 95.0341ZM127.763 105.176C127.21 105.176 126.712 105.078 126.269 104.881C125.83 104.68 125.481 104.384 125.224 103.994C124.97 103.604 124.843 103.123 124.843 102.551C124.843 102.059 124.934 101.652 125.116 101.33C125.298 101.008 125.546 100.75 125.86 100.557C126.174 100.364 126.529 100.218 126.923 100.119C127.32 100.017 127.731 99.9432 128.156 99.8977C128.667 99.8447 129.082 99.7973 129.4 99.7557C129.718 99.7102 129.949 99.642 130.093 99.5511C130.241 99.4564 130.315 99.3106 130.315 99.1136V99.0795C130.315 98.6515 130.188 98.3201 129.934 98.0852C129.68 97.8504 129.315 97.733 128.837 97.733C128.334 97.733 127.934 97.8428 127.638 98.0625C127.347 98.2822 127.15 98.5417 127.048 98.8409L125.127 98.5682C125.279 98.0379 125.529 97.5947 125.877 97.2386C126.226 96.8788 126.652 96.6098 127.156 96.4318C127.659 96.25 128.216 96.1591 128.826 96.1591C129.246 96.1591 129.665 96.2083 130.082 96.3068C130.498 96.4053 130.879 96.5682 131.224 96.7955C131.568 97.0189 131.845 97.3239 132.053 97.7102C132.265 98.0966 132.371 98.5795 132.371 99.1591V105H130.394V103.801H130.326C130.201 104.044 130.025 104.271 129.798 104.483C129.574 104.691 129.292 104.86 128.951 104.989C128.614 105.114 128.218 105.176 127.763 105.176ZM128.298 103.665C128.71 103.665 129.068 103.583 129.371 103.42C129.674 103.254 129.907 103.034 130.07 102.761C130.237 102.489 130.32 102.191 130.32 101.869V100.841C130.256 100.894 130.146 100.943 129.991 100.989C129.839 101.034 129.669 101.074 129.479 101.108C129.29 101.142 129.103 101.172 128.917 101.199C128.731 101.225 128.57 101.248 128.434 101.267C128.127 101.309 127.853 101.377 127.61 101.472C127.368 101.566 127.176 101.699 127.036 101.869C126.896 102.036 126.826 102.252 126.826 102.517C126.826 102.896 126.964 103.182 127.241 103.375C127.517 103.568 127.87 103.665 128.298 103.665ZM138.798 96.2727V97.8636H133.781V96.2727H138.798ZM135.019 94.1818H137.076V102.375C137.076 102.652 137.118 102.864 137.201 103.011C137.288 103.155 137.402 103.254 137.542 103.307C137.682 103.36 137.837 103.386 138.008 103.386C138.137 103.386 138.254 103.377 138.36 103.358C138.47 103.339 138.553 103.322 138.61 103.307L138.957 104.915C138.847 104.953 138.69 104.994 138.485 105.04C138.284 105.085 138.038 105.112 137.746 105.119C137.231 105.134 136.767 105.057 136.354 104.886C135.942 104.712 135.614 104.443 135.371 104.08C135.133 103.716 135.015 103.261 135.019 102.716V94.1818ZM144.288 105.17C143.413 105.17 142.657 104.989 142.021 104.625C141.388 104.258 140.901 103.739 140.56 103.068C140.219 102.394 140.049 101.6 140.049 100.688C140.049 99.7898 140.219 99.0019 140.56 98.3239C140.905 97.642 141.386 97.1117 142.004 96.733C142.621 96.3504 143.346 96.1591 144.18 96.1591C144.718 96.1591 145.225 96.2462 145.702 96.4205C146.183 96.5909 146.608 96.8561 146.975 97.2159C147.346 97.5758 147.638 98.0341 147.85 98.5909C148.062 99.1439 148.168 99.803 148.168 100.568V101.199H141.015V99.8125H146.197C146.193 99.4186 146.108 99.0682 145.941 98.7614C145.774 98.4508 145.541 98.2064 145.242 98.0284C144.947 97.8504 144.602 97.7614 144.208 97.7614C143.788 97.7614 143.418 97.8636 143.1 98.0682C142.782 98.2689 142.534 98.5341 142.356 98.8636C142.182 99.1894 142.093 99.5473 142.089 99.9375V101.148C142.089 101.655 142.182 102.091 142.367 102.455C142.553 102.814 142.812 103.091 143.146 103.284C143.479 103.473 143.869 103.568 144.316 103.568C144.615 103.568 144.886 103.527 145.129 103.443C145.371 103.356 145.581 103.229 145.759 103.062C145.937 102.896 146.072 102.689 146.163 102.443L148.083 102.659C147.962 103.167 147.731 103.61 147.39 103.989C147.053 104.364 146.621 104.655 146.094 104.864C145.568 105.068 144.966 105.17 144.288 105.17Z" fill="black"/>
<path d="M72.608 57V45.3636H73.625V49.9375H73.7159C73.8295 49.6761 73.9924 49.4072 74.2045 49.1307C74.4205 48.8542 74.7027 48.6231 75.0511 48.4375C75.4034 48.2481 75.8466 48.1534 76.3807 48.1534C77.0966 48.1534 77.7254 48.3428 78.267 48.7216C78.8087 49.0966 79.2311 49.6231 79.5341 50.3011C79.8371 50.9754 79.9886 51.7614 79.9886 52.6591C79.9886 53.5606 79.8371 54.3504 79.5341 55.0284C79.2348 55.7064 78.8144 56.2348 78.2727 56.6136C77.7348 56.9924 77.1098 57.1818 76.3977 57.1818C75.8674 57.1818 75.4242 57.0871 75.0682 56.8977C74.7159 56.7083 74.4318 56.4754 74.2159 56.1989C74 55.9186 73.8333 55.6458 73.7159 55.3807H73.5909V57H72.608ZM73.608 52.642C73.608 53.3466 73.7121 53.9716 73.9205 54.517C74.1326 55.0587 74.4356 55.4848 74.8295 55.7955C75.2273 56.1023 75.7083 56.2557 76.2727 56.2557C76.8523 56.2557 77.3428 56.0966 77.7443 55.7784C78.1458 55.4564 78.4508 55.0227 78.6591 54.4773C78.8674 53.9318 78.9716 53.3201 78.9716 52.642C78.9716 51.9716 78.8674 51.3674 78.6591 50.8295C78.4545 50.2917 78.1515 49.8655 77.75 49.5511C77.3485 49.233 76.8561 49.0739 76.2727 49.0739C75.7045 49.0739 75.2216 49.2273 74.8239 49.5341C74.4299 49.8371 74.1288 50.2576 73.9205 50.7955C73.7121 51.3295 73.608 51.9451 73.608 52.642ZM83.2216 45.3636V57H82.2102V45.3636H83.2216ZM89.4261 57.1818C88.6117 57.1818 87.9072 56.9924 87.3125 56.6136C86.7178 56.2311 86.2576 55.7027 85.9318 55.0284C85.6098 54.3504 85.4489 53.5701 85.4489 52.6875C85.4489 51.8087 85.6098 51.0284 85.9318 50.3466C86.2576 49.661 86.7064 49.125 87.2784 48.7386C87.8542 48.3485 88.5189 48.1534 89.2727 48.1534C89.7462 48.1534 90.2027 48.2405 90.642 48.4148C91.0814 48.5852 91.4754 48.8485 91.8239 49.2045C92.1761 49.5568 92.4545 50.0019 92.6591 50.5398C92.8636 51.0739 92.9659 51.7064 92.9659 52.4375V52.9375H86.1477V52.0455H91.9318C91.9318 51.4848 91.8182 50.9811 91.5909 50.5341C91.3674 50.0833 91.0549 49.7273 90.6534 49.4659C90.2557 49.2045 89.7955 49.0739 89.2727 49.0739C88.7197 49.0739 88.233 49.2216 87.8125 49.517C87.392 49.8125 87.0625 50.2027 86.8239 50.6875C86.589 51.1723 86.4697 51.7027 86.4659 52.2784V52.8125C86.4659 53.5057 86.5852 54.1117 86.8239 54.6307C87.0663 55.1458 87.4091 55.5455 87.8523 55.8295C88.2955 56.1136 88.8201 56.2557 89.4261 56.2557C89.839 56.2557 90.2008 56.1913 90.5114 56.0625C90.8258 55.9337 91.089 55.7614 91.3011 55.5455C91.517 55.3258 91.6799 55.0852 91.7898 54.8239L92.75 55.1364C92.6174 55.5038 92.3996 55.8428 92.0966 56.1534C91.7973 56.464 91.4223 56.714 90.9716 56.9034C90.5246 57.089 90.0095 57.1818 89.4261 57.1818ZM96.206 51.5455V57H95.1946V48.2727H96.1776V49.642H96.2685C96.473 49.1951 96.7912 48.8371 97.223 48.5682C97.6586 48.2955 98.1965 48.1591 98.8366 48.1591C99.4238 48.1591 99.9389 48.2822 100.382 48.5284C100.829 48.7708 101.176 49.1288 101.422 49.6023C101.672 50.0758 101.797 50.6572 101.797 51.3466V57H100.786V51.4091C100.786 50.6932 100.585 50.1269 100.183 49.7102C99.7855 49.2936 99.2514 49.0852 98.581 49.0852C98.1226 49.0852 97.7154 49.1837 97.3594 49.3807C97.0033 49.5777 96.7211 49.8617 96.5128 50.233C96.3082 50.6004 96.206 51.0379 96.206 51.5455ZM107.602 57.1818C106.886 57.1818 106.259 56.9924 105.722 56.6136C105.184 56.2348 104.763 55.7064 104.46 55.0284C104.161 54.3504 104.011 53.5606 104.011 52.6591C104.011 51.7614 104.161 50.9754 104.46 50.3011C104.763 49.6231 105.186 49.0966 105.727 48.7216C106.269 48.3428 106.9 48.1534 107.619 48.1534C108.15 48.1534 108.591 48.2481 108.943 48.4375C109.295 48.6231 109.578 48.8542 109.79 49.1307C110.002 49.4072 110.167 49.6761 110.284 49.9375H110.375V45.3636H111.392V57H110.403V55.3807H110.284C110.167 55.6458 110 55.9186 109.784 56.1989C109.568 56.4754 109.282 56.7083 108.926 56.8977C108.574 57.0871 108.133 57.1818 107.602 57.1818ZM107.722 56.2557C108.286 56.2557 108.767 56.1023 109.165 55.7955C109.563 55.4848 109.866 55.0587 110.074 54.517C110.286 53.9716 110.392 53.3466 110.392 52.642C110.392 51.9451 110.288 51.3295 110.08 50.7955C109.871 50.2576 109.568 49.8371 109.17 49.5341C108.773 49.2273 108.29 49.0739 107.722 49.0739C107.138 49.0739 106.646 49.233 106.244 49.5511C105.847 49.8655 105.544 50.2917 105.335 50.8295C105.131 51.3674 105.028 51.9716 105.028 52.642C105.028 53.3201 105.133 53.9318 105.341 54.4773C105.549 55.0227 105.852 55.4564 106.25 55.7784C106.652 56.0966 107.142 56.2557 107.722 56.2557ZM117.801 57.1818C116.987 57.1818 116.282 56.9924 115.688 56.6136C115.093 56.2311 114.633 55.7027 114.307 55.0284C113.985 54.3504 113.824 53.5701 113.824 52.6875C113.824 51.8087 113.985 51.0284 114.307 50.3466C114.633 49.661 115.081 49.125 115.653 48.7386C116.229 48.3485 116.894 48.1534 117.648 48.1534C118.121 48.1534 118.578 48.2405 119.017 48.4148C119.456 48.5852 119.85 48.8485 120.199 49.2045C120.551 49.5568 120.83 50.0019 121.034 50.5398C121.239 51.0739 121.341 51.7064 121.341 52.4375V52.9375H114.523V52.0455H120.307C120.307 51.4848 120.193 50.9811 119.966 50.5341C119.742 50.0833 119.43 49.7273 119.028 49.4659C118.631 49.2045 118.17 49.0739 117.648 49.0739C117.095 49.0739 116.608 49.2216 116.188 49.517C115.767 49.8125 115.438 50.2027 115.199 50.6875C114.964 51.1723 114.845 51.7027 114.841 52.2784V52.8125C114.841 53.5057 114.96 54.1117 115.199 54.6307C115.441 55.1458 115.784 55.5455 116.227 55.8295C116.67 56.1136 117.195 56.2557 117.801 56.2557C118.214 56.2557 118.576 56.1913 118.886 56.0625C119.201 55.9337 119.464 55.7614 119.676 55.5455C119.892 55.3258 120.055 55.0852 120.165 54.8239L121.125 55.1364C120.992 55.5038 120.775 55.8428 120.472 56.1534C120.172 56.464 119.797 56.714 119.347 56.9034C118.9 57.089 118.384 57.1818 117.801 57.1818ZM123.57 57V48.2727H124.553V49.6136H124.626C124.801 49.1742 125.104 48.8201 125.536 48.5511C125.971 48.2784 126.464 48.142 127.013 48.142C127.096 48.142 127.189 48.1439 127.291 48.1477C127.393 48.1515 127.479 48.1553 127.547 48.1591V49.1875C127.501 49.1799 127.422 49.1686 127.308 49.1534C127.195 49.1383 127.071 49.1307 126.939 49.1307C126.484 49.1307 126.079 49.2273 125.723 49.4205C125.371 49.6098 125.092 49.8731 124.888 50.2102C124.683 50.5473 124.581 50.9318 124.581 51.3636V57H123.57Z" fill="black"/>
<path d="M74.5348 154.159C73.8189 154.159 73.1787 154.03 72.6143 153.773C72.05 153.511 71.603 153.15 71.2734 152.688C70.9439 152.225 70.7696 151.693 70.7507 151.091H71.8246C71.8435 151.515 71.9742 151.886 72.2166 152.205C72.459 152.519 72.781 152.765 73.1825 152.943C73.584 153.117 74.031 153.205 74.5234 153.205C75.0613 153.205 75.5348 153.104 75.9439 152.903C76.3568 152.703 76.6787 152.428 76.9098 152.08C77.1446 151.727 77.2621 151.33 77.2621 150.886C77.2621 150.417 77.1428 150.002 76.9041 149.642C76.6655 149.282 76.3227 149.002 75.8757 148.801C75.4325 148.6 74.9022 148.5 74.2848 148.5H73.603V147.545H74.2848C74.7886 147.545 75.2337 147.455 75.62 147.273C76.0102 147.087 76.317 146.828 76.5405 146.494C76.764 146.161 76.8757 145.769 76.8757 145.318C76.8757 144.89 76.7791 144.513 76.5859 144.188C76.3928 143.862 76.12 143.606 75.7678 143.42C75.4193 143.235 75.0121 143.142 74.5462 143.142C74.0954 143.142 73.6825 143.229 73.3075 143.403C72.9325 143.578 72.6295 143.824 72.3984 144.142C72.1712 144.46 72.05 144.837 72.0348 145.273H71.0064C71.0215 144.667 71.1882 144.134 71.5064 143.676C71.8284 143.214 72.2545 142.854 72.7848 142.597C73.3189 142.335 73.9098 142.205 74.5575 142.205C75.2431 142.205 75.8359 142.345 76.3359 142.625C76.8359 142.905 77.2223 143.278 77.495 143.744C77.7715 144.206 77.9098 144.716 77.9098 145.273C77.9098 145.936 77.7299 146.504 77.37 146.977C77.0102 147.447 76.5253 147.773 75.9155 147.955V148.028C76.6579 148.176 77.2412 148.506 77.6655 149.017C78.0935 149.525 78.3075 150.148 78.3075 150.886C78.3075 151.508 78.1446 152.066 77.8189 152.562C77.4931 153.055 77.0462 153.445 76.478 153.733C75.9136 154.017 75.2659 154.159 74.5348 154.159ZM86.0632 157.273C85.8625 157.273 85.675 157.254 85.5007 157.216C85.3265 157.178 85.1882 157.136 85.0859 157.091L85.3587 156.199C85.7034 156.305 86.0102 156.343 86.2791 156.312C86.5481 156.286 86.7867 156.165 86.995 155.949C87.2034 155.737 87.389 155.411 87.5518 154.972L87.87 154.085L84.6598 145.273H85.7564L88.3473 152.665H88.4268L91.0178 145.273H92.1143L88.4212 155.381C88.2659 155.801 88.0746 156.152 87.8473 156.432C87.62 156.716 87.3568 156.926 87.0575 157.062C86.7621 157.203 86.4306 157.273 86.0632 157.273ZM97.3089 154.182C96.4946 154.182 95.79 153.992 95.1953 153.614C94.6006 153.231 94.1404 152.703 93.8146 152.028C93.4927 151.35 93.3317 150.57 93.3317 149.688C93.3317 148.809 93.4927 148.028 93.8146 147.347C94.1404 146.661 94.5893 146.125 95.1612 145.739C95.737 145.348 96.4018 145.153 97.1555 145.153C97.629 145.153 98.0855 145.241 98.5249 145.415C98.9643 145.585 99.3582 145.848 99.7067 146.205C100.059 146.557 100.337 147.002 100.542 147.54C100.746 148.074 100.849 148.706 100.849 149.438V149.938H94.0305V149.045H99.8146C99.8146 148.485 99.701 147.981 99.4737 147.534C99.2502 147.083 98.9377 146.727 98.5362 146.466C98.1385 146.205 97.6783 146.074 97.1555 146.074C96.6025 146.074 96.1158 146.222 95.6953 146.517C95.2749 146.812 94.9453 147.203 94.7067 147.688C94.4718 148.172 94.3525 148.703 94.3487 149.278V149.812C94.3487 150.506 94.468 151.112 94.7067 151.631C94.9491 152.146 95.2919 152.545 95.7351 152.83C96.1783 153.114 96.7029 153.256 97.3089 153.256C97.7218 153.256 98.0836 153.191 98.3942 153.062C98.7086 152.934 98.9718 152.761 99.1839 152.545C99.3999 152.326 99.5627 152.085 99.6726 151.824L100.633 152.136C100.5 152.504 100.282 152.843 99.9794 153.153C99.6802 153.464 99.3052 153.714 98.8544 153.903C98.4074 154.089 97.8923 154.182 97.3089 154.182ZM105.515 154.199C104.988 154.199 104.507 154.097 104.072 153.892C103.636 153.684 103.29 153.384 103.032 152.994C102.774 152.6 102.646 152.123 102.646 151.562C102.646 151.131 102.727 150.767 102.89 150.472C103.053 150.176 103.284 149.934 103.583 149.744C103.882 149.555 104.237 149.405 104.646 149.295C105.055 149.186 105.505 149.1 105.998 149.04C106.487 148.979 106.899 148.926 107.237 148.881C107.577 148.835 107.837 148.763 108.015 148.665C108.193 148.566 108.282 148.407 108.282 148.188V147.983C108.282 147.388 108.104 146.92 107.748 146.58C107.396 146.235 106.888 146.062 106.225 146.062C105.596 146.062 105.083 146.201 104.685 146.477C104.291 146.754 104.015 147.08 103.856 147.455L102.896 147.108C103.093 146.631 103.365 146.25 103.714 145.966C104.062 145.678 104.452 145.472 104.884 145.347C105.316 145.218 105.754 145.153 106.197 145.153C106.53 145.153 106.877 145.197 107.237 145.284C107.6 145.371 107.937 145.523 108.248 145.739C108.558 145.951 108.81 146.248 109.004 146.631C109.197 147.009 109.293 147.491 109.293 148.074V154H108.282V152.619H108.219C108.098 152.877 107.918 153.127 107.68 153.369C107.441 153.612 107.142 153.811 106.782 153.966C106.422 154.121 106 154.199 105.515 154.199ZM105.651 153.273C106.189 153.273 106.655 153.153 107.049 152.915C107.443 152.676 107.746 152.36 107.958 151.966C108.174 151.568 108.282 151.131 108.282 150.653V149.392C108.206 149.464 108.079 149.528 107.901 149.585C107.727 149.642 107.524 149.693 107.293 149.739C107.066 149.78 106.839 149.816 106.612 149.847C106.384 149.877 106.18 149.903 105.998 149.926C105.505 149.987 105.085 150.081 104.737 150.21C104.388 150.339 104.121 150.517 103.935 150.744C103.75 150.968 103.657 151.256 103.657 151.608C103.657 152.138 103.846 152.549 104.225 152.841C104.604 153.129 105.079 153.273 105.651 153.273ZM111.984 154V145.273H112.967V146.614H113.04C113.215 146.174 113.518 145.82 113.95 145.551C114.385 145.278 114.878 145.142 115.427 145.142C115.51 145.142 115.603 145.144 115.705 145.148C115.808 145.152 115.893 145.155 115.961 145.159V146.188C115.915 146.18 115.836 146.169 115.722 146.153C115.609 146.138 115.486 146.131 115.353 146.131C114.898 146.131 114.493 146.227 114.137 146.42C113.785 146.61 113.506 146.873 113.302 147.21C113.097 147.547 112.995 147.932 112.995 148.364V154H111.984ZM120.918 141.818L117.168 155.75H116.219L119.969 141.818H120.918ZM128.535 147.188L127.609 147.449C127.518 147.187 127.389 146.951 127.222 146.739C127.056 146.527 126.838 146.358 126.569 146.233C126.304 146.108 125.974 146.045 125.58 146.045C124.989 146.045 124.504 146.186 124.126 146.466C123.747 146.746 123.558 147.108 123.558 147.551C123.558 147.926 123.686 148.231 123.944 148.466C124.205 148.697 124.607 148.881 125.148 149.017L126.467 149.341C127.198 149.519 127.745 149.801 128.109 150.188C128.476 150.574 128.66 151.059 128.66 151.642C128.66 152.134 128.523 152.572 128.251 152.955C127.978 153.337 127.597 153.638 127.109 153.858C126.624 154.074 126.061 154.182 125.421 154.182C124.569 154.182 123.866 153.991 123.313 153.608C122.76 153.222 122.406 152.665 122.251 151.938L123.222 151.699C123.347 152.218 123.592 152.61 123.955 152.875C124.323 153.14 124.806 153.273 125.404 153.273C126.075 153.273 126.611 153.123 127.012 152.824C127.414 152.521 127.614 152.142 127.614 151.688C127.614 151.335 127.497 151.04 127.262 150.801C127.027 150.559 126.671 150.381 126.194 150.267L124.768 149.926C124.01 149.744 123.45 149.456 123.086 149.062C122.722 148.669 122.54 148.18 122.54 147.597C122.54 147.116 122.671 146.693 122.933 146.33C123.194 145.962 123.554 145.674 124.012 145.466C124.47 145.258 124.993 145.153 125.58 145.153C126.379 145.153 127.018 145.335 127.495 145.699C127.976 146.059 128.323 146.555 128.535 147.188Z" fill="black"/>
<defs>
<filter id="filter0_d_181_860" x="9.39746" y="0" width="181.205" height="208" filterUnits="userSpaceOnUse" color-interpolation-filters="sRGB">
<feFlood flood-opacity="0" result="BackgroundImageFix"/>
<feColorMatrix in="SourceAlpha" type="matrix" values="0 0 0 0 0 0 0 0 0 0 0 0 0 0 0 0 0 0 127 0" result="hardAlpha"/>
<feOffset dy="4"/>
<feGaussianBlur stdDeviation="2"/>
<feComposite in2="hardAlpha" operator="out"/>
<feColorMatrix type="matrix" values="0 0 0 0 0 0 0 0 0 0 0 0 0 0 0 0 0 0 0.25 0"/>
<feBlend mode="normal" in2="BackgroundImageFix" result="effect1_dropShadow_181_860"/>
<feBlend mode="normal" in="SourceGraphic" in2="effect1_dropShadow_181_860" result="shape"/>
</filter>
</defs>
</svg>
