<svg width="200" height="208" viewBox="0 0 200 208" fill="none" xmlns="http://www.w3.org/2000/svg">
<g filter="url(#filter0_d_181_818)">
<path d="M100 0L186.603 50V150L100 200L13.3975 150V50L100 0Z" fill="white"/>
<path d="M14.3975 50.5774L100 1.1547L185.603 50.5774V149.423L100 198.845L14.3975 149.423V50.5774Z" stroke="#2CC140" stroke-width="2"/>
</g>
<path d="M65.8977 105V93.3636H70.3523C71.1932 93.3636 71.892 93.4962 72.4489 93.7614C73.0095 94.0227 73.428 94.3807 73.7045 94.8352C73.9848 95.2898 74.125 95.8049 74.125 96.3807C74.125 96.8542 74.0341 97.2595 73.8523 97.5966C73.6705 97.9299 73.4261 98.2008 73.1193 98.4091C72.8125 98.6174 72.4697 98.767 72.0909 98.858V98.9716C72.5038 98.9943 72.8996 99.1212 73.2784 99.3523C73.661 99.5795 73.9735 99.9015 74.2159 100.318C74.4583 100.735 74.5795 101.239 74.5795 101.83C74.5795 102.432 74.4337 102.973 74.142 103.455C73.8504 103.932 73.411 104.309 72.8239 104.585C72.2367 104.862 71.4981 105 70.608 105H65.8977ZM68.0057 103.239H70.2727C71.0379 103.239 71.589 103.093 71.9261 102.801C72.267 102.506 72.4375 102.127 72.4375 101.665C72.4375 101.32 72.3523 101.009 72.1818 100.733C72.0114 100.453 71.7689 100.233 71.4545 100.074C71.1402 99.911 70.7652 99.8295 70.3295 99.8295H68.0057V103.239ZM68.0057 98.3125H70.0909C70.4545 98.3125 70.7822 98.2462 71.0739 98.1136C71.3655 97.9773 71.5947 97.786 71.7614 97.5398C71.9318 97.2898 72.017 96.9943 72.017 96.6534C72.017 96.2027 71.858 95.8314 71.5398 95.5398C71.2254 95.2481 70.7576 95.1023 70.1364 95.1023H68.0057V98.3125ZM80.1861 105.17C79.3111 105.17 78.5554 104.989 77.919 104.625C77.2865 104.258 76.7997 103.739 76.4588 103.068C76.1179 102.394 75.9474 101.6 75.9474 100.688C75.9474 99.7898 76.1179 99.0019 76.4588 98.3239C76.8035 97.642 77.2846 97.1117 77.902 96.733C78.5194 96.3504 79.2448 96.1591 80.0781 96.1591C80.616 96.1591 81.1236 96.2462 81.6009 96.4205C82.0819 96.5909 82.5062 96.8561 82.8736 97.2159C83.2448 97.5758 83.5365 98.0341 83.7486 98.5909C83.9607 99.1439 84.0668 99.803 84.0668 100.568V101.199H76.9134V99.8125H82.0952C82.0914 99.4186 82.0062 99.0682 81.8395 98.7614C81.6728 98.4508 81.4399 98.2064 81.1406 98.0284C80.8452 97.8504 80.5005 97.7614 80.1065 97.7614C79.6861 97.7614 79.3168 97.8636 78.9986 98.0682C78.6804 98.2689 78.4323 98.5341 78.2543 98.8636C78.08 99.1894 77.991 99.5473 77.9872 99.9375V101.148C77.9872 101.655 78.08 102.091 78.2656 102.455C78.4512 102.814 78.7107 103.091 79.044 103.284C79.3774 103.473 79.7675 103.568 80.2145 103.568C80.5137 103.568 80.7846 103.527 81.027 103.443C81.2694 103.356 81.4796 103.229 81.6577 103.062C81.8357 102.896 81.9702 102.689 82.0611 102.443L83.9815 102.659C83.8603 103.167 83.6293 103.61 83.2884 103.989C82.9512 104.364 82.5194 104.655 81.9929 104.864C81.4664 105.068 80.8641 105.17 80.1861 105.17ZM89.6023 108.455C88.8636 108.455 88.2292 108.354 87.6989 108.153C87.1686 107.956 86.7424 107.691 86.4205 107.358C86.0985 107.025 85.875 106.655 85.75 106.25L87.6023 105.801C87.6856 105.972 87.8068 106.14 87.9659 106.307C88.125 106.477 88.339 106.617 88.608 106.727C88.8807 106.841 89.2235 106.898 89.6364 106.898C90.2197 106.898 90.7027 106.756 91.0852 106.472C91.4678 106.191 91.6591 105.729 91.6591 105.085V103.432H91.5568C91.4508 103.644 91.2955 103.862 91.0909 104.085C90.8902 104.309 90.6231 104.496 90.2898 104.648C89.9602 104.799 89.5455 104.875 89.0455 104.875C88.375 104.875 87.767 104.718 87.2216 104.403C86.6799 104.085 86.2481 103.612 85.9261 102.983C85.608 102.35 85.4489 101.559 85.4489 100.608C85.4489 99.6496 85.608 98.8409 85.9261 98.1818C86.2481 97.5189 86.6818 97.017 87.2273 96.6761C87.7727 96.3314 88.3807 96.1591 89.0511 96.1591C89.5625 96.1591 89.983 96.2462 90.3125 96.4205C90.6458 96.5909 90.911 96.7973 91.108 97.0398C91.3049 97.2784 91.4545 97.5038 91.5568 97.7159H91.6705V96.2727H93.6989V105.142C93.6989 105.888 93.5208 106.506 93.1648 106.994C92.8087 107.483 92.322 107.848 91.7045 108.091C91.0871 108.333 90.3864 108.455 89.6023 108.455ZM89.6193 103.261C90.0549 103.261 90.4261 103.155 90.733 102.943C91.0398 102.731 91.2727 102.426 91.4318 102.028C91.5909 101.631 91.6705 101.153 91.6705 100.597C91.6705 100.047 91.5909 99.5663 91.4318 99.1534C91.2765 98.7405 91.0455 98.4205 90.7386 98.1932C90.4356 97.9621 90.0625 97.8466 89.6193 97.8466C89.161 97.8466 88.7784 97.9659 88.4716 98.2045C88.1648 98.4432 87.9337 98.7708 87.7784 99.1875C87.6231 99.6004 87.5455 100.07 87.5455 100.597C87.5455 101.131 87.6231 101.598 87.7784 102C87.9375 102.398 88.1705 102.708 88.4773 102.932C88.7879 103.152 89.1686 103.261 89.6193 103.261ZM95.8068 105V96.2727H97.8636V105H95.8068ZM96.8409 95.0341C96.5152 95.0341 96.2348 94.9261 96 94.7102C95.7652 94.4905 95.6477 94.2273 95.6477 93.9205C95.6477 93.6098 95.7652 93.3466 96 93.1307C96.2348 92.911 96.5152 92.8011 96.8409 92.8011C97.1705 92.8011 97.4508 92.911 97.6818 93.1307C97.9167 93.3466 98.0341 93.6098 98.0341 93.9205C98.0341 94.2273 97.9167 94.4905 97.6818 94.7102C97.4508 94.9261 97.1705 95.0341 96.8409 95.0341ZM102.036 99.8864V105H99.9787V96.2727H101.945V97.7557H102.047C102.248 97.267 102.568 96.8788 103.007 96.5909C103.45 96.303 103.998 96.1591 104.649 96.1591C105.251 96.1591 105.776 96.2879 106.223 96.5455C106.674 96.803 107.022 97.1761 107.268 97.6648C107.518 98.1534 107.642 98.7462 107.638 99.4432V105H105.581V99.7614C105.581 99.178 105.429 98.7216 105.126 98.392C104.827 98.0625 104.412 97.8977 103.882 97.8977C103.522 97.8977 103.202 97.9773 102.922 98.1364C102.645 98.2917 102.428 98.517 102.268 98.8125C102.113 99.108 102.036 99.4659 102.036 99.8864ZM111.786 99.8864V105H109.729V96.2727H111.695V97.7557H111.797C111.998 97.267 112.318 96.8788 112.757 96.5909C113.2 96.303 113.748 96.1591 114.399 96.1591C115.001 96.1591 115.526 96.2879 115.973 96.5455C116.424 96.803 116.772 97.1761 117.018 97.6648C117.268 98.1534 117.392 98.7462 117.388 99.4432V105H115.331V99.7614C115.331 99.178 115.179 98.7216 114.876 98.392C114.577 98.0625 114.162 97.8977 113.632 97.8977C113.272 97.8977 112.952 97.9773 112.672 98.1364C112.395 98.2917 112.178 98.517 112.018 98.8125C111.863 99.108 111.786 99.4659 111.786 99.8864ZM123.342 105.17C122.467 105.17 121.712 104.989 121.075 104.625C120.443 104.258 119.956 103.739 119.615 103.068C119.274 102.394 119.104 101.6 119.104 100.688C119.104 99.7898 119.274 99.0019 119.615 98.3239C119.96 97.642 120.441 97.1117 121.058 96.733C121.676 96.3504 122.401 96.1591 123.234 96.1591C123.772 96.1591 124.28 96.2462 124.757 96.4205C125.238 96.5909 125.662 96.8561 126.03 97.2159C126.401 97.5758 126.693 98.0341 126.905 98.5909C127.117 99.1439 127.223 99.803 127.223 100.568V101.199H120.07V99.8125H125.251C125.248 99.4186 125.162 99.0682 124.996 98.7614C124.829 98.4508 124.596 98.2064 124.297 98.0284C124.001 97.8504 123.657 97.7614 123.263 97.7614C122.842 97.7614 122.473 97.8636 122.155 98.0682C121.837 98.2689 121.589 98.5341 121.411 98.8636C121.236 99.1894 121.147 99.5473 121.143 99.9375V101.148C121.143 101.655 121.236 102.091 121.422 102.455C121.607 102.814 121.867 103.091 122.2 103.284C122.534 103.473 122.924 103.568 123.371 103.568C123.67 103.568 123.941 103.527 124.183 103.443C124.426 103.356 124.636 103.229 124.814 103.062C124.992 102.896 125.126 102.689 125.217 102.443L127.138 102.659C127.017 103.167 126.786 103.61 126.445 103.989C126.107 104.364 125.676 104.655 125.149 104.864C124.623 105.068 124.02 105.17 123.342 105.17ZM128.963 105V96.2727H130.957V97.7273H131.048C131.207 97.2235 131.48 96.8352 131.866 96.5625C132.257 96.286 132.702 96.1477 133.202 96.1477C133.315 96.1477 133.442 96.1534 133.582 96.1648C133.726 96.1723 133.846 96.1856 133.94 96.2045V98.0966C133.853 98.0663 133.715 98.0398 133.526 98.017C133.34 97.9905 133.16 97.9773 132.986 97.9773C132.611 97.9773 132.274 98.0587 131.974 98.2216C131.679 98.3807 131.446 98.6023 131.276 98.8864C131.105 99.1705 131.02 99.4981 131.02 99.8693V105H128.963Z" fill="black"/>
<path d="M63.2834 57.1818C62.5031 57.1818 61.8232 56.9867 61.2436 56.5966C60.6679 56.2064 60.2209 55.6723 59.9027 54.9943C59.5845 54.3163 59.4254 53.5436 59.4254 52.6761C59.4254 51.8011 59.5864 51.0227 59.9084 50.3409C60.2341 49.6591 60.6849 49.125 61.2607 48.7386C61.8364 48.3485 62.505 48.1534 63.2663 48.1534C63.8497 48.1534 64.3781 48.267 64.8516 48.4943C65.325 48.7178 65.7152 49.0341 66.022 49.4432C66.3326 49.8485 66.5277 50.322 66.6072 50.8636H65.5845C65.4785 50.3712 65.2228 49.9508 64.8175 49.6023C64.416 49.25 63.9046 49.0739 63.2834 49.0739C62.7266 49.0739 62.2341 49.2254 61.8061 49.5284C61.3781 49.8277 61.0429 50.2462 60.8004 50.7841C60.5618 51.3182 60.4425 51.9375 60.4425 52.642C60.4425 53.3504 60.5599 53.9773 60.7947 54.5227C61.0296 55.0644 61.3591 55.4886 61.7834 55.7955C62.2114 56.1023 62.7114 56.2557 63.2834 56.2557C63.6697 56.2557 64.022 56.1837 64.3402 56.0398C64.6622 55.892 64.9311 55.6837 65.147 55.4148C65.3667 55.1458 65.5144 54.8258 65.5902 54.4545H66.6129C66.5372 54.9811 66.3497 55.4508 66.0504 55.8636C65.755 56.2727 65.3705 56.5947 64.897 56.8295C64.4273 57.0644 63.8894 57.1818 63.2834 57.1818ZM74.2919 45.3636V57H73.2805V45.3636H74.2919ZM79.4055 57.1989C78.879 57.1989 78.398 57.0966 77.9624 56.892C77.5268 56.6837 77.1802 56.3845 76.9226 55.9943C76.665 55.6004 76.5362 55.1231 76.5362 54.5625C76.5362 54.1307 76.6177 53.767 76.7805 53.4716C76.9434 53.1761 77.1745 52.9337 77.4737 52.7443C77.773 52.5549 78.1271 52.4053 78.5362 52.2955C78.9453 52.1856 79.3961 52.1004 79.8885 52.0398C80.3771 51.9792 80.79 51.9261 81.1271 51.8807C81.468 51.8352 81.7275 51.7633 81.9055 51.6648C82.0836 51.5663 82.1726 51.4072 82.1726 51.1875V50.983C82.1726 50.3883 81.9946 49.9205 81.6385 49.5795C81.2862 49.2348 80.7786 49.0625 80.1158 49.0625C79.487 49.0625 78.9737 49.2008 78.576 49.4773C78.1821 49.7538 77.9055 50.0795 77.7464 50.4545L76.7862 50.108C76.9832 49.6307 77.2559 49.25 77.6044 48.9659C77.9529 48.678 78.343 48.4716 78.7749 48.3466C79.2067 48.2178 79.6442 48.1534 80.0874 48.1534C80.4207 48.1534 80.7673 48.197 81.1271 48.2841C81.4908 48.3712 81.8279 48.5227 82.1385 48.7386C82.4491 48.9508 82.701 49.2481 82.8942 49.6307C83.0874 50.0095 83.1839 50.4905 83.1839 51.0739V57H82.1726V55.6193H82.1101C81.9889 55.8769 81.8089 56.1269 81.5703 56.3693C81.3317 56.6117 81.0324 56.8106 80.6726 56.9659C80.3127 57.1212 79.8904 57.1989 79.4055 57.1989ZM79.5419 56.2727C80.0798 56.2727 80.5457 56.1534 80.9396 55.9148C81.3336 55.6761 81.6366 55.3598 81.8487 54.9659C82.0646 54.5682 82.1726 54.1307 82.1726 53.6534V52.392C82.0968 52.464 81.9699 52.5284 81.7919 52.5852C81.6177 52.642 81.415 52.6932 81.1839 52.7386C80.9567 52.7803 80.7294 52.8163 80.5021 52.8466C80.2749 52.8769 80.0703 52.9034 79.8885 52.9261C79.3961 52.9867 78.9756 53.0814 78.6271 53.2102C78.2786 53.339 78.0116 53.517 77.826 53.7443C77.6404 53.9678 77.5476 54.2557 77.5476 54.608C77.5476 55.1383 77.737 55.5492 78.1158 55.8409C78.4946 56.1288 78.9699 56.2727 79.5419 56.2727ZM86.8857 51.5455V57H85.8743V48.2727H86.8572V49.642H86.9482C87.1527 49.1951 87.4709 48.8371 87.9027 48.5682C88.3383 48.2955 88.8762 48.1591 89.5163 48.1591C90.1035 48.1591 90.6186 48.2822 91.0618 48.5284C91.5088 48.7708 91.8554 49.1288 92.1016 49.6023C92.3516 50.0758 92.4766 50.6572 92.4766 51.3466V57H91.4652V51.4091C91.4652 50.6932 91.2644 50.1269 90.8629 49.7102C90.4652 49.2936 89.9311 49.0852 89.2607 49.0852C88.8023 49.0852 88.3951 49.1837 88.0391 49.3807C87.683 49.5777 87.4008 49.8617 87.1925 50.233C86.9879 50.6004 86.8857 51.0379 86.8857 51.5455ZM98.4695 60.4545C97.8748 60.4545 97.3539 60.3769 96.907 60.2216C96.46 60.0701 96.0831 59.8617 95.7763 59.5966C95.4695 59.3314 95.2308 59.0341 95.0604 58.7045L95.8899 58.1591C96.0149 58.3788 96.1816 58.5947 96.3899 58.8068C96.602 59.0189 96.8767 59.1951 97.2138 59.3352C97.5547 59.4754 97.9732 59.5455 98.4695 59.5455C99.2422 59.5455 99.8653 59.3523 100.339 58.9659C100.816 58.5795 101.055 57.9792 101.055 57.1648V55.1989H100.964C100.846 55.464 100.678 55.7292 100.458 55.9943C100.238 56.2557 99.9505 56.4735 99.5945 56.6477C99.2422 56.822 98.8047 56.9091 98.282 56.9091C97.585 56.9091 96.9657 56.7367 96.424 56.392C95.8861 56.0473 95.4619 55.5549 95.1513 54.9148C94.8445 54.2708 94.6911 53.5038 94.6911 52.6136C94.6911 51.7311 94.8407 50.9545 95.1399 50.2841C95.4429 49.6136 95.8653 49.0909 96.407 48.7159C96.9486 48.3409 97.5793 48.1534 98.299 48.1534C98.8331 48.1534 99.2763 48.2481 99.6286 48.4375C99.9808 48.6231 100.263 48.8542 100.475 49.1307C100.691 49.4072 100.86 49.6761 100.981 49.9375H101.083V48.2727H102.072V57.2273C102.072 57.9659 101.915 58.5739 101.6 59.0511C101.286 59.5284 100.858 59.8807 100.316 60.108C99.7744 60.339 99.1589 60.4545 98.4695 60.4545ZM98.4013 55.983C98.9619 55.983 99.4411 55.8485 99.8388 55.5795C100.237 55.3068 100.541 54.9167 100.754 54.4091C100.966 53.9015 101.072 53.2973 101.072 52.5966C101.072 51.9148 100.968 51.3106 100.759 50.7841C100.551 50.2538 100.248 49.8371 99.8501 49.5341C99.4562 49.2273 98.9732 49.0739 98.4013 49.0739C97.8179 49.0739 97.3255 49.2311 96.924 49.5455C96.5225 49.8598 96.2195 50.2841 96.0149 50.8182C95.8104 51.3485 95.7081 51.9413 95.7081 52.5966C95.7081 53.2633 95.8123 53.8523 96.0206 54.3636C96.2289 54.8712 96.5339 55.2689 96.9354 55.5568C97.3369 55.8409 97.8255 55.983 98.4013 55.983ZM110.295 53.6648V48.2727H111.306V57H110.295V55.5511H110.215C110.011 55.9981 109.687 56.3712 109.244 56.6705C108.8 56.9659 108.259 57.1136 107.619 57.1136C107.062 57.1136 106.567 56.9924 106.136 56.75C105.704 56.5038 105.365 56.1439 105.119 55.6705C104.872 55.197 104.749 54.6155 104.749 53.9261V48.2727H105.761V53.8636C105.761 54.5455 105.961 55.0947 106.363 55.5114C106.764 55.9242 107.28 56.1307 107.908 56.1307C108.302 56.1307 108.681 56.036 109.045 55.8466C109.408 55.6572 109.708 55.3807 109.942 55.017C110.177 54.6496 110.295 54.1989 110.295 53.6648ZM116.421 57.1989C115.895 57.1989 115.414 57.0966 114.978 56.892C114.542 56.6837 114.196 56.3845 113.938 55.9943C113.681 55.6004 113.552 55.1231 113.552 54.5625C113.552 54.1307 113.633 53.767 113.796 53.4716C113.959 53.1761 114.19 52.9337 114.489 52.7443C114.789 52.5549 115.143 52.4053 115.552 52.2955C115.961 52.1856 116.412 52.1004 116.904 52.0398C117.393 51.9792 117.806 51.9261 118.143 51.8807C118.484 51.8352 118.743 51.7633 118.921 51.6648C119.099 51.5663 119.188 51.4072 119.188 51.1875V50.983C119.188 50.3883 119.01 49.9205 118.654 49.5795C118.302 49.2348 117.794 49.0625 117.131 49.0625C116.503 49.0625 115.989 49.2008 115.592 49.4773C115.198 49.7538 114.921 50.0795 114.762 50.4545L113.802 50.108C113.999 49.6307 114.272 49.25 114.62 48.9659C114.969 48.678 115.359 48.4716 115.79 48.3466C116.222 48.2178 116.66 48.1534 117.103 48.1534C117.436 48.1534 117.783 48.197 118.143 48.2841C118.506 48.3712 118.844 48.5227 119.154 48.7386C119.465 48.9508 119.717 49.2481 119.91 49.6307C120.103 50.0095 120.2 50.4905 120.2 51.0739V57H119.188V55.6193H119.126C119.004 55.8769 118.825 56.1269 118.586 56.3693C118.347 56.6117 118.048 56.8106 117.688 56.9659C117.328 57.1212 116.906 57.1989 116.421 57.1989ZM116.558 56.2727C117.095 56.2727 117.561 56.1534 117.955 55.9148C118.349 55.6761 118.652 55.3598 118.864 54.9659C119.08 54.5682 119.188 54.1307 119.188 53.6534V52.392C119.112 52.464 118.986 52.5284 118.808 52.5852C118.633 52.642 118.431 52.6932 118.2 52.7386C117.972 52.7803 117.745 52.8163 117.518 52.8466C117.29 52.8769 117.086 52.9034 116.904 52.9261C116.412 52.9867 115.991 53.0814 115.643 53.2102C115.294 53.339 115.027 53.517 114.842 53.7443C114.656 53.9678 114.563 54.2557 114.563 54.608C114.563 55.1383 114.753 55.5492 115.131 55.8409C115.51 56.1288 115.986 56.2727 116.558 56.2727ZM126.219 60.4545C125.625 60.4545 125.104 60.3769 124.657 60.2216C124.21 60.0701 123.833 59.8617 123.526 59.5966C123.219 59.3314 122.981 59.0341 122.81 58.7045L123.64 58.1591C123.765 58.3788 123.932 58.5947 124.14 58.8068C124.352 59.0189 124.627 59.1951 124.964 59.3352C125.305 59.4754 125.723 59.5455 126.219 59.5455C126.992 59.5455 127.615 59.3523 128.089 58.9659C128.566 58.5795 128.805 57.9792 128.805 57.1648V55.1989H128.714C128.596 55.464 128.428 55.7292 128.208 55.9943C127.988 56.2557 127.701 56.4735 127.344 56.6477C126.992 56.822 126.555 56.9091 126.032 56.9091C125.335 56.9091 124.716 56.7367 124.174 56.392C123.636 56.0473 123.212 55.5549 122.901 54.9148C122.594 54.2708 122.441 53.5038 122.441 52.6136C122.441 51.7311 122.591 50.9545 122.89 50.2841C123.193 49.6136 123.615 49.0909 124.157 48.7159C124.699 48.3409 125.329 48.1534 126.049 48.1534C126.583 48.1534 127.026 48.2481 127.379 48.4375C127.731 48.6231 128.013 48.8542 128.225 49.1307C128.441 49.4072 128.61 49.6761 128.731 49.9375H128.833V48.2727H129.822V57.2273C129.822 57.9659 129.665 58.5739 129.35 59.0511C129.036 59.5284 128.608 59.8807 128.066 60.108C127.524 60.339 126.909 60.4545 126.219 60.4545ZM126.151 55.983C126.712 55.983 127.191 55.8485 127.589 55.5795C127.987 55.3068 128.291 54.9167 128.504 54.4091C128.716 53.9015 128.822 53.2973 128.822 52.5966C128.822 51.9148 128.718 51.3106 128.509 50.7841C128.301 50.2538 127.998 49.8371 127.6 49.5341C127.206 49.2273 126.723 49.0739 126.151 49.0739C125.568 49.0739 125.076 49.2311 124.674 49.5455C124.272 49.8598 123.969 50.2841 123.765 50.8182C123.56 51.3485 123.458 51.9413 123.458 52.5966C123.458 53.2633 123.562 53.8523 123.771 54.3636C123.979 54.8712 124.284 55.2689 124.685 55.5568C125.087 55.8409 125.576 55.983 126.151 55.983ZM136.028 57.1818C135.213 57.1818 134.509 56.9924 133.914 56.6136C133.319 56.2311 132.859 55.7027 132.533 55.0284C132.211 54.3504 132.05 53.5701 132.05 52.6875C132.05 51.8087 132.211 51.0284 132.533 50.3466C132.859 49.661 133.308 49.125 133.88 48.7386C134.456 48.3485 135.121 48.1534 135.874 48.1534C136.348 48.1534 136.804 48.2405 137.244 48.4148C137.683 48.5852 138.077 48.8485 138.425 49.2045C138.778 49.5568 139.056 50.0019 139.261 50.5398C139.465 51.0739 139.567 51.7064 139.567 52.4375V52.9375H132.749V52.0455H138.533C138.533 51.4848 138.42 50.9811 138.192 50.5341C137.969 50.0833 137.656 49.7273 137.255 49.4659C136.857 49.2045 136.397 49.0739 135.874 49.0739C135.321 49.0739 134.835 49.2216 134.414 49.517C133.994 49.8125 133.664 50.2027 133.425 50.6875C133.191 51.1723 133.071 51.7027 133.067 52.2784V52.8125C133.067 53.5057 133.187 54.1117 133.425 54.6307C133.668 55.1458 134.011 55.5455 134.454 55.8295C134.897 56.1136 135.422 56.2557 136.028 56.2557C136.441 56.2557 136.802 56.1913 137.113 56.0625C137.427 55.9337 137.691 55.7614 137.903 55.5455C138.119 55.3258 138.281 55.0852 138.391 54.8239L139.352 55.1364C139.219 55.5038 139.001 55.8428 138.698 56.1534C138.399 56.464 138.024 56.714 137.573 56.9034C137.126 57.089 136.611 57.1818 136.028 57.1818Z" fill="black"/>
<path d="M62.9439 154V153.222L66.745 148.949C67.2412 148.388 67.6409 147.909 67.9439 147.511C68.2469 147.114 68.4666 146.746 68.603 146.409C68.7431 146.072 68.8132 145.722 68.8132 145.358C68.8132 144.915 68.709 144.528 68.5007 144.199C68.2962 143.866 68.014 143.606 67.6541 143.42C67.2943 143.235 66.889 143.142 66.4382 143.142C65.9609 143.142 65.5424 143.244 65.1825 143.449C64.8265 143.653 64.55 143.934 64.353 144.29C64.156 144.646 64.0575 145.055 64.0575 145.517H63.0405C63.0405 144.873 63.1882 144.303 63.4837 143.807C63.7829 143.307 64.1901 142.915 64.7053 142.631C65.2242 142.347 65.8113 142.205 66.4666 142.205C67.1143 142.205 67.6901 142.345 68.1939 142.625C68.6977 142.902 69.0935 143.278 69.3814 143.756C69.6693 144.233 69.8132 144.767 69.8132 145.358C69.8132 145.786 69.7375 146.201 69.5859 146.602C69.4382 147.004 69.1825 147.451 68.8189 147.943C68.4553 148.436 67.9515 149.038 67.3075 149.75L64.4212 152.972V153.045H70.1768V154H62.9439ZM77.2493 154V145.273H78.2322V146.614H78.3232C78.4974 146.163 78.7872 145.809 79.1925 145.551C79.6016 145.29 80.0921 145.159 80.6641 145.159C81.2663 145.159 81.7607 145.301 82.147 145.585C82.5372 145.866 82.8288 146.252 83.022 146.744H83.0959C83.2929 146.259 83.6129 145.875 84.0561 145.591C84.5031 145.303 85.0447 145.159 85.6811 145.159C86.4917 145.159 87.1319 145.415 87.6016 145.926C88.0713 146.434 88.3061 147.176 88.3061 148.153V154H87.2947V148.153C87.2947 147.464 87.1186 146.947 86.7663 146.602C86.4141 146.258 85.95 146.085 85.3743 146.085C84.7076 146.085 84.1944 146.29 83.8345 146.699C83.4747 147.108 83.2947 147.627 83.2947 148.256V154H82.2607V148.062C82.2607 147.472 82.0959 146.994 81.7663 146.631C81.4368 146.267 80.9728 146.085 80.3743 146.085C79.9728 146.085 79.611 146.184 79.2891 146.381C78.9709 146.578 78.719 146.852 78.5334 147.205C78.3516 147.553 78.2607 147.955 78.2607 148.409V154H77.2493ZM94.3757 154.182C93.6219 154.182 92.9553 153.991 92.3757 153.608C91.8 153.225 91.3492 152.697 91.0234 152.023C90.6977 151.345 90.5348 150.562 90.5348 149.676C90.5348 148.782 90.6977 147.996 91.0234 147.318C91.3492 146.636 91.8 146.106 92.3757 145.727C92.9553 145.345 93.6219 145.153 94.3757 145.153C95.1295 145.153 95.7943 145.345 96.37 145.727C96.9458 146.11 97.3965 146.64 97.7223 147.318C98.0518 147.996 98.2166 148.782 98.2166 149.676C98.2166 150.562 98.0537 151.345 97.728 152.023C97.4022 152.697 96.9496 153.225 96.37 153.608C95.7943 153.991 95.1295 154.182 94.3757 154.182ZM94.3757 153.256C94.9818 153.256 95.495 153.093 95.9155 152.767C96.3359 152.441 96.6541 152.008 96.87 151.466C97.0897 150.924 97.1996 150.328 97.1996 149.676C97.1996 149.025 97.0897 148.426 96.87 147.881C96.6541 147.335 96.3359 146.898 95.9155 146.568C95.495 146.239 94.9818 146.074 94.3757 146.074C93.7734 146.074 93.2602 146.239 92.8359 146.568C92.4155 146.898 92.0954 147.335 91.8757 147.881C91.6598 148.426 91.5518 149.025 91.5518 149.676C91.5518 150.328 91.6598 150.924 91.8757 151.466C92.0954 152.008 92.4155 152.441 92.8359 152.767C93.2564 153.093 93.7696 153.256 94.3757 153.256ZM101.448 148.545V154H100.437V145.273H101.42V146.642H101.511C101.715 146.195 102.033 145.837 102.465 145.568C102.901 145.295 103.439 145.159 104.079 145.159C104.666 145.159 105.181 145.282 105.624 145.528C106.071 145.771 106.418 146.129 106.664 146.602C106.914 147.076 107.039 147.657 107.039 148.347V154H106.028V148.409C106.028 147.693 105.827 147.127 105.425 146.71C105.028 146.294 104.494 146.085 103.823 146.085C103.365 146.085 102.958 146.184 102.602 146.381C102.246 146.578 101.963 146.862 101.755 147.233C101.55 147.6 101.448 148.038 101.448 148.545ZM113.14 145.273V146.153H108.975V145.273H113.14ZM110.276 143.182H111.293V151.722C111.293 152.085 111.356 152.371 111.481 152.58C111.606 152.784 111.769 152.93 111.969 153.017C112.17 153.1 112.384 153.142 112.612 153.142C112.744 153.142 112.858 153.134 112.952 153.119C113.047 153.1 113.13 153.081 113.202 153.062L113.418 153.977C113.32 154.015 113.199 154.049 113.055 154.08C112.911 154.114 112.733 154.131 112.521 154.131C112.149 154.131 111.791 154.049 111.447 153.886C111.106 153.723 110.826 153.481 110.606 153.159C110.386 152.837 110.276 152.438 110.276 151.96V143.182ZM116.636 148.545V154H115.624V142.364H116.636V146.642H116.727C116.931 146.191 117.247 145.831 117.675 145.562C118.107 145.294 118.653 145.159 119.312 145.159C119.903 145.159 120.422 145.28 120.869 145.523C121.316 145.765 121.664 146.123 121.914 146.597C122.164 147.07 122.289 147.653 122.289 148.347V154H121.272V148.409C121.272 147.689 121.071 147.123 120.67 146.71C120.272 146.294 119.734 146.085 119.056 146.085C118.59 146.085 118.175 146.184 117.812 146.381C117.448 146.578 117.16 146.862 116.948 147.233C116.74 147.6 116.636 148.038 116.636 148.545ZM128.731 141.818L124.981 155.75H124.032L127.782 141.818H128.731ZM136.347 147.188L135.421 147.449C135.33 147.187 135.201 146.951 135.035 146.739C134.868 146.527 134.65 146.358 134.381 146.233C134.116 146.108 133.787 146.045 133.393 146.045C132.802 146.045 132.317 146.186 131.938 146.466C131.559 146.746 131.37 147.108 131.37 147.551C131.37 147.926 131.499 148.231 131.756 148.466C132.018 148.697 132.419 148.881 132.961 149.017L134.279 149.341C135.01 149.519 135.558 149.801 135.921 150.188C136.289 150.574 136.472 151.059 136.472 151.642C136.472 152.134 136.336 152.572 136.063 152.955C135.79 153.337 135.41 153.638 134.921 153.858C134.436 154.074 133.874 154.182 133.234 154.182C132.381 154.182 131.679 153.991 131.126 153.608C130.573 153.222 130.219 152.665 130.063 151.938L131.035 151.699C131.16 152.218 131.404 152.61 131.768 152.875C132.135 153.14 132.618 153.273 133.217 153.273C133.887 153.273 134.423 153.123 134.825 152.824C135.226 152.521 135.427 152.142 135.427 151.688C135.427 151.335 135.309 151.04 135.075 150.801C134.84 150.559 134.484 150.381 134.006 150.267L132.58 149.926C131.823 149.744 131.262 149.456 130.898 149.062C130.535 148.669 130.353 148.18 130.353 147.597C130.353 147.116 130.484 146.693 130.745 146.33C131.006 145.962 131.366 145.674 131.825 145.466C132.283 145.258 132.806 145.153 133.393 145.153C134.192 145.153 134.83 145.335 135.308 145.699C135.789 146.059 136.135 146.555 136.347 147.188Z" fill="black"/>
<defs>
<filter id="filter0_d_181_818" x="9.39746" y="0" width="181.205" height="208" filterUnits="userSpaceOnUse" color-interpolation-filters="sRGB">
<feFlood flood-opacity="0" result="BackgroundImageFix"/>
<feColorMatrix in="SourceAlpha" type="matrix" values="0 0 0 0 0 0 0 0 0 0 0 0 0 0 0 0 0 0 127 0" result="hardAlpha"/>
<feOffset dy="4"/>
<feGaussianBlur stdDeviation="2"/>
<feComposite in2="hardAlpha" operator="out"/>
<feColorMatrix type="matrix" values="0 0 0 0 0 0 0 0 0 0 0 0 0 0 0 0 0 0 0.25 0"/>
<feBlend mode="normal" in2="BackgroundImageFix" result="effect1_dropShadow_181_818"/>
<feBlend mode="normal" in="SourceGraphic" in2="effect1_dropShadow_181_818" result="shape"/>
</filter>
</defs>
</svg>
