<svg width="200" height="208" viewBox="0 0 200 208" fill="none" xmlns="http://www.w3.org/2000/svg">
<g filter="url(#filter0_d_181_830)">
<path d="M100 0L186.603 50V150L100 200L13.3975 150V50L100 0Z" fill="white"/>
<path d="M14.3975 50.5774L100 1.1547L185.603 50.5774V149.423L100 198.845L14.3975 149.423V50.5774Z" stroke="#2CC140" stroke-width="2"/>
</g>
<path d="M65.8977 105V93.3636H70.3523C71.1932 93.3636 71.892 93.4962 72.4489 93.7614C73.0095 94.0227 73.428 94.3807 73.7045 94.8352C73.9848 95.2898 74.125 95.8049 74.125 96.3807C74.125 96.8542 74.0341 97.2595 73.8523 97.5966C73.6705 97.9299 73.4261 98.2008 73.1193 98.4091C72.8125 98.6174 72.4697 98.767 72.0909 98.858V98.9716C72.5038 98.9943 72.8996 99.1212 73.2784 99.3523C73.661 99.5795 73.9735 99.9015 74.2159 100.318C74.4583 100.735 74.5795 101.239 74.5795 101.83C74.5795 102.432 74.4337 102.973 74.142 103.455C73.8504 103.932 73.411 104.309 72.8239 104.585C72.2367 104.862 71.4981 105 70.608 105H65.8977ZM68.0057 103.239H70.2727C71.0379 103.239 71.589 103.093 71.9261 102.801C72.267 102.506 72.4375 102.127 72.4375 101.665C72.4375 101.32 72.3523 101.009 72.1818 100.733C72.0114 100.453 71.7689 100.233 71.4545 100.074C71.1402 99.911 70.7652 99.8295 70.3295 99.8295H68.0057V103.239ZM68.0057 98.3125H70.0909C70.4545 98.3125 70.7822 98.2462 71.0739 98.1136C71.3655 97.9773 71.5947 97.786 71.7614 97.5398C71.9318 97.2898 72.017 96.9943 72.017 96.6534C72.017 96.2027 71.858 95.8314 71.5398 95.5398C71.2254 95.2481 70.7576 95.1023 70.1364 95.1023H68.0057V98.3125ZM80.1861 105.17C79.3111 105.17 78.5554 104.989 77.919 104.625C77.2865 104.258 76.7997 103.739 76.4588 103.068C76.1179 102.394 75.9474 101.6 75.9474 100.688C75.9474 99.7898 76.1179 99.0019 76.4588 98.3239C76.8035 97.642 77.2846 97.1117 77.902 96.733C78.5194 96.3504 79.2448 96.1591 80.0781 96.1591C80.616 96.1591 81.1236 96.2462 81.6009 96.4205C82.0819 96.5909 82.5062 96.8561 82.8736 97.2159C83.2448 97.5758 83.5365 98.0341 83.7486 98.5909C83.9607 99.1439 84.0668 99.803 84.0668 100.568V101.199H76.9134V99.8125H82.0952C82.0914 99.4186 82.0062 99.0682 81.8395 98.7614C81.6728 98.4508 81.4399 98.2064 81.1406 98.0284C80.8452 97.8504 80.5005 97.7614 80.1065 97.7614C79.6861 97.7614 79.3168 97.8636 78.9986 98.0682C78.6804 98.2689 78.4323 98.5341 78.2543 98.8636C78.08 99.1894 77.991 99.5473 77.9872 99.9375V101.148C77.9872 101.655 78.08 102.091 78.2656 102.455C78.4512 102.814 78.7107 103.091 79.044 103.284C79.3774 103.473 79.7675 103.568 80.2145 103.568C80.5137 103.568 80.7846 103.527 81.027 103.443C81.2694 103.356 81.4796 103.229 81.6577 103.062C81.8357 102.896 81.9702 102.689 82.0611 102.443L83.9815 102.659C83.8603 103.167 83.6293 103.61 83.2884 103.989C82.9512 104.364 82.5194 104.655 81.9929 104.864C81.4664 105.068 80.8641 105.17 80.1861 105.17ZM89.6023 108.455C88.8636 108.455 88.2292 108.354 87.6989 108.153C87.1686 107.956 86.7424 107.691 86.4205 107.358C86.0985 107.025 85.875 106.655 85.75 106.25L87.6023 105.801C87.6856 105.972 87.8068 106.14 87.9659 106.307C88.125 106.477 88.339 106.617 88.608 106.727C88.8807 106.841 89.2235 106.898 89.6364 106.898C90.2197 106.898 90.7027 106.756 91.0852 106.472C91.4678 106.191 91.6591 105.729 91.6591 105.085V103.432H91.5568C91.4508 103.644 91.2955 103.862 91.0909 104.085C90.8902 104.309 90.6231 104.496 90.2898 104.648C89.9602 104.799 89.5455 104.875 89.0455 104.875C88.375 104.875 87.767 104.718 87.2216 104.403C86.6799 104.085 86.2481 103.612 85.9261 102.983C85.608 102.35 85.4489 101.559 85.4489 100.608C85.4489 99.6496 85.608 98.8409 85.9261 98.1818C86.2481 97.5189 86.6818 97.017 87.2273 96.6761C87.7727 96.3314 88.3807 96.1591 89.0511 96.1591C89.5625 96.1591 89.983 96.2462 90.3125 96.4205C90.6458 96.5909 90.911 96.7973 91.108 97.0398C91.3049 97.2784 91.4545 97.5038 91.5568 97.7159H91.6705V96.2727H93.6989V105.142C93.6989 105.888 93.5208 106.506 93.1648 106.994C92.8087 107.483 92.322 107.848 91.7045 108.091C91.0871 108.333 90.3864 108.455 89.6023 108.455ZM89.6193 103.261C90.0549 103.261 90.4261 103.155 90.733 102.943C91.0398 102.731 91.2727 102.426 91.4318 102.028C91.5909 101.631 91.6705 101.153 91.6705 100.597C91.6705 100.047 91.5909 99.5663 91.4318 99.1534C91.2765 98.7405 91.0455 98.4205 90.7386 98.1932C90.4356 97.9621 90.0625 97.8466 89.6193 97.8466C89.161 97.8466 88.7784 97.9659 88.4716 98.2045C88.1648 98.4432 87.9337 98.7708 87.7784 99.1875C87.6231 99.6004 87.5455 100.07 87.5455 100.597C87.5455 101.131 87.6231 101.598 87.7784 102C87.9375 102.398 88.1705 102.708 88.4773 102.932C88.7879 103.152 89.1686 103.261 89.6193 103.261ZM95.8068 105V96.2727H97.8636V105H95.8068ZM96.8409 95.0341C96.5152 95.0341 96.2348 94.9261 96 94.7102C95.7652 94.4905 95.6477 94.2273 95.6477 93.9205C95.6477 93.6098 95.7652 93.3466 96 93.1307C96.2348 92.911 96.5152 92.8011 96.8409 92.8011C97.1705 92.8011 97.4508 92.911 97.6818 93.1307C97.9167 93.3466 98.0341 93.6098 98.0341 93.9205C98.0341 94.2273 97.9167 94.4905 97.6818 94.7102C97.4508 94.9261 97.1705 95.0341 96.8409 95.0341ZM102.036 99.8864V105H99.9787V96.2727H101.945V97.7557H102.047C102.248 97.267 102.568 96.8788 103.007 96.5909C103.45 96.303 103.998 96.1591 104.649 96.1591C105.251 96.1591 105.776 96.2879 106.223 96.5455C106.674 96.803 107.022 97.1761 107.268 97.6648C107.518 98.1534 107.642 98.7462 107.638 99.4432V105H105.581V99.7614C105.581 99.178 105.429 98.7216 105.126 98.392C104.827 98.0625 104.412 97.8977 103.882 97.8977C103.522 97.8977 103.202 97.9773 102.922 98.1364C102.645 98.2917 102.428 98.517 102.268 98.8125C102.113 99.108 102.036 99.4659 102.036 99.8864ZM111.786 99.8864V105H109.729V96.2727H111.695V97.7557H111.797C111.998 97.267 112.318 96.8788 112.757 96.5909C113.2 96.303 113.748 96.1591 114.399 96.1591C115.001 96.1591 115.526 96.2879 115.973 96.5455C116.424 96.803 116.772 97.1761 117.018 97.6648C117.268 98.1534 117.392 98.7462 117.388 99.4432V105H115.331V99.7614C115.331 99.178 115.179 98.7216 114.876 98.392C114.577 98.0625 114.162 97.8977 113.632 97.8977C113.272 97.8977 112.952 97.9773 112.672 98.1364C112.395 98.2917 112.178 98.517 112.018 98.8125C111.863 99.108 111.786 99.4659 111.786 99.8864ZM123.342 105.17C122.467 105.17 121.712 104.989 121.075 104.625C120.443 104.258 119.956 103.739 119.615 103.068C119.274 102.394 119.104 101.6 119.104 100.688C119.104 99.7898 119.274 99.0019 119.615 98.3239C119.96 97.642 120.441 97.1117 121.058 96.733C121.676 96.3504 122.401 96.1591 123.234 96.1591C123.772 96.1591 124.28 96.2462 124.757 96.4205C125.238 96.5909 125.662 96.8561 126.03 97.2159C126.401 97.5758 126.693 98.0341 126.905 98.5909C127.117 99.1439 127.223 99.803 127.223 100.568V101.199H120.07V99.8125H125.251C125.248 99.4186 125.162 99.0682 124.996 98.7614C124.829 98.4508 124.596 98.2064 124.297 98.0284C124.001 97.8504 123.657 97.7614 123.263 97.7614C122.842 97.7614 122.473 97.8636 122.155 98.0682C121.837 98.2689 121.589 98.5341 121.411 98.8636C121.236 99.1894 121.147 99.5473 121.143 99.9375V101.148C121.143 101.655 121.236 102.091 121.422 102.455C121.607 102.814 121.867 103.091 122.2 103.284C122.534 103.473 122.924 103.568 123.371 103.568C123.67 103.568 123.941 103.527 124.183 103.443C124.426 103.356 124.636 103.229 124.814 103.062C124.992 102.896 125.126 102.689 125.217 102.443L127.138 102.659C127.017 103.167 126.786 103.61 126.445 103.989C126.107 104.364 125.676 104.655 125.149 104.864C124.623 105.068 124.02 105.17 123.342 105.17ZM128.963 105V96.2727H130.957V97.7273H131.048C131.207 97.2235 131.48 96.8352 131.866 96.5625C132.257 96.286 132.702 96.1477 133.202 96.1477C133.315 96.1477 133.442 96.1534 133.582 96.1648C133.726 96.1723 133.846 96.1856 133.94 96.2045V98.0966C133.853 98.0663 133.715 98.0398 133.526 98.017C133.34 97.9905 133.16 97.9773 132.986 97.9773C132.611 97.9773 132.274 98.0587 131.974 98.2216C131.679 98.3807 131.446 98.6023 131.276 98.8864C131.105 99.1705 131.02 99.4981 131.02 99.8693V105H128.963Z" fill="black"/>
<path d="M89.3693 57.1818C88.589 57.1818 87.9091 56.9867 87.3295 56.5966C86.7538 56.2064 86.3068 55.6723 85.9886 54.9943C85.6705 54.3163 85.5114 53.5436 85.5114 52.6761C85.5114 51.8011 85.6723 51.0227 85.9943 50.3409C86.3201 49.6591 86.7708 49.125 87.3466 48.7386C87.9223 48.3485 88.5909 48.1534 89.3523 48.1534C89.9356 48.1534 90.464 48.267 90.9375 48.4943C91.411 48.7178 91.8011 49.0341 92.108 49.4432C92.4186 49.8485 92.6136 50.322 92.6932 50.8636H91.6705C91.5644 50.3712 91.3087 49.9508 90.9034 49.6023C90.5019 49.25 89.9905 49.0739 89.3693 49.0739C88.8125 49.0739 88.3201 49.2254 87.892 49.5284C87.464 49.8277 87.1288 50.2462 86.8864 50.7841C86.6477 51.3182 86.5284 51.9375 86.5284 52.642C86.5284 53.3504 86.6458 53.9773 86.8807 54.5227C87.1155 55.0644 87.4451 55.4886 87.8693 55.7955C88.2973 56.1023 88.7973 56.2557 89.3693 56.2557C89.7557 56.2557 90.108 56.1837 90.4261 56.0398C90.7481 55.892 91.017 55.6837 91.233 55.4148C91.4527 55.1458 91.6004 54.8258 91.6761 54.4545H92.6989C92.6231 54.9811 92.4356 55.4508 92.1364 55.8636C91.8409 56.2727 91.4564 56.5947 90.983 56.8295C90.5133 57.0644 89.9754 57.1818 89.3693 57.1818ZM98.2585 56.0511V48.858H99.2301V56.0511H98.2585ZM95.1449 52.9375V51.9716H102.344V52.9375H95.1449ZM108.68 56.0511V48.858H109.652V56.0511H108.68ZM105.567 52.9375V51.9716H112.766V52.9375H105.567Z" fill="black"/>
<path d="M66.4645 154.159C65.8168 154.159 65.2372 154.028 64.7259 153.767C64.2183 153.502 63.813 153.138 63.5099 152.676C63.2107 152.214 63.0516 151.686 63.0327 151.091H64.0611C64.0952 151.708 64.3376 152.216 64.7884 152.614C65.2391 153.008 65.7978 153.205 66.4645 153.205C66.9834 153.205 67.4455 153.081 67.8509 152.835C68.2562 152.585 68.5724 152.244 68.7997 151.812C69.0308 151.377 69.1463 150.886 69.1463 150.341C69.1425 149.773 69.0194 149.273 68.777 148.841C68.5346 148.405 68.205 148.064 67.7884 147.818C67.3755 147.572 66.9115 147.449 66.3963 147.449C66.0062 147.445 65.6236 147.509 65.2486 147.642C64.8736 147.775 64.5611 147.945 64.3111 148.153L63.2486 148.017L63.9474 142.364H69.6974V143.318H64.8395L64.3736 147.21H64.4304C64.688 146.994 65.0005 146.818 65.3679 146.682C65.7391 146.545 66.1312 146.477 66.544 146.477C67.2296 146.477 67.8452 146.642 68.3906 146.972C68.9399 147.301 69.3736 147.756 69.6918 148.335C70.0137 148.911 70.1747 149.574 70.1747 150.324C70.1747 151.059 70.0137 151.716 69.6918 152.295C69.3736 152.871 68.9342 153.326 68.3736 153.659C67.8168 153.992 67.1804 154.159 66.4645 154.159ZM77.1321 154V145.273H78.1151V146.614H78.206C78.3802 146.163 78.67 145.809 79.0753 145.551C79.4844 145.29 79.9749 145.159 80.5469 145.159C81.1491 145.159 81.6435 145.301 82.0298 145.585C82.42 145.866 82.7116 146.252 82.9048 146.744H82.9787C83.1757 146.259 83.4957 145.875 83.9389 145.591C84.3859 145.303 84.9276 145.159 85.5639 145.159C86.3745 145.159 87.0147 145.415 87.4844 145.926C87.9541 146.434 88.1889 147.176 88.1889 148.153V154H87.1776V148.153C87.1776 147.464 87.0014 146.947 86.6491 146.602C86.2969 146.258 85.8329 146.085 85.2571 146.085C84.5904 146.085 84.0772 146.29 83.7173 146.699C83.3575 147.108 83.1776 147.627 83.1776 148.256V154H82.1435V148.062C82.1435 147.472 81.9787 146.994 81.6491 146.631C81.3196 146.267 80.8556 146.085 80.2571 146.085C79.8556 146.085 79.4938 146.184 79.1719 146.381C78.8537 146.578 78.6018 146.852 78.4162 147.205C78.2344 147.553 78.1435 147.955 78.1435 148.409V154H77.1321ZM94.2585 154.182C93.5047 154.182 92.8381 153.991 92.2585 153.608C91.6828 153.225 91.232 152.697 90.9062 152.023C90.5805 151.345 90.4176 150.562 90.4176 149.676C90.4176 148.782 90.5805 147.996 90.9062 147.318C91.232 146.636 91.6828 146.106 92.2585 145.727C92.8381 145.345 93.5047 145.153 94.2585 145.153C95.0123 145.153 95.6771 145.345 96.2528 145.727C96.8286 146.11 97.2794 146.64 97.6051 147.318C97.9347 147.996 98.0994 148.782 98.0994 149.676C98.0994 150.562 97.9366 151.345 97.6108 152.023C97.285 152.697 96.8324 153.225 96.2528 153.608C95.6771 153.991 95.0123 154.182 94.2585 154.182ZM94.2585 153.256C94.8646 153.256 95.3778 153.093 95.7983 152.767C96.2188 152.441 96.5369 152.008 96.7528 151.466C96.9725 150.924 97.0824 150.328 97.0824 149.676C97.0824 149.025 96.9725 148.426 96.7528 147.881C96.5369 147.335 96.2188 146.898 95.7983 146.568C95.3778 146.239 94.8646 146.074 94.2585 146.074C93.6563 146.074 93.143 146.239 92.7188 146.568C92.2983 146.898 91.9782 147.335 91.7585 147.881C91.5426 148.426 91.4347 149.025 91.4347 149.676C91.4347 150.328 91.5426 150.924 91.7585 151.466C91.9782 152.008 92.2983 152.441 92.7188 152.767C93.1392 153.093 93.6525 153.256 94.2585 153.256ZM101.331 148.545V154H100.32V145.273H101.303V146.642H101.393C101.598 146.195 101.916 145.837 102.348 145.568C102.784 145.295 103.321 145.159 103.962 145.159C104.549 145.159 105.064 145.282 105.507 145.528C105.954 145.771 106.301 146.129 106.547 146.602C106.797 147.076 106.922 147.657 106.922 148.347V154H105.911V148.409C105.911 147.693 105.71 147.127 105.308 146.71C104.911 146.294 104.376 146.085 103.706 146.085C103.248 146.085 102.84 146.184 102.484 146.381C102.128 146.578 101.846 146.862 101.638 147.233C101.433 147.6 101.331 148.038 101.331 148.545ZM113.023 145.273V146.153H108.858V145.273H113.023ZM110.159 143.182H111.176V151.722C111.176 152.085 111.239 152.371 111.364 152.58C111.489 152.784 111.652 152.93 111.852 153.017C112.053 153.1 112.267 153.142 112.494 153.142C112.627 153.142 112.741 153.134 112.835 153.119C112.93 153.1 113.013 153.081 113.085 153.062L113.301 153.977C113.203 154.015 113.081 154.049 112.938 154.08C112.794 154.114 112.616 154.131 112.403 154.131C112.032 154.131 111.674 154.049 111.33 153.886C110.989 153.723 110.708 153.481 110.489 153.159C110.269 152.837 110.159 152.438 110.159 151.96V143.182ZM116.518 148.545V154H115.507V142.364H116.518V146.642H116.609C116.814 146.191 117.13 145.831 117.558 145.562C117.99 145.294 118.536 145.159 119.195 145.159C119.786 145.159 120.304 145.28 120.751 145.523C121.198 145.765 121.547 146.123 121.797 146.597C122.047 147.07 122.172 147.653 122.172 148.347V154H121.155V148.409C121.155 147.689 120.954 147.123 120.553 146.71C120.155 146.294 119.617 146.085 118.939 146.085C118.473 146.085 118.058 146.184 117.695 146.381C117.331 146.578 117.043 146.862 116.831 147.233C116.623 147.6 116.518 148.038 116.518 148.545ZM128.614 141.818L124.864 155.75H123.915L127.665 141.818H128.614ZM136.23 147.188L135.304 147.449C135.213 147.187 135.084 146.951 134.918 146.739C134.751 146.527 134.533 146.358 134.264 146.233C133.999 146.108 133.67 146.045 133.276 146.045C132.685 146.045 132.2 146.186 131.821 146.466C131.442 146.746 131.253 147.108 131.253 147.551C131.253 147.926 131.382 148.231 131.639 148.466C131.901 148.697 132.302 148.881 132.844 149.017L134.162 149.341C134.893 149.519 135.44 149.801 135.804 150.188C136.171 150.574 136.355 151.059 136.355 151.642C136.355 152.134 136.219 152.572 135.946 152.955C135.673 153.337 135.293 153.638 134.804 153.858C134.319 154.074 133.757 154.182 133.116 154.182C132.264 154.182 131.562 153.991 131.009 153.608C130.455 153.222 130.101 152.665 129.946 151.938L130.918 151.699C131.043 152.218 131.287 152.61 131.651 152.875C132.018 153.14 132.501 153.273 133.099 153.273C133.77 153.273 134.306 153.123 134.707 152.824C135.109 152.521 135.31 152.142 135.31 151.688C135.31 151.335 135.192 151.04 134.957 150.801C134.723 150.559 134.366 150.381 133.889 150.267L132.463 149.926C131.705 149.744 131.145 149.456 130.781 149.062C130.418 148.669 130.236 148.18 130.236 147.597C130.236 147.116 130.366 146.693 130.628 146.33C130.889 145.962 131.249 145.674 131.707 145.466C132.166 145.258 132.688 145.153 133.276 145.153C134.075 145.153 134.713 145.335 135.19 145.699C135.671 146.059 136.018 146.555 136.23 147.188Z" fill="black"/>
<defs>
<filter id="filter0_d_181_830" x="9.39746" y="0" width="181.205" height="208" filterUnits="userSpaceOnUse" color-interpolation-filters="sRGB">
<feFlood flood-opacity="0" result="BackgroundImageFix"/>
<feColorMatrix in="SourceAlpha" type="matrix" values="0 0 0 0 0 0 0 0 0 0 0 0 0 0 0 0 0 0 127 0" result="hardAlpha"/>
<feOffset dy="4"/>
<feGaussianBlur stdDeviation="2"/>
<feComposite in2="hardAlpha" operator="out"/>
<feColorMatrix type="matrix" values="0 0 0 0 0 0 0 0 0 0 0 0 0 0 0 0 0 0 0.25 0"/>
<feBlend mode="normal" in2="BackgroundImageFix" result="effect1_dropShadow_181_830"/>
<feBlend mode="normal" in="SourceGraphic" in2="effect1_dropShadow_181_830" result="shape"/>
</filter>
</defs>
</svg>
