<svg width="200" height="208" viewBox="0 0 200 208" fill="none" xmlns="http://www.w3.org/2000/svg">
<g filter="url(#filter0_d_181_824)">
<path d="M100 0L186.603 50V150L100 200L13.3975 150V50L100 0Z" fill="white"/>
<path d="M14.3975 50.5774L100 1.1547L185.603 50.5774V149.423L100 198.845L14.3975 149.423V50.5774Z" stroke="#2CC140" stroke-width="2"/>
</g>
<path d="M65.8977 105V93.3636H70.3523C71.1932 93.3636 71.892 93.4962 72.4489 93.7614C73.0095 94.0227 73.428 94.3807 73.7045 94.8352C73.9848 95.2898 74.125 95.8049 74.125 96.3807C74.125 96.8542 74.0341 97.2595 73.8523 97.5966C73.6705 97.9299 73.4261 98.2008 73.1193 98.4091C72.8125 98.6174 72.4697 98.767 72.0909 98.858V98.9716C72.5038 98.9943 72.8996 99.1212 73.2784 99.3523C73.661 99.5795 73.9735 99.9015 74.2159 100.318C74.4583 100.735 74.5795 101.239 74.5795 101.83C74.5795 102.432 74.4337 102.973 74.142 103.455C73.8504 103.932 73.411 104.309 72.8239 104.585C72.2367 104.862 71.4981 105 70.608 105H65.8977ZM68.0057 103.239H70.2727C71.0379 103.239 71.589 103.093 71.9261 102.801C72.267 102.506 72.4375 102.127 72.4375 101.665C72.4375 101.32 72.3523 101.009 72.1818 100.733C72.0114 100.453 71.7689 100.233 71.4545 100.074C71.1402 99.911 70.7652 99.8295 70.3295 99.8295H68.0057V103.239ZM68.0057 98.3125H70.0909C70.4545 98.3125 70.7822 98.2462 71.0739 98.1136C71.3655 97.9773 71.5947 97.786 71.7614 97.5398C71.9318 97.2898 72.017 96.9943 72.017 96.6534C72.017 96.2027 71.858 95.8314 71.5398 95.5398C71.2254 95.2481 70.7576 95.1023 70.1364 95.1023H68.0057V98.3125ZM80.1861 105.17C79.3111 105.17 78.5554 104.989 77.919 104.625C77.2865 104.258 76.7997 103.739 76.4588 103.068C76.1179 102.394 75.9474 101.6 75.9474 100.688C75.9474 99.7898 76.1179 99.0019 76.4588 98.3239C76.8035 97.642 77.2846 97.1117 77.902 96.733C78.5194 96.3504 79.2448 96.1591 80.0781 96.1591C80.616 96.1591 81.1236 96.2462 81.6009 96.4205C82.0819 96.5909 82.5062 96.8561 82.8736 97.2159C83.2448 97.5758 83.5365 98.0341 83.7486 98.5909C83.9607 99.1439 84.0668 99.803 84.0668 100.568V101.199H76.9134V99.8125H82.0952C82.0914 99.4186 82.0062 99.0682 81.8395 98.7614C81.6728 98.4508 81.4399 98.2064 81.1406 98.0284C80.8452 97.8504 80.5005 97.7614 80.1065 97.7614C79.6861 97.7614 79.3168 97.8636 78.9986 98.0682C78.6804 98.2689 78.4323 98.5341 78.2543 98.8636C78.08 99.1894 77.991 99.5473 77.9872 99.9375V101.148C77.9872 101.655 78.08 102.091 78.2656 102.455C78.4512 102.814 78.7107 103.091 79.044 103.284C79.3774 103.473 79.7675 103.568 80.2145 103.568C80.5137 103.568 80.7846 103.527 81.027 103.443C81.2694 103.356 81.4796 103.229 81.6577 103.062C81.8357 102.896 81.9702 102.689 82.0611 102.443L83.9815 102.659C83.8603 103.167 83.6293 103.61 83.2884 103.989C82.9512 104.364 82.5194 104.655 81.9929 104.864C81.4664 105.068 80.8641 105.17 80.1861 105.17ZM89.6023 108.455C88.8636 108.455 88.2292 108.354 87.6989 108.153C87.1686 107.956 86.7424 107.691 86.4205 107.358C86.0985 107.025 85.875 106.655 85.75 106.25L87.6023 105.801C87.6856 105.972 87.8068 106.14 87.9659 106.307C88.125 106.477 88.339 106.617 88.608 106.727C88.8807 106.841 89.2235 106.898 89.6364 106.898C90.2197 106.898 90.7027 106.756 91.0852 106.472C91.4678 106.191 91.6591 105.729 91.6591 105.085V103.432H91.5568C91.4508 103.644 91.2955 103.862 91.0909 104.085C90.8902 104.309 90.6231 104.496 90.2898 104.648C89.9602 104.799 89.5455 104.875 89.0455 104.875C88.375 104.875 87.767 104.718 87.2216 104.403C86.6799 104.085 86.2481 103.612 85.9261 102.983C85.608 102.35 85.4489 101.559 85.4489 100.608C85.4489 99.6496 85.608 98.8409 85.9261 98.1818C86.2481 97.5189 86.6818 97.017 87.2273 96.6761C87.7727 96.3314 88.3807 96.1591 89.0511 96.1591C89.5625 96.1591 89.983 96.2462 90.3125 96.4205C90.6458 96.5909 90.911 96.7973 91.108 97.0398C91.3049 97.2784 91.4545 97.5038 91.5568 97.7159H91.6705V96.2727H93.6989V105.142C93.6989 105.888 93.5208 106.506 93.1648 106.994C92.8087 107.483 92.322 107.848 91.7045 108.091C91.0871 108.333 90.3864 108.455 89.6023 108.455ZM89.6193 103.261C90.0549 103.261 90.4261 103.155 90.733 102.943C91.0398 102.731 91.2727 102.426 91.4318 102.028C91.5909 101.631 91.6705 101.153 91.6705 100.597C91.6705 100.047 91.5909 99.5663 91.4318 99.1534C91.2765 98.7405 91.0455 98.4205 90.7386 98.1932C90.4356 97.9621 90.0625 97.8466 89.6193 97.8466C89.161 97.8466 88.7784 97.9659 88.4716 98.2045C88.1648 98.4432 87.9337 98.7708 87.7784 99.1875C87.6231 99.6004 87.5455 100.07 87.5455 100.597C87.5455 101.131 87.6231 101.598 87.7784 102C87.9375 102.398 88.1705 102.708 88.4773 102.932C88.7879 103.152 89.1686 103.261 89.6193 103.261ZM95.8068 105V96.2727H97.8636V105H95.8068ZM96.8409 95.0341C96.5152 95.0341 96.2348 94.9261 96 94.7102C95.7652 94.4905 95.6477 94.2273 95.6477 93.9205C95.6477 93.6098 95.7652 93.3466 96 93.1307C96.2348 92.911 96.5152 92.8011 96.8409 92.8011C97.1705 92.8011 97.4508 92.911 97.6818 93.1307C97.9167 93.3466 98.0341 93.6098 98.0341 93.9205C98.0341 94.2273 97.9167 94.4905 97.6818 94.7102C97.4508 94.9261 97.1705 95.0341 96.8409 95.0341ZM102.036 99.8864V105H99.9787V96.2727H101.945V97.7557H102.047C102.248 97.267 102.568 96.8788 103.007 96.5909C103.45 96.303 103.998 96.1591 104.649 96.1591C105.251 96.1591 105.776 96.2879 106.223 96.5455C106.674 96.803 107.022 97.1761 107.268 97.6648C107.518 98.1534 107.642 98.7462 107.638 99.4432V105H105.581V99.7614C105.581 99.178 105.429 98.7216 105.126 98.392C104.827 98.0625 104.412 97.8977 103.882 97.8977C103.522 97.8977 103.202 97.9773 102.922 98.1364C102.645 98.2917 102.428 98.517 102.268 98.8125C102.113 99.108 102.036 99.4659 102.036 99.8864ZM111.786 99.8864V105H109.729V96.2727H111.695V97.7557H111.797C111.998 97.267 112.318 96.8788 112.757 96.5909C113.2 96.303 113.748 96.1591 114.399 96.1591C115.001 96.1591 115.526 96.2879 115.973 96.5455C116.424 96.803 116.772 97.1761 117.018 97.6648C117.268 98.1534 117.392 98.7462 117.388 99.4432V105H115.331V99.7614C115.331 99.178 115.179 98.7216 114.876 98.392C114.577 98.0625 114.162 97.8977 113.632 97.8977C113.272 97.8977 112.952 97.9773 112.672 98.1364C112.395 98.2917 112.178 98.517 112.018 98.8125C111.863 99.108 111.786 99.4659 111.786 99.8864ZM123.342 105.17C122.467 105.17 121.712 104.989 121.075 104.625C120.443 104.258 119.956 103.739 119.615 103.068C119.274 102.394 119.104 101.6 119.104 100.688C119.104 99.7898 119.274 99.0019 119.615 98.3239C119.96 97.642 120.441 97.1117 121.058 96.733C121.676 96.3504 122.401 96.1591 123.234 96.1591C123.772 96.1591 124.28 96.2462 124.757 96.4205C125.238 96.5909 125.662 96.8561 126.03 97.2159C126.401 97.5758 126.693 98.0341 126.905 98.5909C127.117 99.1439 127.223 99.803 127.223 100.568V101.199H120.07V99.8125H125.251C125.248 99.4186 125.162 99.0682 124.996 98.7614C124.829 98.4508 124.596 98.2064 124.297 98.0284C124.001 97.8504 123.657 97.7614 123.263 97.7614C122.842 97.7614 122.473 97.8636 122.155 98.0682C121.837 98.2689 121.589 98.5341 121.411 98.8636C121.236 99.1894 121.147 99.5473 121.143 99.9375V101.148C121.143 101.655 121.236 102.091 121.422 102.455C121.607 102.814 121.867 103.091 122.2 103.284C122.534 103.473 122.924 103.568 123.371 103.568C123.67 103.568 123.941 103.527 124.183 103.443C124.426 103.356 124.636 103.229 124.814 103.062C124.992 102.896 125.126 102.689 125.217 102.443L127.138 102.659C127.017 103.167 126.786 103.61 126.445 103.989C126.107 104.364 125.676 104.655 125.149 104.864C124.623 105.068 124.02 105.17 123.342 105.17ZM128.963 105V96.2727H130.957V97.7273H131.048C131.207 97.2235 131.48 96.8352 131.866 96.5625C132.257 96.286 132.702 96.1477 133.202 96.1477C133.315 96.1477 133.442 96.1534 133.582 96.1648C133.726 96.1723 133.846 96.1856 133.94 96.2045V98.0966C133.853 98.0663 133.715 98.0398 133.526 98.017C133.34 97.9905 133.16 97.9773 132.986 97.9773C132.611 97.9773 132.274 98.0587 131.974 98.2216C131.679 98.3807 131.446 98.6023 131.276 98.8864C131.105 99.1705 131.02 99.4981 131.02 99.8693V105H128.963Z" fill="black"/>
<path d="M76.674 57.1818C75.8937 57.1818 75.2138 56.9867 74.6342 56.5966C74.0585 56.2064 73.6115 55.6723 73.2933 54.9943C72.9751 54.3163 72.8161 53.5436 72.8161 52.6761C72.8161 51.8011 72.977 51.0227 73.299 50.3409C73.6248 49.6591 74.0755 49.125 74.6513 48.7386C75.227 48.3485 75.8956 48.1534 76.657 48.1534C77.2403 48.1534 77.7687 48.267 78.2422 48.4943C78.7157 48.7178 79.1058 49.0341 79.4126 49.4432C79.7232 49.8485 79.9183 50.322 79.9979 50.8636H78.9751C78.8691 50.3712 78.6134 49.9508 78.2081 49.6023C77.8066 49.25 77.2952 49.0739 76.674 49.0739C76.1172 49.0739 75.6248 49.2254 75.1967 49.5284C74.7687 49.8277 74.4335 50.2462 74.1911 50.7841C73.9524 51.3182 73.8331 51.9375 73.8331 52.642C73.8331 53.3504 73.9505 53.9773 74.1854 54.5227C74.4202 55.0644 74.7498 55.4886 75.174 55.7955C75.602 56.1023 76.102 56.2557 76.674 56.2557C77.0604 56.2557 77.4126 56.1837 77.7308 56.0398C78.0528 55.892 78.3217 55.6837 78.5376 55.4148C78.7573 55.1458 78.9051 54.8258 78.9808 54.4545H80.0036C79.9278 54.9811 79.7403 55.4508 79.4411 55.8636C79.1456 56.2727 78.7611 56.5947 78.2876 56.8295C77.8179 57.0644 77.2801 57.1818 76.674 57.1818ZM92.5348 50.1875L91.6087 50.4489C91.5178 50.1875 91.389 49.9508 91.2223 49.7386C91.0556 49.5265 90.8378 49.358 90.5689 49.233C90.3037 49.108 89.9742 49.0455 89.5803 49.0455C88.9893 49.0455 88.5045 49.1856 88.1257 49.4659C87.7469 49.7462 87.5575 50.108 87.5575 50.5511C87.5575 50.9261 87.6863 51.2311 87.9439 51.4659C88.2053 51.697 88.6068 51.8807 89.1484 52.017L90.4666 52.3409C91.1977 52.5189 91.745 52.8011 92.1087 53.1875C92.4761 53.5739 92.6598 54.0587 92.6598 54.642C92.6598 55.1345 92.5234 55.572 92.2507 55.9545C91.978 56.3371 91.5973 56.6383 91.1087 56.858C90.6238 57.0739 90.0613 57.1818 89.4212 57.1818C88.5689 57.1818 87.8662 56.9905 87.3132 56.608C86.7602 56.2216 86.406 55.6648 86.2507 54.9375L87.2223 54.6989C87.3473 55.2178 87.5916 55.6098 87.9553 55.875C88.3227 56.1402 88.8056 56.2727 89.4041 56.2727C90.0746 56.2727 90.6106 56.1231 91.0121 55.8239C91.4136 55.5208 91.6143 55.142 91.6143 54.6875C91.6143 54.3352 91.4969 54.0398 91.2621 53.8011C91.0272 53.5587 90.6712 53.3807 90.1939 53.267L88.7678 52.9261C88.0102 52.7443 87.4496 52.4564 87.0859 52.0625C86.7223 51.6686 86.5405 51.1799 86.5405 50.5966C86.5405 50.1155 86.6712 49.6932 86.9325 49.3295C87.1939 48.9621 87.5537 48.6742 88.0121 48.4659C88.4704 48.2576 88.9931 48.1534 89.5803 48.1534C90.3795 48.1534 91.0178 48.3352 91.495 48.6989C91.9761 49.0587 92.3227 49.5549 92.5348 50.1875ZM95.8857 51.5455V57H94.8743V45.3636H95.8857V49.642H95.9766C96.1811 49.1913 96.4974 48.8314 96.9254 48.5625C97.3572 48.2936 97.9027 48.1591 98.5618 48.1591C99.1527 48.1591 99.6716 48.2803 100.119 48.5227C100.566 48.7652 100.914 49.1231 101.164 49.5966C101.414 50.0701 101.539 50.6534 101.539 51.3466V57H100.522V51.4091C100.522 50.6894 100.321 50.1231 99.9197 49.7102C99.522 49.2936 98.9841 49.0852 98.3061 49.0852C97.8402 49.0852 97.4254 49.1837 97.0618 49.3807C96.6982 49.5777 96.4103 49.8617 96.1982 50.233C95.9898 50.6004 95.8857 51.0379 95.8857 51.5455ZM106.64 57.1989C106.113 57.1989 105.632 57.0966 105.197 56.892C104.761 56.6837 104.415 56.3845 104.157 55.9943C103.899 55.6004 103.771 55.1231 103.771 54.5625C103.771 54.1307 103.852 53.767 104.015 53.4716C104.178 53.1761 104.409 52.9337 104.708 52.7443C105.007 52.5549 105.362 52.4053 105.771 52.2955C106.18 52.1856 106.63 52.1004 107.123 52.0398C107.612 51.9792 108.024 51.9261 108.362 51.8807C108.702 51.8352 108.962 51.7633 109.14 51.6648C109.318 51.5663 109.407 51.4072 109.407 51.1875V50.983C109.407 50.3883 109.229 49.9205 108.873 49.5795C108.521 49.2348 108.013 49.0625 107.35 49.0625C106.721 49.0625 106.208 49.2008 105.81 49.4773C105.416 49.7538 105.14 50.0795 104.981 50.4545L104.021 50.108C104.218 49.6307 104.49 49.25 104.839 48.9659C105.187 48.678 105.577 48.4716 106.009 48.3466C106.441 48.2178 106.879 48.1534 107.322 48.1534C107.655 48.1534 108.002 48.197 108.362 48.2841C108.725 48.3712 109.062 48.5227 109.373 48.7386C109.683 48.9508 109.935 49.2481 110.129 49.6307C110.322 50.0095 110.418 50.4905 110.418 51.0739V57H109.407V55.6193H109.344C109.223 55.8769 109.043 56.1269 108.805 56.3693C108.566 56.6117 108.267 56.8106 107.907 56.9659C107.547 57.1212 107.125 57.1989 106.64 57.1989ZM106.776 56.2727C107.314 56.2727 107.78 56.1534 108.174 55.9148C108.568 55.6761 108.871 55.3598 109.083 54.9659C109.299 54.5682 109.407 54.1307 109.407 53.6534V52.392C109.331 52.464 109.204 52.5284 109.026 52.5852C108.852 52.642 108.649 52.6932 108.418 52.7386C108.191 52.7803 107.964 52.8163 107.737 52.8466C107.509 52.8769 107.305 52.9034 107.123 52.9261C106.63 52.9867 106.21 53.0814 105.862 53.2102C105.513 53.339 105.246 53.517 105.06 53.7443C104.875 53.9678 104.782 54.2557 104.782 54.608C104.782 55.1383 104.971 55.5492 105.35 55.8409C105.729 56.1288 106.204 56.2727 106.776 56.2727ZM113.109 57V48.2727H114.092V49.6136H114.165C114.34 49.1742 114.643 48.8201 115.075 48.5511C115.51 48.2784 116.003 48.142 116.552 48.142C116.635 48.142 116.728 48.1439 116.83 48.1477C116.933 48.1515 117.018 48.1553 117.086 48.1591V49.1875C117.04 49.1799 116.961 49.1686 116.847 49.1534C116.734 49.1383 116.611 49.1307 116.478 49.1307C116.023 49.1307 115.618 49.2273 115.262 49.4205C114.91 49.6098 114.631 49.8731 114.427 50.2102C114.222 50.5473 114.12 50.9318 114.12 51.3636V57H113.109ZM118.812 60.2727V48.2727H119.795V49.9375H119.914C120.035 49.6761 120.202 49.4091 120.414 49.1364C120.626 48.8598 120.906 48.6269 121.255 48.4375C121.607 48.2481 122.05 48.1534 122.585 48.1534C123.304 48.1534 123.933 48.3428 124.471 48.7216C125.013 49.0966 125.433 49.6231 125.732 50.3011C126.035 50.9754 126.187 51.7614 126.187 52.6591C126.187 53.5606 126.035 54.3504 125.732 55.0284C125.433 55.7064 125.013 56.2348 124.471 56.6136C123.933 56.9924 123.308 57.1818 122.596 57.1818C122.069 57.1818 121.628 57.0871 121.272 56.8977C120.92 56.7083 120.634 56.4754 120.414 56.1989C120.198 55.9186 120.031 55.6458 119.914 55.3807H119.823V60.2727H118.812ZM119.812 52.642C119.812 53.3466 119.916 53.9716 120.124 54.517C120.336 55.0587 120.639 55.4848 121.033 55.7955C121.431 56.1023 121.912 56.2557 122.477 56.2557C123.056 56.2557 123.545 56.0966 123.942 55.7784C124.344 55.4564 124.649 55.0227 124.857 54.4773C125.069 53.9318 125.175 53.3201 125.175 52.642C125.175 51.9716 125.071 51.3674 124.863 50.8295C124.658 50.2917 124.355 49.8655 123.954 49.5511C123.552 49.233 123.06 49.0739 122.477 49.0739C121.908 49.0739 121.425 49.2273 121.028 49.5341C120.63 49.8371 120.327 50.2576 120.119 50.7955C119.914 51.3295 119.812 51.9451 119.812 52.642Z" fill="black"/>
<path d="M75.8161 142.364V154H74.7536V143.477H74.6854L71.9581 145.29V144.188L74.7081 142.364H75.8161ZM84.5945 157.273C84.3937 157.273 84.2062 157.254 84.032 157.216C83.8577 157.178 83.7195 157.136 83.6172 157.091L83.8899 156.199C84.2346 156.305 84.5414 156.343 84.8104 156.312C85.0793 156.286 85.3179 156.165 85.5263 155.949C85.7346 155.737 85.9202 155.411 86.0831 154.972L86.4013 154.085L83.1911 145.273H84.2876L86.8786 152.665H86.9581L89.549 145.273H90.6456L86.9524 155.381C86.7971 155.801 86.6058 156.152 86.3786 156.432C86.1513 156.716 85.888 156.926 85.5888 157.062C85.2933 157.203 84.9619 157.273 84.5945 157.273ZM95.8402 154.182C95.0258 154.182 94.3213 153.992 93.7266 153.614C93.1319 153.231 92.6716 152.703 92.3459 152.028C92.0239 151.35 91.8629 150.57 91.8629 149.688C91.8629 148.809 92.0239 148.028 92.3459 147.347C92.6716 146.661 93.1205 146.125 93.6925 145.739C94.2682 145.348 94.933 145.153 95.6868 145.153C96.1603 145.153 96.6167 145.241 97.0561 145.415C97.4955 145.585 97.8894 145.848 98.2379 146.205C98.5902 146.557 98.8686 147.002 99.0732 147.54C99.2777 148.074 99.38 148.706 99.38 149.438V149.938H92.5618V149.045H98.3459C98.3459 148.485 98.2322 147.981 98.005 147.534C97.7815 147.083 97.469 146.727 97.0675 146.466C96.6697 146.205 96.2095 146.074 95.6868 146.074C95.1338 146.074 94.647 146.222 94.2266 146.517C93.8061 146.812 93.4766 147.203 93.2379 147.688C93.0031 148.172 92.8838 148.703 92.88 149.278V149.812C92.88 150.506 92.9993 151.112 93.2379 151.631C93.4804 152.146 93.8232 152.545 94.2663 152.83C94.7095 153.114 95.2341 153.256 95.8402 153.256C96.2531 153.256 96.6148 153.191 96.9254 153.062C97.2398 152.934 97.5031 152.761 97.7152 152.545C97.9311 152.326 98.094 152.085 98.2038 151.824L99.1641 152.136C99.0315 152.504 98.8137 152.843 98.5107 153.153C98.2114 153.464 97.8364 153.714 97.3857 153.903C96.9387 154.089 96.4235 154.182 95.8402 154.182ZM104.046 154.199C103.52 154.199 103.039 154.097 102.603 153.892C102.167 153.684 101.821 153.384 101.563 152.994C101.306 152.6 101.177 152.123 101.177 151.562C101.177 151.131 101.258 150.767 101.421 150.472C101.584 150.176 101.815 149.934 102.114 149.744C102.414 149.555 102.768 149.405 103.177 149.295C103.586 149.186 104.037 149.1 104.529 149.04C105.018 148.979 105.431 148.926 105.768 148.881C106.109 148.835 106.368 148.763 106.546 148.665C106.724 148.566 106.813 148.407 106.813 148.188V147.983C106.813 147.388 106.635 146.92 106.279 146.58C105.927 146.235 105.419 146.062 104.756 146.062C104.128 146.062 103.614 146.201 103.217 146.477C102.823 146.754 102.546 147.08 102.387 147.455L101.427 147.108C101.624 146.631 101.897 146.25 102.245 145.966C102.594 145.678 102.984 145.472 103.415 145.347C103.847 145.218 104.285 145.153 104.728 145.153C105.061 145.153 105.408 145.197 105.768 145.284C106.131 145.371 106.469 145.523 106.779 145.739C107.09 145.951 107.342 146.248 107.535 146.631C107.728 147.009 107.825 147.491 107.825 148.074V154H106.813V152.619H106.751C106.629 152.877 106.45 153.127 106.211 153.369C105.972 153.612 105.673 153.811 105.313 153.966C104.953 154.121 104.531 154.199 104.046 154.199ZM104.183 153.273C104.72 153.273 105.186 153.153 105.58 152.915C105.974 152.676 106.277 152.36 106.489 151.966C106.705 151.568 106.813 151.131 106.813 150.653V149.392C106.737 149.464 106.611 149.528 106.433 149.585C106.258 149.642 106.056 149.693 105.825 149.739C105.597 149.78 105.37 149.816 105.143 149.847C104.915 149.877 104.711 149.903 104.529 149.926C104.037 149.987 103.616 150.081 103.268 150.21C102.919 150.339 102.652 150.517 102.467 150.744C102.281 150.968 102.188 151.256 102.188 151.608C102.188 152.138 102.378 152.549 102.756 152.841C103.135 153.129 103.611 153.273 104.183 153.273ZM110.515 154V145.273H111.498V146.614H111.572C111.746 146.174 112.049 145.82 112.481 145.551C112.916 145.278 113.409 145.142 113.958 145.142C114.041 145.142 114.134 145.144 114.237 145.148C114.339 145.152 114.424 145.155 114.492 145.159V146.188C114.447 146.18 114.367 146.169 114.254 146.153C114.14 146.138 114.017 146.131 113.884 146.131C113.43 146.131 113.024 146.227 112.668 146.42C112.316 146.61 112.038 146.873 111.833 147.21C111.629 147.547 111.526 147.932 111.526 148.364V154H110.515ZM119.45 141.818L115.7 155.75H114.751L118.501 141.818H119.45ZM127.066 147.188L126.14 147.449C126.049 147.187 125.92 146.951 125.754 146.739C125.587 146.527 125.369 146.358 125.1 146.233C124.835 146.108 124.505 146.045 124.112 146.045C123.521 146.045 123.036 146.186 122.657 146.466C122.278 146.746 122.089 147.108 122.089 147.551C122.089 147.926 122.218 148.231 122.475 148.466C122.737 148.697 123.138 148.881 123.68 149.017L124.998 149.341C125.729 149.519 126.276 149.801 126.64 150.188C127.007 150.574 127.191 151.059 127.191 151.642C127.191 152.134 127.055 152.572 126.782 152.955C126.509 153.337 126.129 153.638 125.64 153.858C125.155 154.074 124.593 154.182 123.952 154.182C123.1 154.182 122.397 153.991 121.844 153.608C121.291 153.222 120.937 152.665 120.782 151.938L121.754 151.699C121.879 152.218 122.123 152.61 122.487 152.875C122.854 153.14 123.337 153.273 123.935 153.273C124.606 153.273 125.142 153.123 125.543 152.824C125.945 152.521 126.146 152.142 126.146 151.688C126.146 151.335 126.028 151.04 125.793 150.801C125.558 150.559 125.202 150.381 124.725 150.267L123.299 149.926C122.541 149.744 121.981 149.456 121.617 149.062C121.254 148.669 121.072 148.18 121.072 147.597C121.072 147.116 121.202 146.693 121.464 146.33C121.725 145.962 122.085 145.674 122.543 145.466C123.002 145.258 123.524 145.153 124.112 145.153C124.911 145.153 125.549 145.335 126.026 145.699C126.507 146.059 126.854 146.555 127.066 147.188Z" fill="black"/>
<defs>
<filter id="filter0_d_181_824" x="9.39746" y="0" width="181.205" height="208" filterUnits="userSpaceOnUse" color-interpolation-filters="sRGB">
<feFlood flood-opacity="0" result="BackgroundImageFix"/>
<feColorMatrix in="SourceAlpha" type="matrix" values="0 0 0 0 0 0 0 0 0 0 0 0 0 0 0 0 0 0 127 0" result="hardAlpha"/>
<feOffset dy="4"/>
<feGaussianBlur stdDeviation="2"/>
<feComposite in2="hardAlpha" operator="out"/>
<feColorMatrix type="matrix" values="0 0 0 0 0 0 0 0 0 0 0 0 0 0 0 0 0 0 0.25 0"/>
<feBlend mode="normal" in2="BackgroundImageFix" result="effect1_dropShadow_181_824"/>
<feBlend mode="normal" in="SourceGraphic" in2="effect1_dropShadow_181_824" result="shape"/>
</filter>
</defs>
</svg>
