<svg width="200" height="208" viewBox="0 0 200 208" fill="none" xmlns="http://www.w3.org/2000/svg">
<g filter="url(#filter0_d_181_878)">
<path d="M100 0L186.603 50V150L100 200L13.3975 150V50L100 0Z" fill="white"/>
<path d="M14.3975 50.5774L100 1.1547L185.603 50.5774V149.423L100 198.845L14.3975 149.423V50.5774Z" stroke="#2CC140" stroke-width="2"/>
</g>
<path d="M53.4041 93.3636V105H51.2962V93.3636H53.4041ZM57.6527 99.8864V105H55.5959V96.2727H57.5618V97.7557H57.6641C57.8648 97.267 58.1849 96.8788 58.6243 96.5909C59.0675 96.303 59.6148 96.1591 60.2663 96.1591C60.8686 96.1591 61.3932 96.2879 61.8402 96.5455C62.291 96.803 62.6394 97.1761 62.8857 97.6648C63.1357 98.1534 63.2588 98.7462 63.255 99.4432V105H61.1982V99.7614C61.1982 99.178 61.0466 98.7216 60.7436 98.392C60.4444 98.0625 60.0296 97.8977 59.4993 97.8977C59.1394 97.8977 58.8194 97.9773 58.5391 98.1364C58.2625 98.2917 58.0447 98.517 57.8857 98.8125C57.7304 99.108 57.6527 99.4659 57.6527 99.8864ZM69.7038 96.2727V97.8636H64.6868V96.2727H69.7038ZM65.9254 94.1818H67.9822V102.375C67.9822 102.652 68.0239 102.864 68.1072 103.011C68.1944 103.155 68.308 103.254 68.4482 103.307C68.5883 103.36 68.7436 103.386 68.9141 103.386C69.0429 103.386 69.1603 103.377 69.2663 103.358C69.3762 103.339 69.4595 103.322 69.5163 103.307L69.8629 104.915C69.7531 104.953 69.5959 104.994 69.3913 105.04C69.1906 105.085 68.9444 105.112 68.6527 105.119C68.1375 105.134 67.6735 105.057 67.2607 104.886C66.8478 104.712 66.5201 104.443 66.2777 104.08C66.0391 103.716 65.9216 103.261 65.9254 102.716V94.1818ZM75.1939 105.17C74.3189 105.17 73.5632 104.989 72.9268 104.625C72.2943 104.258 71.8075 103.739 71.4666 103.068C71.1257 102.394 70.9553 101.6 70.9553 100.688C70.9553 99.7898 71.1257 99.0019 71.4666 98.3239C71.8113 97.642 72.2924 97.1117 72.9098 96.733C73.5272 96.3504 74.2526 96.1591 75.0859 96.1591C75.6238 96.1591 76.1314 96.2462 76.6087 96.4205C77.0897 96.5909 77.514 96.8561 77.8814 97.2159C78.2526 97.5758 78.5443 98.0341 78.7564 98.5909C78.9685 99.1439 79.0746 99.803 79.0746 100.568V101.199H71.9212V99.8125H77.103C77.0992 99.4186 77.014 99.0682 76.8473 98.7614C76.6806 98.4508 76.4477 98.2064 76.1484 98.0284C75.853 97.8504 75.5083 97.7614 75.1143 97.7614C74.6939 97.7614 74.3246 97.8636 74.0064 98.0682C73.6882 98.2689 73.4401 98.5341 73.2621 98.8636C73.0878 99.1894 72.9988 99.5473 72.995 99.9375V101.148C72.995 101.655 73.0878 102.091 73.2734 102.455C73.459 102.814 73.7185 103.091 74.0518 103.284C74.3852 103.473 74.7753 103.568 75.2223 103.568C75.5215 103.568 75.7924 103.527 76.0348 103.443C76.2772 103.356 76.4875 103.229 76.6655 103.062C76.8435 102.896 76.978 102.689 77.0689 102.443L78.9893 102.659C78.8681 103.167 78.6371 103.61 78.2962 103.989C77.959 104.364 77.5272 104.655 77.0007 104.864C76.4742 105.068 75.8719 105.17 75.1939 105.17ZM80.8146 105V96.2727H82.8089V97.7273H82.8999C83.0589 97.2235 83.3317 96.8352 83.718 96.5625C84.1082 96.286 84.5533 96.1477 85.0533 96.1477C85.1669 96.1477 85.2938 96.1534 85.4339 96.1648C85.5779 96.1723 85.6972 96.1856 85.7919 96.2045V98.0966C85.7048 98.0663 85.5665 98.0398 85.3771 98.017C85.1915 97.9905 85.0116 97.9773 84.8374 97.9773C84.4624 97.9773 84.1252 98.0587 83.826 98.2216C83.5305 98.3807 83.2976 98.6023 83.1271 98.8864C82.9567 99.1705 82.8714 99.4981 82.8714 99.8693V105H80.8146ZM87.1584 105V96.2727H89.1243V97.7557H89.2266C89.4084 97.2557 89.7095 96.8655 90.13 96.5852C90.5504 96.3011 91.0523 96.1591 91.6357 96.1591C92.2266 96.1591 92.7247 96.303 93.13 96.5909C93.5391 96.875 93.8269 97.2633 93.9936 97.7557H94.0845C94.2777 97.2708 94.6035 96.8845 95.0618 96.5966C95.5239 96.3049 96.0713 96.1591 96.7038 96.1591C97.5069 96.1591 98.1622 96.4129 98.6697 96.9205C99.1773 97.428 99.4311 98.1686 99.4311 99.142V105H97.3686V99.4602C97.3686 98.9186 97.2247 98.5227 96.9368 98.2727C96.6489 98.0189 96.2966 97.892 95.88 97.892C95.3838 97.892 94.9955 98.0473 94.7152 98.358C94.4387 98.6648 94.3004 99.0644 94.3004 99.5568V105H92.2834V99.375C92.2834 98.9242 92.147 98.5644 91.8743 98.2955C91.6054 98.0265 91.2531 97.892 90.8175 97.892C90.522 97.892 90.2531 97.9678 90.0107 98.1193C89.7682 98.267 89.575 98.4773 89.4311 98.75C89.2872 99.0189 89.2152 99.3333 89.2152 99.6932V105H87.1584ZM105.381 105.17C104.506 105.17 103.751 104.989 103.114 104.625C102.482 104.258 101.995 103.739 101.654 103.068C101.313 102.394 101.143 101.6 101.143 100.688C101.143 99.7898 101.313 99.0019 101.654 98.3239C101.999 97.642 102.48 97.1117 103.097 96.733C103.715 96.3504 104.44 96.1591 105.273 96.1591C105.811 96.1591 106.319 96.2462 106.796 96.4205C107.277 96.5909 107.701 96.8561 108.069 97.2159C108.44 97.5758 108.732 98.0341 108.944 98.5909C109.156 99.1439 109.262 99.803 109.262 100.568V101.199H102.109V99.8125H107.29C107.287 99.4186 107.201 99.0682 107.035 98.7614C106.868 98.4508 106.635 98.2064 106.336 98.0284C106.04 97.8504 105.696 97.7614 105.302 97.7614C104.881 97.7614 104.512 97.8636 104.194 98.0682C103.876 98.2689 103.628 98.5341 103.45 98.8636C103.275 99.1894 103.186 99.5473 103.183 99.9375V101.148C103.183 101.655 103.275 102.091 103.461 102.455C103.647 102.814 103.906 103.091 104.239 103.284C104.573 103.473 104.963 103.568 105.41 103.568C105.709 103.568 105.98 103.527 106.222 103.443C106.465 103.356 106.675 103.229 106.853 103.062C107.031 102.896 107.165 102.689 107.256 102.443L109.177 102.659C109.056 103.167 108.825 103.61 108.484 103.989C108.147 104.364 107.715 104.655 107.188 104.864C106.662 105.068 106.059 105.17 105.381 105.17ZM114.241 105.153C113.555 105.153 112.942 104.977 112.4 104.625C111.858 104.273 111.43 103.761 111.116 103.091C110.801 102.42 110.644 101.606 110.644 100.648C110.644 99.678 110.803 98.8598 111.121 98.1932C111.443 97.5227 111.877 97.017 112.423 96.6761C112.968 96.3314 113.576 96.1591 114.246 96.1591C114.758 96.1591 115.178 96.2462 115.508 96.4205C115.837 96.5909 116.099 96.7973 116.292 97.0398C116.485 97.2784 116.635 97.5038 116.741 97.7159H116.826V93.3636H118.888V105H116.866V103.625H116.741C116.635 103.837 116.481 104.062 116.281 104.301C116.08 104.536 115.815 104.737 115.485 104.903C115.156 105.07 114.741 105.153 114.241 105.153ZM114.815 103.466C115.25 103.466 115.621 103.348 115.928 103.114C116.235 102.875 116.468 102.544 116.627 102.119C116.786 101.695 116.866 101.201 116.866 100.636C116.866 100.072 116.786 99.5814 116.627 99.1648C116.472 98.7481 116.241 98.4242 115.934 98.1932C115.631 97.9621 115.258 97.8466 114.815 97.8466C114.356 97.8466 113.974 97.9659 113.667 98.2045C113.36 98.4432 113.129 98.7727 112.974 99.1932C112.818 99.6136 112.741 100.095 112.741 100.636C112.741 101.182 112.818 101.669 112.974 102.097C113.133 102.521 113.366 102.856 113.673 103.102C113.983 103.345 114.364 103.466 114.815 103.466ZM121.08 105V96.2727H123.137V105H121.08ZM122.114 95.0341C121.789 95.0341 121.508 94.9261 121.273 94.7102C121.039 94.4905 120.921 94.2273 120.921 93.9205C120.921 93.6098 121.039 93.3466 121.273 93.1307C121.508 92.911 121.789 92.8011 122.114 92.8011C122.444 92.8011 122.724 92.911 122.955 93.1307C123.19 93.3466 123.308 93.6098 123.308 93.9205C123.308 94.2273 123.19 94.4905 122.955 94.7102C122.724 94.9261 122.444 95.0341 122.114 95.0341ZM127.763 105.176C127.21 105.176 126.712 105.078 126.269 104.881C125.83 104.68 125.481 104.384 125.224 103.994C124.97 103.604 124.843 103.123 124.843 102.551C124.843 102.059 124.934 101.652 125.116 101.33C125.298 101.008 125.546 100.75 125.86 100.557C126.174 100.364 126.529 100.218 126.923 100.119C127.32 100.017 127.731 99.9432 128.156 99.8977C128.667 99.8447 129.082 99.7973 129.4 99.7557C129.718 99.7102 129.949 99.642 130.093 99.5511C130.241 99.4564 130.315 99.3106 130.315 99.1136V99.0795C130.315 98.6515 130.188 98.3201 129.934 98.0852C129.68 97.8504 129.315 97.733 128.837 97.733C128.334 97.733 127.934 97.8428 127.638 98.0625C127.347 98.2822 127.15 98.5417 127.048 98.8409L125.127 98.5682C125.279 98.0379 125.529 97.5947 125.877 97.2386C126.226 96.8788 126.652 96.6098 127.156 96.4318C127.659 96.25 128.216 96.1591 128.826 96.1591C129.246 96.1591 129.665 96.2083 130.082 96.3068C130.498 96.4053 130.879 96.5682 131.224 96.7955C131.568 97.0189 131.845 97.3239 132.053 97.7102C132.265 98.0966 132.371 98.5795 132.371 99.1591V105H130.394V103.801H130.326C130.201 104.044 130.025 104.271 129.798 104.483C129.574 104.691 129.292 104.86 128.951 104.989C128.614 105.114 128.218 105.176 127.763 105.176ZM128.298 103.665C128.71 103.665 129.068 103.583 129.371 103.42C129.674 103.254 129.907 103.034 130.07 102.761C130.237 102.489 130.32 102.191 130.32 101.869V100.841C130.256 100.894 130.146 100.943 129.991 100.989C129.839 101.034 129.669 101.074 129.479 101.108C129.29 101.142 129.103 101.172 128.917 101.199C128.731 101.225 128.57 101.248 128.434 101.267C128.127 101.309 127.853 101.377 127.61 101.472C127.368 101.566 127.176 101.699 127.036 101.869C126.896 102.036 126.826 102.252 126.826 102.517C126.826 102.896 126.964 103.182 127.241 103.375C127.517 103.568 127.87 103.665 128.298 103.665ZM138.798 96.2727V97.8636H133.781V96.2727H138.798ZM135.019 94.1818H137.076V102.375C137.076 102.652 137.118 102.864 137.201 103.011C137.288 103.155 137.402 103.254 137.542 103.307C137.682 103.36 137.837 103.386 138.008 103.386C138.137 103.386 138.254 103.377 138.36 103.358C138.47 103.339 138.553 103.322 138.61 103.307L138.957 104.915C138.847 104.953 138.69 104.994 138.485 105.04C138.284 105.085 138.038 105.112 137.746 105.119C137.231 105.134 136.767 105.057 136.354 104.886C135.942 104.712 135.614 104.443 135.371 104.08C135.133 103.716 135.015 103.261 135.019 102.716V94.1818ZM144.288 105.17C143.413 105.17 142.657 104.989 142.021 104.625C141.388 104.258 140.901 103.739 140.56 103.068C140.219 102.394 140.049 101.6 140.049 100.688C140.049 99.7898 140.219 99.0019 140.56 98.3239C140.905 97.642 141.386 97.1117 142.004 96.733C142.621 96.3504 143.346 96.1591 144.18 96.1591C144.718 96.1591 145.225 96.2462 145.702 96.4205C146.183 96.5909 146.608 96.8561 146.975 97.2159C147.346 97.5758 147.638 98.0341 147.85 98.5909C148.062 99.1439 148.168 99.803 148.168 100.568V101.199H141.015V99.8125H146.197C146.193 99.4186 146.108 99.0682 145.941 98.7614C145.774 98.4508 145.541 98.2064 145.242 98.0284C144.947 97.8504 144.602 97.7614 144.208 97.7614C143.788 97.7614 143.418 97.8636 143.1 98.0682C142.782 98.2689 142.534 98.5341 142.356 98.8636C142.182 99.1894 142.093 99.5473 142.089 99.9375V101.148C142.089 101.655 142.182 102.091 142.367 102.455C142.553 102.814 142.812 103.091 143.146 103.284C143.479 103.473 143.869 103.568 144.316 103.568C144.615 103.568 144.886 103.527 145.129 103.443C145.371 103.356 145.581 103.229 145.759 103.062C145.937 102.896 146.072 102.689 146.163 102.443L148.083 102.659C147.962 103.167 147.731 103.61 147.39 103.989C147.053 104.364 146.621 104.655 146.094 104.864C145.568 105.068 144.966 105.17 144.288 105.17Z" fill="black"/>
<path d="M67.7038 57.1818C66.9879 57.1818 66.361 56.9924 65.8232 56.6136C65.2853 56.2348 64.8648 55.7064 64.5618 55.0284C64.2625 54.3504 64.1129 53.5606 64.1129 52.6591C64.1129 51.7614 64.2625 50.9754 64.5618 50.3011C64.8648 49.6231 65.2872 49.0966 65.8288 48.7216C66.3705 48.3428 67.0012 48.1534 67.7209 48.1534C68.2512 48.1534 68.6925 48.2481 69.0447 48.4375C69.397 48.6231 69.6792 48.8542 69.8913 49.1307C70.1035 49.4072 70.2682 49.6761 70.3857 49.9375H70.4766V45.3636H71.4936V57H70.505V55.3807H70.3857C70.2682 55.6458 70.1016 55.9186 69.8857 56.1989C69.6697 56.4754 69.3838 56.7083 69.0277 56.8977C68.6754 57.0871 68.2341 57.1818 67.7038 57.1818ZM67.8232 56.2557C68.3875 56.2557 68.8686 56.1023 69.2663 55.7955C69.6641 55.4848 69.9671 55.0587 70.1754 54.517C70.3875 53.9716 70.4936 53.3466 70.4936 52.642C70.4936 51.9451 70.3894 51.3295 70.1811 50.7955C69.9728 50.2576 69.6697 49.8371 69.272 49.5341C68.8743 49.2273 68.3913 49.0739 67.8232 49.0739C67.2398 49.0739 66.7474 49.233 66.3459 49.5511C65.9482 49.8655 65.6451 50.2917 65.4368 50.8295C65.2322 51.3674 65.13 51.9716 65.13 52.642C65.13 53.3201 65.2341 53.9318 65.4425 54.4773C65.6508 55.0227 65.9538 55.4564 66.3516 55.7784C66.7531 56.0966 67.2436 56.2557 67.8232 56.2557ZM77.9027 57.1818C77.0883 57.1818 76.3838 56.9924 75.7891 56.6136C75.1944 56.2311 74.7341 55.7027 74.4084 55.0284C74.0864 54.3504 73.9254 53.5701 73.9254 52.6875C73.9254 51.8087 74.0864 51.0284 74.4084 50.3466C74.7341 49.661 75.183 49.125 75.755 48.7386C76.3307 48.3485 76.9955 48.1534 77.7493 48.1534C78.2228 48.1534 78.6792 48.2405 79.1186 48.4148C79.558 48.5852 79.9519 48.8485 80.3004 49.2045C80.6527 49.5568 80.9311 50.0019 81.1357 50.5398C81.3402 51.0739 81.4425 51.7064 81.4425 52.4375V52.9375H74.6243V52.0455H80.4084C80.4084 51.4848 80.2947 50.9811 80.0675 50.5341C79.844 50.0833 79.5315 49.7273 79.13 49.4659C78.7322 49.2045 78.272 49.0739 77.7493 49.0739C77.1963 49.0739 76.7095 49.2216 76.2891 49.517C75.8686 49.8125 75.5391 50.2027 75.3004 50.6875C75.0656 51.1723 74.9463 51.7027 74.9425 52.2784V52.8125C74.9425 53.5057 75.0618 54.1117 75.3004 54.6307C75.5429 55.1458 75.8857 55.5455 76.3288 55.8295C76.772 56.1136 77.2966 56.2557 77.9027 56.2557C78.3156 56.2557 78.6773 56.1913 78.9879 56.0625C79.3023 55.9337 79.5656 55.7614 79.7777 55.5455C79.9936 55.3258 80.1565 55.0852 80.2663 54.8239L81.2266 55.1364C81.094 55.5038 80.8762 55.8428 80.5732 56.1534C80.2739 56.464 79.8989 56.714 79.4482 56.9034C79.0012 57.089 78.486 57.1818 77.9027 57.1818ZM87.2621 48.2727V49.1534H82.9723V48.2727H87.2621ZM84.3132 57V46.9943C84.3132 46.5246 84.4212 46.1288 84.6371 45.8068C84.8568 45.4848 85.1428 45.2405 85.495 45.0739C85.8473 44.9072 86.2204 44.8239 86.6143 44.8239C86.8795 44.8239 87.0992 44.8466 87.2734 44.892C87.4515 44.9337 87.5916 44.9754 87.6939 45.017L87.3984 45.9034C87.3227 45.8807 87.2299 45.8542 87.12 45.8239C87.0102 45.7936 86.8719 45.7784 86.7053 45.7784C86.2659 45.7784 85.9268 45.9015 85.6882 46.1477C85.4496 46.3939 85.3303 46.7462 85.3303 47.2045L85.3246 57H84.3132ZM92.4496 57.1818C91.6352 57.1818 90.9306 56.9924 90.3359 56.6136C89.7412 56.2311 89.281 55.7027 88.9553 55.0284C88.6333 54.3504 88.4723 53.5701 88.4723 52.6875C88.4723 51.8087 88.6333 51.0284 88.9553 50.3466C89.281 49.661 89.7299 49.125 90.3018 48.7386C90.8776 48.3485 91.5424 48.1534 92.2962 48.1534C92.7696 48.1534 93.2261 48.2405 93.6655 48.4148C94.1049 48.5852 94.4988 48.8485 94.8473 49.2045C95.1996 49.5568 95.478 50.0019 95.6825 50.5398C95.8871 51.0739 95.9893 51.7064 95.9893 52.4375V52.9375H89.1712V52.0455H94.9553C94.9553 51.4848 94.8416 50.9811 94.6143 50.5341C94.3909 50.0833 94.0784 49.7273 93.6768 49.4659C93.2791 49.2045 92.8189 49.0739 92.2962 49.0739C91.7431 49.0739 91.2564 49.2216 90.8359 49.517C90.4155 49.8125 90.0859 50.2027 89.8473 50.6875C89.6125 51.1723 89.4931 51.7027 89.4893 52.2784V52.8125C89.4893 53.5057 89.6087 54.1117 89.8473 54.6307C90.0897 55.1458 90.4325 55.5455 90.8757 55.8295C91.3189 56.1136 91.8435 56.2557 92.4496 56.2557C92.8625 56.2557 93.2242 56.1913 93.5348 56.0625C93.8492 55.9337 94.1125 55.7614 94.3246 55.5455C94.5405 55.3258 94.7034 55.0852 94.8132 54.8239L95.7734 55.1364C95.6409 55.5038 95.4231 55.8428 95.12 56.1534C94.8208 56.464 94.4458 56.714 93.995 56.9034C93.5481 57.089 93.0329 57.1818 92.4496 57.1818ZM99.2294 51.5455V57H98.218V48.2727H99.201V49.642H99.2919C99.4964 49.1951 99.8146 48.8371 100.246 48.5682C100.682 48.2955 101.22 48.1591 101.86 48.1591C102.447 48.1591 102.962 48.2822 103.406 48.5284C103.853 48.7708 104.199 49.1288 104.445 49.6023C104.695 50.0758 104.82 50.6572 104.82 51.3466V57H103.809V51.4091C103.809 50.6932 103.608 50.1269 103.207 49.7102C102.809 49.2936 102.275 49.0852 101.604 49.0852C101.146 49.0852 100.739 49.1837 100.383 49.3807C100.027 49.5777 99.7446 49.8617 99.5362 50.233C99.3317 50.6004 99.2294 51.0379 99.2294 51.5455ZM113.347 50.1875L112.421 50.4489C112.33 50.1875 112.201 49.9508 112.035 49.7386C111.868 49.5265 111.65 49.358 111.381 49.233C111.116 49.108 110.787 49.0455 110.393 49.0455C109.802 49.0455 109.317 49.1856 108.938 49.4659C108.559 49.7462 108.37 50.108 108.37 50.5511C108.37 50.9261 108.499 51.2311 108.756 51.4659C109.018 51.697 109.419 51.8807 109.961 52.017L111.279 52.3409C112.01 52.5189 112.558 52.8011 112.921 53.1875C113.289 53.5739 113.472 54.0587 113.472 54.642C113.472 55.1345 113.336 55.572 113.063 55.9545C112.79 56.3371 112.41 56.6383 111.921 56.858C111.436 57.0739 110.874 57.1818 110.234 57.1818C109.381 57.1818 108.679 56.9905 108.126 56.608C107.573 56.2216 107.219 55.6648 107.063 54.9375L108.035 54.6989C108.16 55.2178 108.404 55.6098 108.768 55.875C109.135 56.1402 109.618 56.2727 110.217 56.2727C110.887 56.2727 111.423 56.1231 111.825 55.8239C112.226 55.5208 112.427 55.142 112.427 54.6875C112.427 54.3352 112.309 54.0398 112.075 53.8011C111.84 53.5587 111.484 53.3807 111.006 53.267L109.58 52.9261C108.823 52.7443 108.262 52.4564 107.898 52.0625C107.535 51.6686 107.353 51.1799 107.353 50.5966C107.353 50.1155 107.484 49.6932 107.745 49.3295C108.006 48.9621 108.366 48.6742 108.825 48.4659C109.283 48.2576 109.806 48.1534 110.393 48.1534C111.192 48.1534 111.83 48.3352 112.308 48.6989C112.789 49.0587 113.135 49.5549 113.347 50.1875ZM115.698 57V48.2727H116.715V57H115.698ZM116.215 46.7727C116.007 46.7727 115.829 46.7027 115.681 46.5625C115.533 46.4186 115.46 46.2462 115.46 46.0455C115.46 45.8447 115.533 45.6742 115.681 45.5341C115.829 45.3902 116.007 45.3182 116.215 45.3182C116.424 45.3182 116.602 45.3902 116.749 45.5341C116.897 45.6742 116.971 45.8447 116.971 46.0455C116.971 46.2462 116.897 46.4186 116.749 46.5625C116.602 46.7027 116.424 46.7727 116.215 46.7727ZM126.146 48.2727L122.958 57H121.879L118.691 48.2727H119.788L122.379 55.6648H122.458L125.049 48.2727H126.146ZM131.34 57.1818C130.526 57.1818 129.821 56.9924 129.227 56.6136C128.632 56.2311 128.172 55.7027 127.846 55.0284C127.524 54.3504 127.363 53.5701 127.363 52.6875C127.363 51.8087 127.524 51.0284 127.846 50.3466C128.172 49.661 128.621 49.125 129.192 48.7386C129.768 48.3485 130.433 48.1534 131.187 48.1534C131.66 48.1534 132.117 48.2405 132.556 48.4148C132.996 48.5852 133.389 48.8485 133.738 49.2045C134.09 49.5568 134.369 50.0019 134.573 50.5398C134.778 51.0739 134.88 51.7064 134.88 52.4375V52.9375H128.062V52.0455H133.846C133.846 51.4848 133.732 50.9811 133.505 50.5341C133.281 50.0833 132.969 49.7273 132.567 49.4659C132.17 49.2045 131.71 49.0739 131.187 49.0739C130.634 49.0739 130.147 49.2216 129.727 49.517C129.306 49.8125 128.977 50.2027 128.738 50.6875C128.503 51.1723 128.384 51.7027 128.38 52.2784V52.8125C128.38 53.5057 128.499 54.1117 128.738 54.6307C128.98 55.1458 129.323 55.5455 129.766 55.8295C130.21 56.1136 130.734 56.2557 131.34 56.2557C131.753 56.2557 132.115 56.1913 132.425 56.0625C132.74 55.9337 133.003 55.7614 133.215 55.5455C133.431 55.3258 133.594 55.0852 133.704 54.8239L134.664 55.1364C134.531 55.5038 134.314 55.8428 134.011 56.1534C133.711 56.464 133.336 56.714 132.886 56.9034C132.439 57.089 131.924 57.1818 131.34 57.1818ZM57.4055 79.2727V67.2727H58.3885V68.9375H58.5078C58.629 68.6761 58.7957 68.4091 59.0078 68.1364C59.2199 67.8598 59.5002 67.6269 59.8487 67.4375C60.201 67.2481 60.6442 67.1534 61.1783 67.1534C61.898 67.1534 62.5268 67.3428 63.0646 67.7216C63.6063 68.0966 64.0268 68.6231 64.326 69.3011C64.629 69.9754 64.7805 70.7614 64.7805 71.6591C64.7805 72.5606 64.629 73.3504 64.326 74.0284C64.0268 74.7064 63.6063 75.2348 63.0646 75.6136C62.5268 75.9924 61.9018 76.1818 61.1896 76.1818C60.6631 76.1818 60.2218 76.0871 59.8658 75.8977C59.5135 75.7083 59.2275 75.4754 59.0078 75.1989C58.7919 74.9186 58.6252 74.6458 58.5078 74.3807H58.4169V79.2727H57.4055ZM58.4055 71.642C58.4055 72.3466 58.5097 72.9716 58.718 73.517C58.9302 74.0587 59.2332 74.4848 59.6271 74.7955C60.0249 75.1023 60.5059 75.2557 61.0703 75.2557C61.6499 75.2557 62.1385 75.0966 62.5362 74.7784C62.9377 74.4564 63.2427 74.0227 63.451 73.4773C63.6631 72.9318 63.7692 72.3201 63.7692 71.642C63.7692 70.9716 63.665 70.3674 63.4567 69.8295C63.2521 69.2917 62.9491 68.8655 62.5476 68.5511C62.1461 68.233 61.6536 68.0739 61.0703 68.0739C60.5021 68.0739 60.0192 68.2273 59.6214 68.5341C59.2237 68.8371 58.9207 69.2576 58.7124 69.7955C58.5078 70.3295 58.4055 70.9451 58.4055 71.642ZM70.5277 76.1818C69.7133 76.1818 69.0088 75.9924 68.4141 75.6136C67.8194 75.2311 67.3591 74.7027 67.0334 74.0284C66.7114 73.3504 66.5504 72.5701 66.5504 71.6875C66.5504 70.8087 66.7114 70.0284 67.0334 69.3466C67.3591 68.661 67.808 68.125 68.38 67.7386C68.9557 67.3485 69.6205 67.1534 70.3743 67.1534C70.8478 67.1534 71.3042 67.2405 71.7436 67.4148C72.183 67.5852 72.5769 67.8485 72.9254 68.2045C73.2777 68.5568 73.5561 69.0019 73.7607 69.5398C73.9652 70.0739 74.0675 70.7064 74.0675 71.4375V71.9375H67.2493V71.0455H73.0334C73.0334 70.4848 72.9197 69.9811 72.6925 69.5341C72.469 69.0833 72.1565 68.7273 71.755 68.4659C71.3572 68.2045 70.897 68.0739 70.3743 68.0739C69.8213 68.0739 69.3345 68.2216 68.9141 68.517C68.4936 68.8125 68.1641 69.2027 67.9254 69.6875C67.6906 70.1723 67.5713 70.7027 67.5675 71.2784V71.8125C67.5675 72.5057 67.6868 73.1117 67.9254 73.6307C68.1679 74.1458 68.5107 74.5455 68.9538 74.8295C69.397 75.1136 69.9216 75.2557 70.5277 75.2557C70.9406 75.2557 71.3023 75.1913 71.6129 75.0625C71.9273 74.9337 72.1906 74.7614 72.4027 74.5455C72.6186 74.3258 72.7815 74.0852 72.8913 73.8239L73.8516 74.1364C73.719 74.5038 73.5012 74.8428 73.1982 75.1534C72.8989 75.464 72.5239 75.714 72.0732 75.9034C71.6262 76.089 71.111 76.1818 70.5277 76.1818ZM77.3075 70.5455V76H76.2962V67.2727H77.2791V68.642H77.37C77.5746 68.1951 77.8928 67.8371 78.3246 67.5682C78.7602 67.2955 79.2981 67.1591 79.9382 67.1591C80.5253 67.1591 81.0405 67.2822 81.4837 67.5284C81.9306 67.7708 82.2772 68.1288 82.5234 68.6023C82.7734 69.0758 82.8984 69.6572 82.8984 70.3466V76H81.8871V70.4091C81.8871 69.6932 81.6863 69.1269 81.2848 68.7102C80.8871 68.2936 80.353 68.0852 79.6825 68.0852C79.2242 68.0852 78.817 68.1837 78.4609 68.3807C78.1049 68.5777 77.8227 68.8617 77.6143 69.233C77.4098 69.6004 77.3075 70.0379 77.3075 70.5455ZM90.272 70.5341V71.4886H85.4311V70.5341H90.272ZM96.2493 67.2727V68.1534H92.0845V67.2727H96.2493ZM93.3857 65.1818H94.4027V73.7216C94.4027 74.0852 94.4652 74.3712 94.5902 74.5795C94.7152 74.7841 94.8781 74.9299 95.0788 75.017C95.2796 75.1004 95.4936 75.142 95.7209 75.142C95.8535 75.142 95.9671 75.1345 96.0618 75.1193C96.1565 75.1004 96.2398 75.0814 96.3118 75.0625L96.5277 75.9773C96.4292 76.0152 96.308 76.0492 96.1641 76.0795C96.0201 76.1136 95.8421 76.1307 95.63 76.1307C95.2588 76.1307 94.9008 76.0492 94.5561 75.8864C94.2152 75.7235 93.9349 75.4811 93.7152 75.1591C93.4955 74.8371 93.3857 74.4375 93.3857 73.9602V65.1818ZM101.981 76.1818C101.166 76.1818 100.462 75.9924 99.8672 75.6136C99.2725 75.2311 98.8123 74.7027 98.4865 74.0284C98.1645 73.3504 98.0036 72.5701 98.0036 71.6875C98.0036 70.8087 98.1645 70.0284 98.4865 69.3466C98.8123 68.661 99.2611 68.125 99.8331 67.7386C100.409 67.3485 101.074 67.1534 101.827 67.1534C102.301 67.1534 102.757 67.2405 103.197 67.4148C103.636 67.5852 104.03 67.8485 104.379 68.2045C104.731 68.5568 105.009 69.0019 105.214 69.5398C105.418 70.0739 105.521 70.7064 105.521 71.4375V71.9375H98.7024V71.0455H104.487C104.487 70.4848 104.373 69.9811 104.146 69.5341C103.922 69.0833 103.61 68.7273 103.208 68.4659C102.81 68.2045 102.35 68.0739 101.827 68.0739C101.274 68.0739 100.788 68.2216 100.367 68.517C99.9467 68.8125 99.6172 69.2027 99.3786 69.6875C99.1437 70.1723 99.0244 70.7027 99.0206 71.2784V71.8125C99.0206 72.5057 99.1399 73.1117 99.3786 73.6307C99.621 74.1458 99.9638 74.5455 100.407 74.8295C100.85 75.1136 101.375 75.2557 101.981 75.2557C102.394 75.2557 102.755 75.1913 103.066 75.0625C103.38 74.9337 103.644 74.7614 103.856 74.5455C104.072 74.3258 104.235 74.0852 104.344 73.8239L105.305 74.1364C105.172 74.5038 104.954 74.8428 104.651 75.1534C104.352 75.464 103.977 75.714 103.526 75.9034C103.079 76.089 102.564 76.1818 101.981 76.1818ZM113.613 69.1875L112.687 69.4489C112.596 69.1875 112.467 68.9508 112.3 68.7386C112.134 68.5265 111.916 68.358 111.647 68.233C111.382 68.108 111.052 68.0455 110.658 68.0455C110.067 68.0455 109.583 68.1856 109.204 68.4659C108.825 68.7462 108.636 69.108 108.636 69.5511C108.636 69.9261 108.764 70.2311 109.022 70.4659C109.283 70.697 109.685 70.8807 110.227 71.017L111.545 71.3409C112.276 71.5189 112.823 71.8011 113.187 72.1875C113.554 72.5739 113.738 73.0587 113.738 73.642C113.738 74.1345 113.602 74.572 113.329 74.9545C113.056 75.3371 112.675 75.6383 112.187 75.858C111.702 76.0739 111.139 76.1818 110.499 76.1818C109.647 76.1818 108.944 75.9905 108.391 75.608C107.838 75.2216 107.484 74.6648 107.329 73.9375L108.3 73.6989C108.425 74.2178 108.67 74.6098 109.033 74.875C109.401 75.1402 109.884 75.2727 110.482 75.2727C111.153 75.2727 111.689 75.1231 112.09 74.8239C112.492 74.5208 112.692 74.142 112.692 73.6875C112.692 73.3352 112.575 73.0398 112.34 72.8011C112.105 72.5587 111.749 72.3807 111.272 72.267L109.846 71.9261C109.088 71.7443 108.528 71.4564 108.164 71.0625C107.8 70.6686 107.619 70.1799 107.619 69.5966C107.619 69.1155 107.749 68.6932 108.011 68.3295C108.272 67.9621 108.632 67.6742 109.09 67.4659C109.549 67.2576 110.071 67.1534 110.658 67.1534C111.458 67.1534 112.096 67.3352 112.573 67.6989C113.054 68.0587 113.401 68.5549 113.613 69.1875ZM119.39 67.2727V68.1534H115.225V67.2727H119.39ZM116.526 65.1818H117.543V73.7216C117.543 74.0852 117.606 74.3712 117.731 74.5795C117.856 74.7841 118.019 74.9299 118.219 75.017C118.42 75.1004 118.634 75.142 118.862 75.142C118.994 75.142 119.108 75.1345 119.202 75.1193C119.297 75.1004 119.38 75.0814 119.452 75.0625L119.668 75.9773C119.57 76.0152 119.449 76.0492 119.305 76.0795C119.161 76.1136 118.983 76.1307 118.771 76.1307C118.399 76.1307 118.041 76.0492 117.697 75.8864C117.356 75.7235 117.076 75.4811 116.856 75.1591C116.636 74.8371 116.526 74.4375 116.526 73.9602V65.1818ZM121.698 76V67.2727H122.715V76H121.698ZM122.215 65.7727C122.007 65.7727 121.829 65.7027 121.681 65.5625C121.533 65.4186 121.46 65.2462 121.46 65.0455C121.46 64.8447 121.533 64.6742 121.681 64.5341C121.829 64.3902 122.007 64.3182 122.215 64.3182C122.424 64.3182 122.602 64.3902 122.749 64.5341C122.897 64.6742 122.971 64.8447 122.971 65.0455C122.971 65.2462 122.897 65.4186 122.749 65.5625C122.602 65.7027 122.424 65.7727 122.215 65.7727ZM126.401 70.5455V76H125.39V67.2727H126.373V68.642H126.464C126.668 68.1951 126.987 67.8371 127.418 67.5682C127.854 67.2955 128.392 67.1591 129.032 67.1591C129.619 67.1591 130.134 67.2822 130.577 67.5284C131.024 67.7708 131.371 68.1288 131.617 68.6023C131.867 69.0758 131.992 69.6572 131.992 70.3466V76H130.981V70.4091C130.981 69.6932 130.78 69.1269 130.379 68.7102C129.981 68.2936 129.447 68.0852 128.776 68.0852C128.318 68.0852 127.911 68.1837 127.555 68.3807C127.199 68.5777 126.916 68.8617 126.708 69.233C126.504 69.6004 126.401 70.0379 126.401 70.5455ZM137.985 79.4545C137.39 79.4545 136.87 79.3769 136.423 79.2216C135.976 79.0701 135.599 78.8617 135.292 78.5966C134.985 78.3314 134.746 78.0341 134.576 77.7045L135.406 77.1591C135.531 77.3788 135.697 77.5947 135.906 77.8068C136.118 78.0189 136.392 78.1951 136.729 78.3352C137.07 78.4754 137.489 78.5455 137.985 78.5455C138.758 78.5455 139.381 78.3523 139.854 77.9659C140.332 77.5795 140.57 76.9792 140.57 76.1648V74.1989H140.479C140.362 74.464 140.193 74.7292 139.974 74.9943C139.754 75.2557 139.466 75.4735 139.11 75.6477C138.758 75.822 138.32 75.9091 137.798 75.9091C137.101 75.9091 136.481 75.7367 135.94 75.392C135.402 75.0473 134.978 74.5549 134.667 73.9148C134.36 73.2708 134.207 72.5038 134.207 71.6136C134.207 70.7311 134.356 69.9545 134.656 69.2841C134.959 68.6136 135.381 68.0909 135.923 67.7159C136.464 67.3409 137.095 67.1534 137.815 67.1534C138.349 67.1534 138.792 67.2481 139.144 67.4375C139.496 67.6231 139.779 67.8542 139.991 68.1307C140.207 68.4072 140.375 68.6761 140.496 68.9375H140.599V67.2727H141.587V76.2273C141.587 76.9659 141.43 77.5739 141.116 78.0511C140.801 78.5284 140.373 78.8807 139.832 79.108C139.29 79.339 138.674 79.4545 137.985 79.4545ZM137.917 74.983C138.478 74.983 138.957 74.8485 139.354 74.5795C139.752 74.3068 140.057 73.9167 140.269 73.4091C140.481 72.9015 140.587 72.2973 140.587 71.5966C140.587 70.9148 140.483 70.3106 140.275 69.7841C140.067 69.2538 139.763 68.8371 139.366 68.5341C138.972 68.2273 138.489 68.0739 137.917 68.0739C137.334 68.0739 136.841 68.2311 136.44 68.5455C136.038 68.8598 135.735 69.2841 135.531 69.8182C135.326 70.3485 135.224 70.9413 135.224 71.5966C135.224 72.2633 135.328 72.8523 135.536 73.3636C135.745 73.8712 136.049 74.2689 136.451 74.5568C136.853 74.8409 137.341 74.983 137.917 74.983Z" fill="black"/>
<path d="M70.9048 154V153.222L74.706 148.949C75.2022 148.388 75.6018 147.909 75.9048 147.511C76.2079 147.114 76.4276 146.746 76.5639 146.409C76.7041 146.072 76.7741 145.722 76.7741 145.358C76.7741 144.915 76.67 144.528 76.4616 144.199C76.2571 143.866 75.9749 143.606 75.6151 143.42C75.2552 143.235 74.8499 143.142 74.3991 143.142C73.9219 143.142 73.5033 143.244 73.1435 143.449C72.7874 143.653 72.5109 143.934 72.3139 144.29C72.117 144.646 72.0185 145.055 72.0185 145.517H71.0014C71.0014 144.873 71.1491 144.303 71.4446 143.807C71.7438 143.307 72.151 142.915 72.6662 142.631C73.1851 142.347 73.7723 142.205 74.4276 142.205C75.0753 142.205 75.651 142.345 76.1548 142.625C76.6586 142.902 77.0545 143.278 77.3423 143.756C77.6302 144.233 77.7741 144.767 77.7741 145.358C77.7741 145.786 77.6984 146.201 77.5469 146.602C77.3991 147.004 77.1435 147.451 76.7798 147.943C76.4162 148.436 75.9124 149.038 75.2685 149.75L72.3821 152.972V153.045H78.1378V154H70.9048ZM85.9148 157.273C85.714 157.273 85.5265 157.254 85.3523 157.216C85.178 157.178 85.0398 157.136 84.9375 157.091L85.2102 156.199C85.5549 156.305 85.8617 156.343 86.1307 156.312C86.3996 156.286 86.6383 156.165 86.8466 155.949C87.0549 155.737 87.2405 155.411 87.4034 154.972L87.7216 154.085L84.5114 145.273H85.608L88.1989 152.665H88.2784L90.8693 145.273H91.9659L88.2727 155.381C88.1174 155.801 87.9261 156.152 87.6989 156.432C87.4716 156.716 87.2083 156.926 86.9091 157.062C86.6136 157.203 86.2822 157.273 85.9148 157.273ZM97.1605 154.182C96.3461 154.182 95.6416 153.992 95.0469 153.614C94.4522 153.231 93.992 152.703 93.6662 152.028C93.3442 151.35 93.1832 150.57 93.1832 149.688C93.1832 148.809 93.3442 148.028 93.6662 147.347C93.992 146.661 94.4408 146.125 95.0128 145.739C95.5885 145.348 96.2533 145.153 97.0071 145.153C97.4806 145.153 97.937 145.241 98.3764 145.415C98.8158 145.585 99.2098 145.848 99.5582 146.205C99.9105 146.557 100.189 147.002 100.393 147.54C100.598 148.074 100.7 148.706 100.7 149.438V149.938H93.8821V149.045H99.6662C99.6662 148.485 99.5526 147.981 99.3253 147.534C99.1018 147.083 98.7893 146.727 98.3878 146.466C97.9901 146.205 97.5298 146.074 97.0071 146.074C96.4541 146.074 95.9673 146.222 95.5469 146.517C95.1264 146.812 94.7969 147.203 94.5582 147.688C94.3234 148.172 94.2041 148.703 94.2003 149.278V149.812C94.2003 150.506 94.3196 151.112 94.5582 151.631C94.8007 152.146 95.1435 152.545 95.5866 152.83C96.0298 153.114 96.5545 153.256 97.1605 153.256C97.5734 153.256 97.9351 153.191 98.2457 153.062C98.5601 152.934 98.8234 152.761 99.0355 152.545C99.2514 152.326 99.4143 152.085 99.5241 151.824L100.484 152.136C100.352 152.504 100.134 152.843 99.831 153.153C99.5317 153.464 99.1567 153.714 98.706 153.903C98.259 154.089 97.7438 154.182 97.1605 154.182ZM105.366 154.199C104.84 154.199 104.359 154.097 103.923 153.892C103.488 153.684 103.141 153.384 102.884 152.994C102.626 152.6 102.497 152.123 102.497 151.562C102.497 151.131 102.579 150.767 102.741 150.472C102.904 150.176 103.135 149.934 103.435 149.744C103.734 149.555 104.088 149.405 104.497 149.295C104.906 149.186 105.357 149.1 105.849 149.04C106.338 148.979 106.751 148.926 107.088 148.881C107.429 148.835 107.688 148.763 107.866 148.665C108.045 148.566 108.134 148.407 108.134 148.188V147.983C108.134 147.388 107.955 146.92 107.599 146.58C107.247 146.235 106.74 146.062 106.077 146.062C105.448 146.062 104.935 146.201 104.537 146.477C104.143 146.754 103.866 147.08 103.707 147.455L102.747 147.108C102.944 146.631 103.217 146.25 103.565 145.966C103.914 145.678 104.304 145.472 104.736 145.347C105.168 145.218 105.605 145.153 106.048 145.153C106.382 145.153 106.728 145.197 107.088 145.284C107.452 145.371 107.789 145.523 108.099 145.739C108.41 145.951 108.662 146.248 108.855 146.631C109.048 147.009 109.145 147.491 109.145 148.074V154H108.134V152.619H108.071C107.95 152.877 107.77 153.127 107.531 153.369C107.293 153.612 106.993 153.811 106.634 153.966C106.274 154.121 105.851 154.199 105.366 154.199ZM105.503 153.273C106.041 153.273 106.507 153.153 106.901 152.915C107.295 152.676 107.598 152.36 107.81 151.966C108.026 151.568 108.134 151.131 108.134 150.653V149.392C108.058 149.464 107.931 149.528 107.753 149.585C107.579 149.642 107.376 149.693 107.145 149.739C106.918 149.78 106.69 149.816 106.463 149.847C106.236 149.877 106.031 149.903 105.849 149.926C105.357 149.987 104.937 150.081 104.588 150.21C104.24 150.339 103.973 150.517 103.787 150.744C103.601 150.968 103.509 151.256 103.509 151.608C103.509 152.138 103.698 152.549 104.077 152.841C104.455 153.129 104.931 153.273 105.503 153.273ZM111.835 154V145.273H112.818V146.614H112.892C113.066 146.174 113.369 145.82 113.801 145.551C114.237 145.278 114.729 145.142 115.278 145.142C115.362 145.142 115.455 145.144 115.557 145.148C115.659 145.152 115.744 145.155 115.812 145.159V146.188C115.767 146.18 115.688 146.169 115.574 146.153C115.46 146.138 115.337 146.131 115.205 146.131C114.75 146.131 114.345 146.227 113.989 146.42C113.636 146.61 113.358 146.873 113.153 147.21C112.949 147.547 112.847 147.932 112.847 148.364V154H111.835ZM120.77 141.818L117.02 155.75H116.071L119.821 141.818H120.77ZM128.386 147.188L127.46 147.449C127.369 147.187 127.241 146.951 127.074 146.739C126.907 146.527 126.689 146.358 126.42 146.233C126.155 146.108 125.826 146.045 125.432 146.045C124.841 146.045 124.356 146.186 123.977 146.466C123.598 146.746 123.409 147.108 123.409 147.551C123.409 147.926 123.538 148.231 123.795 148.466C124.057 148.697 124.458 148.881 125 149.017L126.318 149.341C127.049 149.519 127.597 149.801 127.96 150.188C128.328 150.574 128.511 151.059 128.511 151.642C128.511 152.134 128.375 152.572 128.102 152.955C127.83 153.337 127.449 153.638 126.96 153.858C126.475 154.074 125.913 154.182 125.273 154.182C124.42 154.182 123.718 153.991 123.165 153.608C122.612 153.222 122.258 152.665 122.102 151.938L123.074 151.699C123.199 152.218 123.443 152.61 123.807 152.875C124.174 153.14 124.657 153.273 125.256 153.273C125.926 153.273 126.462 153.123 126.864 152.824C127.265 152.521 127.466 152.142 127.466 151.688C127.466 151.335 127.348 151.04 127.114 150.801C126.879 150.559 126.523 150.381 126.045 150.267L124.619 149.926C123.862 149.744 123.301 149.456 122.938 149.062C122.574 148.669 122.392 148.18 122.392 147.597C122.392 147.116 122.523 146.693 122.784 146.33C123.045 145.962 123.405 145.674 123.864 145.466C124.322 145.258 124.845 145.153 125.432 145.153C126.231 145.153 126.869 145.335 127.347 145.699C127.828 146.059 128.174 146.555 128.386 147.188Z" fill="black"/>
<defs>
<filter id="filter0_d_181_878" x="9.39746" y="0" width="181.205" height="208" filterUnits="userSpaceOnUse" color-interpolation-filters="sRGB">
<feFlood flood-opacity="0" result="BackgroundImageFix"/>
<feColorMatrix in="SourceAlpha" type="matrix" values="0 0 0 0 0 0 0 0 0 0 0 0 0 0 0 0 0 0 127 0" result="hardAlpha"/>
<feOffset dy="4"/>
<feGaussianBlur stdDeviation="2"/>
<feComposite in2="hardAlpha" operator="out"/>
<feColorMatrix type="matrix" values="0 0 0 0 0 0 0 0 0 0 0 0 0 0 0 0 0 0 0.25 0"/>
<feBlend mode="normal" in2="BackgroundImageFix" result="effect1_dropShadow_181_878"/>
<feBlend mode="normal" in="SourceGraphic" in2="effect1_dropShadow_181_878" result="shape"/>
</filter>
</defs>
</svg>
