<svg width="200" height="208" viewBox="0 0 200 208" fill="none" xmlns="http://www.w3.org/2000/svg">
<g filter="url(#filter0_d_181_866)">
<path d="M100 0L186.603 50V150L100 200L13.3975 150V50L100 0Z" fill="white"/>
<path d="M14.3975 50.5774L100 1.1547L185.603 50.5774V149.423L100 198.845L14.3975 149.423V50.5774Z" stroke="#2CC140" stroke-width="2"/>
</g>
<path d="M65.8977 105V93.3636H70.3523C71.1932 93.3636 71.892 93.4962 72.4489 93.7614C73.0095 94.0227 73.428 94.3807 73.7045 94.8352C73.9848 95.2898 74.125 95.8049 74.125 96.3807C74.125 96.8542 74.0341 97.2595 73.8523 97.5966C73.6705 97.9299 73.4261 98.2008 73.1193 98.4091C72.8125 98.6174 72.4697 98.767 72.0909 98.858V98.9716C72.5038 98.9943 72.8996 99.1212 73.2784 99.3523C73.661 99.5795 73.9735 99.9015 74.2159 100.318C74.4583 100.735 74.5795 101.239 74.5795 101.83C74.5795 102.432 74.4337 102.973 74.142 103.455C73.8504 103.932 73.411 104.309 72.8239 104.585C72.2367 104.862 71.4981 105 70.608 105H65.8977ZM68.0057 103.239H70.2727C71.0379 103.239 71.589 103.093 71.9261 102.801C72.267 102.506 72.4375 102.127 72.4375 101.665C72.4375 101.32 72.3523 101.009 72.1818 100.733C72.0114 100.453 71.7689 100.233 71.4545 100.074C71.1402 99.911 70.7652 99.8295 70.3295 99.8295H68.0057V103.239ZM68.0057 98.3125H70.0909C70.4545 98.3125 70.7822 98.2462 71.0739 98.1136C71.3655 97.9773 71.5947 97.786 71.7614 97.5398C71.9318 97.2898 72.017 96.9943 72.017 96.6534C72.017 96.2027 71.858 95.8314 71.5398 95.5398C71.2254 95.2481 70.7576 95.1023 70.1364 95.1023H68.0057V98.3125ZM80.1861 105.17C79.3111 105.17 78.5554 104.989 77.919 104.625C77.2865 104.258 76.7997 103.739 76.4588 103.068C76.1179 102.394 75.9474 101.6 75.9474 100.688C75.9474 99.7898 76.1179 99.0019 76.4588 98.3239C76.8035 97.642 77.2846 97.1117 77.902 96.733C78.5194 96.3504 79.2448 96.1591 80.0781 96.1591C80.616 96.1591 81.1236 96.2462 81.6009 96.4205C82.0819 96.5909 82.5062 96.8561 82.8736 97.2159C83.2448 97.5758 83.5365 98.0341 83.7486 98.5909C83.9607 99.1439 84.0668 99.803 84.0668 100.568V101.199H76.9134V99.8125H82.0952C82.0914 99.4186 82.0062 99.0682 81.8395 98.7614C81.6728 98.4508 81.4399 98.2064 81.1406 98.0284C80.8452 97.8504 80.5005 97.7614 80.1065 97.7614C79.6861 97.7614 79.3168 97.8636 78.9986 98.0682C78.6804 98.2689 78.4323 98.5341 78.2543 98.8636C78.08 99.1894 77.991 99.5473 77.9872 99.9375V101.148C77.9872 101.655 78.08 102.091 78.2656 102.455C78.4512 102.814 78.7107 103.091 79.044 103.284C79.3774 103.473 79.7675 103.568 80.2145 103.568C80.5137 103.568 80.7846 103.527 81.027 103.443C81.2694 103.356 81.4796 103.229 81.6577 103.062C81.8357 102.896 81.9702 102.689 82.0611 102.443L83.9815 102.659C83.8603 103.167 83.6293 103.61 83.2884 103.989C82.9512 104.364 82.5194 104.655 81.9929 104.864C81.4664 105.068 80.8641 105.17 80.1861 105.17ZM89.6023 108.455C88.8636 108.455 88.2292 108.354 87.6989 108.153C87.1686 107.956 86.7424 107.691 86.4205 107.358C86.0985 107.025 85.875 106.655 85.75 106.25L87.6023 105.801C87.6856 105.972 87.8068 106.14 87.9659 106.307C88.125 106.477 88.339 106.617 88.608 106.727C88.8807 106.841 89.2235 106.898 89.6364 106.898C90.2197 106.898 90.7027 106.756 91.0852 106.472C91.4678 106.191 91.6591 105.729 91.6591 105.085V103.432H91.5568C91.4508 103.644 91.2955 103.862 91.0909 104.085C90.8902 104.309 90.6231 104.496 90.2898 104.648C89.9602 104.799 89.5455 104.875 89.0455 104.875C88.375 104.875 87.767 104.718 87.2216 104.403C86.6799 104.085 86.2481 103.612 85.9261 102.983C85.608 102.35 85.4489 101.559 85.4489 100.608C85.4489 99.6496 85.608 98.8409 85.9261 98.1818C86.2481 97.5189 86.6818 97.017 87.2273 96.6761C87.7727 96.3314 88.3807 96.1591 89.0511 96.1591C89.5625 96.1591 89.983 96.2462 90.3125 96.4205C90.6458 96.5909 90.911 96.7973 91.108 97.0398C91.3049 97.2784 91.4545 97.5038 91.5568 97.7159H91.6705V96.2727H93.6989V105.142C93.6989 105.888 93.5208 106.506 93.1648 106.994C92.8087 107.483 92.322 107.848 91.7045 108.091C91.0871 108.333 90.3864 108.455 89.6023 108.455ZM89.6193 103.261C90.0549 103.261 90.4261 103.155 90.733 102.943C91.0398 102.731 91.2727 102.426 91.4318 102.028C91.5909 101.631 91.6705 101.153 91.6705 100.597C91.6705 100.047 91.5909 99.5663 91.4318 99.1534C91.2765 98.7405 91.0455 98.4205 90.7386 98.1932C90.4356 97.9621 90.0625 97.8466 89.6193 97.8466C89.161 97.8466 88.7784 97.9659 88.4716 98.2045C88.1648 98.4432 87.9337 98.7708 87.7784 99.1875C87.6231 99.6004 87.5455 100.07 87.5455 100.597C87.5455 101.131 87.6231 101.598 87.7784 102C87.9375 102.398 88.1705 102.708 88.4773 102.932C88.7879 103.152 89.1686 103.261 89.6193 103.261ZM95.8068 105V96.2727H97.8636V105H95.8068ZM96.8409 95.0341C96.5152 95.0341 96.2348 94.9261 96 94.7102C95.7652 94.4905 95.6477 94.2273 95.6477 93.9205C95.6477 93.6098 95.7652 93.3466 96 93.1307C96.2348 92.911 96.5152 92.8011 96.8409 92.8011C97.1705 92.8011 97.4508 92.911 97.6818 93.1307C97.9167 93.3466 98.0341 93.6098 98.0341 93.9205C98.0341 94.2273 97.9167 94.4905 97.6818 94.7102C97.4508 94.9261 97.1705 95.0341 96.8409 95.0341ZM102.036 99.8864V105H99.9787V96.2727H101.945V97.7557H102.047C102.248 97.267 102.568 96.8788 103.007 96.5909C103.45 96.303 103.998 96.1591 104.649 96.1591C105.251 96.1591 105.776 96.2879 106.223 96.5455C106.674 96.803 107.022 97.1761 107.268 97.6648C107.518 98.1534 107.642 98.7462 107.638 99.4432V105H105.581V99.7614C105.581 99.178 105.429 98.7216 105.126 98.392C104.827 98.0625 104.412 97.8977 103.882 97.8977C103.522 97.8977 103.202 97.9773 102.922 98.1364C102.645 98.2917 102.428 98.517 102.268 98.8125C102.113 99.108 102.036 99.4659 102.036 99.8864ZM111.786 99.8864V105H109.729V96.2727H111.695V97.7557H111.797C111.998 97.267 112.318 96.8788 112.757 96.5909C113.2 96.303 113.748 96.1591 114.399 96.1591C115.001 96.1591 115.526 96.2879 115.973 96.5455C116.424 96.803 116.772 97.1761 117.018 97.6648C117.268 98.1534 117.392 98.7462 117.388 99.4432V105H115.331V99.7614C115.331 99.178 115.179 98.7216 114.876 98.392C114.577 98.0625 114.162 97.8977 113.632 97.8977C113.272 97.8977 112.952 97.9773 112.672 98.1364C112.395 98.2917 112.178 98.517 112.018 98.8125C111.863 99.108 111.786 99.4659 111.786 99.8864ZM123.342 105.17C122.467 105.17 121.712 104.989 121.075 104.625C120.443 104.258 119.956 103.739 119.615 103.068C119.274 102.394 119.104 101.6 119.104 100.688C119.104 99.7898 119.274 99.0019 119.615 98.3239C119.96 97.642 120.441 97.1117 121.058 96.733C121.676 96.3504 122.401 96.1591 123.234 96.1591C123.772 96.1591 124.28 96.2462 124.757 96.4205C125.238 96.5909 125.662 96.8561 126.03 97.2159C126.401 97.5758 126.693 98.0341 126.905 98.5909C127.117 99.1439 127.223 99.803 127.223 100.568V101.199H120.07V99.8125H125.251C125.248 99.4186 125.162 99.0682 124.996 98.7614C124.829 98.4508 124.596 98.2064 124.297 98.0284C124.001 97.8504 123.657 97.7614 123.263 97.7614C122.842 97.7614 122.473 97.8636 122.155 98.0682C121.837 98.2689 121.589 98.5341 121.411 98.8636C121.236 99.1894 121.147 99.5473 121.143 99.9375V101.148C121.143 101.655 121.236 102.091 121.422 102.455C121.607 102.814 121.867 103.091 122.2 103.284C122.534 103.473 122.924 103.568 123.371 103.568C123.67 103.568 123.941 103.527 124.183 103.443C124.426 103.356 124.636 103.229 124.814 103.062C124.992 102.896 125.126 102.689 125.217 102.443L127.138 102.659C127.017 103.167 126.786 103.61 126.445 103.989C126.107 104.364 125.676 104.655 125.149 104.864C124.623 105.068 124.02 105.17 123.342 105.17ZM128.963 105V96.2727H130.957V97.7273H131.048C131.207 97.2235 131.48 96.8352 131.866 96.5625C132.257 96.286 132.702 96.1477 133.202 96.1477C133.315 96.1477 133.442 96.1534 133.582 96.1648C133.726 96.1723 133.846 96.1856 133.94 96.2045V98.0966C133.853 98.0663 133.715 98.0398 133.526 98.017C133.34 97.9905 133.16 97.9773 132.986 97.9773C132.611 97.9773 132.274 98.0587 131.974 98.2216C131.679 98.3807 131.446 98.6023 131.276 98.8864C131.105 99.1705 131.02 99.4981 131.02 99.8693V105H128.963Z" fill="black"/>
<path d="M83.6449 48.2727V49.1534H79.3551V48.2727H83.6449ZM80.696 57V46.9943C80.696 46.5246 80.804 46.1288 81.0199 45.8068C81.2396 45.4848 81.5256 45.2405 81.8778 45.0739C82.2301 44.9072 82.6032 44.8239 82.9972 44.8239C83.2623 44.8239 83.482 44.8466 83.6562 44.892C83.8343 44.9337 83.9744 44.9754 84.0767 45.017L83.7812 45.9034C83.7055 45.8807 83.6127 45.8542 83.5028 45.8239C83.393 45.7936 83.2547 45.7784 83.0881 45.7784C82.6487 45.7784 82.3097 45.9015 82.071 46.1477C81.8324 46.3939 81.7131 46.7462 81.7131 47.2045L81.7074 57H80.696ZM85.6747 57V48.2727H86.6918V57H85.6747ZM86.1918 46.7727C85.9834 46.7727 85.8054 46.7027 85.6577 46.5625C85.5099 46.4186 85.4361 46.2462 85.4361 46.0455C85.4361 45.8447 85.5099 45.6742 85.6577 45.5341C85.8054 45.3902 85.9834 45.3182 86.1918 45.3182C86.4001 45.3182 86.5781 45.3902 86.7259 45.5341C86.8736 45.6742 86.9474 45.8447 86.9474 46.0455C86.9474 46.2462 86.8736 46.4186 86.7259 46.5625C86.5781 46.7027 86.4001 46.7727 86.1918 46.7727ZM92.696 60.4545C92.1013 60.4545 91.5805 60.3769 91.1335 60.2216C90.6866 60.0701 90.3097 59.8617 90.0028 59.5966C89.696 59.3314 89.4574 59.0341 89.2869 58.7045L90.1165 58.1591C90.2415 58.3788 90.4081 58.5947 90.6165 58.8068C90.8286 59.0189 91.1032 59.1951 91.4403 59.3352C91.7813 59.4754 92.1998 59.5455 92.696 59.5455C93.4688 59.5455 94.0919 59.3523 94.5653 58.9659C95.0426 58.5795 95.2812 57.9792 95.2812 57.1648V55.1989H95.1903C95.0729 55.464 94.9044 55.7292 94.6847 55.9943C94.465 56.2557 94.1771 56.4735 93.821 56.6477C93.4688 56.822 93.0313 56.9091 92.5085 56.9091C91.8116 56.9091 91.1922 56.7367 90.6506 56.392C90.1127 56.0473 89.6884 55.5549 89.3778 54.9148C89.071 54.2708 88.9176 53.5038 88.9176 52.6136C88.9176 51.7311 89.0672 50.9545 89.3665 50.2841C89.6695 49.6136 90.0919 49.0909 90.6335 48.7159C91.1752 48.3409 91.8059 48.1534 92.5256 48.1534C93.0597 48.1534 93.5028 48.2481 93.8551 48.4375C94.2074 48.6231 94.4896 48.8542 94.7017 49.1307C94.9176 49.4072 95.0862 49.6761 95.2074 49.9375H95.3097V48.2727H96.2983V57.2273C96.2983 57.9659 96.1411 58.5739 95.8267 59.0511C95.5123 59.5284 95.0843 59.8807 94.5426 60.108C94.0009 60.339 93.3854 60.4545 92.696 60.4545ZM92.6278 55.983C93.1884 55.983 93.6676 55.8485 94.0653 55.5795C94.4631 55.3068 94.768 54.9167 94.9801 54.4091C95.1922 53.9015 95.2983 53.2973 95.2983 52.5966C95.2983 51.9148 95.1941 51.3106 94.9858 50.7841C94.7775 50.2538 94.4744 49.8371 94.0767 49.5341C93.6828 49.2273 93.1998 49.0739 92.6278 49.0739C92.0445 49.0739 91.5521 49.2311 91.1506 49.5455C90.7491 49.8598 90.446 50.2841 90.2415 50.8182C90.0369 51.3485 89.9347 51.9413 89.9347 52.5966C89.9347 53.2633 90.0388 53.8523 90.2472 54.3636C90.4555 54.8712 90.7604 55.2689 91.1619 55.5568C91.5634 55.8409 92.0521 55.983 92.6278 55.983ZM98.9759 57V48.2727H99.9588V49.6136H100.05C100.224 49.1629 100.514 48.8087 100.919 48.5511C101.328 48.2898 101.819 48.1591 102.391 48.1591C102.993 48.1591 103.487 48.3011 103.874 48.5852C104.264 48.8655 104.555 49.2519 104.749 49.7443H104.822C105.019 49.2595 105.339 48.875 105.783 48.5909C106.23 48.303 106.771 48.1591 107.408 48.1591C108.218 48.1591 108.858 48.4148 109.328 48.9261C109.798 49.4337 110.033 50.1761 110.033 51.1534V57H109.021V51.1534C109.021 50.464 108.845 49.947 108.493 49.6023C108.141 49.2576 107.677 49.0852 107.101 49.0852C106.434 49.0852 105.921 49.2898 105.561 49.6989C105.201 50.108 105.021 50.6269 105.021 51.2557V57H103.987V51.0625C103.987 50.4716 103.822 49.9943 103.493 49.6307C103.163 49.267 102.699 49.0852 102.101 49.0852C101.699 49.0852 101.338 49.1837 101.016 49.3807C100.697 49.5777 100.446 49.8523 100.26 50.2045C100.078 50.553 99.9872 50.9545 99.9872 51.4091V57H98.9759ZM115.148 57.1989C114.621 57.1989 114.14 57.0966 113.705 56.892C113.269 56.6837 112.922 56.3845 112.665 55.9943C112.407 55.6004 112.278 55.1231 112.278 54.5625C112.278 54.1307 112.36 53.767 112.523 53.4716C112.686 53.1761 112.917 52.9337 113.216 52.7443C113.515 52.5549 113.869 52.4053 114.278 52.2955C114.688 52.1856 115.138 52.1004 115.631 52.0398C116.119 51.9792 116.532 51.9261 116.869 51.8807C117.21 51.8352 117.47 51.7633 117.648 51.6648C117.826 51.5663 117.915 51.4072 117.915 51.1875V50.983C117.915 50.3883 117.737 49.9205 117.381 49.5795C117.028 49.2348 116.521 49.0625 115.858 49.0625C115.229 49.0625 114.716 49.2008 114.318 49.4773C113.924 49.7538 113.648 50.0795 113.489 50.4545L112.528 50.108C112.725 49.6307 112.998 49.25 113.347 48.9659C113.695 48.678 114.085 48.4716 114.517 48.3466C114.949 48.2178 115.386 48.1534 115.83 48.1534C116.163 48.1534 116.509 48.197 116.869 48.2841C117.233 48.3712 117.57 48.5227 117.881 48.7386C118.191 48.9508 118.443 49.2481 118.636 49.6307C118.83 50.0095 118.926 50.4905 118.926 51.0739V57H117.915V55.6193H117.852C117.731 55.8769 117.551 56.1269 117.312 56.3693C117.074 56.6117 116.775 56.8106 116.415 56.9659C116.055 57.1212 115.633 57.1989 115.148 57.1989ZM115.284 56.2727C115.822 56.2727 116.288 56.1534 116.682 55.9148C117.076 55.6761 117.379 55.3598 117.591 54.9659C117.807 54.5682 117.915 54.1307 117.915 53.6534V52.392C117.839 52.464 117.712 52.5284 117.534 52.5852C117.36 52.642 117.157 52.6932 116.926 52.7386C116.699 52.7803 116.472 52.8163 116.244 52.8466C116.017 52.8769 115.812 52.9034 115.631 52.9261C115.138 52.9867 114.718 53.0814 114.369 53.2102C114.021 53.339 113.754 53.517 113.568 53.7443C113.383 53.9678 113.29 54.2557 113.29 54.608C113.29 55.1383 113.479 55.5492 113.858 55.8409C114.237 56.1288 114.712 56.2727 115.284 56.2727Z" fill="black"/>
<path d="M67.8551 142.364V154H66.7926V143.477H66.7244L63.9972 145.29V144.188L66.7472 142.364H67.8551ZM75.929 154V145.273H76.9119V146.614H77.0028C77.1771 146.163 77.4669 145.809 77.8722 145.551C78.2813 145.29 78.7718 145.159 79.3438 145.159C79.946 145.159 80.4403 145.301 80.8267 145.585C81.2169 145.866 81.5085 146.252 81.7017 146.744H81.7756C81.9725 146.259 82.2926 145.875 82.7358 145.591C83.1828 145.303 83.7244 145.159 84.3608 145.159C85.1714 145.159 85.8116 145.415 86.2812 145.926C86.7509 146.434 86.9858 147.176 86.9858 148.153V154H85.9744V148.153C85.9744 147.464 85.7983 146.947 85.446 146.602C85.0938 146.258 84.6297 146.085 84.054 146.085C83.3873 146.085 82.8741 146.29 82.5142 146.699C82.1544 147.108 81.9744 147.627 81.9744 148.256V154H80.9403V148.062C80.9403 147.472 80.7756 146.994 80.446 146.631C80.1165 146.267 79.6525 146.085 79.054 146.085C78.6525 146.085 78.2907 146.184 77.9688 146.381C77.6506 146.578 77.3987 146.852 77.2131 147.205C77.0313 147.553 76.9403 147.955 76.9403 148.409V154H75.929ZM93.0554 154.182C92.3016 154.182 91.6349 153.991 91.0554 153.608C90.4796 153.225 90.0289 152.697 89.7031 152.023C89.3774 151.345 89.2145 150.562 89.2145 149.676C89.2145 148.782 89.3774 147.996 89.7031 147.318C90.0289 146.636 90.4796 146.106 91.0554 145.727C91.6349 145.345 92.3016 145.153 93.0554 145.153C93.8092 145.153 94.474 145.345 95.0497 145.727C95.6255 146.11 96.0762 146.64 96.402 147.318C96.7315 147.996 96.8963 148.782 96.8963 149.676C96.8963 150.562 96.7334 151.345 96.4077 152.023C96.0819 152.697 95.6293 153.225 95.0497 153.608C94.474 153.991 93.8092 154.182 93.0554 154.182ZM93.0554 153.256C93.6615 153.256 94.1747 153.093 94.5952 152.767C95.0156 152.441 95.3338 152.008 95.5497 151.466C95.7694 150.924 95.8793 150.328 95.8793 149.676C95.8793 149.025 95.7694 148.426 95.5497 147.881C95.3338 147.335 95.0156 146.898 94.5952 146.568C94.1747 146.239 93.6615 146.074 93.0554 146.074C92.4531 146.074 91.9399 146.239 91.5156 146.568C91.0952 146.898 90.7751 147.335 90.5554 147.881C90.3395 148.426 90.2315 149.025 90.2315 149.676C90.2315 150.328 90.3395 150.924 90.5554 151.466C90.7751 152.008 91.0952 152.441 91.5156 152.767C91.9361 153.093 92.4493 153.256 93.0554 153.256ZM100.128 148.545V154H99.1165V145.273H100.099V146.642H100.19C100.395 146.195 100.713 145.837 101.145 145.568C101.58 145.295 102.118 145.159 102.759 145.159C103.346 145.159 103.861 145.282 104.304 145.528C104.751 145.771 105.098 146.129 105.344 146.602C105.594 147.076 105.719 147.657 105.719 148.347V154H104.707V148.409C104.707 147.693 104.507 147.127 104.105 146.71C103.707 146.294 103.173 146.085 102.503 146.085C102.045 146.085 101.637 146.184 101.281 146.381C100.925 146.578 100.643 146.862 100.435 147.233C100.23 147.6 100.128 148.038 100.128 148.545ZM111.82 145.273V146.153H107.655V145.273H111.82ZM108.956 143.182H109.973V151.722C109.973 152.085 110.036 152.371 110.161 152.58C110.286 152.784 110.448 152.93 110.649 153.017C110.85 153.1 111.064 153.142 111.291 153.142C111.424 153.142 111.537 153.134 111.632 153.119C111.727 153.1 111.81 153.081 111.882 153.062L112.098 153.977C112 154.015 111.878 154.049 111.734 154.08C111.59 154.114 111.412 154.131 111.2 154.131C110.829 154.131 110.471 154.049 110.126 153.886C109.786 153.723 109.505 153.481 109.286 153.159C109.066 152.837 108.956 152.438 108.956 151.96V143.182ZM115.315 148.545V154H114.304V142.364H115.315V146.642H115.406C115.611 146.191 115.927 145.831 116.355 145.562C116.787 145.294 117.332 145.159 117.991 145.159C118.582 145.159 119.101 145.28 119.548 145.523C119.995 145.765 120.344 146.123 120.594 146.597C120.844 147.07 120.969 147.653 120.969 148.347V154H119.952V148.409C119.952 147.689 119.751 147.123 119.349 146.71C118.952 146.294 118.414 146.085 117.736 146.085C117.27 146.085 116.855 146.184 116.491 146.381C116.128 146.578 115.84 146.862 115.628 147.233C115.42 147.6 115.315 148.038 115.315 148.545ZM127.411 141.818L123.661 155.75H122.712L126.462 141.818H127.411ZM135.027 147.188L134.101 147.449C134.01 147.187 133.881 146.951 133.714 146.739C133.548 146.527 133.33 146.358 133.061 146.233C132.796 146.108 132.466 146.045 132.072 146.045C131.482 146.045 130.997 146.186 130.618 146.466C130.239 146.746 130.05 147.108 130.05 147.551C130.05 147.926 130.179 148.231 130.436 148.466C130.697 148.697 131.099 148.881 131.641 149.017L132.959 149.341C133.69 149.519 134.237 149.801 134.601 150.188C134.968 150.574 135.152 151.059 135.152 151.642C135.152 152.134 135.016 152.572 134.743 152.955C134.47 153.337 134.089 153.638 133.601 153.858C133.116 154.074 132.554 154.182 131.913 154.182C131.061 154.182 130.358 153.991 129.805 153.608C129.252 153.222 128.898 152.665 128.743 151.938L129.714 151.699C129.839 152.218 130.084 152.61 130.447 152.875C130.815 153.14 131.298 153.273 131.896 153.273C132.567 153.273 133.103 153.123 133.504 152.824C133.906 152.521 134.107 152.142 134.107 151.688C134.107 151.335 133.989 151.04 133.754 150.801C133.519 150.559 133.163 150.381 132.686 150.267L131.26 149.926C130.502 149.744 129.942 149.456 129.578 149.062C129.214 148.669 129.033 148.18 129.033 147.597C129.033 147.116 129.163 146.693 129.425 146.33C129.686 145.962 130.046 145.674 130.504 145.466C130.963 145.258 131.485 145.153 132.072 145.153C132.872 145.153 133.51 145.335 133.987 145.699C134.468 146.059 134.815 146.555 135.027 147.188Z" fill="black"/>
<defs>
<filter id="filter0_d_181_866" x="9.39746" y="0" width="181.205" height="208" filterUnits="userSpaceOnUse" color-interpolation-filters="sRGB">
<feFlood flood-opacity="0" result="BackgroundImageFix"/>
<feColorMatrix in="SourceAlpha" type="matrix" values="0 0 0 0 0 0 0 0 0 0 0 0 0 0 0 0 0 0 127 0" result="hardAlpha"/>
<feOffset dy="4"/>
<feGaussianBlur stdDeviation="2"/>
<feComposite in2="hardAlpha" operator="out"/>
<feColorMatrix type="matrix" values="0 0 0 0 0 0 0 0 0 0 0 0 0 0 0 0 0 0 0.25 0"/>
<feBlend mode="normal" in2="BackgroundImageFix" result="effect1_dropShadow_181_866"/>
<feBlend mode="normal" in="SourceGraphic" in2="effect1_dropShadow_181_866" result="shape"/>
</filter>
</defs>
</svg>
