<svg width="1012" height="203" viewBox="0 0 1012 203" fill="none" xmlns="http://www.w3.org/2000/svg">
<g filter="url(#filter0_d_85_6153)">
<path d="M6 168C40 148.5 55 132.605 89 111.5C123 90.3945 177 57.2911 217 59.8949C267 63.1497 306.406 95.2237 349 125.394C397 159.395 437 187.395 504.5 159.395C561 135.958 612.202 53.5629 644 41.8945C706.5 18.9596 756 95.1482 783 111.5C810 127.851 872 103 912 103" stroke="white" stroke-width="5"/>
<circle cx="211.5" cy="60" r="15" fill="white"/>
<circle cx="371.5" cy="142" r="15" fill="white"/>
<circle cx="663.5" cy="38" r="15" fill="white"/>
<circle cx="882.5" cy="104" r="15" fill="white"/>
<circle cx="781.5" cy="112" r="15" fill="white"/>
<path d="M109.614 21.5455H112.136L118.068 36.0341H118.273L124.205 21.5455H126.727V39H124.75V25.7386H124.58L119.125 39H117.216L111.761 25.7386H111.591V39H109.614V21.5455ZM134.545 39.3068C133.715 39.3068 132.962 39.1506 132.286 38.8381C131.61 38.5199 131.073 38.0625 130.675 37.4659C130.278 36.8636 130.079 36.1364 130.079 35.2841C130.079 34.5341 130.227 33.9261 130.522 33.4602C130.817 32.9886 131.212 32.6193 131.707 32.3523C132.201 32.0852 132.746 31.8864 133.343 31.7557C133.945 31.6193 134.55 31.5114 135.158 31.4318C135.954 31.3295 136.599 31.2528 137.093 31.2017C137.593 31.1449 137.957 31.0511 138.184 30.9205C138.417 30.7898 138.533 30.5625 138.533 30.2386V30.1705C138.533 29.3295 138.303 28.6761 137.843 28.2102C137.388 27.7443 136.698 27.5114 135.772 27.5114C134.812 27.5114 134.059 27.7216 133.513 28.142C132.968 28.5625 132.585 29.0114 132.363 29.4886L130.454 28.8068C130.795 28.0114 131.249 27.392 131.817 26.9489C132.391 26.5 133.016 26.1875 133.692 26.0114C134.374 25.8295 135.045 25.7386 135.704 25.7386C136.124 25.7386 136.607 25.7898 137.153 25.892C137.704 25.9886 138.235 26.1903 138.746 26.4972C139.263 26.804 139.692 27.267 140.033 27.8864C140.374 28.5057 140.545 29.3352 140.545 30.375V39H138.533V37.2273H138.431C138.295 37.5114 138.067 37.8153 137.749 38.1392C137.431 38.4631 137.008 38.7386 136.479 38.9659C135.951 39.1932 135.306 39.3068 134.545 39.3068ZM134.852 37.5C135.647 37.5 136.317 37.3438 136.863 37.0312C137.414 36.7188 137.829 36.3153 138.107 35.821C138.391 35.3267 138.533 34.8068 138.533 34.2614V32.4205C138.448 32.5227 138.261 32.6165 137.971 32.7017C137.687 32.7812 137.357 32.8523 136.982 32.9148C136.613 32.9716 136.252 33.0227 135.9 33.0682C135.553 33.108 135.272 33.142 135.056 33.1705C134.533 33.2386 134.045 33.3494 133.59 33.5028C133.141 33.6506 132.778 33.875 132.499 34.1761C132.227 34.4716 132.09 34.875 132.09 35.3864C132.09 36.0852 132.349 36.6136 132.866 36.9716C133.388 37.3239 134.05 37.5 134.852 37.5ZM149.909 25.9091V27.6136H143.125V25.9091H149.909ZM145.102 22.7727H147.114V35.25C147.114 35.8182 147.196 36.2443 147.361 36.5284C147.531 36.8068 147.747 36.9943 148.009 37.0909C148.276 37.1818 148.557 37.2273 148.852 37.2273C149.074 37.2273 149.256 37.2159 149.398 37.1932C149.54 37.1648 149.653 37.142 149.739 37.125L150.148 38.9318C150.011 38.983 149.821 39.0341 149.577 39.0852C149.332 39.142 149.023 39.1705 148.648 39.1705C148.08 39.1705 147.523 39.0483 146.977 38.804C146.438 38.5597 145.989 38.1875 145.631 37.6875C145.278 37.1875 145.102 36.5568 145.102 35.7955V22.7727ZM152.935 39V25.9091H154.946V39H152.935ZM153.957 23.7273C153.565 23.7273 153.227 23.5938 152.943 23.3267C152.665 23.0597 152.526 22.7386 152.526 22.3636C152.526 21.9886 152.665 21.6676 152.943 21.4006C153.227 21.1335 153.565 21 153.957 21C154.349 21 154.685 21.1335 154.963 21.4006C155.247 21.6676 155.389 21.9886 155.389 22.3636C155.389 22.7386 155.247 23.0597 154.963 23.3267C154.685 23.5938 154.349 23.7273 153.957 23.7273ZM163.948 39.2727C162.721 39.2727 161.664 38.983 160.778 38.4034C159.891 37.8239 159.21 37.0256 158.732 36.0085C158.255 34.9915 158.016 33.8295 158.016 32.5227C158.016 31.1932 158.261 30.0199 158.749 29.0028C159.244 27.9801 159.931 27.1818 160.812 26.608C161.698 26.0284 162.732 25.7386 163.914 25.7386C164.835 25.7386 165.664 25.9091 166.403 26.25C167.141 26.5909 167.746 27.0682 168.218 27.6818C168.69 28.2955 168.982 29.0114 169.096 29.8295H167.085C166.931 29.233 166.59 28.7045 166.062 28.2443C165.539 27.7784 164.835 27.5455 163.948 27.5455C163.164 27.5455 162.477 27.75 161.886 28.1591C161.3 28.5625 160.843 29.1335 160.513 29.8722C160.19 30.6051 160.028 31.4659 160.028 32.4545C160.028 33.4659 160.187 34.3466 160.505 35.0966C160.829 35.8466 161.283 36.429 161.869 36.8438C162.46 37.2585 163.153 37.4659 163.948 37.4659C164.471 37.4659 164.945 37.375 165.371 37.1932C165.798 37.0114 166.158 36.75 166.454 36.4091C166.749 36.0682 166.96 35.6591 167.085 35.1818H169.096C168.982 35.9545 168.701 36.6506 168.252 37.2699C167.809 37.8835 167.221 38.3722 166.488 38.7358C165.761 39.0938 164.914 39.2727 163.948 39.2727Z" fill="white"/>
<path d="M221.159 180.909C221.057 180.045 220.642 179.375 219.915 178.898C219.188 178.42 218.295 178.182 217.239 178.182C216.466 178.182 215.79 178.307 215.21 178.557C214.636 178.807 214.188 179.151 213.864 179.588C213.545 180.026 213.386 180.523 213.386 181.08C213.386 181.545 213.497 181.946 213.719 182.281C213.946 182.611 214.236 182.886 214.588 183.108C214.94 183.324 215.31 183.503 215.696 183.645C216.082 183.781 216.438 183.892 216.761 183.977L218.534 184.455C218.989 184.574 219.494 184.739 220.051 184.949C220.614 185.159 221.151 185.446 221.662 185.81C222.179 186.168 222.605 186.628 222.94 187.19C223.276 187.753 223.443 188.443 223.443 189.261C223.443 190.205 223.196 191.057 222.702 191.818C222.213 192.58 221.497 193.185 220.554 193.634C219.616 194.082 218.477 194.307 217.136 194.307C215.886 194.307 214.804 194.105 213.889 193.702C212.98 193.298 212.264 192.736 211.741 192.014C211.224 191.293 210.932 190.455 210.864 189.5H213.045C213.102 190.159 213.324 190.705 213.71 191.136C214.102 191.562 214.597 191.881 215.193 192.091C215.795 192.295 216.443 192.398 217.136 192.398C217.943 192.398 218.668 192.267 219.31 192.006C219.952 191.739 220.46 191.369 220.835 190.898C221.21 190.42 221.398 189.864 221.398 189.227C221.398 188.648 221.236 188.176 220.912 187.812C220.588 187.449 220.162 187.153 219.634 186.926C219.105 186.699 218.534 186.5 217.92 186.33L215.773 185.716C214.409 185.324 213.33 184.764 212.534 184.037C211.739 183.31 211.341 182.358 211.341 181.182C211.341 180.205 211.605 179.352 212.134 178.625C212.668 177.892 213.384 177.324 214.281 176.92C215.185 176.511 216.193 176.307 217.307 176.307C218.432 176.307 219.432 176.509 220.307 176.912C221.182 177.31 221.875 177.855 222.386 178.548C222.903 179.241 223.176 180.028 223.205 180.909H221.159ZM226.646 194V180.909H228.589V182.955H228.759C229.032 182.256 229.472 181.713 230.08 181.327C230.688 180.935 231.418 180.739 232.271 180.739C233.134 180.739 233.853 180.935 234.427 181.327C235.006 181.713 235.458 182.256 235.782 182.955H235.918C236.254 182.278 236.756 181.741 237.427 181.344C238.097 180.94 238.901 180.739 239.839 180.739C241.009 180.739 241.967 181.105 242.711 181.838C243.455 182.565 243.827 183.699 243.827 185.239V194H241.816V185.239C241.816 184.273 241.552 183.582 241.023 183.168C240.495 182.753 239.873 182.545 239.157 182.545C238.237 182.545 237.523 182.824 237.018 183.381C236.512 183.932 236.259 184.631 236.259 185.477V194H234.214V185.034C234.214 184.29 233.972 183.69 233.489 183.236C233.006 182.776 232.384 182.545 231.623 182.545C231.1 182.545 230.612 182.685 230.157 182.963C229.708 183.241 229.344 183.628 229.066 184.122C228.793 184.611 228.657 185.176 228.657 185.818V194H226.646ZM251.357 194.307C250.528 194.307 249.775 194.151 249.099 193.838C248.423 193.52 247.886 193.062 247.488 192.466C247.09 191.864 246.891 191.136 246.891 190.284C246.891 189.534 247.039 188.926 247.335 188.46C247.63 187.989 248.025 187.619 248.519 187.352C249.013 187.085 249.559 186.886 250.156 186.756C250.758 186.619 251.363 186.511 251.971 186.432C252.766 186.33 253.411 186.253 253.906 186.202C254.406 186.145 254.769 186.051 254.996 185.92C255.229 185.79 255.346 185.562 255.346 185.239V185.17C255.346 184.33 255.116 183.676 254.656 183.21C254.201 182.744 253.511 182.511 252.585 182.511C251.624 182.511 250.871 182.722 250.326 183.142C249.781 183.562 249.397 184.011 249.175 184.489L247.266 183.807C247.607 183.011 248.062 182.392 248.63 181.949C249.204 181.5 249.829 181.187 250.505 181.011C251.187 180.83 251.857 180.739 252.516 180.739C252.937 180.739 253.42 180.79 253.965 180.892C254.516 180.989 255.048 181.19 255.559 181.497C256.076 181.804 256.505 182.267 256.846 182.886C257.187 183.506 257.357 184.335 257.357 185.375V194H255.346V192.227H255.244C255.107 192.511 254.88 192.815 254.562 193.139C254.244 193.463 253.82 193.739 253.292 193.966C252.763 194.193 252.119 194.307 251.357 194.307ZM251.664 192.5C252.46 192.5 253.13 192.344 253.675 192.031C254.227 191.719 254.641 191.315 254.92 190.821C255.204 190.327 255.346 189.807 255.346 189.261V187.42C255.261 187.523 255.073 187.616 254.783 187.702C254.499 187.781 254.17 187.852 253.795 187.915C253.425 187.972 253.065 188.023 252.712 188.068C252.366 188.108 252.085 188.142 251.869 188.17C251.346 188.239 250.857 188.349 250.403 188.503C249.954 188.651 249.59 188.875 249.312 189.176C249.039 189.472 248.903 189.875 248.903 190.386C248.903 191.085 249.161 191.614 249.678 191.972C250.201 192.324 250.863 192.5 251.664 192.5ZM263.04 176.545V194H261.028V176.545H263.04ZM268.735 176.545V194H266.724V176.545H268.735ZM293.487 182H291.374C291.249 181.392 291.03 180.858 290.717 180.398C290.411 179.938 290.036 179.551 289.592 179.239C289.155 178.92 288.669 178.682 288.135 178.523C287.601 178.364 287.044 178.284 286.464 178.284C285.408 178.284 284.45 178.551 283.592 179.085C282.74 179.619 282.061 180.406 281.555 181.446C281.055 182.486 280.805 183.761 280.805 185.273C280.805 186.784 281.055 188.06 281.555 189.099C282.061 190.139 282.74 190.926 283.592 191.46C284.45 191.994 285.408 192.261 286.464 192.261C287.044 192.261 287.601 192.182 288.135 192.023C288.669 191.864 289.155 191.628 289.592 191.315C290.036 190.997 290.411 190.608 290.717 190.148C291.03 189.682 291.249 189.148 291.374 188.545H293.487C293.328 189.437 293.038 190.236 292.618 190.94C292.197 191.645 291.675 192.244 291.05 192.739C290.425 193.227 289.723 193.599 288.945 193.855C288.172 194.111 287.345 194.239 286.464 194.239C284.976 194.239 283.652 193.875 282.493 193.148C281.334 192.42 280.422 191.386 279.757 190.045C279.092 188.705 278.76 187.114 278.76 185.273C278.76 183.432 279.092 181.841 279.757 180.5C280.422 179.159 281.334 178.125 282.493 177.398C283.652 176.67 284.976 176.307 286.464 176.307C287.345 176.307 288.172 176.435 288.945 176.69C289.723 176.946 290.425 177.321 291.05 177.815C291.675 178.304 292.197 178.901 292.618 179.605C293.038 180.304 293.328 181.102 293.487 182ZM301.948 194.273C300.766 194.273 299.729 193.991 298.837 193.429C297.951 192.866 297.258 192.08 296.758 191.068C296.263 190.057 296.016 188.875 296.016 187.523C296.016 186.159 296.263 184.969 296.758 183.952C297.258 182.935 297.951 182.145 298.837 181.582C299.729 181.02 300.766 180.739 301.948 180.739C303.13 180.739 304.164 181.02 305.05 181.582C305.942 182.145 306.636 182.935 307.13 183.952C307.63 184.969 307.88 186.159 307.88 187.523C307.88 188.875 307.63 190.057 307.13 191.068C306.636 192.08 305.942 192.866 305.05 193.429C304.164 193.991 303.13 194.273 301.948 194.273ZM301.948 192.466C302.846 192.466 303.585 192.236 304.164 191.776C304.744 191.315 305.173 190.71 305.451 189.96C305.729 189.21 305.869 188.398 305.869 187.523C305.869 186.648 305.729 185.832 305.451 185.077C305.173 184.321 304.744 183.71 304.164 183.244C303.585 182.778 302.846 182.545 301.948 182.545C301.05 182.545 300.312 182.778 299.732 183.244C299.153 183.71 298.724 184.321 298.445 185.077C298.167 185.832 298.028 186.648 298.028 187.523C298.028 188.398 298.167 189.21 298.445 189.96C298.724 190.71 299.153 191.315 299.732 191.776C300.312 192.236 301.05 192.466 301.948 192.466ZM319.2 188.648V180.909H321.212V194H319.2V191.784H319.064C318.757 192.449 318.28 193.014 317.632 193.48C316.984 193.94 316.166 194.17 315.178 194.17C314.359 194.17 313.632 193.991 312.996 193.634C312.359 193.27 311.859 192.724 311.496 191.997C311.132 191.264 310.95 190.341 310.95 189.227V180.909H312.962V189.091C312.962 190.045 313.229 190.807 313.763 191.375C314.303 191.943 314.99 192.227 315.825 192.227C316.325 192.227 316.834 192.099 317.351 191.844C317.874 191.588 318.311 191.196 318.663 190.668C319.021 190.139 319.2 189.466 319.2 188.648ZM324.896 194V180.909H326.839V182.886H326.975C327.214 182.239 327.646 181.713 328.271 181.31C328.896 180.906 329.6 180.705 330.384 180.705C330.532 180.705 330.717 180.707 330.938 180.713C331.16 180.719 331.327 180.727 331.441 180.739V182.784C331.373 182.767 331.217 182.741 330.972 182.707C330.734 182.668 330.481 182.648 330.214 182.648C329.577 182.648 329.009 182.781 328.509 183.048C328.015 183.31 327.623 183.673 327.333 184.139C327.049 184.599 326.907 185.125 326.907 185.716V194H324.896ZM343.098 183.841L341.291 184.352C341.178 184.051 341.01 183.759 340.788 183.474C340.572 183.185 340.277 182.946 339.902 182.759C339.527 182.571 339.047 182.477 338.462 182.477C337.661 182.477 336.993 182.662 336.459 183.031C335.93 183.395 335.666 183.858 335.666 184.42C335.666 184.92 335.848 185.315 336.212 185.605C336.575 185.895 337.143 186.136 337.916 186.33L339.859 186.807C341.03 187.091 341.902 187.526 342.476 188.111C343.05 188.69 343.337 189.437 343.337 190.352C343.337 191.102 343.121 191.773 342.689 192.364C342.263 192.955 341.666 193.42 340.899 193.761C340.132 194.102 339.24 194.273 338.223 194.273C336.888 194.273 335.783 193.983 334.908 193.403C334.033 192.824 333.479 191.977 333.246 190.864L335.155 190.386C335.337 191.091 335.68 191.619 336.186 191.972C336.697 192.324 337.365 192.5 338.189 192.5C339.126 192.5 339.871 192.301 340.422 191.903C340.979 191.5 341.257 191.017 341.257 190.455C341.257 190 341.098 189.619 340.78 189.312C340.462 189 339.973 188.767 339.314 188.614L337.132 188.102C335.933 187.818 335.053 187.378 334.49 186.781C333.933 186.179 333.655 185.426 333.655 184.523C333.655 183.784 333.862 183.131 334.277 182.562C334.697 181.994 335.268 181.548 335.99 181.224C336.717 180.901 337.541 180.739 338.462 180.739C339.757 180.739 340.774 181.023 341.513 181.591C342.257 182.159 342.786 182.909 343.098 183.841ZM351.853 194.273C350.592 194.273 349.504 193.994 348.589 193.438C347.68 192.875 346.978 192.091 346.484 191.085C345.995 190.074 345.751 188.898 345.751 187.557C345.751 186.216 345.995 185.034 346.484 184.011C346.978 182.983 347.665 182.182 348.546 181.608C349.433 181.028 350.467 180.739 351.648 180.739C352.33 180.739 353.004 180.852 353.668 181.08C354.333 181.307 354.938 181.676 355.484 182.188C356.029 182.693 356.464 183.364 356.788 184.199C357.112 185.034 357.273 186.062 357.273 187.284V188.136H347.183V186.398H355.228C355.228 185.659 355.08 185 354.785 184.42C354.495 183.841 354.08 183.384 353.54 183.048C353.006 182.713 352.376 182.545 351.648 182.545C350.847 182.545 350.154 182.744 349.569 183.142C348.989 183.534 348.543 184.045 348.231 184.676C347.918 185.307 347.762 185.983 347.762 186.705V187.864C347.762 188.852 347.933 189.69 348.273 190.378C348.62 191.06 349.1 191.58 349.714 191.938C350.327 192.29 351.04 192.466 351.853 192.466C352.381 192.466 352.859 192.392 353.285 192.244C353.717 192.091 354.089 191.864 354.401 191.562C354.714 191.256 354.955 190.875 355.126 190.42L357.069 190.966C356.864 191.625 356.521 192.205 356.038 192.705C355.555 193.199 354.958 193.585 354.248 193.864C353.538 194.136 352.739 194.273 351.853 194.273ZM369.606 183.841L367.799 184.352C367.685 184.051 367.518 183.759 367.296 183.474C367.08 183.185 366.785 182.946 366.41 182.759C366.035 182.571 365.555 182.477 364.969 182.477C364.168 182.477 363.501 182.662 362.967 183.031C362.438 183.395 362.174 183.858 362.174 184.42C362.174 184.92 362.356 185.315 362.719 185.605C363.083 185.895 363.651 186.136 364.424 186.33L366.367 186.807C367.538 187.091 368.41 187.526 368.984 188.111C369.558 188.69 369.844 189.437 369.844 190.352C369.844 191.102 369.629 191.773 369.197 192.364C368.771 192.955 368.174 193.42 367.407 193.761C366.64 194.102 365.748 194.273 364.731 194.273C363.396 194.273 362.29 193.983 361.415 193.403C360.54 192.824 359.987 191.977 359.754 190.864L361.663 190.386C361.844 191.091 362.188 191.619 362.694 191.972C363.205 192.324 363.873 192.5 364.697 192.5C365.634 192.5 366.379 192.301 366.93 191.903C367.487 191.5 367.765 191.017 367.765 190.455C367.765 190 367.606 189.619 367.288 189.312C366.969 189 366.481 188.767 365.822 188.614L363.64 188.102C362.441 187.818 361.56 187.378 360.998 186.781C360.441 186.179 360.163 185.426 360.163 184.523C360.163 183.784 360.37 183.131 360.785 182.562C361.205 181.994 361.776 181.548 362.498 181.224C363.225 180.901 364.049 180.739 364.969 180.739C366.265 180.739 367.282 181.023 368.021 181.591C368.765 182.159 369.293 182.909 369.606 183.841Z" fill="white"/>
<path d="M497.159 9.90909C497.057 9.04545 496.642 8.375 495.915 7.89773C495.188 7.42045 494.295 7.18182 493.239 7.18182C492.466 7.18182 491.79 7.30682 491.21 7.55682C490.636 7.80682 490.188 8.15057 489.864 8.58807C489.545 9.02557 489.386 9.52273 489.386 10.0795C489.386 10.5455 489.497 10.946 489.719 11.2812C489.946 11.6108 490.236 11.8864 490.588 12.108C490.94 12.3239 491.31 12.5028 491.696 12.6449C492.082 12.7812 492.438 12.892 492.761 12.9773L494.534 13.4545C494.989 13.5739 495.494 13.7386 496.051 13.9489C496.614 14.1591 497.151 14.446 497.662 14.8097C498.179 15.1676 498.605 15.6278 498.94 16.1903C499.276 16.7528 499.443 17.4432 499.443 18.2614C499.443 19.2045 499.196 20.0568 498.702 20.8182C498.213 21.5795 497.497 22.1847 496.554 22.6335C495.616 23.0824 494.477 23.3068 493.136 23.3068C491.886 23.3068 490.804 23.1051 489.889 22.7017C488.98 22.2983 488.264 21.7358 487.741 21.0142C487.224 20.2926 486.932 19.4545 486.864 18.5H489.045C489.102 19.1591 489.324 19.7045 489.71 20.1364C490.102 20.5625 490.597 20.8807 491.193 21.0909C491.795 21.2955 492.443 21.3977 493.136 21.3977C493.943 21.3977 494.668 21.267 495.31 21.0057C495.952 20.7386 496.46 20.3693 496.835 19.8977C497.21 19.4205 497.398 18.8636 497.398 18.2273C497.398 17.6477 497.236 17.1761 496.912 16.8125C496.588 16.4489 496.162 16.1534 495.634 15.9261C495.105 15.6989 494.534 15.5 493.92 15.3295L491.773 14.7159C490.409 14.3239 489.33 13.7642 488.534 13.0369C487.739 12.3097 487.341 11.358 487.341 10.1818C487.341 9.20454 487.605 8.35227 488.134 7.625C488.668 6.89205 489.384 6.32386 490.281 5.92045C491.185 5.51136 492.193 5.30682 493.307 5.30682C494.432 5.30682 495.432 5.50852 496.307 5.91193C497.182 6.30966 497.875 6.85511 498.386 7.54829C498.903 8.24148 499.176 9.02841 499.205 9.90909H497.159ZM508.134 23.2727C506.873 23.2727 505.785 22.9943 504.87 22.4375C503.961 21.875 503.259 21.0909 502.765 20.0852C502.276 19.0739 502.032 17.8977 502.032 16.5568C502.032 15.2159 502.276 14.0341 502.765 13.0114C503.259 11.983 503.947 11.1818 504.827 10.608C505.714 10.0284 506.748 9.73864 507.93 9.73864C508.612 9.73864 509.285 9.85227 509.95 10.0795C510.614 10.3068 511.219 10.6761 511.765 11.1875C512.31 11.6932 512.745 12.3636 513.069 13.1989C513.393 14.0341 513.555 15.0625 513.555 16.2841V17.1364H503.464V15.3977H511.509C511.509 14.6591 511.362 14 511.066 13.4205C510.776 12.8409 510.362 12.3835 509.822 12.0483C509.288 11.7131 508.657 11.5455 507.93 11.5455C507.129 11.5455 506.435 11.7443 505.85 12.142C505.271 12.5341 504.825 13.0455 504.512 13.6761C504.2 14.3068 504.043 14.983 504.043 15.7045V16.8636C504.043 17.8523 504.214 18.6903 504.555 19.3778C504.901 20.0597 505.381 20.5795 505.995 20.9375C506.609 21.2898 507.322 21.4659 508.134 21.4659C508.663 21.4659 509.14 21.392 509.566 21.2443C509.998 21.0909 510.37 20.8636 510.683 20.5625C510.995 20.2557 511.237 19.875 511.407 19.4205L513.35 19.9659C513.146 20.625 512.802 21.2045 512.319 21.7045C511.836 22.1989 511.239 22.5852 510.529 22.8636C509.819 23.1364 509.021 23.2727 508.134 23.2727ZM518.626 5.54545V23H516.614V5.54545H518.626ZM528.139 9.90909V11.6136H521.082V9.90909H528.139ZM523.196 23V8.10227C523.196 7.35227 523.372 6.72727 523.724 6.22727C524.077 5.72727 524.534 5.35227 525.097 5.10227C525.659 4.85227 526.253 4.72727 526.878 4.72727C527.372 4.72727 527.776 4.76704 528.088 4.84659C528.401 4.92614 528.634 5 528.787 5.06818L528.207 6.80682C528.105 6.77273 527.963 6.73011 527.781 6.67898C527.605 6.62784 527.372 6.60227 527.082 6.60227C526.418 6.60227 525.938 6.76989 525.642 7.10511C525.352 7.44034 525.207 7.93182 525.207 8.57954V23H523.196ZM537.981 23V5.54545H540.094V21.125H548.208V23H537.981ZM556.697 23.2727C555.435 23.2727 554.347 22.9943 553.433 22.4375C552.523 21.875 551.822 21.0909 551.327 20.0852C550.839 19.0739 550.594 17.8977 550.594 16.5568C550.594 15.2159 550.839 14.0341 551.327 13.0114C551.822 11.983 552.509 11.1818 553.39 10.608C554.276 10.0284 555.31 9.73864 556.492 9.73864C557.174 9.73864 557.847 9.85227 558.512 10.0795C559.177 10.3068 559.782 10.6761 560.327 11.1875C560.873 11.6932 561.308 12.3636 561.631 13.1989C561.955 14.0341 562.117 15.0625 562.117 16.2841V17.1364H552.026V15.3977H560.072C560.072 14.6591 559.924 14 559.629 13.4205C559.339 12.8409 558.924 12.3835 558.384 12.0483C557.85 11.7131 557.219 11.5455 556.492 11.5455C555.691 11.5455 554.998 11.7443 554.413 12.142C553.833 12.5341 553.387 13.0455 553.075 13.6761C552.762 14.3068 552.606 14.983 552.606 15.7045V16.8636C552.606 17.8523 552.776 18.6903 553.117 19.3778C553.464 20.0597 553.944 20.5795 554.558 20.9375C555.171 21.2898 555.884 21.4659 556.697 21.4659C557.225 21.4659 557.702 21.392 558.129 21.2443C558.56 21.0909 558.933 20.8636 559.245 20.5625C559.558 20.2557 559.799 19.875 559.969 19.4205L561.913 19.9659C561.708 20.625 561.364 21.2045 560.881 21.7045C560.398 22.1989 559.802 22.5852 559.092 22.8636C558.381 23.1364 557.583 23.2727 556.697 23.2727ZM569.029 23.3068C568.2 23.3068 567.447 23.1506 566.771 22.8381C566.094 22.5199 565.558 22.0625 565.16 21.4659C564.762 20.8636 564.563 20.1364 564.563 19.2841C564.563 18.5341 564.711 17.9261 565.006 17.4602C565.302 16.9886 565.697 16.6193 566.191 16.3523C566.685 16.0852 567.231 15.8864 567.827 15.7557C568.43 15.6193 569.035 15.5114 569.643 15.4318C570.438 15.3295 571.083 15.2528 571.577 15.2017C572.077 15.1449 572.441 15.0511 572.668 14.9205C572.901 14.7898 573.018 14.5625 573.018 14.2386V14.1705C573.018 13.3295 572.788 12.6761 572.327 12.2102C571.873 11.7443 571.183 11.5114 570.256 11.5114C569.296 11.5114 568.543 11.7216 567.998 12.142C567.452 12.5625 567.069 13.0114 566.847 13.4886L564.938 12.8068C565.279 12.0114 565.734 11.392 566.302 10.9489C566.876 10.5 567.501 10.1875 568.177 10.0114C568.859 9.82955 569.529 9.73864 570.188 9.73864C570.609 9.73864 571.092 9.78977 571.637 9.89204C572.188 9.98864 572.719 10.1903 573.231 10.4972C573.748 10.804 574.177 11.267 574.518 11.8864C574.859 12.5057 575.029 13.3352 575.029 14.375V23H573.018V21.2273H572.915C572.779 21.5114 572.552 21.8153 572.234 22.1392C571.915 22.4631 571.492 22.7386 570.964 22.9659C570.435 23.1932 569.79 23.3068 569.029 23.3068ZM569.336 21.5C570.131 21.5 570.802 21.3438 571.347 21.0312C571.898 20.7188 572.313 20.3153 572.592 19.821C572.876 19.3267 573.018 18.8068 573.018 18.2614V16.4205C572.933 16.5227 572.745 16.6165 572.455 16.7017C572.171 16.7812 571.842 16.8523 571.467 16.9148C571.097 16.9716 570.737 17.0227 570.384 17.0682C570.038 17.108 569.756 17.142 569.54 17.1705C569.018 17.2386 568.529 17.3494 568.075 17.5028C567.626 17.6506 567.262 17.875 566.984 18.1761C566.711 18.4716 566.575 18.875 566.575 19.3864C566.575 20.0852 566.833 20.6136 567.35 20.9716C567.873 21.3239 568.535 21.5 569.336 21.5ZM578.7 23V9.90909H580.643V11.8864H580.78C581.018 11.2386 581.45 10.7131 582.075 10.3097C582.7 9.90625 583.405 9.70454 584.189 9.70454C584.337 9.70454 584.521 9.70739 584.743 9.71307C584.964 9.71875 585.132 9.72727 585.246 9.73864V11.7841C585.178 11.767 585.021 11.7415 584.777 11.7074C584.538 11.6676 584.286 11.6477 584.018 11.6477C583.382 11.6477 582.814 11.7812 582.314 12.0483C581.82 12.3097 581.428 12.6733 581.138 13.1392C580.854 13.5994 580.712 14.125 580.712 14.7159V23H578.7ZM589.641 15.125V23H587.63V9.90909H589.573V11.9545H589.744C590.05 11.2898 590.516 10.7557 591.141 10.3523C591.766 9.94318 592.573 9.73864 593.562 9.73864C594.448 9.73864 595.224 9.92045 595.888 10.2841C596.553 10.642 597.07 11.1875 597.44 11.9205C597.809 12.6477 597.994 13.5682 597.994 14.6818V23H595.982V14.8182C595.982 13.7898 595.715 12.9886 595.181 12.4148C594.647 11.8352 593.914 11.5455 592.982 11.5455C592.34 11.5455 591.766 11.6847 591.261 11.9631C590.761 12.2415 590.366 12.6477 590.076 13.1818C589.786 13.7159 589.641 14.3636 589.641 15.125ZM601.669 23V9.90909H603.68V23H601.669ZM602.692 7.72727C602.3 7.72727 601.962 7.59375 601.678 7.3267C601.399 7.05966 601.26 6.73864 601.26 6.36364C601.26 5.98864 601.399 5.66761 601.678 5.40057C601.962 5.13352 602.3 5 602.692 5C603.084 5 603.419 5.13352 603.697 5.40057C603.982 5.66761 604.124 5.98864 604.124 6.36364C604.124 6.73864 603.982 7.05966 603.697 7.3267C603.419 7.59375 603.084 7.72727 602.692 7.72727ZM609.376 15.125V23H607.364V9.90909H609.308V11.9545H609.478C609.785 11.2898 610.251 10.7557 610.876 10.3523C611.501 9.94318 612.308 9.73864 613.296 9.73864C614.183 9.73864 614.958 9.92045 615.623 10.2841C616.288 10.642 616.805 11.1875 617.174 11.9205C617.543 12.6477 617.728 13.5682 617.728 14.6818V23H615.717V14.8182C615.717 13.7898 615.45 12.9886 614.915 12.4148C614.381 11.8352 613.648 11.5455 612.717 11.5455C612.075 11.5455 611.501 11.6847 610.995 11.9631C610.495 12.2415 610.1 12.6477 609.81 13.1818C609.521 13.7159 609.376 14.3636 609.376 15.125ZM626.688 28.1818C625.716 28.1818 624.881 28.0568 624.182 27.8068C623.483 27.5625 622.901 27.2386 622.435 26.8352C621.974 26.4375 621.608 26.0114 621.335 25.5568L622.938 24.4318C623.119 24.6705 623.349 24.9432 623.628 25.25C623.906 25.5625 624.287 25.8324 624.77 26.0597C625.259 26.2926 625.898 26.4091 626.688 26.4091C627.744 26.4091 628.616 26.1534 629.304 25.642C629.991 25.1307 630.335 24.3295 630.335 23.2386V20.5795H630.165C630.017 20.8182 629.807 21.1136 629.534 21.4659C629.267 21.8125 628.881 22.1222 628.375 22.3949C627.875 22.6619 627.199 22.7955 626.347 22.7955C625.29 22.7955 624.341 22.5455 623.5 22.0455C622.665 21.5455 622.003 20.8182 621.514 19.8636C621.031 18.9091 620.79 17.75 620.79 16.3864C620.79 15.0455 621.026 13.8778 621.497 12.8835C621.969 11.8835 622.625 11.1108 623.466 10.5653C624.307 10.0142 625.278 9.73864 626.381 9.73864C627.233 9.73864 627.909 9.88068 628.409 10.1648C628.915 10.4432 629.301 10.7614 629.568 11.1193C629.841 11.4716 630.051 11.7614 630.199 11.9886H630.403V9.90909H632.347V23.375C632.347 24.5 632.091 25.4148 631.58 26.1193C631.074 26.8295 630.392 27.3494 629.534 27.679C628.682 28.0142 627.733 28.1818 626.688 28.1818ZM626.619 20.9886C627.426 20.9886 628.108 20.804 628.665 20.4347C629.222 20.0653 629.645 19.5341 629.935 18.8409C630.224 18.1477 630.369 17.3182 630.369 16.3523C630.369 15.4091 630.227 14.5767 629.943 13.8551C629.659 13.1335 629.239 12.5682 628.682 12.1591C628.125 11.75 627.438 11.5455 626.619 11.5455C625.767 11.5455 625.057 11.7614 624.489 12.1932C623.926 12.625 623.503 13.2045 623.219 13.9318C622.94 14.6591 622.801 15.4659 622.801 16.3523C622.801 17.2614 622.943 18.0653 623.227 18.7642C623.517 19.4574 623.943 20.0028 624.506 20.4006C625.074 20.7926 625.778 20.9886 626.619 20.9886Z" fill="white"/>
<path d="M705.614 157V139.545H711.511C712.875 139.545 713.994 139.778 714.869 140.244C715.744 140.705 716.392 141.338 716.812 142.145C717.233 142.952 717.443 143.869 717.443 144.898C717.443 145.926 717.233 146.838 716.812 147.634C716.392 148.429 715.747 149.054 714.878 149.509C714.009 149.957 712.898 150.182 711.545 150.182H706.773V148.273H711.477C712.409 148.273 713.159 148.136 713.727 147.864C714.301 147.591 714.716 147.205 714.972 146.705C715.233 146.199 715.364 145.597 715.364 144.898C715.364 144.199 715.233 143.588 714.972 143.065C714.71 142.543 714.293 142.139 713.719 141.855C713.145 141.565 712.386 141.42 711.443 141.42H707.727V157H705.614ZM713.83 149.159L718.125 157H715.67L711.443 149.159H713.83ZM726.04 157.273C724.779 157.273 723.691 156.994 722.776 156.438C721.867 155.875 721.165 155.091 720.671 154.085C720.183 153.074 719.938 151.898 719.938 150.557C719.938 149.216 720.183 148.034 720.671 147.011C721.165 145.983 721.853 145.182 722.734 144.608C723.62 144.028 724.654 143.739 725.836 143.739C726.518 143.739 727.191 143.852 727.856 144.08C728.521 144.307 729.126 144.676 729.671 145.188C730.217 145.693 730.651 146.364 730.975 147.199C731.299 148.034 731.461 149.062 731.461 150.284V151.136H721.37V149.398H729.415C729.415 148.659 729.268 148 728.972 147.42C728.683 146.841 728.268 146.384 727.728 146.048C727.194 145.713 726.563 145.545 725.836 145.545C725.035 145.545 724.342 145.744 723.756 146.142C723.177 146.534 722.731 147.045 722.418 147.676C722.106 148.307 721.95 148.983 721.95 149.705V150.864C721.95 151.852 722.12 152.69 722.461 153.378C722.808 154.06 723.288 154.58 723.901 154.938C724.515 155.29 725.228 155.466 726.04 155.466C726.569 155.466 727.046 155.392 727.472 155.244C727.904 155.091 728.276 154.864 728.589 154.562C728.901 154.256 729.143 153.875 729.313 153.42L731.256 153.966C731.052 154.625 730.708 155.205 730.225 155.705C729.742 156.199 729.146 156.585 728.435 156.864C727.725 157.136 726.927 157.273 726.04 157.273ZM740.214 143.909V145.614H733.43V143.909H740.214ZM735.407 140.773H737.418V153.25C737.418 153.818 737.501 154.244 737.665 154.528C737.836 154.807 738.052 154.994 738.313 155.091C738.58 155.182 738.862 155.227 739.157 155.227C739.379 155.227 739.56 155.216 739.702 155.193C739.844 155.165 739.958 155.142 740.043 155.125L740.452 156.932C740.316 156.983 740.126 157.034 739.881 157.085C739.637 157.142 739.327 157.17 738.952 157.17C738.384 157.17 737.827 157.048 737.282 156.804C736.742 156.56 736.293 156.188 735.935 155.688C735.583 155.188 735.407 154.557 735.407 153.795V140.773ZM747.092 157.307C746.262 157.307 745.509 157.151 744.833 156.838C744.157 156.52 743.62 156.062 743.222 155.466C742.825 154.864 742.626 154.136 742.626 153.284C742.626 152.534 742.773 151.926 743.069 151.46C743.364 150.989 743.759 150.619 744.254 150.352C744.748 150.085 745.293 149.886 745.89 149.756C746.492 149.619 747.097 149.511 747.705 149.432C748.501 149.33 749.146 149.253 749.64 149.202C750.14 149.145 750.504 149.051 750.731 148.92C750.964 148.79 751.08 148.562 751.08 148.239V148.17C751.08 147.33 750.85 146.676 750.39 146.21C749.935 145.744 749.245 145.511 748.319 145.511C747.359 145.511 746.606 145.722 746.06 146.142C745.515 146.562 745.131 147.011 744.91 147.489L743.001 146.807C743.342 146.011 743.796 145.392 744.364 144.949C744.938 144.5 745.563 144.187 746.239 144.011C746.921 143.83 747.592 143.739 748.251 143.739C748.671 143.739 749.154 143.79 749.7 143.892C750.251 143.989 750.782 144.19 751.293 144.497C751.81 144.804 752.239 145.267 752.58 145.886C752.921 146.506 753.092 147.335 753.092 148.375V157H751.08V155.227H750.978C750.842 155.511 750.614 155.815 750.296 156.139C749.978 156.463 749.555 156.739 749.026 156.966C748.498 157.193 747.853 157.307 747.092 157.307ZM747.398 155.5C748.194 155.5 748.864 155.344 749.41 155.031C749.961 154.719 750.376 154.315 750.654 153.821C750.938 153.327 751.08 152.807 751.08 152.261V150.42C750.995 150.523 750.808 150.616 750.518 150.702C750.234 150.781 749.904 150.852 749.529 150.915C749.16 150.972 748.799 151.023 748.447 151.068C748.1 151.108 747.819 151.142 747.603 151.17C747.08 151.239 746.592 151.349 746.137 151.503C745.688 151.651 745.325 151.875 745.046 152.176C744.773 152.472 744.637 152.875 744.637 153.386C744.637 154.085 744.896 154.614 745.413 154.972C745.935 155.324 746.597 155.5 747.398 155.5ZM756.763 157V143.909H758.774V157H756.763ZM757.786 141.727C757.393 141.727 757.055 141.594 756.771 141.327C756.493 141.06 756.354 140.739 756.354 140.364C756.354 139.989 756.493 139.668 756.771 139.401C757.055 139.134 757.393 139 757.786 139C758.178 139 758.513 139.134 758.791 139.401C759.075 139.668 759.217 139.989 759.217 140.364C759.217 140.739 759.075 141.06 758.791 141.327C758.513 141.594 758.178 141.727 757.786 141.727ZM764.469 139.545V157H762.458V139.545H764.469Z" fill="white"/>
<path d="M758.614 37V19.5455H760.727V35.125H768.841V37H758.614ZM771.841 37V23.9091H773.852V37H771.841ZM772.864 21.7273C772.472 21.7273 772.134 21.5938 771.849 21.3267C771.571 21.0597 771.432 20.7386 771.432 20.3636C771.432 19.9886 771.571 19.6676 771.849 19.4006C772.134 19.1335 772.472 19 772.864 19C773.256 19 773.591 19.1335 773.869 19.4006C774.153 19.6676 774.295 19.9886 774.295 20.3636C774.295 20.7386 774.153 21.0597 773.869 21.3267C773.591 21.5938 773.256 21.7273 772.864 21.7273ZM783.366 23.9091V25.6136H776.309V23.9091H783.366ZM778.423 37V22.1023C778.423 21.3523 778.599 20.7273 778.951 20.2273C779.303 19.7273 779.761 19.3523 780.323 19.1023C780.886 18.8523 781.479 18.7273 782.104 18.7273C782.599 18.7273 783.002 18.767 783.315 18.8466C783.627 18.9261 783.86 19 784.013 19.0682L783.434 20.8068C783.332 20.7727 783.19 20.7301 783.008 20.679C782.832 20.6278 782.599 20.6023 782.309 20.6023C781.644 20.6023 781.164 20.7699 780.869 21.1051C780.579 21.4403 780.434 21.9318 780.434 22.5795V37H778.423ZM791.134 37.2727C789.873 37.2727 788.785 36.9943 787.87 36.4375C786.961 35.875 786.259 35.0909 785.765 34.0852C785.276 33.0739 785.032 31.8977 785.032 30.5568C785.032 29.2159 785.276 28.0341 785.765 27.0114C786.259 25.983 786.947 25.1818 787.827 24.608C788.714 24.0284 789.748 23.7386 790.93 23.7386C791.612 23.7386 792.285 23.8523 792.95 24.0795C793.614 24.3068 794.219 24.6761 794.765 25.1875C795.31 25.6932 795.745 26.3636 796.069 27.1989C796.393 28.0341 796.555 29.0625 796.555 30.2841V31.1364H786.464V29.3977H794.509C794.509 28.6591 794.362 28 794.066 27.4205C793.776 26.8409 793.362 26.3835 792.822 26.0483C792.288 25.7131 791.657 25.5455 790.93 25.5455C790.129 25.5455 789.435 25.7443 788.85 26.142C788.271 26.5341 787.825 27.0455 787.512 27.6761C787.2 28.3068 787.043 28.983 787.043 29.7045V30.8636C787.043 31.8523 787.214 32.6903 787.555 33.3778C787.901 34.0597 788.381 34.5795 788.995 34.9375C789.609 35.2898 790.322 35.4659 791.134 35.4659C791.663 35.4659 792.14 35.392 792.566 35.2443C792.998 35.0909 793.37 34.8636 793.683 34.5625C793.995 34.2557 794.237 33.875 794.407 33.4205L796.35 33.9659C796.146 34.625 795.802 35.2045 795.319 35.7045C794.836 36.1989 794.239 36.5852 793.529 36.8636C792.819 37.1364 792.021 37.2727 791.134 37.2727ZM820.683 25H818.569C818.444 24.392 818.225 23.858 817.913 23.3977C817.606 22.9375 817.231 22.5511 816.788 22.2386C816.35 21.9205 815.864 21.6818 815.33 21.5227C814.796 21.3636 814.239 21.2841 813.66 21.2841C812.603 21.2841 811.646 21.5511 810.788 22.0852C809.935 22.6193 809.256 23.4062 808.751 24.446C808.251 25.4858 808.001 26.7614 808.001 28.2727C808.001 29.7841 808.251 31.0597 808.751 32.0994C809.256 33.1392 809.935 33.9261 810.788 34.4602C811.646 34.9943 812.603 35.2614 813.66 35.2614C814.239 35.2614 814.796 35.1818 815.33 35.0227C815.864 34.8636 816.35 34.6278 816.788 34.3153C817.231 33.9972 817.606 33.608 817.913 33.1477C818.225 32.6818 818.444 32.1477 818.569 31.5455H820.683C820.523 32.4375 820.234 33.2358 819.813 33.9403C819.393 34.6449 818.87 35.2443 818.245 35.7386C817.62 36.2273 816.918 36.5994 816.14 36.8551C815.367 37.1108 814.54 37.2386 813.66 37.2386C812.171 37.2386 810.847 36.875 809.688 36.1477C808.529 35.4205 807.617 34.3864 806.952 33.0455C806.288 31.7045 805.955 30.1136 805.955 28.2727C805.955 26.4318 806.288 24.8409 806.952 23.5C807.617 22.1591 808.529 21.125 809.688 20.3977C810.847 19.6705 812.171 19.3068 813.66 19.3068C814.54 19.3068 815.367 19.4347 816.14 19.6903C816.918 19.946 817.62 20.321 818.245 20.8153C818.87 21.304 819.393 21.9006 819.813 22.6051C820.234 23.304 820.523 24.1023 820.683 25ZM825.837 29.125V37H823.825V19.5455H825.837V25.9545H826.007C826.314 25.2784 826.774 24.7415 827.388 24.3438C828.007 23.9403 828.831 23.7386 829.859 23.7386C830.751 23.7386 831.533 23.9176 832.203 24.2756C832.874 24.6278 833.393 25.1705 833.763 25.9034C834.138 26.6307 834.325 27.5568 834.325 28.6818V37H832.314V28.8182C832.314 27.7784 832.044 26.9744 831.504 26.4062C830.97 25.8324 830.229 25.5455 829.28 25.5455C828.621 25.5455 828.03 25.6847 827.507 25.9631C826.99 26.2415 826.581 26.6477 826.28 27.1818C825.984 27.7159 825.837 28.3636 825.837 29.125ZM843.323 37.2727C842.141 37.2727 841.104 36.9915 840.212 36.429C839.326 35.8665 838.633 35.0795 838.133 34.0682C837.638 33.0568 837.391 31.875 837.391 30.5227C837.391 29.1591 837.638 27.9687 838.133 26.9517C838.633 25.9347 839.326 25.1449 840.212 24.5824C841.104 24.0199 842.141 23.7386 843.323 23.7386C844.505 23.7386 845.539 24.0199 846.425 24.5824C847.317 25.1449 848.011 25.9347 848.505 26.9517C849.005 27.9687 849.255 29.1591 849.255 30.5227C849.255 31.875 849.005 33.0568 848.505 34.0682C848.011 35.0795 847.317 35.8665 846.425 36.429C845.539 36.9915 844.505 37.2727 843.323 37.2727ZM843.323 35.4659C844.221 35.4659 844.96 35.2358 845.539 34.7756C846.119 34.3153 846.548 33.7102 846.826 32.9602C847.104 32.2102 847.244 31.3977 847.244 30.5227C847.244 29.6477 847.104 28.8324 846.826 28.0767C846.548 27.321 846.119 26.7102 845.539 26.2443C844.96 25.7784 844.221 25.5455 843.323 25.5455C842.425 25.5455 841.687 25.7784 841.107 26.2443C840.528 26.7102 840.099 27.321 839.82 28.0767C839.542 28.8324 839.403 29.6477 839.403 30.5227C839.403 31.3977 839.542 32.2102 839.82 32.9602C840.099 33.7102 840.528 34.3153 841.107 34.7756C841.687 35.2358 842.425 35.4659 843.323 35.4659ZM852.325 37V23.9091H854.337V37H852.325ZM853.348 21.7273C852.956 21.7273 852.618 21.5938 852.334 21.3267C852.055 21.0597 851.916 20.7386 851.916 20.3636C851.916 19.9886 852.055 19.6676 852.334 19.4006C852.618 19.1335 852.956 19 853.348 19C853.74 19 854.075 19.1335 854.354 19.4006C854.638 19.6676 854.78 19.9886 854.78 20.3636C854.78 20.7386 854.638 21.0597 854.354 21.3267C854.075 21.5938 853.74 21.7273 853.348 21.7273ZM863.339 37.2727C862.112 37.2727 861.055 36.983 860.168 36.4034C859.282 35.8239 858.6 35.0256 858.123 34.0085C857.646 32.9915 857.407 31.8295 857.407 30.5227C857.407 29.1932 857.651 28.0199 858.14 27.0028C858.634 25.9801 859.322 25.1818 860.202 24.608C861.089 24.0284 862.123 23.7386 863.305 23.7386C864.225 23.7386 865.055 23.9091 865.793 24.25C866.532 24.5909 867.137 25.0682 867.609 25.6818C868.08 26.2955 868.373 27.0114 868.487 27.8295H866.475C866.322 27.233 865.981 26.7045 865.452 26.2443C864.93 25.7784 864.225 25.5455 863.339 25.5455C862.555 25.5455 861.867 25.75 861.276 26.1591C860.691 26.5625 860.234 27.1335 859.904 27.8722C859.58 28.6051 859.418 29.4659 859.418 30.4545C859.418 31.4659 859.577 32.3466 859.896 33.0966C860.219 33.8466 860.674 34.429 861.259 34.8438C861.85 35.2585 862.543 35.4659 863.339 35.4659C863.862 35.4659 864.336 35.375 864.762 35.1932C865.188 35.0114 865.549 34.75 865.844 34.4091C866.14 34.0682 866.35 33.6591 866.475 33.1818H868.487C868.373 33.9545 868.092 34.6506 867.643 35.2699C867.2 35.8835 866.612 36.3722 865.879 36.7358C865.151 37.0938 864.305 37.2727 863.339 37.2727ZM876.915 37.2727C875.654 37.2727 874.566 36.9943 873.651 36.4375C872.742 35.875 872.04 35.0909 871.546 34.0852C871.058 33.0739 870.813 31.8977 870.813 30.5568C870.813 29.2159 871.058 28.0341 871.546 27.0114C872.04 25.983 872.728 25.1818 873.609 24.608C874.495 24.0284 875.529 23.7386 876.711 23.7386C877.393 23.7386 878.066 23.8523 878.731 24.0795C879.396 24.3068 880.001 24.6761 880.546 25.1875C881.092 25.6932 881.526 26.3636 881.85 27.1989C882.174 28.0341 882.336 29.0625 882.336 30.2841V31.1364H872.245V29.3977H880.29C880.29 28.6591 880.143 28 879.847 27.4205C879.558 26.8409 879.143 26.3835 878.603 26.0483C878.069 25.7131 877.438 25.5455 876.711 25.5455C875.91 25.5455 875.217 25.7443 874.631 26.142C874.052 26.5341 873.606 27.0455 873.293 27.6761C872.981 28.3068 872.825 28.983 872.825 29.7045V30.8636C872.825 31.8523 872.995 32.6903 873.336 33.3778C873.683 34.0597 874.163 34.5795 874.776 34.9375C875.39 35.2898 876.103 35.4659 876.915 35.4659C877.444 35.4659 877.921 35.392 878.347 35.2443C878.779 35.0909 879.151 34.8636 879.464 34.5625C879.776 34.2557 880.018 33.875 880.188 33.4205L882.131 33.9659C881.927 34.625 881.583 35.2045 881.1 35.7045C880.617 36.1989 880.021 36.5852 879.31 36.8636C878.6 37.1364 877.802 37.2727 876.915 37.2727ZM894.668 26.8409L892.862 27.3523C892.748 27.0511 892.58 26.7585 892.359 26.4744C892.143 26.1847 891.847 25.946 891.472 25.7585C891.097 25.571 890.617 25.4773 890.032 25.4773C889.231 25.4773 888.563 25.6619 888.029 26.0312C887.501 26.3949 887.237 26.858 887.237 27.4205C887.237 27.9205 887.418 28.3153 887.782 28.6051C888.146 28.8949 888.714 29.1364 889.487 29.3295L891.43 29.8068C892.6 30.0909 893.472 30.5256 894.046 31.1108C894.62 31.6903 894.907 32.4375 894.907 33.3523C894.907 34.1023 894.691 34.7727 894.259 35.3636C893.833 35.9545 893.237 36.4205 892.469 36.7614C891.702 37.1023 890.81 37.2727 889.793 37.2727C888.458 37.2727 887.353 36.983 886.478 36.4034C885.603 35.8239 885.049 34.9773 884.816 33.8636L886.725 33.3864C886.907 34.0909 887.251 34.6193 887.756 34.9716C888.268 35.3239 888.935 35.5 889.759 35.5C890.697 35.5 891.441 35.3011 891.992 34.9034C892.549 34.5 892.827 34.017 892.827 33.4545C892.827 33 892.668 32.6193 892.35 32.3125C892.032 32 891.543 31.767 890.884 31.6136L888.702 31.1023C887.504 30.8182 886.623 30.3778 886.06 29.7812C885.504 29.179 885.225 28.4261 885.225 27.5227C885.225 26.7841 885.433 26.1307 885.847 25.5625C886.268 24.9943 886.839 24.5483 887.56 24.2244C888.288 23.9006 889.112 23.7386 890.032 23.7386C891.327 23.7386 892.344 24.0227 893.083 24.5909C893.827 25.1591 894.356 25.9091 894.668 26.8409ZM905.673 37H903.457L909.866 19.5455H912.048L918.457 37H916.241L911.026 22.3068H910.889L905.673 37ZM906.491 30.1818H915.423V32.0568H906.491V30.1818ZM926.222 37.2727C924.994 37.2727 923.938 36.983 923.051 36.4034C922.165 35.8239 921.483 35.0256 921.006 34.0085C920.528 32.9915 920.29 31.8295 920.29 30.5227C920.29 29.1932 920.534 28.0199 921.023 27.0028C921.517 25.9801 922.205 25.1818 923.085 24.608C923.972 24.0284 925.006 23.7386 926.188 23.7386C927.108 23.7386 927.938 23.9091 928.676 24.25C929.415 24.5909 930.02 25.0682 930.491 25.6818C930.963 26.2955 931.256 27.0114 931.369 27.8295H929.358C929.205 27.233 928.864 26.7045 928.335 26.2443C927.813 25.7784 927.108 25.5455 926.222 25.5455C925.438 25.5455 924.75 25.75 924.159 26.1591C923.574 26.5625 923.116 27.1335 922.787 27.8722C922.463 28.6051 922.301 29.4659 922.301 30.4545C922.301 31.4659 922.46 32.3466 922.778 33.0966C923.102 33.8466 923.557 34.429 924.142 34.8438C924.733 35.2585 925.426 35.4659 926.222 35.4659C926.744 35.4659 927.219 35.375 927.645 35.1932C928.071 35.0114 928.432 34.75 928.727 34.4091C929.023 34.0682 929.233 33.6591 929.358 33.1818H931.369C931.256 33.9545 930.974 34.6506 930.526 35.2699C930.082 35.8835 929.494 36.3722 928.761 36.7358C928.034 37.0938 927.188 37.2727 926.222 37.2727ZM938.162 37.3068C937.332 37.3068 936.58 37.1506 935.903 36.8381C935.227 36.5199 934.69 36.0625 934.293 35.4659C933.895 34.8636 933.696 34.1364 933.696 33.2841C933.696 32.5341 933.844 31.9261 934.139 31.4602C934.435 30.9886 934.83 30.6193 935.324 30.3523C935.818 30.0852 936.364 29.8864 936.96 29.7557C937.563 29.6193 938.168 29.5114 938.776 29.4318C939.571 29.3295 940.216 29.2528 940.71 29.2017C941.21 29.1449 941.574 29.0511 941.801 28.9205C942.034 28.7898 942.151 28.5625 942.151 28.2386V28.1705C942.151 27.3295 941.92 26.6761 941.46 26.2102C941.006 25.7443 940.315 25.5114 939.389 25.5114C938.429 25.5114 937.676 25.7216 937.131 26.142C936.585 26.5625 936.202 27.0114 935.98 27.4886L934.071 26.8068C934.412 26.0114 934.866 25.392 935.435 24.9489C936.009 24.5 936.634 24.1875 937.31 24.0114C937.991 23.8295 938.662 23.7386 939.321 23.7386C939.741 23.7386 940.224 23.7898 940.77 23.892C941.321 23.9886 941.852 24.1903 942.364 24.4972C942.881 24.804 943.31 25.267 943.651 25.8864C943.991 26.5057 944.162 27.3352 944.162 28.375V37H942.151V35.2273H942.048C941.912 35.5114 941.685 35.8153 941.366 36.1392C941.048 36.4631 940.625 36.7386 940.097 36.9659C939.568 37.1932 938.923 37.3068 938.162 37.3068ZM938.469 35.5C939.264 35.5 939.935 35.3438 940.48 35.0312C941.031 34.7188 941.446 34.3153 941.724 33.821C942.009 33.3267 942.151 32.8068 942.151 32.2614V30.4205C942.065 30.5227 941.878 30.6165 941.588 30.7017C941.304 30.7812 940.974 30.8523 940.599 30.9148C940.23 30.9716 939.869 31.0227 939.517 31.0682C939.17 31.108 938.889 31.142 938.673 31.1705C938.151 31.2386 937.662 31.3494 937.207 31.5028C936.759 31.6506 936.395 31.875 936.116 32.1761C935.844 32.4716 935.707 32.875 935.707 33.3864C935.707 34.0852 935.966 34.6136 936.483 34.9716C937.006 35.3239 937.668 35.5 938.469 35.5ZM952.776 37.2727C951.685 37.2727 950.722 36.9972 949.887 36.446C949.052 35.8892 948.398 35.1051 947.927 34.0938C947.455 33.0767 947.219 31.875 947.219 30.4886C947.219 29.1136 947.455 27.9205 947.927 26.9091C948.398 25.8977 949.055 25.1165 949.896 24.5653C950.737 24.0142 951.708 23.7386 952.81 23.7386C953.663 23.7386 954.336 23.8807 954.83 24.1648C955.33 24.4432 955.711 24.7614 955.972 25.1193C956.239 25.4716 956.447 25.7614 956.594 25.9886H956.765V19.5455H958.776V37H956.833V34.9886H956.594C956.447 35.2273 956.237 35.5284 955.964 35.892C955.691 36.25 955.302 36.571 954.796 36.8551C954.29 37.1335 953.617 37.2727 952.776 37.2727ZM953.049 35.4659C953.856 35.4659 954.538 35.2557 955.094 34.8352C955.651 34.4091 956.075 33.821 956.364 33.071C956.654 32.3153 956.799 31.4432 956.799 30.4545C956.799 29.4773 956.657 28.6222 956.373 27.8892C956.089 27.1506 955.668 26.5767 955.112 26.1676C954.555 25.7528 953.867 25.5455 953.049 25.5455C952.197 25.5455 951.487 25.7642 950.918 26.2017C950.356 26.6335 949.933 27.2216 949.648 27.9659C949.37 28.7045 949.231 29.5341 949.231 30.4545C949.231 31.3864 949.373 32.233 949.657 32.9943C949.947 33.75 950.373 34.3523 950.935 34.8011C951.504 35.2443 952.208 35.4659 953.049 35.4659ZM968.228 37.2727C966.967 37.2727 965.879 36.9943 964.964 36.4375C964.055 35.875 963.353 35.0909 962.859 34.0852C962.37 33.0739 962.126 31.8977 962.126 30.5568C962.126 29.2159 962.37 28.0341 962.859 27.0114C963.353 25.983 964.04 25.1818 964.921 24.608C965.808 24.0284 966.842 23.7386 968.023 23.7386C968.705 23.7386 969.379 23.8523 970.043 24.0795C970.708 24.3068 971.313 24.6761 971.859 25.1875C972.404 25.6932 972.839 26.3636 973.163 27.1989C973.487 28.0341 973.648 29.0625 973.648 30.2841V31.1364H963.558V29.3977H971.603C971.603 28.6591 971.455 28 971.16 27.4205C970.87 26.8409 970.455 26.3835 969.915 26.0483C969.381 25.7131 968.751 25.5455 968.023 25.5455C967.222 25.5455 966.529 25.7443 965.944 26.142C965.364 26.5341 964.918 27.0455 964.606 27.6761C964.293 28.3068 964.137 28.983 964.137 29.7045V30.8636C964.137 31.8523 964.308 32.6903 964.648 33.3778C964.995 34.0597 965.475 34.5795 966.089 34.9375C966.702 35.2898 967.415 35.4659 968.228 35.4659C968.756 35.4659 969.234 35.392 969.66 35.2443C970.092 35.0909 970.464 34.8636 970.776 34.5625C971.089 34.2557 971.33 33.875 971.501 33.4205L973.444 33.9659C973.239 34.625 972.896 35.2045 972.413 35.7045C971.93 36.1989 971.333 36.5852 970.623 36.8636C969.913 37.1364 969.114 37.2727 968.228 37.2727ZM976.708 37V23.9091H978.651V25.9545H978.822C979.094 25.2557 979.535 24.7131 980.143 24.3267C980.751 23.9347 981.481 23.7386 982.333 23.7386C983.197 23.7386 983.915 23.9347 984.489 24.3267C985.069 24.7131 985.521 25.2557 985.844 25.9545H985.981C986.316 25.2784 986.819 24.7415 987.489 24.3438C988.16 23.9403 988.964 23.7386 989.901 23.7386C991.072 23.7386 992.029 24.1051 992.773 24.8381C993.518 25.5653 993.89 26.6989 993.89 28.2386V37H991.879V28.2386C991.879 27.2727 991.614 26.5824 991.086 26.1676C990.558 25.7528 989.935 25.5455 989.219 25.5455C988.299 25.5455 987.586 25.8239 987.08 26.3807C986.575 26.9318 986.322 27.6307 986.322 28.4773V37H984.276V28.0341C984.276 27.2898 984.035 26.6903 983.552 26.2358C983.069 25.7756 982.447 25.5455 981.685 25.5455C981.163 25.5455 980.674 25.6847 980.219 25.9631C979.771 26.2415 979.407 26.6278 979.129 27.1222C978.856 27.6108 978.719 28.1761 978.719 28.8182V37H976.708ZM998.394 41.9091C998.053 41.9091 997.749 41.8807 997.482 41.8239C997.215 41.7727 997.031 41.7216 996.928 41.6705L997.44 39.8977C997.928 40.0227 998.36 40.0682 998.735 40.0341C999.11 40 999.442 39.8324 999.732 39.5312C1000.03 39.2358 1000.3 38.7557 1000.54 38.0909L1000.92 37.0682L996.076 23.9091H998.258L1001.87 34.3409H1002.01L1005.62 23.9091H1007.8L1002.25 38.9091C1002 39.5852 1001.69 40.1449 1001.32 40.5881C1000.95 41.0369 1000.52 41.3693 1000.03 41.5852C999.548 41.8011 999.002 41.9091 998.394 41.9091Z" fill="white"/>
</g>
<defs>
<filter id="filter0_d_85_6153" x="0.756226" y="0" width="1012.74" height="208" filterUnits="userSpaceOnUse" color-interpolation-filters="sRGB">
<feFlood flood-opacity="0" result="BackgroundImageFix"/>
<feColorMatrix in="SourceAlpha" type="matrix" values="0 0 0 0 0 0 0 0 0 0 0 0 0 0 0 0 0 0 127 0" result="hardAlpha"/>
<feOffset dy="4"/>
<feGaussianBlur stdDeviation="2"/>
<feComposite in2="hardAlpha" operator="out"/>
<feColorMatrix type="matrix" values="0 0 0 0 0 0 0 0 0 0 0 0 0 0 0 0 0 0 0.25 0"/>
<feBlend mode="normal" in2="BackgroundImageFix" result="effect1_dropShadow_85_6153"/>
<feBlend mode="normal" in="SourceGraphic" in2="effect1_dropShadow_85_6153" result="shape"/>
</filter>
</defs>
</svg>
