<svg width="200" height="208" viewBox="0 0 200 208" fill="none" xmlns="http://www.w3.org/2000/svg">
<g filter="url(#filter0_d_157_913)">
<path d="M100 0L186.603 50V150L100 200L13.3975 150V50L100 0Z" fill="white"/>
<path d="M14.3975 50.5774L100 1.1547L185.603 50.5774V149.423L100 198.845L14.3975 149.423V50.5774Z" stroke="#2CC140" stroke-width="2"/>
</g>
<path d="M63.0952 105H60.8452L64.9418 93.3636H67.544L71.6463 105H69.3963L66.2884 95.75H66.1974L63.0952 105ZM63.169 100.438H69.3054V102.131H63.169V100.438ZM76.0611 105.153C75.3755 105.153 74.7618 104.977 74.2202 104.625C73.6785 104.273 73.2505 103.761 72.9361 103.091C72.6217 102.42 72.4645 101.606 72.4645 100.648C72.4645 99.678 72.6236 98.8598 72.9418 98.1932C73.2637 97.5227 73.6974 97.017 74.2429 96.6761C74.7884 96.3314 75.3963 96.1591 76.0668 96.1591C76.5781 96.1591 76.9986 96.2462 77.3281 96.4205C77.6577 96.5909 77.919 96.7973 78.1122 97.0398C78.3054 97.2784 78.455 97.5038 78.5611 97.7159H78.6463V93.3636H80.7088V105H78.6861V103.625H78.5611C78.455 103.837 78.3016 104.062 78.1009 104.301C77.9001 104.536 77.6349 104.737 77.3054 104.903C76.9759 105.07 76.5611 105.153 76.0611 105.153ZM76.6349 103.466C77.0705 103.466 77.4418 103.348 77.7486 103.114C78.0554 102.875 78.2884 102.544 78.4474 102.119C78.6065 101.695 78.6861 101.201 78.6861 100.636C78.6861 100.072 78.6065 99.5814 78.4474 99.1648C78.2921 98.7481 78.0611 98.4242 77.7543 98.1932C77.4512 97.9621 77.0781 97.8466 76.6349 97.8466C76.1766 97.8466 75.794 97.9659 75.4872 98.2045C75.1804 98.4432 74.9493 98.7727 74.794 99.1932C74.6387 99.6136 74.5611 100.095 74.5611 100.636C74.5611 101.182 74.6387 101.669 74.794 102.097C74.9531 102.521 75.1861 102.856 75.4929 103.102C75.8035 103.345 76.1842 103.466 76.6349 103.466ZM90.696 96.2727L87.5881 105H85.3153L82.2074 96.2727H84.4006L86.4062 102.756H86.4972L88.5085 96.2727H90.696ZM94.3807 105.176C93.8277 105.176 93.3295 105.078 92.8864 104.881C92.447 104.68 92.0985 104.384 91.8409 103.994C91.5871 103.604 91.4602 103.123 91.4602 102.551C91.4602 102.059 91.5511 101.652 91.733 101.33C91.9148 101.008 92.1629 100.75 92.4773 100.557C92.7917 100.364 93.1458 100.218 93.5398 100.119C93.9375 100.017 94.3485 99.9432 94.7727 99.8977C95.2841 99.8447 95.6989 99.7973 96.017 99.7557C96.3352 99.7102 96.5663 99.642 96.7102 99.5511C96.858 99.4564 96.9318 99.3106 96.9318 99.1136V99.0795C96.9318 98.6515 96.8049 98.3201 96.5511 98.0852C96.2973 97.8504 95.9318 97.733 95.4545 97.733C94.9508 97.733 94.5511 97.8428 94.2557 98.0625C93.964 98.2822 93.767 98.5417 93.6648 98.8409L91.7443 98.5682C91.8958 98.0379 92.1458 97.5947 92.4943 97.2386C92.8428 96.8788 93.2689 96.6098 93.7727 96.4318C94.2765 96.25 94.8333 96.1591 95.4432 96.1591C95.8636 96.1591 96.2822 96.2083 96.6989 96.3068C97.1155 96.4053 97.4962 96.5682 97.8409 96.7955C98.1856 97.0189 98.4621 97.3239 98.6705 97.7102C98.8826 98.0966 98.9886 98.5795 98.9886 99.1591V105H97.0114V103.801H96.9432C96.8182 104.044 96.642 104.271 96.4148 104.483C96.1913 104.691 95.9091 104.86 95.5682 104.989C95.2311 105.114 94.8352 105.176 94.3807 105.176ZM94.9148 103.665C95.3277 103.665 95.6856 103.583 95.9886 103.42C96.2917 103.254 96.5246 103.034 96.6875 102.761C96.8542 102.489 96.9375 102.191 96.9375 101.869V100.841C96.8731 100.894 96.7633 100.943 96.608 100.989C96.4564 101.034 96.286 101.074 96.0966 101.108C95.9072 101.142 95.7197 101.172 95.5341 101.199C95.3485 101.225 95.1875 101.248 95.0511 101.267C94.7443 101.309 94.4697 101.377 94.2273 101.472C93.9848 101.566 93.7936 101.699 93.6534 101.869C93.5133 102.036 93.4432 102.252 93.4432 102.517C93.4432 102.896 93.5814 103.182 93.858 103.375C94.1345 103.568 94.4867 103.665 94.9148 103.665ZM103.114 99.8864V105H101.057V96.2727H103.023V97.7557H103.125C103.326 97.267 103.646 96.8788 104.085 96.5909C104.528 96.303 105.076 96.1591 105.727 96.1591C106.33 96.1591 106.854 96.2879 107.301 96.5455C107.752 96.803 108.1 97.1761 108.347 97.6648C108.597 98.1534 108.72 98.7462 108.716 99.4432V105H106.659V99.7614C106.659 99.178 106.508 98.7216 106.205 98.392C105.905 98.0625 105.491 97.8977 104.96 97.8977C104.6 97.8977 104.28 97.9773 104 98.1364C103.723 98.2917 103.506 98.517 103.347 98.8125C103.191 99.108 103.114 99.4659 103.114 99.8864ZM114.614 105.17C113.742 105.17 112.994 104.979 112.369 104.597C111.748 104.214 111.269 103.686 110.932 103.011C110.598 102.333 110.432 101.553 110.432 100.67C110.432 99.7841 110.602 99.0019 110.943 98.3239C111.284 97.642 111.765 97.1117 112.386 96.733C113.011 96.3504 113.75 96.1591 114.602 96.1591C115.311 96.1591 115.938 96.2898 116.483 96.5511C117.032 96.8087 117.47 97.1742 117.795 97.6477C118.121 98.1174 118.307 98.6667 118.352 99.2955H116.386C116.307 98.875 116.117 98.5246 115.818 98.2443C115.523 97.9602 115.127 97.8182 114.631 97.8182C114.21 97.8182 113.841 97.9318 113.523 98.1591C113.205 98.3826 112.956 98.7045 112.778 99.125C112.604 99.5455 112.517 100.049 112.517 100.636C112.517 101.231 112.604 101.742 112.778 102.17C112.953 102.595 113.197 102.922 113.511 103.153C113.83 103.381 114.203 103.494 114.631 103.494C114.934 103.494 115.205 103.437 115.443 103.324C115.686 103.206 115.888 103.038 116.051 102.818C116.214 102.598 116.326 102.331 116.386 102.017H118.352C118.303 102.634 118.121 103.182 117.807 103.659C117.492 104.133 117.064 104.504 116.523 104.773C115.981 105.038 115.345 105.17 114.614 105.17ZM123.905 105.17C123.03 105.17 122.274 104.989 121.638 104.625C121.005 104.258 120.518 103.739 120.178 103.068C119.837 102.394 119.666 101.6 119.666 100.688C119.666 99.7898 119.837 99.0019 120.178 98.3239C120.522 97.642 121.003 97.1117 121.621 96.733C122.238 96.3504 122.964 96.1591 123.797 96.1591C124.335 96.1591 124.842 96.2462 125.32 96.4205C125.801 96.5909 126.225 96.8561 126.592 97.2159C126.964 97.5758 127.255 98.0341 127.467 98.5909C127.679 99.1439 127.786 99.803 127.786 100.568V101.199H120.632V99.8125H125.814C125.81 99.4186 125.725 99.0682 125.558 98.7614C125.392 98.4508 125.159 98.2064 124.859 98.0284C124.564 97.8504 124.219 97.7614 123.825 97.7614C123.405 97.7614 123.036 97.8636 122.717 98.0682C122.399 98.2689 122.151 98.5341 121.973 98.8636C121.799 99.1894 121.71 99.5473 121.706 99.9375V101.148C121.706 101.655 121.799 102.091 121.984 102.455C122.17 102.814 122.429 103.091 122.763 103.284C123.096 103.473 123.486 103.568 123.933 103.568C124.232 103.568 124.503 103.527 124.746 103.443C124.988 103.356 125.198 103.229 125.376 103.062C125.554 102.896 125.689 102.689 125.78 102.443L127.7 102.659C127.579 103.167 127.348 103.61 127.007 103.989C126.67 104.364 126.238 104.655 125.712 104.864C125.185 105.068 124.583 105.17 123.905 105.17ZM132.764 105.153C132.079 105.153 131.465 104.977 130.923 104.625C130.382 104.273 129.954 103.761 129.639 103.091C129.325 102.42 129.168 101.606 129.168 100.648C129.168 99.678 129.327 98.8598 129.645 98.1932C129.967 97.5227 130.401 97.017 130.946 96.6761C131.491 96.3314 132.099 96.1591 132.77 96.1591C133.281 96.1591 133.702 96.2462 134.031 96.4205C134.361 96.5909 134.622 96.7973 134.815 97.0398C135.009 97.2784 135.158 97.5038 135.264 97.7159H135.349V93.3636H137.412V105H135.389V103.625H135.264C135.158 103.837 135.005 104.062 134.804 104.301C134.603 104.536 134.338 104.737 134.009 104.903C133.679 105.07 133.264 105.153 132.764 105.153ZM133.338 103.466C133.774 103.466 134.145 103.348 134.452 103.114C134.759 102.875 134.991 102.544 135.151 102.119C135.31 101.695 135.389 101.201 135.389 100.636C135.389 100.072 135.31 99.5814 135.151 99.1648C134.995 98.7481 134.764 98.4242 134.457 98.1932C134.154 97.9621 133.781 97.8466 133.338 97.8466C132.88 97.8466 132.497 97.9659 132.19 98.2045C131.884 98.4432 131.652 98.7727 131.497 99.1932C131.342 99.6136 131.264 100.095 131.264 100.636C131.264 101.182 131.342 101.669 131.497 102.097C131.656 102.521 131.889 102.856 132.196 103.102C132.507 103.345 132.887 103.466 133.338 103.466Z" fill="black"/>
<path d="M85.6044 51.5455V57H84.593V45.3636H85.6044V49.642H85.6953C85.8999 49.1913 86.2161 48.8314 86.6442 48.5625C87.076 48.2936 87.6214 48.1591 88.2805 48.1591C88.8714 48.1591 89.3904 48.2803 89.8374 48.5227C90.2843 48.7652 90.6328 49.1231 90.8828 49.5966C91.1328 50.0701 91.2578 50.6534 91.2578 51.3466V57H90.2408V51.4091C90.2408 50.6894 90.04 50.1231 89.6385 49.7102C89.2408 49.2936 88.7029 49.0852 88.0249 49.0852C87.5589 49.0852 87.1442 49.1837 86.7805 49.3807C86.4169 49.5777 86.129 49.8617 85.9169 50.233C85.7086 50.6004 85.6044 51.0379 85.6044 51.5455ZM97.3587 48.2727V49.1534H93.1939V48.2727H97.3587ZM94.495 46.1818H95.5121V54.7216C95.5121 55.0852 95.5746 55.3712 95.6996 55.5795C95.8246 55.7841 95.9875 55.9299 96.1882 56.017C96.389 56.1004 96.603 56.142 96.8303 56.142C96.9628 56.142 97.0765 56.1345 97.1712 56.1193C97.2659 56.1004 97.3492 56.0814 97.4212 56.0625L97.6371 56.9773C97.5386 57.0152 97.4174 57.0492 97.2734 57.0795C97.1295 57.1136 96.9515 57.1307 96.7393 57.1307C96.3681 57.1307 96.0102 57.0492 95.6655 56.8864C95.3246 56.7235 95.0443 56.4811 94.8246 56.1591C94.6049 55.8371 94.495 55.4375 94.495 54.9602V46.1818ZM99.6555 57V48.2727H100.638V49.6136H100.729C100.904 49.1629 101.193 48.8087 101.599 48.5511C102.008 48.2898 102.498 48.1591 103.07 48.1591C103.673 48.1591 104.167 48.3011 104.553 48.5852C104.943 48.8655 105.235 49.2519 105.428 49.7443H105.502C105.699 49.2595 106.019 48.875 106.462 48.5909C106.909 48.303 107.451 48.1591 108.087 48.1591C108.898 48.1591 109.538 48.4148 110.008 48.9261C110.478 49.4337 110.712 50.1761 110.712 51.1534V57H109.701V51.1534C109.701 50.464 109.525 49.947 109.173 49.6023C108.82 49.2576 108.356 49.0852 107.781 49.0852C107.114 49.0852 106.601 49.2898 106.241 49.6989C105.881 50.108 105.701 50.6269 105.701 51.2557V57H104.667V51.0625C104.667 50.4716 104.502 49.9943 104.173 49.6307C103.843 49.267 103.379 49.0852 102.781 49.0852C102.379 49.0852 102.017 49.1837 101.695 49.3807C101.377 49.5777 101.125 49.8523 100.94 50.2045C100.758 50.553 100.667 50.9545 100.667 51.4091V57H99.6555ZM114.401 45.3636V57H113.39V45.3636H114.401Z" fill="black"/>
<path d="M74.5348 154.159C73.8189 154.159 73.1787 154.03 72.6143 153.773C72.05 153.511 71.603 153.15 71.2734 152.688C70.9439 152.225 70.7696 151.693 70.7507 151.091H71.8246C71.8435 151.515 71.9742 151.886 72.2166 152.205C72.459 152.519 72.781 152.765 73.1825 152.943C73.584 153.117 74.031 153.205 74.5234 153.205C75.0613 153.205 75.5348 153.104 75.9439 152.903C76.3568 152.703 76.6787 152.428 76.9098 152.08C77.1446 151.727 77.2621 151.33 77.2621 150.886C77.2621 150.417 77.1428 150.002 76.9041 149.642C76.6655 149.282 76.3227 149.002 75.8757 148.801C75.4325 148.6 74.9022 148.5 74.2848 148.5H73.603V147.545H74.2848C74.7886 147.545 75.2337 147.455 75.62 147.273C76.0102 147.087 76.317 146.828 76.5405 146.494C76.764 146.161 76.8757 145.769 76.8757 145.318C76.8757 144.89 76.7791 144.513 76.5859 144.188C76.3928 143.862 76.12 143.606 75.7678 143.42C75.4193 143.235 75.0121 143.142 74.5462 143.142C74.0954 143.142 73.6825 143.229 73.3075 143.403C72.9325 143.578 72.6295 143.824 72.3984 144.142C72.1712 144.46 72.05 144.837 72.0348 145.273H71.0064C71.0215 144.667 71.1882 144.134 71.5064 143.676C71.8284 143.214 72.2545 142.854 72.7848 142.597C73.3189 142.335 73.9098 142.205 74.5575 142.205C75.2431 142.205 75.8359 142.345 76.3359 142.625C76.8359 142.905 77.2223 143.278 77.495 143.744C77.7715 144.206 77.9098 144.716 77.9098 145.273C77.9098 145.936 77.7299 146.504 77.37 146.977C77.0102 147.447 76.5253 147.773 75.9155 147.955V148.028C76.6579 148.176 77.2412 148.506 77.6655 149.017C78.0935 149.525 78.3075 150.148 78.3075 150.886C78.3075 151.508 78.1446 152.066 77.8189 152.562C77.4931 153.055 77.0462 153.445 76.478 153.733C75.9136 154.017 75.2659 154.159 74.5348 154.159ZM86.0632 157.273C85.8625 157.273 85.675 157.254 85.5007 157.216C85.3265 157.178 85.1882 157.136 85.0859 157.091L85.3587 156.199C85.7034 156.305 86.0102 156.343 86.2791 156.312C86.5481 156.286 86.7867 156.165 86.995 155.949C87.2034 155.737 87.389 155.411 87.5518 154.972L87.87 154.085L84.6598 145.273H85.7564L88.3473 152.665H88.4268L91.0178 145.273H92.1143L88.4212 155.381C88.2659 155.801 88.0746 156.152 87.8473 156.432C87.62 156.716 87.3568 156.926 87.0575 157.062C86.7621 157.203 86.4306 157.273 86.0632 157.273ZM97.3089 154.182C96.4946 154.182 95.79 153.992 95.1953 153.614C94.6006 153.231 94.1404 152.703 93.8146 152.028C93.4927 151.35 93.3317 150.57 93.3317 149.688C93.3317 148.809 93.4927 148.028 93.8146 147.347C94.1404 146.661 94.5893 146.125 95.1612 145.739C95.737 145.348 96.4018 145.153 97.1555 145.153C97.629 145.153 98.0855 145.241 98.5249 145.415C98.9643 145.585 99.3582 145.848 99.7067 146.205C100.059 146.557 100.337 147.002 100.542 147.54C100.746 148.074 100.849 148.706 100.849 149.438V149.938H94.0305V149.045H99.8146C99.8146 148.485 99.701 147.981 99.4737 147.534C99.2502 147.083 98.9377 146.727 98.5362 146.466C98.1385 146.205 97.6783 146.074 97.1555 146.074C96.6025 146.074 96.1158 146.222 95.6953 146.517C95.2749 146.812 94.9453 147.203 94.7067 147.688C94.4718 148.172 94.3525 148.703 94.3487 149.278V149.812C94.3487 150.506 94.468 151.112 94.7067 151.631C94.9491 152.146 95.2919 152.545 95.7351 152.83C96.1783 153.114 96.7029 153.256 97.3089 153.256C97.7218 153.256 98.0836 153.191 98.3942 153.062C98.7086 152.934 98.9718 152.761 99.1839 152.545C99.3999 152.326 99.5627 152.085 99.6726 151.824L100.633 152.136C100.5 152.504 100.282 152.843 99.9794 153.153C99.6802 153.464 99.3052 153.714 98.8544 153.903C98.4074 154.089 97.8923 154.182 97.3089 154.182ZM105.515 154.199C104.988 154.199 104.507 154.097 104.072 153.892C103.636 153.684 103.29 153.384 103.032 152.994C102.774 152.6 102.646 152.123 102.646 151.562C102.646 151.131 102.727 150.767 102.89 150.472C103.053 150.176 103.284 149.934 103.583 149.744C103.882 149.555 104.237 149.405 104.646 149.295C105.055 149.186 105.505 149.1 105.998 149.04C106.487 148.979 106.899 148.926 107.237 148.881C107.577 148.835 107.837 148.763 108.015 148.665C108.193 148.566 108.282 148.407 108.282 148.188V147.983C108.282 147.388 108.104 146.92 107.748 146.58C107.396 146.235 106.888 146.062 106.225 146.062C105.596 146.062 105.083 146.201 104.685 146.477C104.291 146.754 104.015 147.08 103.856 147.455L102.896 147.108C103.093 146.631 103.365 146.25 103.714 145.966C104.062 145.678 104.452 145.472 104.884 145.347C105.316 145.218 105.754 145.153 106.197 145.153C106.53 145.153 106.877 145.197 107.237 145.284C107.6 145.371 107.937 145.523 108.248 145.739C108.558 145.951 108.81 146.248 109.004 146.631C109.197 147.009 109.293 147.491 109.293 148.074V154H108.282V152.619H108.219C108.098 152.877 107.918 153.127 107.68 153.369C107.441 153.612 107.142 153.811 106.782 153.966C106.422 154.121 106 154.199 105.515 154.199ZM105.651 153.273C106.189 153.273 106.655 153.153 107.049 152.915C107.443 152.676 107.746 152.36 107.958 151.966C108.174 151.568 108.282 151.131 108.282 150.653V149.392C108.206 149.464 108.079 149.528 107.901 149.585C107.727 149.642 107.524 149.693 107.293 149.739C107.066 149.78 106.839 149.816 106.612 149.847C106.384 149.877 106.18 149.903 105.998 149.926C105.505 149.987 105.085 150.081 104.737 150.21C104.388 150.339 104.121 150.517 103.935 150.744C103.75 150.968 103.657 151.256 103.657 151.608C103.657 152.138 103.846 152.549 104.225 152.841C104.604 153.129 105.079 153.273 105.651 153.273ZM111.984 154V145.273H112.967V146.614H113.04C113.215 146.174 113.518 145.82 113.95 145.551C114.385 145.278 114.878 145.142 115.427 145.142C115.51 145.142 115.603 145.144 115.705 145.148C115.808 145.152 115.893 145.155 115.961 145.159V146.188C115.915 146.18 115.836 146.169 115.722 146.153C115.609 146.138 115.486 146.131 115.353 146.131C114.898 146.131 114.493 146.227 114.137 146.42C113.785 146.61 113.506 146.873 113.302 147.21C113.097 147.547 112.995 147.932 112.995 148.364V154H111.984ZM120.918 141.818L117.168 155.75H116.219L119.969 141.818H120.918ZM128.535 147.188L127.609 147.449C127.518 147.187 127.389 146.951 127.222 146.739C127.056 146.527 126.838 146.358 126.569 146.233C126.304 146.108 125.974 146.045 125.58 146.045C124.989 146.045 124.504 146.186 124.126 146.466C123.747 146.746 123.558 147.108 123.558 147.551C123.558 147.926 123.686 148.231 123.944 148.466C124.205 148.697 124.607 148.881 125.148 149.017L126.467 149.341C127.198 149.519 127.745 149.801 128.109 150.188C128.476 150.574 128.66 151.059 128.66 151.642C128.66 152.134 128.523 152.572 128.251 152.955C127.978 153.337 127.597 153.638 127.109 153.858C126.624 154.074 126.061 154.182 125.421 154.182C124.569 154.182 123.866 153.991 123.313 153.608C122.76 153.222 122.406 152.665 122.251 151.938L123.222 151.699C123.347 152.218 123.592 152.61 123.955 152.875C124.323 153.14 124.806 153.273 125.404 153.273C126.075 153.273 126.611 153.123 127.012 152.824C127.414 152.521 127.614 152.142 127.614 151.688C127.614 151.335 127.497 151.04 127.262 150.801C127.027 150.559 126.671 150.381 126.194 150.267L124.768 149.926C124.01 149.744 123.45 149.456 123.086 149.062C122.722 148.669 122.54 148.18 122.54 147.597C122.54 147.116 122.671 146.693 122.933 146.33C123.194 145.962 123.554 145.674 124.012 145.466C124.47 145.258 124.993 145.153 125.58 145.153C126.379 145.153 127.018 145.335 127.495 145.699C127.976 146.059 128.323 146.555 128.535 147.188Z" fill="black"/>
<defs>
<filter id="filter0_d_157_913" x="9.39746" y="0" width="181.205" height="208" filterUnits="userSpaceOnUse" color-interpolation-filters="sRGB">
<feFlood flood-opacity="0" result="BackgroundImageFix"/>
<feColorMatrix in="SourceAlpha" type="matrix" values="0 0 0 0 0 0 0 0 0 0 0 0 0 0 0 0 0 0 127 0" result="hardAlpha"/>
<feOffset dy="4"/>
<feGaussianBlur stdDeviation="2"/>
<feComposite in2="hardAlpha" operator="out"/>
<feColorMatrix type="matrix" values="0 0 0 0 0 0 0 0 0 0 0 0 0 0 0 0 0 0 0.25 0"/>
<feBlend mode="normal" in2="BackgroundImageFix" result="effect1_dropShadow_157_913"/>
<feBlend mode="normal" in="SourceGraphic" in2="effect1_dropShadow_157_913" result="shape"/>
</filter>
</defs>
</svg>
