<svg width="200" height="208" viewBox="0 0 200 208" fill="none" xmlns="http://www.w3.org/2000/svg">
<g filter="url(#filter0_d_157_901)">
<path d="M100 0L186.603 50V150L100 200L13.3975 150V50L100 0Z" fill="white"/>
<path d="M14.3975 50.5774L100 1.1547L185.603 50.5774V149.423L100 198.845L14.3975 149.423V50.5774Z" stroke="#2CC140" stroke-width="2"/>
</g>
<path d="M52.2727 105V93.3636H59.8409V95.1307H54.3807V98.2898H59.4489V100.057H54.3807V103.233H59.8864V105H52.2727ZM63.5824 96.2727L65.3438 99.4943L67.1335 96.2727H69.3097L66.679 100.636L69.3551 105H67.1903L65.3438 101.858L63.5142 105H61.3324L63.9915 100.636L61.4006 96.2727H63.5824ZM70.9006 108.273V96.2727H72.9233V97.7159H73.0426C73.1487 97.5038 73.2983 97.2784 73.4915 97.0398C73.6847 96.7973 73.946 96.5909 74.2756 96.4205C74.6051 96.2462 75.0256 96.1591 75.5369 96.1591C76.2112 96.1591 76.8191 96.3314 77.3608 96.6761C77.9063 97.017 78.3381 97.5227 78.6562 98.1932C78.9782 98.8598 79.1392 99.678 79.1392 100.648C79.1392 101.606 78.982 102.42 78.6676 103.091C78.3532 103.761 77.9252 104.273 77.3835 104.625C76.8419 104.977 76.2282 105.153 75.5426 105.153C75.0426 105.153 74.6278 105.07 74.2983 104.903C73.9688 104.737 73.7036 104.536 73.5028 104.301C73.3059 104.062 73.1525 103.837 73.0426 103.625H72.9574V108.273H70.9006ZM72.9176 100.636C72.9176 101.201 72.9972 101.695 73.1562 102.119C73.3191 102.544 73.5521 102.875 73.8551 103.114C74.1619 103.348 74.5331 103.466 74.9688 103.466C75.4233 103.466 75.804 103.345 76.1108 103.102C76.4176 102.856 76.6487 102.521 76.804 102.097C76.9631 101.669 77.0426 101.182 77.0426 100.636C77.0426 100.095 76.965 99.6136 76.8097 99.1932C76.6544 98.7727 76.4233 98.4432 76.1165 98.2045C75.8097 97.9659 75.4271 97.8466 74.9688 97.8466C74.5294 97.8466 74.1562 97.9621 73.8494 98.1932C73.5426 98.4242 73.3097 98.7481 73.1506 99.1648C72.9953 99.5814 72.9176 100.072 72.9176 100.636ZM84.7642 105.17C83.8892 105.17 83.1335 104.989 82.4972 104.625C81.8646 104.258 81.3778 103.739 81.0369 103.068C80.696 102.394 80.5256 101.6 80.5256 100.688C80.5256 99.7898 80.696 99.0019 81.0369 98.3239C81.3816 97.642 81.8627 97.1117 82.4801 96.733C83.0975 96.3504 83.8229 96.1591 84.6562 96.1591C85.1941 96.1591 85.7017 96.2462 86.179 96.4205C86.66 96.5909 87.0843 96.8561 87.4517 97.2159C87.8229 97.5758 88.1146 98.0341 88.3267 98.5909C88.5388 99.1439 88.6449 99.803 88.6449 100.568V101.199H81.4915V99.8125H86.6733C86.6695 99.4186 86.5843 99.0682 86.4176 98.7614C86.2509 98.4508 86.018 98.2064 85.7188 98.0284C85.4233 97.8504 85.0786 97.7614 84.6847 97.7614C84.2642 97.7614 83.8949 97.8636 83.5767 98.0682C83.2585 98.2689 83.0104 98.5341 82.8324 98.8636C82.6581 99.1894 82.5691 99.5473 82.5653 99.9375V101.148C82.5653 101.655 82.6581 102.091 82.8438 102.455C83.0294 102.814 83.2888 103.091 83.6222 103.284C83.9555 103.473 84.3456 103.568 84.7926 103.568C85.0919 103.568 85.3627 103.527 85.6051 103.443C85.8475 103.356 86.0578 103.229 86.2358 103.062C86.4138 102.896 86.5483 102.689 86.6392 102.443L88.5597 102.659C88.4384 103.167 88.2074 103.61 87.8665 103.989C87.5294 104.364 87.0975 104.655 86.571 104.864C86.0445 105.068 85.4422 105.17 84.7642 105.17ZM90.3849 105V96.2727H92.3793V97.7273H92.4702C92.6293 97.2235 92.902 96.8352 93.2884 96.5625C93.6785 96.286 94.1236 96.1477 94.6236 96.1477C94.7372 96.1477 94.8641 96.1534 95.0043 96.1648C95.1482 96.1723 95.2675 96.1856 95.3622 96.2045V98.0966C95.2751 98.0663 95.1368 98.0398 94.9474 98.017C94.7618 97.9905 94.5819 97.9773 94.4077 97.9773C94.0327 97.9773 93.6955 98.0587 93.3963 98.2216C93.1009 98.3807 92.8679 98.6023 92.6974 98.8864C92.527 99.1705 92.4418 99.4981 92.4418 99.8693V105H90.3849ZM96.7287 105V96.2727H98.7855V105H96.7287ZM97.7628 95.0341C97.437 95.0341 97.1567 94.9261 96.9219 94.7102C96.687 94.4905 96.5696 94.2273 96.5696 93.9205C96.5696 93.6098 96.687 93.3466 96.9219 93.1307C97.1567 92.911 97.437 92.8011 97.7628 92.8011C98.0923 92.8011 98.3726 92.911 98.6037 93.1307C98.8385 93.3466 98.956 93.6098 98.956 93.9205C98.956 94.2273 98.8385 94.4905 98.6037 94.7102C98.3726 94.9261 98.0923 95.0341 97.7628 95.0341ZM104.764 105.17C103.889 105.17 103.134 104.989 102.497 104.625C101.865 104.258 101.378 103.739 101.037 103.068C100.696 102.394 100.526 101.6 100.526 100.688C100.526 99.7898 100.696 99.0019 101.037 98.3239C101.382 97.642 101.863 97.1117 102.48 96.733C103.098 96.3504 103.823 96.1591 104.656 96.1591C105.194 96.1591 105.702 96.2462 106.179 96.4205C106.66 96.5909 107.084 96.8561 107.452 97.2159C107.823 97.5758 108.115 98.0341 108.327 98.5909C108.539 99.1439 108.645 99.803 108.645 100.568V101.199H101.491V99.8125H106.673C106.67 99.4186 106.584 99.0682 106.418 98.7614C106.251 98.4508 106.018 98.2064 105.719 98.0284C105.423 97.8504 105.079 97.7614 104.685 97.7614C104.264 97.7614 103.895 97.8636 103.577 98.0682C103.259 98.2689 103.01 98.5341 102.832 98.8636C102.658 99.1894 102.569 99.5473 102.565 99.9375V101.148C102.565 101.655 102.658 102.091 102.844 102.455C103.029 102.814 103.289 103.091 103.622 103.284C103.955 103.473 104.346 103.568 104.793 103.568C105.092 103.568 105.363 103.527 105.605 103.443C105.848 103.356 106.058 103.229 106.236 103.062C106.414 102.896 106.548 102.689 106.639 102.443L108.56 102.659C108.438 103.167 108.207 103.61 107.866 103.989C107.529 104.364 107.098 104.655 106.571 104.864C106.045 105.068 105.442 105.17 104.764 105.17ZM112.442 99.8864V105H110.385V96.2727H112.351V97.7557H112.453C112.654 97.267 112.974 96.8788 113.413 96.5909C113.857 96.303 114.404 96.1591 115.055 96.1591C115.658 96.1591 116.182 96.2879 116.629 96.5455C117.08 96.803 117.429 97.1761 117.675 97.6648C117.925 98.1534 118.048 98.7462 118.044 99.4432V105H115.987V99.7614C115.987 99.178 115.836 98.7216 115.533 98.392C115.233 98.0625 114.819 97.8977 114.288 97.8977C113.929 97.8977 113.608 97.9773 113.328 98.1364C113.052 98.2917 112.834 98.517 112.675 98.8125C112.519 99.108 112.442 99.4659 112.442 99.8864ZM123.942 105.17C123.071 105.17 122.322 104.979 121.697 104.597C121.076 104.214 120.597 103.686 120.26 103.011C119.927 102.333 119.76 101.553 119.76 100.67C119.76 99.7841 119.93 99.0019 120.271 98.3239C120.612 97.642 121.093 97.1117 121.714 96.733C122.339 96.3504 123.078 96.1591 123.93 96.1591C124.639 96.1591 125.266 96.2898 125.811 96.5511C126.36 96.8087 126.798 97.1742 127.124 97.6477C127.449 98.1174 127.635 98.6667 127.68 99.2955H125.714C125.635 98.875 125.446 98.5246 125.146 98.2443C124.851 97.9602 124.455 97.8182 123.959 97.8182C123.538 97.8182 123.169 97.9318 122.851 98.1591C122.533 98.3826 122.285 98.7045 122.107 99.125C121.932 99.5455 121.845 100.049 121.845 100.636C121.845 101.231 121.932 101.742 122.107 102.17C122.281 102.595 122.525 102.922 122.839 103.153C123.158 103.381 123.531 103.494 123.959 103.494C124.262 103.494 124.533 103.437 124.771 103.324C125.014 103.206 125.216 103.038 125.379 102.818C125.542 102.598 125.654 102.331 125.714 102.017H127.68C127.631 102.634 127.449 103.182 127.135 103.659C126.821 104.133 126.393 104.504 125.851 104.773C125.309 105.038 124.673 105.17 123.942 105.17ZM133.233 105.17C132.358 105.17 131.602 104.989 130.966 104.625C130.333 104.258 129.847 103.739 129.506 103.068C129.165 102.394 128.994 101.6 128.994 100.688C128.994 99.7898 129.165 99.0019 129.506 98.3239C129.85 97.642 130.331 97.1117 130.949 96.733C131.566 96.3504 132.292 96.1591 133.125 96.1591C133.663 96.1591 134.17 96.2462 134.648 96.4205C135.129 96.5909 135.553 96.8561 135.92 97.2159C136.292 97.5758 136.583 98.0341 136.795 98.5909C137.008 99.1439 137.114 99.803 137.114 100.568V101.199H129.96V99.8125H135.142C135.138 99.4186 135.053 99.0682 134.886 98.7614C134.72 98.4508 134.487 98.2064 134.188 98.0284C133.892 97.8504 133.547 97.7614 133.153 97.7614C132.733 97.7614 132.364 97.8636 132.045 98.0682C131.727 98.2689 131.479 98.5341 131.301 98.8636C131.127 99.1894 131.038 99.5473 131.034 99.9375V101.148C131.034 101.655 131.127 102.091 131.312 102.455C131.498 102.814 131.758 103.091 132.091 103.284C132.424 103.473 132.814 103.568 133.261 103.568C133.561 103.568 133.831 103.527 134.074 103.443C134.316 103.356 134.527 103.229 134.705 103.062C134.883 102.896 135.017 102.689 135.108 102.443L137.028 102.659C136.907 103.167 136.676 103.61 136.335 103.989C135.998 104.364 135.566 104.655 135.04 104.864C134.513 105.068 133.911 105.17 133.233 105.17ZM142.092 105.153C141.407 105.153 140.793 104.977 140.251 104.625C139.71 104.273 139.282 103.761 138.967 103.091C138.653 102.42 138.496 101.606 138.496 100.648C138.496 99.678 138.655 98.8598 138.973 98.1932C139.295 97.5227 139.729 97.017 140.274 96.6761C140.82 96.3314 141.428 96.1591 142.098 96.1591C142.609 96.1591 143.03 96.2462 143.359 96.4205C143.689 96.5909 143.95 96.7973 144.143 97.0398C144.337 97.2784 144.486 97.5038 144.592 97.7159H144.678V93.3636H146.74V105H144.717V103.625H144.592C144.486 103.837 144.333 104.062 144.132 104.301C143.931 104.536 143.666 104.737 143.337 104.903C143.007 105.07 142.592 105.153 142.092 105.153ZM142.666 103.466C143.102 103.466 143.473 103.348 143.78 103.114C144.087 102.875 144.32 102.544 144.479 102.119C144.638 101.695 144.717 101.201 144.717 100.636C144.717 100.072 144.638 99.5814 144.479 99.1648C144.323 98.7481 144.092 98.4242 143.786 98.1932C143.482 97.9621 143.109 97.8466 142.666 97.8466C142.208 97.8466 141.825 97.9659 141.518 98.2045C141.212 98.4432 140.981 98.7727 140.825 99.1932C140.67 99.6136 140.592 100.095 140.592 100.636C140.592 101.182 140.67 101.669 140.825 102.097C140.984 102.521 141.217 102.856 141.524 103.102C141.835 103.345 142.215 103.466 142.666 103.466Z" fill="black"/>
<path d="M65.0888 48.2727H66.1058V57.8466C66.1058 58.3428 66.013 58.7708 65.8274 59.1307C65.6456 59.4943 65.3804 59.7746 65.032 59.9716C64.6835 60.1723 64.263 60.2727 63.7706 60.2727C63.7327 60.2727 63.6948 60.2727 63.657 60.2727C63.6191 60.2727 63.5774 60.2708 63.532 60.267L63.5433 59.3182C63.5812 59.3182 63.6172 59.3182 63.6513 59.3182C63.6854 59.3182 63.7214 59.3182 63.7592 59.3182C64.1759 59.3182 64.5017 59.1894 64.7365 58.9318C64.9714 58.6742 65.0888 58.3125 65.0888 57.8466V48.2727ZM65.5888 46.7727C65.3842 46.7727 65.2062 46.7027 65.0547 46.5625C64.907 46.4186 64.8331 46.2462 64.8331 46.0455C64.8331 45.8447 64.907 45.6742 65.0547 45.5341C65.2062 45.3902 65.3842 45.3182 65.5888 45.3182C65.7971 45.3182 65.9751 45.3902 66.1229 45.5341C66.2744 45.6742 66.3501 45.8447 66.3501 46.0455C66.3501 46.2462 66.2744 46.4186 66.1229 46.5625C65.9751 46.7027 65.7971 46.7727 65.5888 46.7727ZM71.218 57.1989C70.6915 57.1989 70.2105 57.0966 69.7749 56.892C69.3393 56.6837 68.9927 56.3845 68.7351 55.9943C68.4775 55.6004 68.3487 55.1231 68.3487 54.5625C68.3487 54.1307 68.4302 53.767 68.593 53.4716C68.7559 53.1761 68.987 52.9337 69.2862 52.7443C69.5855 52.5549 69.9396 52.4053 70.3487 52.2955C70.7578 52.1856 71.2086 52.1004 71.701 52.0398C72.1896 51.9792 72.6025 51.9261 72.9396 51.8807C73.2805 51.8352 73.54 51.7633 73.718 51.6648C73.8961 51.5663 73.9851 51.4072 73.9851 51.1875V50.983C73.9851 50.3883 73.8071 49.9205 73.451 49.5795C73.0987 49.2348 72.5911 49.0625 71.9283 49.0625C71.2995 49.0625 70.7862 49.2008 70.3885 49.4773C69.9946 49.7538 69.718 50.0795 69.5589 50.4545L68.5987 50.108C68.7957 49.6307 69.0684 49.25 69.4169 48.9659C69.7654 48.678 70.1555 48.4716 70.5874 48.3466C71.0192 48.2178 71.4567 48.1534 71.8999 48.1534C72.2332 48.1534 72.5798 48.197 72.9396 48.2841C73.3033 48.3712 73.6404 48.5227 73.951 48.7386C74.2616 48.9508 74.5135 49.2481 74.7067 49.6307C74.8999 50.0095 74.9964 50.4905 74.9964 51.0739V57H73.9851V55.6193H73.9226C73.8014 55.8769 73.6214 56.1269 73.3828 56.3693C73.1442 56.6117 72.8449 56.8106 72.4851 56.9659C72.1252 57.1212 71.7029 57.1989 71.218 57.1989ZM71.3544 56.2727C71.8923 56.2727 72.3582 56.1534 72.7521 55.9148C73.1461 55.6761 73.4491 55.3598 73.6612 54.9659C73.8771 54.5682 73.9851 54.1307 73.9851 53.6534V52.392C73.9093 52.464 73.7824 52.5284 73.6044 52.5852C73.4302 52.642 73.2275 52.6932 72.9964 52.7386C72.7692 52.7803 72.5419 52.8163 72.3146 52.8466C72.0874 52.8769 71.8828 52.9034 71.701 52.9261C71.2086 52.9867 70.7881 53.0814 70.4396 53.2102C70.0911 53.339 69.8241 53.517 69.6385 53.7443C69.4529 53.9678 69.3601 54.2557 69.3601 54.608C69.3601 55.1383 69.5495 55.5492 69.9283 55.8409C70.3071 56.1288 70.7824 56.2727 71.3544 56.2727ZM84.13 48.2727L80.9425 57H79.8629L76.6754 48.2727H77.772L80.3629 55.6648H80.4425L83.0334 48.2727H84.13ZM88.2805 57.1989C87.754 57.1989 87.273 57.0966 86.8374 56.892C86.4018 56.6837 86.0552 56.3845 85.7976 55.9943C85.54 55.6004 85.4112 55.1231 85.4112 54.5625C85.4112 54.1307 85.4927 53.767 85.6555 53.4716C85.8184 53.1761 86.0495 52.9337 86.3487 52.7443C86.648 52.5549 87.0021 52.4053 87.4112 52.2955C87.8203 52.1856 88.2711 52.1004 88.7635 52.0398C89.2521 51.9792 89.665 51.9261 90.0021 51.8807C90.343 51.8352 90.6025 51.7633 90.7805 51.6648C90.9586 51.5663 91.0476 51.4072 91.0476 51.1875V50.983C91.0476 50.3883 90.8696 49.9205 90.5135 49.5795C90.1612 49.2348 89.6536 49.0625 88.9908 49.0625C88.362 49.0625 87.8487 49.2008 87.451 49.4773C87.0571 49.7538 86.7805 50.0795 86.6214 50.4545L85.6612 50.108C85.8582 49.6307 86.1309 49.25 86.4794 48.9659C86.8279 48.678 87.218 48.4716 87.6499 48.3466C88.0817 48.2178 88.5192 48.1534 88.9624 48.1534C89.2957 48.1534 89.6423 48.197 90.0021 48.2841C90.3658 48.3712 90.7029 48.5227 91.0135 48.7386C91.3241 48.9508 91.576 49.2481 91.7692 49.6307C91.9624 50.0095 92.0589 50.4905 92.0589 51.0739V57H91.0476V55.6193H90.9851C90.8639 55.8769 90.6839 56.1269 90.4453 56.3693C90.2067 56.6117 89.9074 56.8106 89.5476 56.9659C89.1877 57.1212 88.7654 57.1989 88.2805 57.1989ZM88.4169 56.2727C88.9548 56.2727 89.4207 56.1534 89.8146 55.9148C90.2086 55.6761 90.5116 55.3598 90.7237 54.9659C90.9396 54.5682 91.0476 54.1307 91.0476 53.6534V52.392C90.9718 52.464 90.8449 52.5284 90.6669 52.5852C90.4927 52.642 90.29 52.6932 90.0589 52.7386C89.8317 52.7803 89.6044 52.8163 89.3771 52.8466C89.1499 52.8769 88.9453 52.9034 88.7635 52.9261C88.2711 52.9867 87.8506 53.0814 87.5021 53.2102C87.1536 53.339 86.8866 53.517 86.701 53.7443C86.5154 53.9678 86.4226 54.2557 86.4226 54.608C86.4226 55.1383 86.612 55.5492 86.9908 55.8409C87.3696 56.1288 87.8449 56.2727 88.4169 56.2727ZM100.613 50.1875L99.6868 50.4489C99.5959 50.1875 99.4671 49.9508 99.3004 49.7386C99.1338 49.5265 98.916 49.358 98.647 49.233C98.3819 49.108 98.0523 49.0455 97.6584 49.0455C97.0675 49.0455 96.5826 49.1856 96.2038 49.4659C95.825 49.7462 95.6357 50.108 95.6357 50.5511C95.6357 50.9261 95.7644 51.2311 96.022 51.4659C96.2834 51.697 96.6849 51.8807 97.2266 52.017L98.5447 52.3409C99.2758 52.5189 99.8232 52.8011 100.187 53.1875C100.554 53.5739 100.738 54.0587 100.738 54.642C100.738 55.1345 100.602 55.572 100.329 55.9545C100.056 56.3371 99.6754 56.6383 99.1868 56.858C98.7019 57.0739 98.1394 57.1818 97.4993 57.1818C96.647 57.1818 95.9444 56.9905 95.3913 56.608C94.8383 56.2216 94.4841 55.6648 94.3288 54.9375L95.3004 54.6989C95.4254 55.2178 95.6697 55.6098 96.0334 55.875C96.4008 56.1402 96.8838 56.2727 97.4822 56.2727C98.1527 56.2727 98.6887 56.1231 99.0902 55.8239C99.4917 55.5208 99.6925 55.142 99.6925 54.6875C99.6925 54.3352 99.575 54.0398 99.3402 53.8011C99.1054 53.5587 98.7493 53.3807 98.272 53.267L96.8459 52.9261C96.0883 52.7443 95.5277 52.4564 95.1641 52.0625C94.8004 51.6686 94.6186 51.1799 94.6186 50.5966C94.6186 50.1155 94.7493 49.6932 95.0107 49.3295C95.272 48.9621 95.6319 48.6742 96.0902 48.4659C96.5485 48.2576 97.0713 48.1534 97.6584 48.1534C98.4576 48.1534 99.0959 48.3352 99.5732 48.6989C100.054 49.0587 100.401 49.5549 100.613 50.1875ZM106.362 57.1818C105.581 57.1818 104.901 56.9867 104.322 56.5966C103.746 56.2064 103.299 55.6723 102.981 54.9943C102.663 54.3163 102.504 53.5436 102.504 52.6761C102.504 51.8011 102.665 51.0227 102.987 50.3409C103.312 49.6591 103.763 49.125 104.339 48.7386C104.915 48.3485 105.583 48.1534 106.344 48.1534C106.928 48.1534 107.456 48.267 107.93 48.4943C108.403 48.7178 108.793 49.0341 109.1 49.4432C109.411 49.8485 109.606 50.322 109.685 50.8636H108.663C108.557 50.3712 108.301 49.9508 107.896 49.6023C107.494 49.25 106.983 49.0739 106.362 49.0739C105.805 49.0739 105.312 49.2254 104.884 49.5284C104.456 49.8277 104.121 50.2462 103.879 50.7841C103.64 51.3182 103.521 51.9375 103.521 52.642C103.521 53.3504 103.638 53.9773 103.873 54.5227C104.108 55.0644 104.437 55.4886 104.862 55.7955C105.29 56.1023 105.79 56.2557 106.362 56.2557C106.748 56.2557 107.1 56.1837 107.418 56.0398C107.74 55.892 108.009 55.6837 108.225 55.4148C108.445 55.1458 108.593 54.8258 108.668 54.4545H109.691C109.615 54.9811 109.428 55.4508 109.129 55.8636C108.833 56.2727 108.449 56.5947 107.975 56.8295C107.505 57.0644 106.968 57.1818 106.362 57.1818ZM111.859 57V48.2727H112.842V49.6136H112.915C113.09 49.1742 113.393 48.8201 113.825 48.5511C114.26 48.2784 114.753 48.142 115.302 48.142C115.385 48.142 115.478 48.1439 115.58 48.1477C115.683 48.1515 115.768 48.1553 115.836 48.1591V49.1875C115.79 49.1799 115.711 49.1686 115.597 49.1534C115.484 49.1383 115.361 49.1307 115.228 49.1307C114.773 49.1307 114.368 49.2273 114.012 49.4205C113.66 49.6098 113.381 49.8731 113.177 50.2102C112.972 50.5473 112.87 50.9318 112.87 51.3636V57H111.859ZM117.573 57V48.2727H118.59V57H117.573ZM118.09 46.7727C117.882 46.7727 117.704 46.7027 117.556 46.5625C117.408 46.4186 117.335 46.2462 117.335 46.0455C117.335 45.8447 117.408 45.6742 117.556 45.5341C117.704 45.3902 117.882 45.3182 118.09 45.3182C118.299 45.3182 118.477 45.3902 118.624 45.5341C118.772 45.6742 118.846 45.8447 118.846 46.0455C118.846 46.2462 118.772 46.4186 118.624 46.5625C118.477 46.7027 118.299 46.7727 118.09 46.7727ZM121.265 60.2727V48.2727H122.248V49.9375H122.367C122.488 49.6761 122.655 49.4091 122.867 49.1364C123.079 48.8598 123.36 48.6269 123.708 48.4375C124.06 48.2481 124.504 48.1534 125.038 48.1534C125.757 48.1534 126.386 48.3428 126.924 48.7216C127.466 49.0966 127.886 49.6231 128.185 50.3011C128.488 50.9754 128.64 51.7614 128.64 52.6591C128.64 53.5606 128.488 54.3504 128.185 55.0284C127.886 55.7064 127.466 56.2348 126.924 56.6136C126.386 56.9924 125.761 57.1818 125.049 57.1818C124.522 57.1818 124.081 57.0871 123.725 56.8977C123.373 56.7083 123.087 56.4754 122.867 56.1989C122.651 55.9186 122.485 55.6458 122.367 55.3807H122.276V60.2727H121.265ZM122.265 52.642C122.265 53.3466 122.369 53.9716 122.577 54.517C122.79 55.0587 123.093 55.4848 123.487 55.7955C123.884 56.1023 124.365 56.2557 124.93 56.2557C125.509 56.2557 125.998 56.0966 126.396 55.7784C126.797 55.4564 127.102 55.0227 127.31 54.4773C127.522 53.9318 127.629 53.3201 127.629 52.642C127.629 51.9716 127.524 51.3674 127.316 50.8295C127.112 50.2917 126.808 49.8655 126.407 49.5511C126.005 49.233 125.513 49.0739 124.93 49.0739C124.362 49.0739 123.879 49.2273 123.481 49.5341C123.083 49.8371 122.78 50.2576 122.572 50.7955C122.367 51.3295 122.265 51.9451 122.265 52.642ZM134.296 48.2727V49.1534H130.131V48.2727H134.296ZM131.433 46.1818H132.45V54.7216C132.45 55.0852 132.512 55.3712 132.637 55.5795C132.762 55.7841 132.925 55.9299 133.126 56.017C133.326 56.1004 133.54 56.142 133.768 56.142C133.9 56.142 134.014 56.1345 134.109 56.1193C134.203 56.1004 134.287 56.0814 134.359 56.0625L134.575 56.9773C134.476 57.0152 134.355 57.0492 134.211 57.0795C134.067 57.1136 133.889 57.1307 133.677 57.1307C133.306 57.1307 132.948 57.0492 132.603 56.8864C132.262 56.7235 131.982 56.4811 131.762 56.1591C131.542 55.8371 131.433 55.4375 131.433 54.9602V46.1818Z" fill="black"/>
<path d="M75.8161 142.364V154H74.7536V143.477H74.6854L71.9581 145.29V144.188L74.7081 142.364H75.8161ZM84.5945 157.273C84.3937 157.273 84.2062 157.254 84.032 157.216C83.8577 157.178 83.7195 157.136 83.6172 157.091L83.8899 156.199C84.2346 156.305 84.5414 156.343 84.8104 156.312C85.0793 156.286 85.3179 156.165 85.5263 155.949C85.7346 155.737 85.9202 155.411 86.0831 154.972L86.4013 154.085L83.1911 145.273H84.2876L86.8786 152.665H86.9581L89.549 145.273H90.6456L86.9524 155.381C86.7971 155.801 86.6058 156.152 86.3786 156.432C86.1513 156.716 85.888 156.926 85.5888 157.062C85.2933 157.203 84.9619 157.273 84.5945 157.273ZM95.8402 154.182C95.0258 154.182 94.3213 153.992 93.7266 153.614C93.1319 153.231 92.6716 152.703 92.3459 152.028C92.0239 151.35 91.8629 150.57 91.8629 149.688C91.8629 148.809 92.0239 148.028 92.3459 147.347C92.6716 146.661 93.1205 146.125 93.6925 145.739C94.2682 145.348 94.933 145.153 95.6868 145.153C96.1603 145.153 96.6167 145.241 97.0561 145.415C97.4955 145.585 97.8894 145.848 98.2379 146.205C98.5902 146.557 98.8686 147.002 99.0732 147.54C99.2777 148.074 99.38 148.706 99.38 149.438V149.938H92.5618V149.045H98.3459C98.3459 148.485 98.2322 147.981 98.005 147.534C97.7815 147.083 97.469 146.727 97.0675 146.466C96.6697 146.205 96.2095 146.074 95.6868 146.074C95.1338 146.074 94.647 146.222 94.2266 146.517C93.8061 146.812 93.4766 147.203 93.2379 147.688C93.0031 148.172 92.8838 148.703 92.88 149.278V149.812C92.88 150.506 92.9993 151.112 93.2379 151.631C93.4804 152.146 93.8232 152.545 94.2663 152.83C94.7095 153.114 95.2341 153.256 95.8402 153.256C96.2531 153.256 96.6148 153.191 96.9254 153.062C97.2398 152.934 97.5031 152.761 97.7152 152.545C97.9311 152.326 98.094 152.085 98.2038 151.824L99.1641 152.136C99.0315 152.504 98.8137 152.843 98.5107 153.153C98.2114 153.464 97.8364 153.714 97.3857 153.903C96.9387 154.089 96.4235 154.182 95.8402 154.182ZM104.046 154.199C103.52 154.199 103.039 154.097 102.603 153.892C102.167 153.684 101.821 153.384 101.563 152.994C101.306 152.6 101.177 152.123 101.177 151.562C101.177 151.131 101.258 150.767 101.421 150.472C101.584 150.176 101.815 149.934 102.114 149.744C102.414 149.555 102.768 149.405 103.177 149.295C103.586 149.186 104.037 149.1 104.529 149.04C105.018 148.979 105.431 148.926 105.768 148.881C106.109 148.835 106.368 148.763 106.546 148.665C106.724 148.566 106.813 148.407 106.813 148.188V147.983C106.813 147.388 106.635 146.92 106.279 146.58C105.927 146.235 105.419 146.062 104.756 146.062C104.128 146.062 103.614 146.201 103.217 146.477C102.823 146.754 102.546 147.08 102.387 147.455L101.427 147.108C101.624 146.631 101.897 146.25 102.245 145.966C102.594 145.678 102.984 145.472 103.415 145.347C103.847 145.218 104.285 145.153 104.728 145.153C105.061 145.153 105.408 145.197 105.768 145.284C106.131 145.371 106.469 145.523 106.779 145.739C107.09 145.951 107.342 146.248 107.535 146.631C107.728 147.009 107.825 147.491 107.825 148.074V154H106.813V152.619H106.751C106.629 152.877 106.45 153.127 106.211 153.369C105.972 153.612 105.673 153.811 105.313 153.966C104.953 154.121 104.531 154.199 104.046 154.199ZM104.183 153.273C104.72 153.273 105.186 153.153 105.58 152.915C105.974 152.676 106.277 152.36 106.489 151.966C106.705 151.568 106.813 151.131 106.813 150.653V149.392C106.737 149.464 106.611 149.528 106.433 149.585C106.258 149.642 106.056 149.693 105.825 149.739C105.597 149.78 105.37 149.816 105.143 149.847C104.915 149.877 104.711 149.903 104.529 149.926C104.037 149.987 103.616 150.081 103.268 150.21C102.919 150.339 102.652 150.517 102.467 150.744C102.281 150.968 102.188 151.256 102.188 151.608C102.188 152.138 102.378 152.549 102.756 152.841C103.135 153.129 103.611 153.273 104.183 153.273ZM110.515 154V145.273H111.498V146.614H111.572C111.746 146.174 112.049 145.82 112.481 145.551C112.916 145.278 113.409 145.142 113.958 145.142C114.041 145.142 114.134 145.144 114.237 145.148C114.339 145.152 114.424 145.155 114.492 145.159V146.188C114.447 146.18 114.367 146.169 114.254 146.153C114.14 146.138 114.017 146.131 113.884 146.131C113.43 146.131 113.024 146.227 112.668 146.42C112.316 146.61 112.038 146.873 111.833 147.21C111.629 147.547 111.526 147.932 111.526 148.364V154H110.515ZM119.45 141.818L115.7 155.75H114.751L118.501 141.818H119.45ZM127.066 147.188L126.14 147.449C126.049 147.187 125.92 146.951 125.754 146.739C125.587 146.527 125.369 146.358 125.1 146.233C124.835 146.108 124.505 146.045 124.112 146.045C123.521 146.045 123.036 146.186 122.657 146.466C122.278 146.746 122.089 147.108 122.089 147.551C122.089 147.926 122.218 148.231 122.475 148.466C122.737 148.697 123.138 148.881 123.68 149.017L124.998 149.341C125.729 149.519 126.276 149.801 126.64 150.188C127.007 150.574 127.191 151.059 127.191 151.642C127.191 152.134 127.055 152.572 126.782 152.955C126.509 153.337 126.129 153.638 125.64 153.858C125.155 154.074 124.593 154.182 123.952 154.182C123.1 154.182 122.397 153.991 121.844 153.608C121.291 153.222 120.937 152.665 120.782 151.938L121.754 151.699C121.879 152.218 122.123 152.61 122.487 152.875C122.854 153.14 123.337 153.273 123.935 153.273C124.606 153.273 125.142 153.123 125.543 152.824C125.945 152.521 126.146 152.142 126.146 151.688C126.146 151.335 126.028 151.04 125.793 150.801C125.558 150.559 125.202 150.381 124.725 150.267L123.299 149.926C122.541 149.744 121.981 149.456 121.617 149.062C121.254 148.669 121.072 148.18 121.072 147.597C121.072 147.116 121.202 146.693 121.464 146.33C121.725 145.962 122.085 145.674 122.543 145.466C123.002 145.258 123.524 145.153 124.112 145.153C124.911 145.153 125.549 145.335 126.026 145.699C126.507 146.059 126.854 146.555 127.066 147.188Z" fill="black"/>
<defs>
<filter id="filter0_d_157_901" x="9.39746" y="0" width="181.205" height="208" filterUnits="userSpaceOnUse" color-interpolation-filters="sRGB">
<feFlood flood-opacity="0" result="BackgroundImageFix"/>
<feColorMatrix in="SourceAlpha" type="matrix" values="0 0 0 0 0 0 0 0 0 0 0 0 0 0 0 0 0 0 127 0" result="hardAlpha"/>
<feOffset dy="4"/>
<feGaussianBlur stdDeviation="2"/>
<feComposite in2="hardAlpha" operator="out"/>
<feColorMatrix type="matrix" values="0 0 0 0 0 0 0 0 0 0 0 0 0 0 0 0 0 0 0.25 0"/>
<feBlend mode="normal" in2="BackgroundImageFix" result="effect1_dropShadow_157_901"/>
<feBlend mode="normal" in="SourceGraphic" in2="effect1_dropShadow_157_901" result="shape"/>
</filter>
</defs>
</svg>
