<svg width="200" height="208" viewBox="0 0 200 208" fill="none" xmlns="http://www.w3.org/2000/svg">
<g filter="url(#filter0_d_157_921)">
<path d="M100 0L186.603 50V150L100 200L13.3975 150V50L100 0Z" fill="white"/>
<path d="M14.3975 50.5774L100 1.1547L185.603 50.5774V149.423L100 198.845L14.3975 149.423V50.5774Z" stroke="#2CC140" stroke-width="2"/>
</g>
<path d="M53.4041 93.3636V105H51.2962V93.3636H53.4041ZM57.6527 99.8864V105H55.5959V96.2727H57.5618V97.7557H57.6641C57.8648 97.267 58.1849 96.8788 58.6243 96.5909C59.0675 96.303 59.6148 96.1591 60.2663 96.1591C60.8686 96.1591 61.3932 96.2879 61.8402 96.5455C62.291 96.803 62.6394 97.1761 62.8857 97.6648C63.1357 98.1534 63.2588 98.7462 63.255 99.4432V105H61.1982V99.7614C61.1982 99.178 61.0466 98.7216 60.7436 98.392C60.4444 98.0625 60.0296 97.8977 59.4993 97.8977C59.1394 97.8977 58.8194 97.9773 58.5391 98.1364C58.2625 98.2917 58.0447 98.517 57.8857 98.8125C57.7304 99.108 57.6527 99.4659 57.6527 99.8864ZM69.7038 96.2727V97.8636H64.6868V96.2727H69.7038ZM65.9254 94.1818H67.9822V102.375C67.9822 102.652 68.0239 102.864 68.1072 103.011C68.1944 103.155 68.308 103.254 68.4482 103.307C68.5883 103.36 68.7436 103.386 68.9141 103.386C69.0429 103.386 69.1603 103.377 69.2663 103.358C69.3762 103.339 69.4595 103.322 69.5163 103.307L69.8629 104.915C69.7531 104.953 69.5959 104.994 69.3913 105.04C69.1906 105.085 68.9444 105.112 68.6527 105.119C68.1375 105.134 67.6735 105.057 67.2607 104.886C66.8478 104.712 66.5201 104.443 66.2777 104.08C66.0391 103.716 65.9216 103.261 65.9254 102.716V94.1818ZM75.1939 105.17C74.3189 105.17 73.5632 104.989 72.9268 104.625C72.2943 104.258 71.8075 103.739 71.4666 103.068C71.1257 102.394 70.9553 101.6 70.9553 100.688C70.9553 99.7898 71.1257 99.0019 71.4666 98.3239C71.8113 97.642 72.2924 97.1117 72.9098 96.733C73.5272 96.3504 74.2526 96.1591 75.0859 96.1591C75.6238 96.1591 76.1314 96.2462 76.6087 96.4205C77.0897 96.5909 77.514 96.8561 77.8814 97.2159C78.2526 97.5758 78.5443 98.0341 78.7564 98.5909C78.9685 99.1439 79.0746 99.803 79.0746 100.568V101.199H71.9212V99.8125H77.103C77.0992 99.4186 77.014 99.0682 76.8473 98.7614C76.6806 98.4508 76.4477 98.2064 76.1484 98.0284C75.853 97.8504 75.5083 97.7614 75.1143 97.7614C74.6939 97.7614 74.3246 97.8636 74.0064 98.0682C73.6882 98.2689 73.4401 98.5341 73.2621 98.8636C73.0878 99.1894 72.9988 99.5473 72.995 99.9375V101.148C72.995 101.655 73.0878 102.091 73.2734 102.455C73.459 102.814 73.7185 103.091 74.0518 103.284C74.3852 103.473 74.7753 103.568 75.2223 103.568C75.5215 103.568 75.7924 103.527 76.0348 103.443C76.2772 103.356 76.4875 103.229 76.6655 103.062C76.8435 102.896 76.978 102.689 77.0689 102.443L78.9893 102.659C78.8681 103.167 78.6371 103.61 78.2962 103.989C77.959 104.364 77.5272 104.655 77.0007 104.864C76.4742 105.068 75.8719 105.17 75.1939 105.17ZM80.8146 105V96.2727H82.8089V97.7273H82.8999C83.0589 97.2235 83.3317 96.8352 83.718 96.5625C84.1082 96.286 84.5533 96.1477 85.0533 96.1477C85.1669 96.1477 85.2938 96.1534 85.4339 96.1648C85.5779 96.1723 85.6972 96.1856 85.7919 96.2045V98.0966C85.7048 98.0663 85.5665 98.0398 85.3771 98.017C85.1915 97.9905 85.0116 97.9773 84.8374 97.9773C84.4624 97.9773 84.1252 98.0587 83.826 98.2216C83.5305 98.3807 83.2976 98.6023 83.1271 98.8864C82.9567 99.1705 82.8714 99.4981 82.8714 99.8693V105H80.8146ZM87.1584 105V96.2727H89.1243V97.7557H89.2266C89.4084 97.2557 89.7095 96.8655 90.13 96.5852C90.5504 96.3011 91.0523 96.1591 91.6357 96.1591C92.2266 96.1591 92.7247 96.303 93.13 96.5909C93.5391 96.875 93.8269 97.2633 93.9936 97.7557H94.0845C94.2777 97.2708 94.6035 96.8845 95.0618 96.5966C95.5239 96.3049 96.0713 96.1591 96.7038 96.1591C97.5069 96.1591 98.1622 96.4129 98.6697 96.9205C99.1773 97.428 99.4311 98.1686 99.4311 99.142V105H97.3686V99.4602C97.3686 98.9186 97.2247 98.5227 96.9368 98.2727C96.6489 98.0189 96.2966 97.892 95.88 97.892C95.3838 97.892 94.9955 98.0473 94.7152 98.358C94.4387 98.6648 94.3004 99.0644 94.3004 99.5568V105H92.2834V99.375C92.2834 98.9242 92.147 98.5644 91.8743 98.2955C91.6054 98.0265 91.2531 97.892 90.8175 97.892C90.522 97.892 90.2531 97.9678 90.0107 98.1193C89.7682 98.267 89.575 98.4773 89.4311 98.75C89.2872 99.0189 89.2152 99.3333 89.2152 99.6932V105H87.1584ZM105.381 105.17C104.506 105.17 103.751 104.989 103.114 104.625C102.482 104.258 101.995 103.739 101.654 103.068C101.313 102.394 101.143 101.6 101.143 100.688C101.143 99.7898 101.313 99.0019 101.654 98.3239C101.999 97.642 102.48 97.1117 103.097 96.733C103.715 96.3504 104.44 96.1591 105.273 96.1591C105.811 96.1591 106.319 96.2462 106.796 96.4205C107.277 96.5909 107.701 96.8561 108.069 97.2159C108.44 97.5758 108.732 98.0341 108.944 98.5909C109.156 99.1439 109.262 99.803 109.262 100.568V101.199H102.109V99.8125H107.29C107.287 99.4186 107.201 99.0682 107.035 98.7614C106.868 98.4508 106.635 98.2064 106.336 98.0284C106.04 97.8504 105.696 97.7614 105.302 97.7614C104.881 97.7614 104.512 97.8636 104.194 98.0682C103.876 98.2689 103.628 98.5341 103.45 98.8636C103.275 99.1894 103.186 99.5473 103.183 99.9375V101.148C103.183 101.655 103.275 102.091 103.461 102.455C103.647 102.814 103.906 103.091 104.239 103.284C104.573 103.473 104.963 103.568 105.41 103.568C105.709 103.568 105.98 103.527 106.222 103.443C106.465 103.356 106.675 103.229 106.853 103.062C107.031 102.896 107.165 102.689 107.256 102.443L109.177 102.659C109.056 103.167 108.825 103.61 108.484 103.989C108.147 104.364 107.715 104.655 107.188 104.864C106.662 105.068 106.059 105.17 105.381 105.17ZM114.241 105.153C113.555 105.153 112.942 104.977 112.4 104.625C111.858 104.273 111.43 103.761 111.116 103.091C110.801 102.42 110.644 101.606 110.644 100.648C110.644 99.678 110.803 98.8598 111.121 98.1932C111.443 97.5227 111.877 97.017 112.423 96.6761C112.968 96.3314 113.576 96.1591 114.246 96.1591C114.758 96.1591 115.178 96.2462 115.508 96.4205C115.837 96.5909 116.099 96.7973 116.292 97.0398C116.485 97.2784 116.635 97.5038 116.741 97.7159H116.826V93.3636H118.888V105H116.866V103.625H116.741C116.635 103.837 116.481 104.062 116.281 104.301C116.08 104.536 115.815 104.737 115.485 104.903C115.156 105.07 114.741 105.153 114.241 105.153ZM114.815 103.466C115.25 103.466 115.621 103.348 115.928 103.114C116.235 102.875 116.468 102.544 116.627 102.119C116.786 101.695 116.866 101.201 116.866 100.636C116.866 100.072 116.786 99.5814 116.627 99.1648C116.472 98.7481 116.241 98.4242 115.934 98.1932C115.631 97.9621 115.258 97.8466 114.815 97.8466C114.356 97.8466 113.974 97.9659 113.667 98.2045C113.36 98.4432 113.129 98.7727 112.974 99.1932C112.818 99.6136 112.741 100.095 112.741 100.636C112.741 101.182 112.818 101.669 112.974 102.097C113.133 102.521 113.366 102.856 113.673 103.102C113.983 103.345 114.364 103.466 114.815 103.466ZM121.08 105V96.2727H123.137V105H121.08ZM122.114 95.0341C121.789 95.0341 121.508 94.9261 121.273 94.7102C121.039 94.4905 120.921 94.2273 120.921 93.9205C120.921 93.6098 121.039 93.3466 121.273 93.1307C121.508 92.911 121.789 92.8011 122.114 92.8011C122.444 92.8011 122.724 92.911 122.955 93.1307C123.19 93.3466 123.308 93.6098 123.308 93.9205C123.308 94.2273 123.19 94.4905 122.955 94.7102C122.724 94.9261 122.444 95.0341 122.114 95.0341ZM127.763 105.176C127.21 105.176 126.712 105.078 126.269 104.881C125.83 104.68 125.481 104.384 125.224 103.994C124.97 103.604 124.843 103.123 124.843 102.551C124.843 102.059 124.934 101.652 125.116 101.33C125.298 101.008 125.546 100.75 125.86 100.557C126.174 100.364 126.529 100.218 126.923 100.119C127.32 100.017 127.731 99.9432 128.156 99.8977C128.667 99.8447 129.082 99.7973 129.4 99.7557C129.718 99.7102 129.949 99.642 130.093 99.5511C130.241 99.4564 130.315 99.3106 130.315 99.1136V99.0795C130.315 98.6515 130.188 98.3201 129.934 98.0852C129.68 97.8504 129.315 97.733 128.837 97.733C128.334 97.733 127.934 97.8428 127.638 98.0625C127.347 98.2822 127.15 98.5417 127.048 98.8409L125.127 98.5682C125.279 98.0379 125.529 97.5947 125.877 97.2386C126.226 96.8788 126.652 96.6098 127.156 96.4318C127.659 96.25 128.216 96.1591 128.826 96.1591C129.246 96.1591 129.665 96.2083 130.082 96.3068C130.498 96.4053 130.879 96.5682 131.224 96.7955C131.568 97.0189 131.845 97.3239 132.053 97.7102C132.265 98.0966 132.371 98.5795 132.371 99.1591V105H130.394V103.801H130.326C130.201 104.044 130.025 104.271 129.798 104.483C129.574 104.691 129.292 104.86 128.951 104.989C128.614 105.114 128.218 105.176 127.763 105.176ZM128.298 103.665C128.71 103.665 129.068 103.583 129.371 103.42C129.674 103.254 129.907 103.034 130.07 102.761C130.237 102.489 130.32 102.191 130.32 101.869V100.841C130.256 100.894 130.146 100.943 129.991 100.989C129.839 101.034 129.669 101.074 129.479 101.108C129.29 101.142 129.103 101.172 128.917 101.199C128.731 101.225 128.57 101.248 128.434 101.267C128.127 101.309 127.853 101.377 127.61 101.472C127.368 101.566 127.176 101.699 127.036 101.869C126.896 102.036 126.826 102.252 126.826 102.517C126.826 102.896 126.964 103.182 127.241 103.375C127.517 103.568 127.87 103.665 128.298 103.665ZM138.798 96.2727V97.8636H133.781V96.2727H138.798ZM135.019 94.1818H137.076V102.375C137.076 102.652 137.118 102.864 137.201 103.011C137.288 103.155 137.402 103.254 137.542 103.307C137.682 103.36 137.837 103.386 138.008 103.386C138.137 103.386 138.254 103.377 138.36 103.358C138.47 103.339 138.553 103.322 138.61 103.307L138.957 104.915C138.847 104.953 138.69 104.994 138.485 105.04C138.284 105.085 138.038 105.112 137.746 105.119C137.231 105.134 136.767 105.057 136.354 104.886C135.942 104.712 135.614 104.443 135.371 104.08C135.133 103.716 135.015 103.261 135.019 102.716V94.1818ZM144.288 105.17C143.413 105.17 142.657 104.989 142.021 104.625C141.388 104.258 140.901 103.739 140.56 103.068C140.219 102.394 140.049 101.6 140.049 100.688C140.049 99.7898 140.219 99.0019 140.56 98.3239C140.905 97.642 141.386 97.1117 142.004 96.733C142.621 96.3504 143.346 96.1591 144.18 96.1591C144.718 96.1591 145.225 96.2462 145.702 96.4205C146.183 96.5909 146.608 96.8561 146.975 97.2159C147.346 97.5758 147.638 98.0341 147.85 98.5909C148.062 99.1439 148.168 99.803 148.168 100.568V101.199H141.015V99.8125H146.197C146.193 99.4186 146.108 99.0682 145.941 98.7614C145.774 98.4508 145.541 98.2064 145.242 98.0284C144.947 97.8504 144.602 97.7614 144.208 97.7614C143.788 97.7614 143.418 97.8636 143.1 98.0682C142.782 98.2689 142.534 98.5341 142.356 98.8636C142.182 99.1894 142.093 99.5473 142.089 99.9375V101.148C142.089 101.655 142.182 102.091 142.367 102.455C142.553 102.814 142.812 103.091 143.146 103.284C143.479 103.473 143.869 103.568 144.316 103.568C144.615 103.568 144.886 103.527 145.129 103.443C145.371 103.356 145.581 103.229 145.759 103.062C145.937 102.896 146.072 102.689 146.163 102.443L148.083 102.659C147.962 103.167 147.731 103.61 147.39 103.989C147.053 104.364 146.621 104.655 146.094 104.864C145.568 105.068 144.966 105.17 144.288 105.17Z" fill="black"/>
<path d="M79.0149 57V48.2727H79.9979V49.6136H80.0888C80.263 49.1629 80.5528 48.8087 80.9581 48.5511C81.3672 48.2898 81.8577 48.1591 82.4297 48.1591C83.032 48.1591 83.5263 48.3011 83.9126 48.5852C84.3028 48.8655 84.5945 49.2519 84.7876 49.7443H84.8615C85.0585 49.2595 85.3786 48.875 85.8217 48.5909C86.2687 48.303 86.8104 48.1591 87.4467 48.1591C88.2573 48.1591 88.8975 48.4148 89.3672 48.9261C89.8369 49.4337 90.0717 50.1761 90.0717 51.1534V57H89.0604V51.1534C89.0604 50.464 88.8842 49.947 88.532 49.6023C88.1797 49.2576 87.7157 49.0852 87.1399 49.0852C86.4732 49.0852 85.96 49.2898 85.6001 49.6989C85.2403 50.108 85.0604 50.6269 85.0604 51.2557V57H84.0263V51.0625C84.0263 50.4716 83.8615 49.9943 83.532 49.6307C83.2024 49.267 82.7384 49.0852 82.1399 49.0852C81.7384 49.0852 81.3767 49.1837 81.0547 49.3807C80.7365 49.5777 80.4846 49.8523 80.299 50.2045C80.1172 50.553 80.0263 50.9545 80.0263 51.4091V57H79.0149ZM93.1413 60.2727C92.9406 60.2727 92.7531 60.2538 92.5788 60.2159C92.4046 60.178 92.2663 60.1364 92.1641 60.0909L92.4368 59.1989C92.7815 59.3049 93.0883 59.3428 93.3572 59.3125C93.6262 59.286 93.8648 59.1648 94.0732 58.9489C94.2815 58.7367 94.4671 58.411 94.63 57.9716L94.9482 57.0852L91.7379 48.2727H92.8345L95.4254 55.6648H95.505L98.0959 48.2727H99.1925L95.4993 58.3807C95.344 58.8011 95.1527 59.1515 94.9254 59.4318C94.6982 59.7159 94.4349 59.9261 94.1357 60.0625C93.8402 60.2027 93.5088 60.2727 93.1413 60.2727ZM107.035 50.1875L106.109 50.4489C106.018 50.1875 105.889 49.9508 105.722 49.7386C105.556 49.5265 105.338 49.358 105.069 49.233C104.804 49.108 104.474 49.0455 104.08 49.0455C103.489 49.0455 103.004 49.1856 102.626 49.4659C102.247 49.7462 102.058 50.108 102.058 50.5511C102.058 50.9261 102.186 51.2311 102.444 51.4659C102.705 51.697 103.107 51.8807 103.648 52.017L104.967 52.3409C105.698 52.5189 106.245 52.8011 106.609 53.1875C106.976 53.5739 107.16 54.0587 107.16 54.642C107.16 55.1345 107.023 55.572 106.751 55.9545C106.478 56.3371 106.097 56.6383 105.609 56.858C105.124 57.0739 104.561 57.1818 103.921 57.1818C103.069 57.1818 102.366 56.9905 101.813 56.608C101.26 56.2216 100.906 55.6648 100.751 54.9375L101.722 54.6989C101.847 55.2178 102.092 55.6098 102.455 55.875C102.823 56.1402 103.306 56.2727 103.904 56.2727C104.575 56.2727 105.111 56.1231 105.512 55.8239C105.914 55.5208 106.114 55.142 106.114 54.6875C106.114 54.3352 105.997 54.0398 105.762 53.8011C105.527 53.5587 105.171 53.3807 104.694 53.267L103.268 52.9261C102.51 52.7443 101.95 52.4564 101.586 52.0625C101.222 51.6686 101.04 51.1799 101.04 50.5966C101.04 50.1155 101.171 49.6932 101.433 49.3295C101.694 48.9621 102.054 48.6742 102.512 48.4659C102.97 48.2576 103.493 48.1534 104.08 48.1534C104.879 48.1534 105.518 48.3352 105.995 48.6989C106.476 49.0587 106.823 49.5549 107.035 50.1875ZM115.289 60.2727V55.3807H115.198C115.081 55.6458 114.914 55.9186 114.698 56.1989C114.482 56.4754 114.196 56.7083 113.84 56.8977C113.484 57.0871 113.043 57.1818 112.516 57.1818C111.804 57.1818 111.177 56.9924 110.636 56.6136C110.098 56.2348 109.677 55.7064 109.374 55.0284C109.075 54.3504 108.925 53.5606 108.925 52.6591C108.925 51.7614 109.075 50.9754 109.374 50.3011C109.677 49.6231 110.1 49.0966 110.641 48.7216C111.183 48.3428 111.814 48.1534 112.533 48.1534C113.067 48.1534 113.509 48.2481 113.857 48.4375C114.21 48.6269 114.492 48.8598 114.704 49.1364C114.916 49.4091 115.081 49.6761 115.198 49.9375H115.317V48.2727H116.306V60.2727H115.289ZM112.636 56.2557C113.2 56.2557 113.681 56.1023 114.079 55.7955C114.477 55.4848 114.78 55.0587 114.988 54.517C115.2 53.9716 115.306 53.3466 115.306 52.642C115.306 51.9451 115.202 51.3295 114.994 50.7955C114.785 50.2576 114.482 49.8371 114.085 49.5341C113.691 49.2273 113.208 49.0739 112.636 49.0739C112.052 49.0739 111.56 49.233 111.158 49.5511C110.757 49.8655 110.454 50.2917 110.249 50.8295C110.045 51.3674 109.942 51.9716 109.942 52.642C109.942 53.3201 110.047 53.9318 110.255 54.4773C110.463 55.0227 110.768 55.4564 111.17 55.7784C111.571 56.0966 112.06 56.2557 112.636 56.2557ZM119.979 45.3636V57H118.968V45.3636H119.979Z" fill="black"/>
<path d="M64.0689 154V153.222L67.87 148.949C68.3662 148.388 68.7659 147.909 69.0689 147.511C69.3719 147.114 69.5916 146.746 69.728 146.409C69.8681 146.072 69.9382 145.722 69.9382 145.358C69.9382 144.915 69.834 144.528 69.6257 144.199C69.4212 143.866 69.139 143.606 68.7791 143.42C68.4193 143.235 68.014 143.142 67.5632 143.142C67.0859 143.142 66.6674 143.244 66.3075 143.449C65.9515 143.653 65.675 143.934 65.478 144.29C65.281 144.646 65.1825 145.055 65.1825 145.517H64.1655C64.1655 144.873 64.3132 144.303 64.6087 143.807C64.9079 143.307 65.3151 142.915 65.8303 142.631C66.3492 142.347 66.9363 142.205 67.5916 142.205C68.2393 142.205 68.8151 142.345 69.3189 142.625C69.8227 142.902 70.2185 143.278 70.5064 143.756C70.7943 144.233 70.9382 144.767 70.9382 145.358C70.9382 145.786 70.8625 146.201 70.7109 146.602C70.5632 147.004 70.3075 147.451 69.9439 147.943C69.5803 148.436 69.0765 149.038 68.4325 149.75L65.5462 152.972V153.045H71.3018V154H64.0689ZM74.6811 154.085C74.4576 154.085 74.2644 154.006 74.1016 153.847C73.9425 153.684 73.8629 153.491 73.8629 153.267C73.8629 153.04 73.9425 152.847 74.1016 152.688C74.2644 152.528 74.4576 152.449 74.6811 152.449C74.9084 152.449 75.1016 152.528 75.2607 152.688C75.4197 152.847 75.4993 153.04 75.4993 153.267C75.4993 153.415 75.4614 153.551 75.3857 153.676C75.3137 153.801 75.2152 153.902 75.0902 153.977C74.969 154.049 74.8326 154.085 74.6811 154.085ZM81.3786 154.159C80.7308 154.159 80.1513 154.028 79.6399 153.767C79.1323 153.502 78.727 153.138 78.424 152.676C78.1248 152.214 77.9657 151.686 77.9467 151.091H78.9751C79.0092 151.708 79.2517 152.216 79.7024 152.614C80.1532 153.008 80.7119 153.205 81.3786 153.205C81.8975 153.205 82.3596 153.081 82.7649 152.835C83.1702 152.585 83.4865 152.244 83.7138 151.812C83.9448 151.377 84.0604 150.886 84.0604 150.341C84.0566 149.773 83.9335 149.273 83.6911 148.841C83.4486 148.405 83.1191 148.064 82.7024 147.818C82.2895 147.572 81.8255 147.449 81.3104 147.449C80.9202 147.445 80.5376 147.509 80.1626 147.642C79.7876 147.775 79.4751 147.945 79.2251 148.153L78.1626 148.017L78.8615 142.364H84.6115V143.318H79.7536L79.2876 147.21H79.3445C79.602 146.994 79.9145 146.818 80.282 146.682C80.6532 146.545 81.0452 146.477 81.4581 146.477C82.1437 146.477 82.7592 146.642 83.3047 146.972C83.8539 147.301 84.2876 147.756 84.6058 148.335C84.9278 148.911 85.0888 149.574 85.0888 150.324C85.0888 151.059 84.9278 151.716 84.6058 152.295C84.2876 152.871 83.8482 153.326 83.2876 153.659C82.7308 153.992 82.0945 154.159 81.3786 154.159ZM92.7507 157.273C92.55 157.273 92.3625 157.254 92.1882 157.216C92.014 157.178 91.8757 157.136 91.7734 157.091L92.0462 156.199C92.3909 156.305 92.6977 156.343 92.9666 156.312C93.2356 156.286 93.4742 156.165 93.6825 155.949C93.8909 155.737 94.0765 155.411 94.2393 154.972L94.5575 154.085L91.3473 145.273H92.4439L95.0348 152.665H95.1143L97.7053 145.273H98.8018L95.1087 155.381C94.9534 155.801 94.7621 156.152 94.5348 156.432C94.3075 156.716 94.0443 156.926 93.745 157.062C93.4496 157.203 93.1181 157.273 92.7507 157.273ZM103.996 154.182C103.182 154.182 102.478 153.992 101.883 153.614C101.288 153.231 100.828 152.703 100.502 152.028C100.18 151.35 100.019 150.57 100.019 149.688C100.019 148.809 100.18 148.028 100.502 147.347C100.828 146.661 101.277 146.125 101.849 145.739C102.424 145.348 103.089 145.153 103.843 145.153C104.317 145.153 104.773 145.241 105.212 145.415C105.652 145.585 106.046 145.848 106.394 146.205C106.746 146.557 107.025 147.002 107.229 147.54C107.434 148.074 107.536 148.706 107.536 149.438V149.938H100.718V149.045H106.502C106.502 148.485 106.388 147.981 106.161 147.534C105.938 147.083 105.625 146.727 105.224 146.466C104.826 146.205 104.366 146.074 103.843 146.074C103.29 146.074 102.803 146.222 102.383 146.517C101.962 146.812 101.633 147.203 101.394 147.688C101.159 148.172 101.04 148.703 101.036 149.278V149.812C101.036 150.506 101.156 151.112 101.394 151.631C101.637 152.146 101.979 152.545 102.423 152.83C102.866 153.114 103.39 153.256 103.996 153.256C104.409 153.256 104.771 153.191 105.082 153.062C105.396 152.934 105.659 152.761 105.871 152.545C106.087 152.326 106.25 152.085 106.36 151.824L107.32 152.136C107.188 152.504 106.97 152.843 106.667 153.153C106.368 153.464 105.993 153.714 105.542 153.903C105.095 154.089 104.58 154.182 103.996 154.182ZM112.202 154.199C111.676 154.199 111.195 154.097 110.759 153.892C110.324 153.684 109.977 153.384 109.719 152.994C109.462 152.6 109.333 152.123 109.333 151.562C109.333 151.131 109.415 150.767 109.577 150.472C109.74 150.176 109.971 149.934 110.271 149.744C110.57 149.555 110.924 149.405 111.333 149.295C111.742 149.186 112.193 149.1 112.685 149.04C113.174 148.979 113.587 148.926 113.924 148.881C114.265 148.835 114.524 148.763 114.702 148.665C114.88 148.566 114.969 148.407 114.969 148.188V147.983C114.969 147.388 114.791 146.92 114.435 146.58C114.083 146.235 113.576 146.062 112.913 146.062C112.284 146.062 111.771 146.201 111.373 146.477C110.979 146.754 110.702 147.08 110.543 147.455L109.583 147.108C109.78 146.631 110.053 146.25 110.401 145.966C110.75 145.678 111.14 145.472 111.572 145.347C112.004 145.218 112.441 145.153 112.884 145.153C113.218 145.153 113.564 145.197 113.924 145.284C114.288 145.371 114.625 145.523 114.935 145.739C115.246 145.951 115.498 146.248 115.691 146.631C115.884 147.009 115.981 147.491 115.981 148.074V154H114.969V152.619H114.907C114.786 152.877 114.606 153.127 114.367 153.369C114.129 153.612 113.829 153.811 113.469 153.966C113.11 154.121 112.687 154.199 112.202 154.199ZM112.339 153.273C112.877 153.273 113.343 153.153 113.737 152.915C114.13 152.676 114.433 152.36 114.646 151.966C114.862 151.568 114.969 151.131 114.969 150.653V149.392C114.894 149.464 114.767 149.528 114.589 149.585C114.415 149.642 114.212 149.693 113.981 149.739C113.754 149.78 113.526 149.816 113.299 149.847C113.072 149.877 112.867 149.903 112.685 149.926C112.193 149.987 111.772 150.081 111.424 150.21C111.076 150.339 110.808 150.517 110.623 150.744C110.437 150.968 110.344 151.256 110.344 151.608C110.344 152.138 110.534 152.549 110.913 152.841C111.291 153.129 111.767 153.273 112.339 153.273ZM118.671 154V145.273H119.654V146.614H119.728C119.902 146.174 120.205 145.82 120.637 145.551C121.073 145.278 121.565 145.142 122.114 145.142C122.198 145.142 122.29 145.144 122.393 145.148C122.495 145.152 122.58 145.155 122.648 145.159V146.188C122.603 146.18 122.523 146.169 122.41 146.153C122.296 146.138 122.173 146.131 122.04 146.131C121.586 146.131 121.181 146.227 120.825 146.42C120.472 146.61 120.194 146.873 119.989 147.21C119.785 147.547 119.683 147.932 119.683 148.364V154H118.671ZM127.606 141.818L123.856 155.75H122.907L126.657 141.818H127.606ZM135.222 147.188L134.296 147.449C134.205 147.187 134.076 146.951 133.91 146.739C133.743 146.527 133.525 146.358 133.256 146.233C132.991 146.108 132.662 146.045 132.268 146.045C131.677 146.045 131.192 146.186 130.813 146.466C130.434 146.746 130.245 147.108 130.245 147.551C130.245 147.926 130.374 148.231 130.631 148.466C130.893 148.697 131.294 148.881 131.836 149.017L133.154 149.341C133.885 149.519 134.433 149.801 134.796 150.188C135.164 150.574 135.347 151.059 135.347 151.642C135.347 152.134 135.211 152.572 134.938 152.955C134.665 153.337 134.285 153.638 133.796 153.858C133.311 154.074 132.749 154.182 132.109 154.182C131.256 154.182 130.554 153.991 130.001 153.608C129.448 153.222 129.094 152.665 128.938 151.938L129.91 151.699C130.035 152.218 130.279 152.61 130.643 152.875C131.01 153.14 131.493 153.273 132.092 153.273C132.762 153.273 133.298 153.123 133.7 152.824C134.101 152.521 134.302 152.142 134.302 151.688C134.302 151.335 134.184 151.04 133.95 150.801C133.715 150.559 133.359 150.381 132.881 150.267L131.455 149.926C130.698 149.744 130.137 149.456 129.773 149.062C129.41 148.669 129.228 148.18 129.228 147.597C129.228 147.116 129.359 146.693 129.62 146.33C129.881 145.962 130.241 145.674 130.7 145.466C131.158 145.258 131.681 145.153 132.268 145.153C133.067 145.153 133.705 145.335 134.183 145.699C134.664 146.059 135.01 146.555 135.222 147.188Z" fill="black"/>
<defs>
<filter id="filter0_d_157_921" x="9.39746" y="0" width="181.205" height="208" filterUnits="userSpaceOnUse" color-interpolation-filters="sRGB">
<feFlood flood-opacity="0" result="BackgroundImageFix"/>
<feColorMatrix in="SourceAlpha" type="matrix" values="0 0 0 0 0 0 0 0 0 0 0 0 0 0 0 0 0 0 127 0" result="hardAlpha"/>
<feOffset dy="4"/>
<feGaussianBlur stdDeviation="2"/>
<feComposite in2="hardAlpha" operator="out"/>
<feColorMatrix type="matrix" values="0 0 0 0 0 0 0 0 0 0 0 0 0 0 0 0 0 0 0.25 0"/>
<feBlend mode="normal" in2="BackgroundImageFix" result="effect1_dropShadow_157_921"/>
<feBlend mode="normal" in="SourceGraphic" in2="effect1_dropShadow_157_921" result="shape"/>
</filter>
</defs>
</svg>
