<svg width="200" height="208" viewBox="0 0 200 208" fill="none" xmlns="http://www.w3.org/2000/svg">
<g filter="url(#filter0_d_181_872)">
<path d="M100 0L186.603 50V150L100 200L13.3975 150V50L100 0Z" fill="white"/>
<path d="M14.3975 50.5774L100 1.1547L185.603 50.5774V149.423L100 198.845L14.3975 149.423V50.5774Z" stroke="#2CC140" stroke-width="2"/>
</g>
<path d="M53.4041 93.3636V105H51.2962V93.3636H53.4041ZM57.6527 99.8864V105H55.5959V96.2727H57.5618V97.7557H57.6641C57.8648 97.267 58.1849 96.8788 58.6243 96.5909C59.0675 96.303 59.6148 96.1591 60.2663 96.1591C60.8686 96.1591 61.3932 96.2879 61.8402 96.5455C62.291 96.803 62.6394 97.1761 62.8857 97.6648C63.1357 98.1534 63.2588 98.7462 63.255 99.4432V105H61.1982V99.7614C61.1982 99.178 61.0466 98.7216 60.7436 98.392C60.4444 98.0625 60.0296 97.8977 59.4993 97.8977C59.1394 97.8977 58.8194 97.9773 58.5391 98.1364C58.2625 98.2917 58.0447 98.517 57.8857 98.8125C57.7304 99.108 57.6527 99.4659 57.6527 99.8864ZM69.7038 96.2727V97.8636H64.6868V96.2727H69.7038ZM65.9254 94.1818H67.9822V102.375C67.9822 102.652 68.0239 102.864 68.1072 103.011C68.1944 103.155 68.308 103.254 68.4482 103.307C68.5883 103.36 68.7436 103.386 68.9141 103.386C69.0429 103.386 69.1603 103.377 69.2663 103.358C69.3762 103.339 69.4595 103.322 69.5163 103.307L69.8629 104.915C69.7531 104.953 69.5959 104.994 69.3913 105.04C69.1906 105.085 68.9444 105.112 68.6527 105.119C68.1375 105.134 67.6735 105.057 67.2607 104.886C66.8478 104.712 66.5201 104.443 66.2777 104.08C66.0391 103.716 65.9216 103.261 65.9254 102.716V94.1818ZM75.1939 105.17C74.3189 105.17 73.5632 104.989 72.9268 104.625C72.2943 104.258 71.8075 103.739 71.4666 103.068C71.1257 102.394 70.9553 101.6 70.9553 100.688C70.9553 99.7898 71.1257 99.0019 71.4666 98.3239C71.8113 97.642 72.2924 97.1117 72.9098 96.733C73.5272 96.3504 74.2526 96.1591 75.0859 96.1591C75.6238 96.1591 76.1314 96.2462 76.6087 96.4205C77.0897 96.5909 77.514 96.8561 77.8814 97.2159C78.2526 97.5758 78.5443 98.0341 78.7564 98.5909C78.9685 99.1439 79.0746 99.803 79.0746 100.568V101.199H71.9212V99.8125H77.103C77.0992 99.4186 77.014 99.0682 76.8473 98.7614C76.6806 98.4508 76.4477 98.2064 76.1484 98.0284C75.853 97.8504 75.5083 97.7614 75.1143 97.7614C74.6939 97.7614 74.3246 97.8636 74.0064 98.0682C73.6882 98.2689 73.4401 98.5341 73.2621 98.8636C73.0878 99.1894 72.9988 99.5473 72.995 99.9375V101.148C72.995 101.655 73.0878 102.091 73.2734 102.455C73.459 102.814 73.7185 103.091 74.0518 103.284C74.3852 103.473 74.7753 103.568 75.2223 103.568C75.5215 103.568 75.7924 103.527 76.0348 103.443C76.2772 103.356 76.4875 103.229 76.6655 103.062C76.8435 102.896 76.978 102.689 77.0689 102.443L78.9893 102.659C78.8681 103.167 78.6371 103.61 78.2962 103.989C77.959 104.364 77.5272 104.655 77.0007 104.864C76.4742 105.068 75.8719 105.17 75.1939 105.17ZM80.8146 105V96.2727H82.8089V97.7273H82.8999C83.0589 97.2235 83.3317 96.8352 83.718 96.5625C84.1082 96.286 84.5533 96.1477 85.0533 96.1477C85.1669 96.1477 85.2938 96.1534 85.4339 96.1648C85.5779 96.1723 85.6972 96.1856 85.7919 96.2045V98.0966C85.7048 98.0663 85.5665 98.0398 85.3771 98.017C85.1915 97.9905 85.0116 97.9773 84.8374 97.9773C84.4624 97.9773 84.1252 98.0587 83.826 98.2216C83.5305 98.3807 83.2976 98.6023 83.1271 98.8864C82.9567 99.1705 82.8714 99.4981 82.8714 99.8693V105H80.8146ZM87.1584 105V96.2727H89.1243V97.7557H89.2266C89.4084 97.2557 89.7095 96.8655 90.13 96.5852C90.5504 96.3011 91.0523 96.1591 91.6357 96.1591C92.2266 96.1591 92.7247 96.303 93.13 96.5909C93.5391 96.875 93.8269 97.2633 93.9936 97.7557H94.0845C94.2777 97.2708 94.6035 96.8845 95.0618 96.5966C95.5239 96.3049 96.0713 96.1591 96.7038 96.1591C97.5069 96.1591 98.1622 96.4129 98.6697 96.9205C99.1773 97.428 99.4311 98.1686 99.4311 99.142V105H97.3686V99.4602C97.3686 98.9186 97.2247 98.5227 96.9368 98.2727C96.6489 98.0189 96.2966 97.892 95.88 97.892C95.3838 97.892 94.9955 98.0473 94.7152 98.358C94.4387 98.6648 94.3004 99.0644 94.3004 99.5568V105H92.2834V99.375C92.2834 98.9242 92.147 98.5644 91.8743 98.2955C91.6054 98.0265 91.2531 97.892 90.8175 97.892C90.522 97.892 90.2531 97.9678 90.0107 98.1193C89.7682 98.267 89.575 98.4773 89.4311 98.75C89.2872 99.0189 89.2152 99.3333 89.2152 99.6932V105H87.1584ZM105.381 105.17C104.506 105.17 103.751 104.989 103.114 104.625C102.482 104.258 101.995 103.739 101.654 103.068C101.313 102.394 101.143 101.6 101.143 100.688C101.143 99.7898 101.313 99.0019 101.654 98.3239C101.999 97.642 102.48 97.1117 103.097 96.733C103.715 96.3504 104.44 96.1591 105.273 96.1591C105.811 96.1591 106.319 96.2462 106.796 96.4205C107.277 96.5909 107.701 96.8561 108.069 97.2159C108.44 97.5758 108.732 98.0341 108.944 98.5909C109.156 99.1439 109.262 99.803 109.262 100.568V101.199H102.109V99.8125H107.29C107.287 99.4186 107.201 99.0682 107.035 98.7614C106.868 98.4508 106.635 98.2064 106.336 98.0284C106.04 97.8504 105.696 97.7614 105.302 97.7614C104.881 97.7614 104.512 97.8636 104.194 98.0682C103.876 98.2689 103.628 98.5341 103.45 98.8636C103.275 99.1894 103.186 99.5473 103.183 99.9375V101.148C103.183 101.655 103.275 102.091 103.461 102.455C103.647 102.814 103.906 103.091 104.239 103.284C104.573 103.473 104.963 103.568 105.41 103.568C105.709 103.568 105.98 103.527 106.222 103.443C106.465 103.356 106.675 103.229 106.853 103.062C107.031 102.896 107.165 102.689 107.256 102.443L109.177 102.659C109.056 103.167 108.825 103.61 108.484 103.989C108.147 104.364 107.715 104.655 107.188 104.864C106.662 105.068 106.059 105.17 105.381 105.17ZM114.241 105.153C113.555 105.153 112.942 104.977 112.4 104.625C111.858 104.273 111.43 103.761 111.116 103.091C110.801 102.42 110.644 101.606 110.644 100.648C110.644 99.678 110.803 98.8598 111.121 98.1932C111.443 97.5227 111.877 97.017 112.423 96.6761C112.968 96.3314 113.576 96.1591 114.246 96.1591C114.758 96.1591 115.178 96.2462 115.508 96.4205C115.837 96.5909 116.099 96.7973 116.292 97.0398C116.485 97.2784 116.635 97.5038 116.741 97.7159H116.826V93.3636H118.888V105H116.866V103.625H116.741C116.635 103.837 116.481 104.062 116.281 104.301C116.08 104.536 115.815 104.737 115.485 104.903C115.156 105.07 114.741 105.153 114.241 105.153ZM114.815 103.466C115.25 103.466 115.621 103.348 115.928 103.114C116.235 102.875 116.468 102.544 116.627 102.119C116.786 101.695 116.866 101.201 116.866 100.636C116.866 100.072 116.786 99.5814 116.627 99.1648C116.472 98.7481 116.241 98.4242 115.934 98.1932C115.631 97.9621 115.258 97.8466 114.815 97.8466C114.356 97.8466 113.974 97.9659 113.667 98.2045C113.36 98.4432 113.129 98.7727 112.974 99.1932C112.818 99.6136 112.741 100.095 112.741 100.636C112.741 101.182 112.818 101.669 112.974 102.097C113.133 102.521 113.366 102.856 113.673 103.102C113.983 103.345 114.364 103.466 114.815 103.466ZM121.08 105V96.2727H123.137V105H121.08ZM122.114 95.0341C121.789 95.0341 121.508 94.9261 121.273 94.7102C121.039 94.4905 120.921 94.2273 120.921 93.9205C120.921 93.6098 121.039 93.3466 121.273 93.1307C121.508 92.911 121.789 92.8011 122.114 92.8011C122.444 92.8011 122.724 92.911 122.955 93.1307C123.19 93.3466 123.308 93.6098 123.308 93.9205C123.308 94.2273 123.19 94.4905 122.955 94.7102C122.724 94.9261 122.444 95.0341 122.114 95.0341ZM127.763 105.176C127.21 105.176 126.712 105.078 126.269 104.881C125.83 104.68 125.481 104.384 125.224 103.994C124.97 103.604 124.843 103.123 124.843 102.551C124.843 102.059 124.934 101.652 125.116 101.33C125.298 101.008 125.546 100.75 125.86 100.557C126.174 100.364 126.529 100.218 126.923 100.119C127.32 100.017 127.731 99.9432 128.156 99.8977C128.667 99.8447 129.082 99.7973 129.4 99.7557C129.718 99.7102 129.949 99.642 130.093 99.5511C130.241 99.4564 130.315 99.3106 130.315 99.1136V99.0795C130.315 98.6515 130.188 98.3201 129.934 98.0852C129.68 97.8504 129.315 97.733 128.837 97.733C128.334 97.733 127.934 97.8428 127.638 98.0625C127.347 98.2822 127.15 98.5417 127.048 98.8409L125.127 98.5682C125.279 98.0379 125.529 97.5947 125.877 97.2386C126.226 96.8788 126.652 96.6098 127.156 96.4318C127.659 96.25 128.216 96.1591 128.826 96.1591C129.246 96.1591 129.665 96.2083 130.082 96.3068C130.498 96.4053 130.879 96.5682 131.224 96.7955C131.568 97.0189 131.845 97.3239 132.053 97.7102C132.265 98.0966 132.371 98.5795 132.371 99.1591V105H130.394V103.801H130.326C130.201 104.044 130.025 104.271 129.798 104.483C129.574 104.691 129.292 104.86 128.951 104.989C128.614 105.114 128.218 105.176 127.763 105.176ZM128.298 103.665C128.71 103.665 129.068 103.583 129.371 103.42C129.674 103.254 129.907 103.034 130.07 102.761C130.237 102.489 130.32 102.191 130.32 101.869V100.841C130.256 100.894 130.146 100.943 129.991 100.989C129.839 101.034 129.669 101.074 129.479 101.108C129.29 101.142 129.103 101.172 128.917 101.199C128.731 101.225 128.57 101.248 128.434 101.267C128.127 101.309 127.853 101.377 127.61 101.472C127.368 101.566 127.176 101.699 127.036 101.869C126.896 102.036 126.826 102.252 126.826 102.517C126.826 102.896 126.964 103.182 127.241 103.375C127.517 103.568 127.87 103.665 128.298 103.665ZM138.798 96.2727V97.8636H133.781V96.2727H138.798ZM135.019 94.1818H137.076V102.375C137.076 102.652 137.118 102.864 137.201 103.011C137.288 103.155 137.402 103.254 137.542 103.307C137.682 103.36 137.837 103.386 138.008 103.386C138.137 103.386 138.254 103.377 138.36 103.358C138.47 103.339 138.553 103.322 138.61 103.307L138.957 104.915C138.847 104.953 138.69 104.994 138.485 105.04C138.284 105.085 138.038 105.112 137.746 105.119C137.231 105.134 136.767 105.057 136.354 104.886C135.942 104.712 135.614 104.443 135.371 104.08C135.133 103.716 135.015 103.261 135.019 102.716V94.1818ZM144.288 105.17C143.413 105.17 142.657 104.989 142.021 104.625C141.388 104.258 140.901 103.739 140.56 103.068C140.219 102.394 140.049 101.6 140.049 100.688C140.049 99.7898 140.219 99.0019 140.56 98.3239C140.905 97.642 141.386 97.1117 142.004 96.733C142.621 96.3504 143.346 96.1591 144.18 96.1591C144.718 96.1591 145.225 96.2462 145.702 96.4205C146.183 96.5909 146.608 96.8561 146.975 97.2159C147.346 97.5758 147.638 98.0341 147.85 98.5909C148.062 99.1439 148.168 99.803 148.168 100.568V101.199H141.015V99.8125H146.197C146.193 99.4186 146.108 99.0682 145.941 98.7614C145.774 98.4508 145.541 98.2064 145.242 98.0284C144.947 97.8504 144.602 97.7614 144.208 97.7614C143.788 97.7614 143.418 97.8636 143.1 98.0682C142.782 98.2689 142.534 98.5341 142.356 98.8636C142.182 99.1894 142.093 99.5473 142.089 99.9375V101.148C142.089 101.655 142.182 102.091 142.367 102.455C142.553 102.814 142.812 103.091 143.146 103.284C143.479 103.473 143.869 103.568 144.316 103.568C144.615 103.568 144.886 103.527 145.129 103.443C145.371 103.356 145.581 103.229 145.759 103.062C145.937 102.896 146.072 102.689 146.163 102.443L148.083 102.659C147.962 103.167 147.731 103.61 147.39 103.989C147.053 104.364 146.621 104.655 146.094 104.864C145.568 105.068 144.966 105.17 144.288 105.17Z" fill="black"/>
<path d="M69.9773 57.1818C69.2235 57.1818 68.5568 56.9905 67.9773 56.608C67.4015 56.2254 66.9508 55.697 66.625 55.0227C66.2992 54.3447 66.1364 53.5625 66.1364 52.6761C66.1364 51.7822 66.2992 50.9962 66.625 50.3182C66.9508 49.6364 67.4015 49.1061 67.9773 48.7273C68.5568 48.3447 69.2235 48.1534 69.9773 48.1534C70.7311 48.1534 71.3958 48.3447 71.9716 48.7273C72.5473 49.1098 72.9981 49.6402 73.3239 50.3182C73.6534 50.9962 73.8182 51.7822 73.8182 52.6761C73.8182 53.5625 73.6553 54.3447 73.3295 55.0227C73.0038 55.697 72.5511 56.2254 71.9716 56.608C71.3958 56.9905 70.7311 57.1818 69.9773 57.1818ZM69.9773 56.2557C70.5833 56.2557 71.0966 56.0928 71.517 55.767C71.9375 55.4413 72.2557 55.0076 72.4716 54.4659C72.6913 53.9242 72.8011 53.3277 72.8011 52.6761C72.8011 52.0246 72.6913 51.4261 72.4716 50.8807C72.2557 50.3352 71.9375 49.8977 71.517 49.5682C71.0966 49.2386 70.5833 49.0739 69.9773 49.0739C69.375 49.0739 68.8617 49.2386 68.4375 49.5682C68.017 49.8977 67.697 50.3352 67.4773 50.8807C67.2614 51.4261 67.1534 52.0246 67.1534 52.6761C67.1534 53.3277 67.2614 53.9242 67.4773 54.4659C67.697 55.0076 68.017 55.4413 68.4375 55.767C68.858 56.0928 69.3712 56.2557 69.9773 56.2557ZM79.6293 48.2727V49.1534H75.3395V48.2727H79.6293ZM76.6804 57V46.9943C76.6804 46.5246 76.7884 46.1288 77.0043 45.8068C77.224 45.4848 77.5099 45.2405 77.8622 45.0739C78.2145 44.9072 78.5876 44.8239 78.9815 44.8239C79.2467 44.8239 79.4664 44.8466 79.6406 44.892C79.8187 44.9337 79.9588 44.9754 80.0611 45.017L79.7656 45.9034C79.6899 45.8807 79.5971 45.8542 79.4872 45.8239C79.3774 45.7936 79.2391 45.7784 79.0724 45.7784C78.633 45.7784 78.294 45.9015 78.0554 46.1477C77.8168 46.3939 77.6974 46.7462 77.6974 47.2045L77.6918 57H76.6804ZM85.2386 48.2727V49.1534H80.9489V48.2727H85.2386ZM82.2898 57V46.9943C82.2898 46.5246 82.3977 46.1288 82.6136 45.8068C82.8333 45.4848 83.1193 45.2405 83.4716 45.0739C83.8239 44.9072 84.197 44.8239 84.5909 44.8239C84.8561 44.8239 85.0758 44.8466 85.25 44.892C85.428 44.9337 85.5682 44.9754 85.6705 45.017L85.375 45.9034C85.2992 45.8807 85.2064 45.8542 85.0966 45.8239C84.9867 45.7936 84.8485 45.7784 84.6818 45.7784C84.2424 45.7784 83.9034 45.9015 83.6648 46.1477C83.4261 46.3939 83.3068 46.7462 83.3068 47.2045L83.3011 57H82.2898ZM90.4261 57.1818C89.6117 57.1818 88.9072 56.9924 88.3125 56.6136C87.7178 56.2311 87.2576 55.7027 86.9318 55.0284C86.6098 54.3504 86.4489 53.5701 86.4489 52.6875C86.4489 51.8087 86.6098 51.0284 86.9318 50.3466C87.2576 49.661 87.7064 49.125 88.2784 48.7386C88.8542 48.3485 89.5189 48.1534 90.2727 48.1534C90.7462 48.1534 91.2027 48.2405 91.642 48.4148C92.0814 48.5852 92.4754 48.8485 92.8239 49.2045C93.1761 49.5568 93.4545 50.0019 93.6591 50.5398C93.8636 51.0739 93.9659 51.7064 93.9659 52.4375V52.9375H87.1477V52.0455H92.9318C92.9318 51.4848 92.8182 50.9811 92.5909 50.5341C92.3674 50.0833 92.0549 49.7273 91.6534 49.4659C91.2557 49.2045 90.7955 49.0739 90.2727 49.0739C89.7197 49.0739 89.233 49.2216 88.8125 49.517C88.392 49.8125 88.0625 50.2027 87.8239 50.6875C87.589 51.1723 87.4697 51.7027 87.4659 52.2784V52.8125C87.4659 53.5057 87.5852 54.1117 87.8239 54.6307C88.0663 55.1458 88.4091 55.5455 88.8523 55.8295C89.2955 56.1136 89.8201 56.2557 90.4261 56.2557C90.839 56.2557 91.2008 56.1913 91.5114 56.0625C91.8258 55.9337 92.089 55.7614 92.3011 55.5455C92.517 55.3258 92.6799 55.0852 92.7898 54.8239L93.75 55.1364C93.6174 55.5038 93.3996 55.8428 93.0966 56.1534C92.7973 56.464 92.4223 56.714 91.9716 56.9034C91.5246 57.089 91.0095 57.1818 90.4261 57.1818ZM97.206 51.5455V57H96.1946V48.2727H97.1776V49.642H97.2685C97.473 49.1951 97.7912 48.8371 98.223 48.5682C98.6586 48.2955 99.1965 48.1591 99.8366 48.1591C100.424 48.1591 100.939 48.2822 101.382 48.5284C101.829 48.7708 102.176 49.1288 102.422 49.6023C102.672 50.0758 102.797 50.6572 102.797 51.3466V57H101.786V51.4091C101.786 50.6932 101.585 50.1269 101.183 49.7102C100.786 49.2936 100.251 49.0852 99.581 49.0852C99.1226 49.0852 98.7154 49.1837 98.3594 49.3807C98.0033 49.5777 97.7211 49.8617 97.5128 50.233C97.3082 50.6004 97.206 51.0379 97.206 51.5455ZM111.324 50.1875L110.398 50.4489C110.307 50.1875 110.178 49.9508 110.011 49.7386C109.845 49.5265 109.627 49.358 109.358 49.233C109.093 49.108 108.763 49.0455 108.369 49.0455C107.778 49.0455 107.294 49.1856 106.915 49.4659C106.536 49.7462 106.347 50.108 106.347 50.5511C106.347 50.9261 106.475 51.2311 106.733 51.4659C106.994 51.697 107.396 51.8807 107.938 52.017L109.256 52.3409C109.987 52.5189 110.534 52.8011 110.898 53.1875C111.265 53.5739 111.449 54.0587 111.449 54.642C111.449 55.1345 111.313 55.572 111.04 55.9545C110.767 56.3371 110.386 56.6383 109.898 56.858C109.413 57.0739 108.85 57.1818 108.21 57.1818C107.358 57.1818 106.655 56.9905 106.102 56.608C105.549 56.2216 105.195 55.6648 105.04 54.9375L106.011 54.6989C106.136 55.2178 106.381 55.6098 106.744 55.875C107.112 56.1402 107.595 56.2727 108.193 56.2727C108.864 56.2727 109.4 56.1231 109.801 55.8239C110.203 55.5208 110.403 55.142 110.403 54.6875C110.403 54.3352 110.286 54.0398 110.051 53.8011C109.816 53.5587 109.46 53.3807 108.983 53.267L107.557 52.9261C106.799 52.7443 106.239 52.4564 105.875 52.0625C105.511 51.6686 105.33 51.1799 105.33 50.5966C105.33 50.1155 105.46 49.6932 105.722 49.3295C105.983 48.9621 106.343 48.6742 106.801 48.4659C107.259 48.2576 107.782 48.1534 108.369 48.1534C109.169 48.1534 109.807 48.3352 110.284 48.6989C110.765 49.0587 111.112 49.5549 111.324 50.1875ZM113.675 57V48.2727H114.692V57H113.675ZM114.192 46.7727C113.983 46.7727 113.805 46.7027 113.658 46.5625C113.51 46.4186 113.436 46.2462 113.436 46.0455C113.436 45.8447 113.51 45.6742 113.658 45.5341C113.805 45.3902 113.983 45.3182 114.192 45.3182C114.4 45.3182 114.578 45.3902 114.726 45.5341C114.874 45.6742 114.947 45.8447 114.947 46.0455C114.947 46.2462 114.874 46.4186 114.726 46.5625C114.578 46.7027 114.4 46.7727 114.192 46.7727ZM124.122 48.2727L120.935 57H119.855L116.668 48.2727H117.764L120.355 55.6648H120.435L123.026 48.2727H124.122ZM129.317 57.1818C128.502 57.1818 127.798 56.9924 127.203 56.6136C126.608 56.2311 126.148 55.7027 125.822 55.0284C125.5 54.3504 125.339 53.5701 125.339 52.6875C125.339 51.8087 125.5 51.0284 125.822 50.3466C126.148 49.661 126.597 49.125 127.169 48.7386C127.745 48.3485 128.41 48.1534 129.163 48.1534C129.637 48.1534 130.093 48.2405 130.533 48.4148C130.972 48.5852 131.366 48.8485 131.714 49.2045C132.067 49.5568 132.345 50.0019 132.55 50.5398C132.754 51.0739 132.857 51.7064 132.857 52.4375V52.9375H126.038V52.0455H131.822C131.822 51.4848 131.709 50.9811 131.482 50.5341C131.258 50.0833 130.946 49.7273 130.544 49.4659C130.146 49.2045 129.686 49.0739 129.163 49.0739C128.61 49.0739 128.124 49.2216 127.703 49.517C127.283 49.8125 126.953 50.2027 126.714 50.6875C126.48 51.1723 126.36 51.7027 126.357 52.2784V52.8125C126.357 53.5057 126.476 54.1117 126.714 54.6307C126.957 55.1458 127.3 55.5455 127.743 55.8295C128.186 56.1136 128.711 56.2557 129.317 56.2557C129.73 56.2557 130.091 56.1913 130.402 56.0625C130.716 55.9337 130.98 55.7614 131.192 55.5455C131.408 55.3258 131.571 55.0852 131.68 54.8239L132.641 55.1364C132.508 55.5038 132.29 55.8428 131.987 56.1534C131.688 56.464 131.313 56.714 130.862 56.9034C130.415 57.089 129.9 57.1818 129.317 57.1818ZM57.4055 79.2727V67.2727H58.3885V68.9375H58.5078C58.629 68.6761 58.7957 68.4091 59.0078 68.1364C59.2199 67.8598 59.5002 67.6269 59.8487 67.4375C60.201 67.2481 60.6442 67.1534 61.1783 67.1534C61.898 67.1534 62.5268 67.3428 63.0646 67.7216C63.6063 68.0966 64.0268 68.6231 64.326 69.3011C64.629 69.9754 64.7805 70.7614 64.7805 71.6591C64.7805 72.5606 64.629 73.3504 64.326 74.0284C64.0268 74.7064 63.6063 75.2348 63.0646 75.6136C62.5268 75.9924 61.9018 76.1818 61.1896 76.1818C60.6631 76.1818 60.2218 76.0871 59.8658 75.8977C59.5135 75.7083 59.2275 75.4754 59.0078 75.1989C58.7919 74.9186 58.6252 74.6458 58.5078 74.3807H58.4169V79.2727H57.4055ZM58.4055 71.642C58.4055 72.3466 58.5097 72.9716 58.718 73.517C58.9302 74.0587 59.2332 74.4848 59.6271 74.7955C60.0249 75.1023 60.5059 75.2557 61.0703 75.2557C61.6499 75.2557 62.1385 75.0966 62.5362 74.7784C62.9377 74.4564 63.2427 74.0227 63.451 73.4773C63.6631 72.9318 63.7692 72.3201 63.7692 71.642C63.7692 70.9716 63.665 70.3674 63.4567 69.8295C63.2521 69.2917 62.9491 68.8655 62.5476 68.5511C62.1461 68.233 61.6536 68.0739 61.0703 68.0739C60.5021 68.0739 60.0192 68.2273 59.6214 68.5341C59.2237 68.8371 58.9207 69.2576 58.7124 69.7955C58.5078 70.3295 58.4055 70.9451 58.4055 71.642ZM70.5277 76.1818C69.7133 76.1818 69.0088 75.9924 68.4141 75.6136C67.8194 75.2311 67.3591 74.7027 67.0334 74.0284C66.7114 73.3504 66.5504 72.5701 66.5504 71.6875C66.5504 70.8087 66.7114 70.0284 67.0334 69.3466C67.3591 68.661 67.808 68.125 68.38 67.7386C68.9557 67.3485 69.6205 67.1534 70.3743 67.1534C70.8478 67.1534 71.3042 67.2405 71.7436 67.4148C72.183 67.5852 72.5769 67.8485 72.9254 68.2045C73.2777 68.5568 73.5561 69.0019 73.7607 69.5398C73.9652 70.0739 74.0675 70.7064 74.0675 71.4375V71.9375H67.2493V71.0455H73.0334C73.0334 70.4848 72.9197 69.9811 72.6925 69.5341C72.469 69.0833 72.1565 68.7273 71.755 68.4659C71.3572 68.2045 70.897 68.0739 70.3743 68.0739C69.8213 68.0739 69.3345 68.2216 68.9141 68.517C68.4936 68.8125 68.1641 69.2027 67.9254 69.6875C67.6906 70.1723 67.5713 70.7027 67.5675 71.2784V71.8125C67.5675 72.5057 67.6868 73.1117 67.9254 73.6307C68.1679 74.1458 68.5107 74.5455 68.9538 74.8295C69.397 75.1136 69.9216 75.2557 70.5277 75.2557C70.9406 75.2557 71.3023 75.1913 71.6129 75.0625C71.9273 74.9337 72.1906 74.7614 72.4027 74.5455C72.6186 74.3258 72.7815 74.0852 72.8913 73.8239L73.8516 74.1364C73.719 74.5038 73.5012 74.8428 73.1982 75.1534C72.8989 75.464 72.5239 75.714 72.0732 75.9034C71.6262 76.089 71.111 76.1818 70.5277 76.1818ZM77.3075 70.5455V76H76.2962V67.2727H77.2791V68.642H77.37C77.5746 68.1951 77.8928 67.8371 78.3246 67.5682C78.7602 67.2955 79.2981 67.1591 79.9382 67.1591C80.5253 67.1591 81.0405 67.2822 81.4837 67.5284C81.9306 67.7708 82.2772 68.1288 82.5234 68.6023C82.7734 69.0758 82.8984 69.6572 82.8984 70.3466V76H81.8871V70.4091C81.8871 69.6932 81.6863 69.1269 81.2848 68.7102C80.8871 68.2936 80.353 68.0852 79.6825 68.0852C79.2242 68.0852 78.817 68.1837 78.4609 68.3807C78.1049 68.5777 77.8227 68.8617 77.6143 69.233C77.4098 69.6004 77.3075 70.0379 77.3075 70.5455ZM90.272 70.5341V71.4886H85.4311V70.5341H90.272ZM96.2493 67.2727V68.1534H92.0845V67.2727H96.2493ZM93.3857 65.1818H94.4027V73.7216C94.4027 74.0852 94.4652 74.3712 94.5902 74.5795C94.7152 74.7841 94.8781 74.9299 95.0788 75.017C95.2796 75.1004 95.4936 75.142 95.7209 75.142C95.8535 75.142 95.9671 75.1345 96.0618 75.1193C96.1565 75.1004 96.2398 75.0814 96.3118 75.0625L96.5277 75.9773C96.4292 76.0152 96.308 76.0492 96.1641 76.0795C96.0201 76.1136 95.8421 76.1307 95.63 76.1307C95.2588 76.1307 94.9008 76.0492 94.5561 75.8864C94.2152 75.7235 93.9349 75.4811 93.7152 75.1591C93.4955 74.8371 93.3857 74.4375 93.3857 73.9602V65.1818ZM101.981 76.1818C101.166 76.1818 100.462 75.9924 99.8672 75.6136C99.2725 75.2311 98.8123 74.7027 98.4865 74.0284C98.1645 73.3504 98.0036 72.5701 98.0036 71.6875C98.0036 70.8087 98.1645 70.0284 98.4865 69.3466C98.8123 68.661 99.2611 68.125 99.8331 67.7386C100.409 67.3485 101.074 67.1534 101.827 67.1534C102.301 67.1534 102.757 67.2405 103.197 67.4148C103.636 67.5852 104.03 67.8485 104.379 68.2045C104.731 68.5568 105.009 69.0019 105.214 69.5398C105.418 70.0739 105.521 70.7064 105.521 71.4375V71.9375H98.7024V71.0455H104.487C104.487 70.4848 104.373 69.9811 104.146 69.5341C103.922 69.0833 103.61 68.7273 103.208 68.4659C102.81 68.2045 102.35 68.0739 101.827 68.0739C101.274 68.0739 100.788 68.2216 100.367 68.517C99.9467 68.8125 99.6172 69.2027 99.3786 69.6875C99.1437 70.1723 99.0244 70.7027 99.0206 71.2784V71.8125C99.0206 72.5057 99.1399 73.1117 99.3786 73.6307C99.621 74.1458 99.9638 74.5455 100.407 74.8295C100.85 75.1136 101.375 75.2557 101.981 75.2557C102.394 75.2557 102.755 75.1913 103.066 75.0625C103.38 74.9337 103.644 74.7614 103.856 74.5455C104.072 74.3258 104.235 74.0852 104.344 73.8239L105.305 74.1364C105.172 74.5038 104.954 74.8428 104.651 75.1534C104.352 75.464 103.977 75.714 103.526 75.9034C103.079 76.089 102.564 76.1818 101.981 76.1818ZM113.613 69.1875L112.687 69.4489C112.596 69.1875 112.467 68.9508 112.3 68.7386C112.134 68.5265 111.916 68.358 111.647 68.233C111.382 68.108 111.052 68.0455 110.658 68.0455C110.067 68.0455 109.583 68.1856 109.204 68.4659C108.825 68.7462 108.636 69.108 108.636 69.5511C108.636 69.9261 108.764 70.2311 109.022 70.4659C109.283 70.697 109.685 70.8807 110.227 71.017L111.545 71.3409C112.276 71.5189 112.823 71.8011 113.187 72.1875C113.554 72.5739 113.738 73.0587 113.738 73.642C113.738 74.1345 113.602 74.572 113.329 74.9545C113.056 75.3371 112.675 75.6383 112.187 75.858C111.702 76.0739 111.139 76.1818 110.499 76.1818C109.647 76.1818 108.944 75.9905 108.391 75.608C107.838 75.2216 107.484 74.6648 107.329 73.9375L108.3 73.6989C108.425 74.2178 108.67 74.6098 109.033 74.875C109.401 75.1402 109.884 75.2727 110.482 75.2727C111.153 75.2727 111.689 75.1231 112.09 74.8239C112.492 74.5208 112.692 74.142 112.692 73.6875C112.692 73.3352 112.575 73.0398 112.34 72.8011C112.105 72.5587 111.749 72.3807 111.272 72.267L109.846 71.9261C109.088 71.7443 108.528 71.4564 108.164 71.0625C107.8 70.6686 107.619 70.1799 107.619 69.5966C107.619 69.1155 107.749 68.6932 108.011 68.3295C108.272 67.9621 108.632 67.6742 109.09 67.4659C109.549 67.2576 110.071 67.1534 110.658 67.1534C111.458 67.1534 112.096 67.3352 112.573 67.6989C113.054 68.0587 113.401 68.5549 113.613 69.1875ZM119.39 67.2727V68.1534H115.225V67.2727H119.39ZM116.526 65.1818H117.543V73.7216C117.543 74.0852 117.606 74.3712 117.731 74.5795C117.856 74.7841 118.019 74.9299 118.219 75.017C118.42 75.1004 118.634 75.142 118.862 75.142C118.994 75.142 119.108 75.1345 119.202 75.1193C119.297 75.1004 119.38 75.0814 119.452 75.0625L119.668 75.9773C119.57 76.0152 119.449 76.0492 119.305 76.0795C119.161 76.1136 118.983 76.1307 118.771 76.1307C118.399 76.1307 118.041 76.0492 117.697 75.8864C117.356 75.7235 117.076 75.4811 116.856 75.1591C116.636 74.8371 116.526 74.4375 116.526 73.9602V65.1818ZM121.698 76V67.2727H122.715V76H121.698ZM122.215 65.7727C122.007 65.7727 121.829 65.7027 121.681 65.5625C121.533 65.4186 121.46 65.2462 121.46 65.0455C121.46 64.8447 121.533 64.6742 121.681 64.5341C121.829 64.3902 122.007 64.3182 122.215 64.3182C122.424 64.3182 122.602 64.3902 122.749 64.5341C122.897 64.6742 122.971 64.8447 122.971 65.0455C122.971 65.2462 122.897 65.4186 122.749 65.5625C122.602 65.7027 122.424 65.7727 122.215 65.7727ZM126.401 70.5455V76H125.39V67.2727H126.373V68.642H126.464C126.668 68.1951 126.987 67.8371 127.418 67.5682C127.854 67.2955 128.392 67.1591 129.032 67.1591C129.619 67.1591 130.134 67.2822 130.577 67.5284C131.024 67.7708 131.371 68.1288 131.617 68.6023C131.867 69.0758 131.992 69.6572 131.992 70.3466V76H130.981V70.4091C130.981 69.6932 130.78 69.1269 130.379 68.7102C129.981 68.2936 129.447 68.0852 128.776 68.0852C128.318 68.0852 127.911 68.1837 127.555 68.3807C127.199 68.5777 126.916 68.8617 126.708 69.233C126.504 69.6004 126.401 70.0379 126.401 70.5455ZM137.985 79.4545C137.39 79.4545 136.87 79.3769 136.423 79.2216C135.976 79.0701 135.599 78.8617 135.292 78.5966C134.985 78.3314 134.746 78.0341 134.576 77.7045L135.406 77.1591C135.531 77.3788 135.697 77.5947 135.906 77.8068C136.118 78.0189 136.392 78.1951 136.729 78.3352C137.07 78.4754 137.489 78.5455 137.985 78.5455C138.758 78.5455 139.381 78.3523 139.854 77.9659C140.332 77.5795 140.57 76.9792 140.57 76.1648V74.1989H140.479C140.362 74.464 140.193 74.7292 139.974 74.9943C139.754 75.2557 139.466 75.4735 139.11 75.6477C138.758 75.822 138.32 75.9091 137.798 75.9091C137.101 75.9091 136.481 75.7367 135.94 75.392C135.402 75.0473 134.978 74.5549 134.667 73.9148C134.36 73.2708 134.207 72.5038 134.207 71.6136C134.207 70.7311 134.356 69.9545 134.656 69.2841C134.959 68.6136 135.381 68.0909 135.923 67.7159C136.464 67.3409 137.095 67.1534 137.815 67.1534C138.349 67.1534 138.792 67.2481 139.144 67.4375C139.496 67.6231 139.779 67.8542 139.991 68.1307C140.207 68.4072 140.375 68.6761 140.496 68.9375H140.599V67.2727H141.587V76.2273C141.587 76.9659 141.43 77.5739 141.116 78.0511C140.801 78.5284 140.373 78.8807 139.832 79.108C139.29 79.339 138.674 79.4545 137.985 79.4545ZM137.917 74.983C138.478 74.983 138.957 74.8485 139.354 74.5795C139.752 74.3068 140.057 73.9167 140.269 73.4091C140.481 72.9015 140.587 72.2973 140.587 71.5966C140.587 70.9148 140.483 70.3106 140.275 69.7841C140.067 69.2538 139.763 68.8371 139.366 68.5341C138.972 68.2273 138.489 68.0739 137.917 68.0739C137.334 68.0739 136.841 68.2311 136.44 68.5455C136.038 68.8598 135.735 69.2841 135.531 69.8182C135.326 70.3485 135.224 70.9413 135.224 71.5966C135.224 72.2633 135.328 72.8523 135.536 73.3636C135.745 73.8712 136.049 74.2689 136.451 74.5568C136.853 74.8409 137.341 74.983 137.917 74.983Z" fill="black"/>
<path d="M67.9098 154.159C67.1939 154.159 66.5537 154.03 65.9893 153.773C65.425 153.511 64.978 153.15 64.6484 152.688C64.3189 152.225 64.1446 151.693 64.1257 151.091H65.1996C65.2185 151.515 65.3492 151.886 65.5916 152.205C65.834 152.519 66.156 152.765 66.5575 152.943C66.959 153.117 67.406 153.205 67.8984 153.205C68.4363 153.205 68.9098 153.104 69.3189 152.903C69.7318 152.703 70.0537 152.428 70.2848 152.08C70.5196 151.727 70.6371 151.33 70.6371 150.886C70.6371 150.417 70.5178 150.002 70.2791 149.642C70.0405 149.282 69.6977 149.002 69.2507 148.801C68.8075 148.6 68.2772 148.5 67.6598 148.5H66.978V147.545H67.6598C68.1636 147.545 68.6087 147.455 68.995 147.273C69.3852 147.087 69.692 146.828 69.9155 146.494C70.139 146.161 70.2507 145.769 70.2507 145.318C70.2507 144.89 70.1541 144.513 69.9609 144.188C69.7678 143.862 69.495 143.606 69.1428 143.42C68.7943 143.235 68.3871 143.142 67.9212 143.142C67.4704 143.142 67.0575 143.229 66.6825 143.403C66.3075 143.578 66.0045 143.824 65.7734 144.142C65.5462 144.46 65.425 144.837 65.4098 145.273H64.3814C64.3965 144.667 64.5632 144.134 64.8814 143.676C65.2034 143.214 65.6295 142.854 66.1598 142.597C66.6939 142.335 67.2848 142.205 67.9325 142.205C68.6181 142.205 69.2109 142.345 69.7109 142.625C70.2109 142.905 70.5973 143.278 70.87 143.744C71.1465 144.206 71.2848 144.716 71.2848 145.273C71.2848 145.936 71.1049 146.504 70.745 146.977C70.3852 147.447 69.9003 147.773 69.2905 147.955V148.028C70.0329 148.176 70.6162 148.506 71.0405 149.017C71.4685 149.525 71.6825 150.148 71.6825 150.886C71.6825 151.508 71.5196 152.066 71.1939 152.562C70.8681 153.055 70.4212 153.445 69.853 153.733C69.2886 154.017 68.6409 154.159 67.9098 154.159ZM74.6186 154.085C74.3951 154.085 74.2019 154.006 74.0391 153.847C73.88 153.684 73.8004 153.491 73.8004 153.267C73.8004 153.04 73.88 152.847 74.0391 152.688C74.2019 152.528 74.3951 152.449 74.6186 152.449C74.8459 152.449 75.0391 152.528 75.1982 152.688C75.3572 152.847 75.4368 153.04 75.4368 153.267C75.4368 153.415 75.3989 153.551 75.3232 153.676C75.2512 153.801 75.1527 153.902 75.0277 153.977C74.9065 154.049 74.7701 154.085 74.6186 154.085ZM81.3161 154.159C80.6683 154.159 80.0888 154.028 79.5774 153.767C79.0698 153.502 78.6645 153.138 78.3615 152.676C78.0623 152.214 77.9032 151.686 77.8842 151.091H78.9126C78.9467 151.708 79.1892 152.216 79.6399 152.614C80.0907 153.008 80.6494 153.205 81.3161 153.205C81.835 153.205 82.2971 153.081 82.7024 152.835C83.1077 152.585 83.424 152.244 83.6513 151.812C83.8823 151.377 83.9979 150.886 83.9979 150.341C83.9941 149.773 83.871 149.273 83.6286 148.841C83.3861 148.405 83.0566 148.064 82.6399 147.818C82.227 147.572 81.763 147.449 81.2479 147.449C80.8577 147.445 80.4751 147.509 80.1001 147.642C79.7251 147.775 79.4126 147.945 79.1626 148.153L78.1001 148.017L78.799 142.364H84.549V143.318H79.6911L79.2251 147.21H79.282C79.5395 146.994 79.852 146.818 80.2195 146.682C80.5907 146.545 80.9827 146.477 81.3956 146.477C82.0812 146.477 82.6967 146.642 83.2422 146.972C83.7914 147.301 84.2251 147.756 84.5433 148.335C84.8653 148.911 85.0263 149.574 85.0263 150.324C85.0263 151.059 84.8653 151.716 84.5433 152.295C84.2251 152.871 83.7857 153.326 83.2251 153.659C82.6683 153.992 82.032 154.159 81.3161 154.159ZM92.6882 157.273C92.4875 157.273 92.3 157.254 92.1257 157.216C91.9515 157.178 91.8132 157.136 91.7109 157.091L91.9837 156.199C92.3284 156.305 92.6352 156.343 92.9041 156.312C93.1731 156.286 93.4117 156.165 93.62 155.949C93.8284 155.737 94.014 155.411 94.1768 154.972L94.495 154.085L91.2848 145.273H92.3814L94.9723 152.665H95.0518L97.6428 145.273H98.7393L95.0462 155.381C94.8909 155.801 94.6996 156.152 94.4723 156.432C94.245 156.716 93.9818 156.926 93.6825 157.062C93.3871 157.203 93.0556 157.273 92.6882 157.273ZM103.934 154.182C103.12 154.182 102.415 153.992 101.82 153.614C101.226 153.231 100.765 152.703 100.44 152.028C100.118 151.35 99.9567 150.57 99.9567 149.688C99.9567 148.809 100.118 148.028 100.44 147.347C100.765 146.661 101.214 146.125 101.786 145.739C102.362 145.348 103.027 145.153 103.781 145.153C104.254 145.153 104.71 145.241 105.15 145.415C105.589 145.585 105.983 145.848 106.332 146.205C106.684 146.557 106.962 147.002 107.167 147.54C107.371 148.074 107.474 148.706 107.474 149.438V149.938H100.656V149.045H106.44C106.44 148.485 106.326 147.981 106.099 147.534C105.875 147.083 105.563 146.727 105.161 146.466C104.763 146.205 104.303 146.074 103.781 146.074C103.228 146.074 102.741 146.222 102.32 146.517C101.9 146.812 101.57 147.203 101.332 147.688C101.097 148.172 100.978 148.703 100.974 149.278V149.812C100.974 150.506 101.093 151.112 101.332 151.631C101.574 152.146 101.917 152.545 102.36 152.83C102.803 153.114 103.328 153.256 103.934 153.256C104.347 153.256 104.709 153.191 105.019 153.062C105.334 152.934 105.597 152.761 105.809 152.545C106.025 152.326 106.188 152.085 106.298 151.824L107.258 152.136C107.125 152.504 106.907 152.843 106.604 153.153C106.305 153.464 105.93 153.714 105.479 153.903C105.032 154.089 104.517 154.182 103.934 154.182ZM112.14 154.199C111.613 154.199 111.132 154.097 110.697 153.892C110.261 153.684 109.915 153.384 109.657 152.994C109.399 152.6 109.271 152.123 109.271 151.562C109.271 151.131 109.352 150.767 109.515 150.472C109.678 150.176 109.909 149.934 110.208 149.744C110.507 149.555 110.862 149.405 111.271 149.295C111.68 149.186 112.13 149.1 112.623 149.04C113.112 148.979 113.524 148.926 113.862 148.881C114.202 148.835 114.462 148.763 114.64 148.665C114.818 148.566 114.907 148.407 114.907 148.188V147.983C114.907 147.388 114.729 146.92 114.373 146.58C114.021 146.235 113.513 146.062 112.85 146.062C112.221 146.062 111.708 146.201 111.31 146.477C110.916 146.754 110.64 147.08 110.481 147.455L109.521 147.108C109.718 146.631 109.99 146.25 110.339 145.966C110.687 145.678 111.077 145.472 111.509 145.347C111.941 145.218 112.379 145.153 112.822 145.153C113.155 145.153 113.502 145.197 113.862 145.284C114.225 145.371 114.562 145.523 114.873 145.739C115.183 145.951 115.435 146.248 115.629 146.631C115.822 147.009 115.918 147.491 115.918 148.074V154H114.907V152.619H114.844C114.723 152.877 114.543 153.127 114.305 153.369C114.066 153.612 113.767 153.811 113.407 153.966C113.047 154.121 112.625 154.199 112.14 154.199ZM112.276 153.273C112.814 153.273 113.28 153.153 113.674 152.915C114.068 152.676 114.371 152.36 114.583 151.966C114.799 151.568 114.907 151.131 114.907 150.653V149.392C114.831 149.464 114.704 149.528 114.526 149.585C114.352 149.642 114.149 149.693 113.918 149.739C113.691 149.78 113.464 149.816 113.237 149.847C113.009 149.877 112.805 149.903 112.623 149.926C112.13 149.987 111.71 150.081 111.362 150.21C111.013 150.339 110.746 150.517 110.56 150.744C110.375 150.968 110.282 151.256 110.282 151.608C110.282 152.138 110.471 152.549 110.85 152.841C111.229 153.129 111.704 153.273 112.276 153.273ZM118.609 154V145.273H119.592V146.614H119.665C119.84 146.174 120.143 145.82 120.575 145.551C121.01 145.278 121.503 145.142 122.052 145.142C122.135 145.142 122.228 145.144 122.33 145.148C122.433 145.152 122.518 145.155 122.586 145.159V146.188C122.54 146.18 122.461 146.169 122.347 146.153C122.234 146.138 122.111 146.131 121.978 146.131C121.523 146.131 121.118 146.227 120.762 146.42C120.41 146.61 120.131 146.873 119.927 147.21C119.722 147.547 119.62 147.932 119.62 148.364V154H118.609ZM127.543 141.818L123.793 155.75H122.844L126.594 141.818H127.543ZM135.16 147.188L134.234 147.449C134.143 147.187 134.014 146.951 133.847 146.739C133.681 146.527 133.463 146.358 133.194 146.233C132.929 146.108 132.599 146.045 132.205 146.045C131.614 146.045 131.129 146.186 130.751 146.466C130.372 146.746 130.183 147.108 130.183 147.551C130.183 147.926 130.311 148.231 130.569 148.466C130.83 148.697 131.232 148.881 131.773 149.017L133.092 149.341C133.823 149.519 134.37 149.801 134.734 150.188C135.101 150.574 135.285 151.059 135.285 151.642C135.285 152.134 135.148 152.572 134.876 152.955C134.603 153.337 134.222 153.638 133.734 153.858C133.249 154.074 132.686 154.182 132.046 154.182C131.194 154.182 130.491 153.991 129.938 153.608C129.385 153.222 129.031 152.665 128.876 151.938L129.847 151.699C129.972 152.218 130.217 152.61 130.58 152.875C130.948 153.14 131.431 153.273 132.029 153.273C132.7 153.273 133.236 153.123 133.637 152.824C134.039 152.521 134.239 152.142 134.239 151.688C134.239 151.335 134.122 151.04 133.887 150.801C133.652 150.559 133.296 150.381 132.819 150.267L131.393 149.926C130.635 149.744 130.075 149.456 129.711 149.062C129.347 148.669 129.165 148.18 129.165 147.597C129.165 147.116 129.296 146.693 129.558 146.33C129.819 145.962 130.179 145.674 130.637 145.466C131.095 145.258 131.618 145.153 132.205 145.153C133.004 145.153 133.643 145.335 134.12 145.699C134.601 146.059 134.948 146.555 135.16 147.188Z" fill="black"/>
<defs>
<filter id="filter0_d_181_872" x="9.39746" y="0" width="181.205" height="208" filterUnits="userSpaceOnUse" color-interpolation-filters="sRGB">
<feFlood flood-opacity="0" result="BackgroundImageFix"/>
<feColorMatrix in="SourceAlpha" type="matrix" values="0 0 0 0 0 0 0 0 0 0 0 0 0 0 0 0 0 0 127 0" result="hardAlpha"/>
<feOffset dy="4"/>
<feGaussianBlur stdDeviation="2"/>
<feComposite in2="hardAlpha" operator="out"/>
<feColorMatrix type="matrix" values="0 0 0 0 0 0 0 0 0 0 0 0 0 0 0 0 0 0 0.25 0"/>
<feBlend mode="normal" in2="BackgroundImageFix" result="effect1_dropShadow_181_872"/>
<feBlend mode="normal" in="SourceGraphic" in2="effect1_dropShadow_181_872" result="shape"/>
</filter>
</defs>
</svg>
