<svg width="200" height="208" viewBox="0 0 200 208" fill="none" xmlns="http://www.w3.org/2000/svg">
<g filter="url(#filter0_d_157_927)">
<path d="M100 0L186.603 50V150L100 200L13.3975 150V50L100 0Z" fill="white"/>
<path d="M14.3975 50.5774L100 1.1547L185.603 50.5774V149.423L100 198.845L14.3975 149.423V50.5774Z" stroke="#2CC140" stroke-width="2"/>
</g>
<path d="M53.4041 93.3636V105H51.2962V93.3636H53.4041ZM57.6527 99.8864V105H55.5959V96.2727H57.5618V97.7557H57.6641C57.8648 97.267 58.1849 96.8788 58.6243 96.5909C59.0675 96.303 59.6148 96.1591 60.2663 96.1591C60.8686 96.1591 61.3932 96.2879 61.8402 96.5455C62.291 96.803 62.6394 97.1761 62.8857 97.6648C63.1357 98.1534 63.2588 98.7462 63.255 99.4432V105H61.1982V99.7614C61.1982 99.178 61.0466 98.7216 60.7436 98.392C60.4444 98.0625 60.0296 97.8977 59.4993 97.8977C59.1394 97.8977 58.8194 97.9773 58.5391 98.1364C58.2625 98.2917 58.0447 98.517 57.8857 98.8125C57.7304 99.108 57.6527 99.4659 57.6527 99.8864ZM69.7038 96.2727V97.8636H64.6868V96.2727H69.7038ZM65.9254 94.1818H67.9822V102.375C67.9822 102.652 68.0239 102.864 68.1072 103.011C68.1944 103.155 68.308 103.254 68.4482 103.307C68.5883 103.36 68.7436 103.386 68.9141 103.386C69.0429 103.386 69.1603 103.377 69.2663 103.358C69.3762 103.339 69.4595 103.322 69.5163 103.307L69.8629 104.915C69.7531 104.953 69.5959 104.994 69.3913 105.04C69.1906 105.085 68.9444 105.112 68.6527 105.119C68.1375 105.134 67.6735 105.057 67.2607 104.886C66.8478 104.712 66.5201 104.443 66.2777 104.08C66.0391 103.716 65.9216 103.261 65.9254 102.716V94.1818ZM75.1939 105.17C74.3189 105.17 73.5632 104.989 72.9268 104.625C72.2943 104.258 71.8075 103.739 71.4666 103.068C71.1257 102.394 70.9553 101.6 70.9553 100.688C70.9553 99.7898 71.1257 99.0019 71.4666 98.3239C71.8113 97.642 72.2924 97.1117 72.9098 96.733C73.5272 96.3504 74.2526 96.1591 75.0859 96.1591C75.6238 96.1591 76.1314 96.2462 76.6087 96.4205C77.0897 96.5909 77.514 96.8561 77.8814 97.2159C78.2526 97.5758 78.5443 98.0341 78.7564 98.5909C78.9685 99.1439 79.0746 99.803 79.0746 100.568V101.199H71.9212V99.8125H77.103C77.0992 99.4186 77.014 99.0682 76.8473 98.7614C76.6806 98.4508 76.4477 98.2064 76.1484 98.0284C75.853 97.8504 75.5083 97.7614 75.1143 97.7614C74.6939 97.7614 74.3246 97.8636 74.0064 98.0682C73.6882 98.2689 73.4401 98.5341 73.2621 98.8636C73.0878 99.1894 72.9988 99.5473 72.995 99.9375V101.148C72.995 101.655 73.0878 102.091 73.2734 102.455C73.459 102.814 73.7185 103.091 74.0518 103.284C74.3852 103.473 74.7753 103.568 75.2223 103.568C75.5215 103.568 75.7924 103.527 76.0348 103.443C76.2772 103.356 76.4875 103.229 76.6655 103.062C76.8435 102.896 76.978 102.689 77.0689 102.443L78.9893 102.659C78.8681 103.167 78.6371 103.61 78.2962 103.989C77.959 104.364 77.5272 104.655 77.0007 104.864C76.4742 105.068 75.8719 105.17 75.1939 105.17ZM80.8146 105V96.2727H82.8089V97.7273H82.8999C83.0589 97.2235 83.3317 96.8352 83.718 96.5625C84.1082 96.286 84.5533 96.1477 85.0533 96.1477C85.1669 96.1477 85.2938 96.1534 85.4339 96.1648C85.5779 96.1723 85.6972 96.1856 85.7919 96.2045V98.0966C85.7048 98.0663 85.5665 98.0398 85.3771 98.017C85.1915 97.9905 85.0116 97.9773 84.8374 97.9773C84.4624 97.9773 84.1252 98.0587 83.826 98.2216C83.5305 98.3807 83.2976 98.6023 83.1271 98.8864C82.9567 99.1705 82.8714 99.4981 82.8714 99.8693V105H80.8146ZM87.1584 105V96.2727H89.1243V97.7557H89.2266C89.4084 97.2557 89.7095 96.8655 90.13 96.5852C90.5504 96.3011 91.0523 96.1591 91.6357 96.1591C92.2266 96.1591 92.7247 96.303 93.13 96.5909C93.5391 96.875 93.8269 97.2633 93.9936 97.7557H94.0845C94.2777 97.2708 94.6035 96.8845 95.0618 96.5966C95.5239 96.3049 96.0713 96.1591 96.7038 96.1591C97.5069 96.1591 98.1622 96.4129 98.6697 96.9205C99.1773 97.428 99.4311 98.1686 99.4311 99.142V105H97.3686V99.4602C97.3686 98.9186 97.2247 98.5227 96.9368 98.2727C96.6489 98.0189 96.2966 97.892 95.88 97.892C95.3838 97.892 94.9955 98.0473 94.7152 98.358C94.4387 98.6648 94.3004 99.0644 94.3004 99.5568V105H92.2834V99.375C92.2834 98.9242 92.147 98.5644 91.8743 98.2955C91.6054 98.0265 91.2531 97.892 90.8175 97.892C90.522 97.892 90.2531 97.9678 90.0107 98.1193C89.7682 98.267 89.575 98.4773 89.4311 98.75C89.2872 99.0189 89.2152 99.3333 89.2152 99.6932V105H87.1584ZM105.381 105.17C104.506 105.17 103.751 104.989 103.114 104.625C102.482 104.258 101.995 103.739 101.654 103.068C101.313 102.394 101.143 101.6 101.143 100.688C101.143 99.7898 101.313 99.0019 101.654 98.3239C101.999 97.642 102.48 97.1117 103.097 96.733C103.715 96.3504 104.44 96.1591 105.273 96.1591C105.811 96.1591 106.319 96.2462 106.796 96.4205C107.277 96.5909 107.701 96.8561 108.069 97.2159C108.44 97.5758 108.732 98.0341 108.944 98.5909C109.156 99.1439 109.262 99.803 109.262 100.568V101.199H102.109V99.8125H107.29C107.287 99.4186 107.201 99.0682 107.035 98.7614C106.868 98.4508 106.635 98.2064 106.336 98.0284C106.04 97.8504 105.696 97.7614 105.302 97.7614C104.881 97.7614 104.512 97.8636 104.194 98.0682C103.876 98.2689 103.628 98.5341 103.45 98.8636C103.275 99.1894 103.186 99.5473 103.183 99.9375V101.148C103.183 101.655 103.275 102.091 103.461 102.455C103.647 102.814 103.906 103.091 104.239 103.284C104.573 103.473 104.963 103.568 105.41 103.568C105.709 103.568 105.98 103.527 106.222 103.443C106.465 103.356 106.675 103.229 106.853 103.062C107.031 102.896 107.165 102.689 107.256 102.443L109.177 102.659C109.056 103.167 108.825 103.61 108.484 103.989C108.147 104.364 107.715 104.655 107.188 104.864C106.662 105.068 106.059 105.17 105.381 105.17ZM114.241 105.153C113.555 105.153 112.942 104.977 112.4 104.625C111.858 104.273 111.43 103.761 111.116 103.091C110.801 102.42 110.644 101.606 110.644 100.648C110.644 99.678 110.803 98.8598 111.121 98.1932C111.443 97.5227 111.877 97.017 112.423 96.6761C112.968 96.3314 113.576 96.1591 114.246 96.1591C114.758 96.1591 115.178 96.2462 115.508 96.4205C115.837 96.5909 116.099 96.7973 116.292 97.0398C116.485 97.2784 116.635 97.5038 116.741 97.7159H116.826V93.3636H118.888V105H116.866V103.625H116.741C116.635 103.837 116.481 104.062 116.281 104.301C116.08 104.536 115.815 104.737 115.485 104.903C115.156 105.07 114.741 105.153 114.241 105.153ZM114.815 103.466C115.25 103.466 115.621 103.348 115.928 103.114C116.235 102.875 116.468 102.544 116.627 102.119C116.786 101.695 116.866 101.201 116.866 100.636C116.866 100.072 116.786 99.5814 116.627 99.1648C116.472 98.7481 116.241 98.4242 115.934 98.1932C115.631 97.9621 115.258 97.8466 114.815 97.8466C114.356 97.8466 113.974 97.9659 113.667 98.2045C113.36 98.4432 113.129 98.7727 112.974 99.1932C112.818 99.6136 112.741 100.095 112.741 100.636C112.741 101.182 112.818 101.669 112.974 102.097C113.133 102.521 113.366 102.856 113.673 103.102C113.983 103.345 114.364 103.466 114.815 103.466ZM121.08 105V96.2727H123.137V105H121.08ZM122.114 95.0341C121.789 95.0341 121.508 94.9261 121.273 94.7102C121.039 94.4905 120.921 94.2273 120.921 93.9205C120.921 93.6098 121.039 93.3466 121.273 93.1307C121.508 92.911 121.789 92.8011 122.114 92.8011C122.444 92.8011 122.724 92.911 122.955 93.1307C123.19 93.3466 123.308 93.6098 123.308 93.9205C123.308 94.2273 123.19 94.4905 122.955 94.7102C122.724 94.9261 122.444 95.0341 122.114 95.0341ZM127.763 105.176C127.21 105.176 126.712 105.078 126.269 104.881C125.83 104.68 125.481 104.384 125.224 103.994C124.97 103.604 124.843 103.123 124.843 102.551C124.843 102.059 124.934 101.652 125.116 101.33C125.298 101.008 125.546 100.75 125.86 100.557C126.174 100.364 126.529 100.218 126.923 100.119C127.32 100.017 127.731 99.9432 128.156 99.8977C128.667 99.8447 129.082 99.7973 129.4 99.7557C129.718 99.7102 129.949 99.642 130.093 99.5511C130.241 99.4564 130.315 99.3106 130.315 99.1136V99.0795C130.315 98.6515 130.188 98.3201 129.934 98.0852C129.68 97.8504 129.315 97.733 128.837 97.733C128.334 97.733 127.934 97.8428 127.638 98.0625C127.347 98.2822 127.15 98.5417 127.048 98.8409L125.127 98.5682C125.279 98.0379 125.529 97.5947 125.877 97.2386C126.226 96.8788 126.652 96.6098 127.156 96.4318C127.659 96.25 128.216 96.1591 128.826 96.1591C129.246 96.1591 129.665 96.2083 130.082 96.3068C130.498 96.4053 130.879 96.5682 131.224 96.7955C131.568 97.0189 131.845 97.3239 132.053 97.7102C132.265 98.0966 132.371 98.5795 132.371 99.1591V105H130.394V103.801H130.326C130.201 104.044 130.025 104.271 129.798 104.483C129.574 104.691 129.292 104.86 128.951 104.989C128.614 105.114 128.218 105.176 127.763 105.176ZM128.298 103.665C128.71 103.665 129.068 103.583 129.371 103.42C129.674 103.254 129.907 103.034 130.07 102.761C130.237 102.489 130.32 102.191 130.32 101.869V100.841C130.256 100.894 130.146 100.943 129.991 100.989C129.839 101.034 129.669 101.074 129.479 101.108C129.29 101.142 129.103 101.172 128.917 101.199C128.731 101.225 128.57 101.248 128.434 101.267C128.127 101.309 127.853 101.377 127.61 101.472C127.368 101.566 127.176 101.699 127.036 101.869C126.896 102.036 126.826 102.252 126.826 102.517C126.826 102.896 126.964 103.182 127.241 103.375C127.517 103.568 127.87 103.665 128.298 103.665ZM138.798 96.2727V97.8636H133.781V96.2727H138.798ZM135.019 94.1818H137.076V102.375C137.076 102.652 137.118 102.864 137.201 103.011C137.288 103.155 137.402 103.254 137.542 103.307C137.682 103.36 137.837 103.386 138.008 103.386C138.137 103.386 138.254 103.377 138.36 103.358C138.47 103.339 138.553 103.322 138.61 103.307L138.957 104.915C138.847 104.953 138.69 104.994 138.485 105.04C138.284 105.085 138.038 105.112 137.746 105.119C137.231 105.134 136.767 105.057 136.354 104.886C135.942 104.712 135.614 104.443 135.371 104.08C135.133 103.716 135.015 103.261 135.019 102.716V94.1818ZM144.288 105.17C143.413 105.17 142.657 104.989 142.021 104.625C141.388 104.258 140.901 103.739 140.56 103.068C140.219 102.394 140.049 101.6 140.049 100.688C140.049 99.7898 140.219 99.0019 140.56 98.3239C140.905 97.642 141.386 97.1117 142.004 96.733C142.621 96.3504 143.346 96.1591 144.18 96.1591C144.718 96.1591 145.225 96.2462 145.702 96.4205C146.183 96.5909 146.608 96.8561 146.975 97.2159C147.346 97.5758 147.638 98.0341 147.85 98.5909C148.062 99.1439 148.168 99.803 148.168 100.568V101.199H141.015V99.8125H146.197C146.193 99.4186 146.108 99.0682 145.941 98.7614C145.774 98.4508 145.541 98.2064 145.242 98.0284C144.947 97.8504 144.602 97.7614 144.208 97.7614C143.788 97.7614 143.418 97.8636 143.1 98.0682C142.782 98.2689 142.534 98.5341 142.356 98.8636C142.182 99.1894 142.093 99.5473 142.089 99.9375V101.148C142.089 101.655 142.182 102.091 142.367 102.455C142.553 102.814 142.812 103.091 143.146 103.284C143.479 103.473 143.869 103.568 144.316 103.568C144.615 103.568 144.886 103.527 145.129 103.443C145.371 103.356 145.581 103.229 145.759 103.062C145.937 102.896 146.072 102.689 146.163 102.443L148.083 102.659C147.962 103.167 147.731 103.61 147.39 103.989C147.053 104.364 146.621 104.655 146.094 104.864C145.568 105.068 144.966 105.17 144.288 105.17Z" fill="black"/>
<path d="M86.5774 60.2727V48.2727H87.5604V49.9375H87.6797C87.8009 49.6761 87.9676 49.4091 88.1797 49.1364C88.3918 48.8598 88.6721 48.6269 89.0206 48.4375C89.3729 48.2481 89.8161 48.1534 90.3501 48.1534C91.0698 48.1534 91.6986 48.3428 92.2365 48.7216C92.7782 49.0966 93.1986 49.6231 93.4979 50.3011C93.8009 50.9754 93.9524 51.7614 93.9524 52.6591C93.9524 53.5606 93.8009 54.3504 93.4979 55.0284C93.1986 55.7064 92.7782 56.2348 92.2365 56.6136C91.6986 56.9924 91.0736 57.1818 90.3615 57.1818C89.835 57.1818 89.3937 57.0871 89.0376 56.8977C88.6854 56.7083 88.3994 56.4754 88.1797 56.1989C87.9638 55.9186 87.7971 55.6458 87.6797 55.3807H87.5888V60.2727H86.5774ZM87.5774 52.642C87.5774 53.3466 87.6816 53.9716 87.8899 54.517C88.102 55.0587 88.4051 55.4848 88.799 55.7955C89.1967 56.1023 89.6778 56.2557 90.2422 56.2557C90.8217 56.2557 91.3104 56.0966 91.7081 55.7784C92.1096 55.4564 92.4145 55.0227 92.6229 54.4773C92.835 53.9318 92.9411 53.3201 92.9411 52.642C92.9411 51.9716 92.8369 51.3674 92.6286 50.8295C92.424 50.2917 92.121 49.8655 91.7195 49.5511C91.3179 49.233 90.8255 49.0739 90.2422 49.0739C89.674 49.0739 89.1911 49.2273 88.7933 49.5341C88.3956 49.8371 88.0926 50.2576 87.8842 50.7955C87.6797 51.3295 87.5774 51.9451 87.5774 52.642ZM97.1825 51.5455V57H96.1712V45.3636H97.1825V49.642H97.2734C97.478 49.1913 97.7943 48.8314 98.2223 48.5625C98.6541 48.2936 99.1996 48.1591 99.8587 48.1591C100.45 48.1591 100.969 48.2803 101.415 48.5227C101.862 48.7652 102.211 49.1231 102.461 49.5966C102.711 50.0701 102.836 50.6534 102.836 51.3466V57H101.819V51.4091C101.819 50.6894 101.618 50.1231 101.217 49.7102C100.819 49.2936 100.281 49.0852 99.603 49.0852C99.1371 49.0852 98.7223 49.1837 98.3587 49.3807C97.995 49.5777 97.7071 49.8617 97.495 50.233C97.2867 50.6004 97.1825 51.0379 97.1825 51.5455ZM105.499 60.2727V48.2727H106.482V49.9375H106.602C106.723 49.6761 106.889 49.4091 107.102 49.1364C107.314 48.8598 107.594 48.6269 107.942 48.4375C108.295 48.2481 108.738 48.1534 109.272 48.1534C109.992 48.1534 110.621 48.3428 111.158 48.7216C111.7 49.0966 112.121 49.6231 112.42 50.3011C112.723 50.9754 112.874 51.7614 112.874 52.6591C112.874 53.5606 112.723 54.3504 112.42 55.0284C112.121 55.7064 111.7 56.2348 111.158 56.6136C110.621 56.9924 109.996 57.1818 109.283 57.1818C108.757 57.1818 108.316 57.0871 107.96 56.8977C107.607 56.7083 107.321 56.4754 107.102 56.1989C106.886 55.9186 106.719 55.6458 106.602 55.3807H106.511V60.2727H105.499ZM106.499 52.642C106.499 53.3466 106.603 53.9716 106.812 54.517C107.024 55.0587 107.327 55.4848 107.721 55.7955C108.119 56.1023 108.6 56.2557 109.164 56.2557C109.744 56.2557 110.232 56.0966 110.63 55.7784C111.031 55.4564 111.336 55.0227 111.545 54.4773C111.757 53.9318 111.863 53.3201 111.863 52.642C111.863 51.9716 111.759 51.3674 111.55 50.8295C111.346 50.2917 111.043 49.8655 110.641 49.5511C110.24 49.233 109.747 49.0739 109.164 49.0739C108.596 49.0739 108.113 49.2273 107.715 49.5341C107.317 49.8371 107.014 50.2576 106.806 50.7955C106.602 51.3295 106.499 51.9451 106.499 52.642Z" fill="black"/>
<path d="M70.9048 154V153.222L74.706 148.949C75.2022 148.388 75.6018 147.909 75.9048 147.511C76.2079 147.114 76.4276 146.746 76.5639 146.409C76.7041 146.072 76.7741 145.722 76.7741 145.358C76.7741 144.915 76.67 144.528 76.4616 144.199C76.2571 143.866 75.9749 143.606 75.6151 143.42C75.2552 143.235 74.8499 143.142 74.3991 143.142C73.9219 143.142 73.5033 143.244 73.1435 143.449C72.7874 143.653 72.5109 143.934 72.3139 144.29C72.117 144.646 72.0185 145.055 72.0185 145.517H71.0014C71.0014 144.873 71.1491 144.303 71.4446 143.807C71.7438 143.307 72.151 142.915 72.6662 142.631C73.1851 142.347 73.7723 142.205 74.4276 142.205C75.0753 142.205 75.651 142.345 76.1548 142.625C76.6586 142.902 77.0545 143.278 77.3423 143.756C77.6302 144.233 77.7741 144.767 77.7741 145.358C77.7741 145.786 77.6984 146.201 77.5469 146.602C77.3991 147.004 77.1435 147.451 76.7798 147.943C76.4162 148.436 75.9124 149.038 75.2685 149.75L72.3821 152.972V153.045H78.1378V154H70.9048ZM85.9148 157.273C85.714 157.273 85.5265 157.254 85.3523 157.216C85.178 157.178 85.0398 157.136 84.9375 157.091L85.2102 156.199C85.5549 156.305 85.8617 156.343 86.1307 156.312C86.3996 156.286 86.6383 156.165 86.8466 155.949C87.0549 155.737 87.2405 155.411 87.4034 154.972L87.7216 154.085L84.5114 145.273H85.608L88.1989 152.665H88.2784L90.8693 145.273H91.9659L88.2727 155.381C88.1174 155.801 87.9261 156.152 87.6989 156.432C87.4716 156.716 87.2083 156.926 86.9091 157.062C86.6136 157.203 86.2822 157.273 85.9148 157.273ZM97.1605 154.182C96.3461 154.182 95.6416 153.992 95.0469 153.614C94.4522 153.231 93.992 152.703 93.6662 152.028C93.3442 151.35 93.1832 150.57 93.1832 149.688C93.1832 148.809 93.3442 148.028 93.6662 147.347C93.992 146.661 94.4408 146.125 95.0128 145.739C95.5885 145.348 96.2533 145.153 97.0071 145.153C97.4806 145.153 97.937 145.241 98.3764 145.415C98.8158 145.585 99.2098 145.848 99.5582 146.205C99.9105 146.557 100.189 147.002 100.393 147.54C100.598 148.074 100.7 148.706 100.7 149.438V149.938H93.8821V149.045H99.6662C99.6662 148.485 99.5526 147.981 99.3253 147.534C99.1018 147.083 98.7893 146.727 98.3878 146.466C97.9901 146.205 97.5298 146.074 97.0071 146.074C96.4541 146.074 95.9673 146.222 95.5469 146.517C95.1264 146.812 94.7969 147.203 94.5582 147.688C94.3234 148.172 94.2041 148.703 94.2003 149.278V149.812C94.2003 150.506 94.3196 151.112 94.5582 151.631C94.8007 152.146 95.1435 152.545 95.5866 152.83C96.0298 153.114 96.5545 153.256 97.1605 153.256C97.5734 153.256 97.9351 153.191 98.2457 153.062C98.5601 152.934 98.8234 152.761 99.0355 152.545C99.2514 152.326 99.4143 152.085 99.5241 151.824L100.484 152.136C100.352 152.504 100.134 152.843 99.831 153.153C99.5317 153.464 99.1567 153.714 98.706 153.903C98.259 154.089 97.7438 154.182 97.1605 154.182ZM105.366 154.199C104.84 154.199 104.359 154.097 103.923 153.892C103.488 153.684 103.141 153.384 102.884 152.994C102.626 152.6 102.497 152.123 102.497 151.562C102.497 151.131 102.579 150.767 102.741 150.472C102.904 150.176 103.135 149.934 103.435 149.744C103.734 149.555 104.088 149.405 104.497 149.295C104.906 149.186 105.357 149.1 105.849 149.04C106.338 148.979 106.751 148.926 107.088 148.881C107.429 148.835 107.688 148.763 107.866 148.665C108.045 148.566 108.134 148.407 108.134 148.188V147.983C108.134 147.388 107.955 146.92 107.599 146.58C107.247 146.235 106.74 146.062 106.077 146.062C105.448 146.062 104.935 146.201 104.537 146.477C104.143 146.754 103.866 147.08 103.707 147.455L102.747 147.108C102.944 146.631 103.217 146.25 103.565 145.966C103.914 145.678 104.304 145.472 104.736 145.347C105.168 145.218 105.605 145.153 106.048 145.153C106.382 145.153 106.728 145.197 107.088 145.284C107.452 145.371 107.789 145.523 108.099 145.739C108.41 145.951 108.662 146.248 108.855 146.631C109.048 147.009 109.145 147.491 109.145 148.074V154H108.134V152.619H108.071C107.95 152.877 107.77 153.127 107.531 153.369C107.293 153.612 106.993 153.811 106.634 153.966C106.274 154.121 105.851 154.199 105.366 154.199ZM105.503 153.273C106.041 153.273 106.507 153.153 106.901 152.915C107.295 152.676 107.598 152.36 107.81 151.966C108.026 151.568 108.134 151.131 108.134 150.653V149.392C108.058 149.464 107.931 149.528 107.753 149.585C107.579 149.642 107.376 149.693 107.145 149.739C106.918 149.78 106.69 149.816 106.463 149.847C106.236 149.877 106.031 149.903 105.849 149.926C105.357 149.987 104.937 150.081 104.588 150.21C104.24 150.339 103.973 150.517 103.787 150.744C103.601 150.968 103.509 151.256 103.509 151.608C103.509 152.138 103.698 152.549 104.077 152.841C104.455 153.129 104.931 153.273 105.503 153.273ZM111.835 154V145.273H112.818V146.614H112.892C113.066 146.174 113.369 145.82 113.801 145.551C114.237 145.278 114.729 145.142 115.278 145.142C115.362 145.142 115.455 145.144 115.557 145.148C115.659 145.152 115.744 145.155 115.812 145.159V146.188C115.767 146.18 115.688 146.169 115.574 146.153C115.46 146.138 115.337 146.131 115.205 146.131C114.75 146.131 114.345 146.227 113.989 146.42C113.636 146.61 113.358 146.873 113.153 147.21C112.949 147.547 112.847 147.932 112.847 148.364V154H111.835ZM120.77 141.818L117.02 155.75H116.071L119.821 141.818H120.77ZM128.386 147.188L127.46 147.449C127.369 147.187 127.241 146.951 127.074 146.739C126.907 146.527 126.689 146.358 126.42 146.233C126.155 146.108 125.826 146.045 125.432 146.045C124.841 146.045 124.356 146.186 123.977 146.466C123.598 146.746 123.409 147.108 123.409 147.551C123.409 147.926 123.538 148.231 123.795 148.466C124.057 148.697 124.458 148.881 125 149.017L126.318 149.341C127.049 149.519 127.597 149.801 127.96 150.188C128.328 150.574 128.511 151.059 128.511 151.642C128.511 152.134 128.375 152.572 128.102 152.955C127.83 153.337 127.449 153.638 126.96 153.858C126.475 154.074 125.913 154.182 125.273 154.182C124.42 154.182 123.718 153.991 123.165 153.608C122.612 153.222 122.258 152.665 122.102 151.938L123.074 151.699C123.199 152.218 123.443 152.61 123.807 152.875C124.174 153.14 124.657 153.273 125.256 153.273C125.926 153.273 126.462 153.123 126.864 152.824C127.265 152.521 127.466 152.142 127.466 151.688C127.466 151.335 127.348 151.04 127.114 150.801C126.879 150.559 126.523 150.381 126.045 150.267L124.619 149.926C123.862 149.744 123.301 149.456 122.938 149.062C122.574 148.669 122.392 148.18 122.392 147.597C122.392 147.116 122.523 146.693 122.784 146.33C123.045 145.962 123.405 145.674 123.864 145.466C124.322 145.258 124.845 145.153 125.432 145.153C126.231 145.153 126.869 145.335 127.347 145.699C127.828 146.059 128.174 146.555 128.386 147.188Z" fill="black"/>
<defs>
<filter id="filter0_d_157_927" x="9.39746" y="0" width="181.205" height="208" filterUnits="userSpaceOnUse" color-interpolation-filters="sRGB">
<feFlood flood-opacity="0" result="BackgroundImageFix"/>
<feColorMatrix in="SourceAlpha" type="matrix" values="0 0 0 0 0 0 0 0 0 0 0 0 0 0 0 0 0 0 127 0" result="hardAlpha"/>
<feOffset dy="4"/>
<feGaussianBlur stdDeviation="2"/>
<feComposite in2="hardAlpha" operator="out"/>
<feColorMatrix type="matrix" values="0 0 0 0 0 0 0 0 0 0 0 0 0 0 0 0 0 0 0.25 0"/>
<feBlend mode="normal" in2="BackgroundImageFix" result="effect1_dropShadow_157_927"/>
<feBlend mode="normal" in="SourceGraphic" in2="effect1_dropShadow_157_927" result="shape"/>
</filter>
</defs>
</svg>
