<svg width="200" height="208" viewBox="0 0 200 208" fill="none" xmlns="http://www.w3.org/2000/svg">
<g filter="url(#filter0_d_181_854)">
<path d="M100 0L186.603 50V150L100 200L13.3975 150V50L100 0Z" fill="white"/>
<path d="M14.3975 50.5774L100 1.1547L185.603 50.5774V149.423L100 198.845L14.3975 149.423V50.5774Z" stroke="#2CC140" stroke-width="2"/>
</g>
<path d="M63.0952 105H60.8452L64.9418 93.3636H67.544L71.6463 105H69.3963L66.2884 95.75H66.1974L63.0952 105ZM63.169 100.438H69.3054V102.131H63.169V100.438ZM76.0611 105.153C75.3755 105.153 74.7618 104.977 74.2202 104.625C73.6785 104.273 73.2505 103.761 72.9361 103.091C72.6217 102.42 72.4645 101.606 72.4645 100.648C72.4645 99.678 72.6236 98.8598 72.9418 98.1932C73.2637 97.5227 73.6974 97.017 74.2429 96.6761C74.7884 96.3314 75.3963 96.1591 76.0668 96.1591C76.5781 96.1591 76.9986 96.2462 77.3281 96.4205C77.6577 96.5909 77.919 96.7973 78.1122 97.0398C78.3054 97.2784 78.455 97.5038 78.5611 97.7159H78.6463V93.3636H80.7088V105H78.6861V103.625H78.5611C78.455 103.837 78.3016 104.062 78.1009 104.301C77.9001 104.536 77.6349 104.737 77.3054 104.903C76.9759 105.07 76.5611 105.153 76.0611 105.153ZM76.6349 103.466C77.0705 103.466 77.4418 103.348 77.7486 103.114C78.0554 102.875 78.2884 102.544 78.4474 102.119C78.6065 101.695 78.6861 101.201 78.6861 100.636C78.6861 100.072 78.6065 99.5814 78.4474 99.1648C78.2921 98.7481 78.0611 98.4242 77.7543 98.1932C77.4512 97.9621 77.0781 97.8466 76.6349 97.8466C76.1766 97.8466 75.794 97.9659 75.4872 98.2045C75.1804 98.4432 74.9493 98.7727 74.794 99.1932C74.6387 99.6136 74.5611 100.095 74.5611 100.636C74.5611 101.182 74.6387 101.669 74.794 102.097C74.9531 102.521 75.1861 102.856 75.4929 103.102C75.8035 103.345 76.1842 103.466 76.6349 103.466ZM90.696 96.2727L87.5881 105H85.3153L82.2074 96.2727H84.4006L86.4062 102.756H86.4972L88.5085 96.2727H90.696ZM94.3807 105.176C93.8277 105.176 93.3295 105.078 92.8864 104.881C92.447 104.68 92.0985 104.384 91.8409 103.994C91.5871 103.604 91.4602 103.123 91.4602 102.551C91.4602 102.059 91.5511 101.652 91.733 101.33C91.9148 101.008 92.1629 100.75 92.4773 100.557C92.7917 100.364 93.1458 100.218 93.5398 100.119C93.9375 100.017 94.3485 99.9432 94.7727 99.8977C95.2841 99.8447 95.6989 99.7973 96.017 99.7557C96.3352 99.7102 96.5663 99.642 96.7102 99.5511C96.858 99.4564 96.9318 99.3106 96.9318 99.1136V99.0795C96.9318 98.6515 96.8049 98.3201 96.5511 98.0852C96.2973 97.8504 95.9318 97.733 95.4545 97.733C94.9508 97.733 94.5511 97.8428 94.2557 98.0625C93.964 98.2822 93.767 98.5417 93.6648 98.8409L91.7443 98.5682C91.8958 98.0379 92.1458 97.5947 92.4943 97.2386C92.8428 96.8788 93.2689 96.6098 93.7727 96.4318C94.2765 96.25 94.8333 96.1591 95.4432 96.1591C95.8636 96.1591 96.2822 96.2083 96.6989 96.3068C97.1155 96.4053 97.4962 96.5682 97.8409 96.7955C98.1856 97.0189 98.4621 97.3239 98.6705 97.7102C98.8826 98.0966 98.9886 98.5795 98.9886 99.1591V105H97.0114V103.801H96.9432C96.8182 104.044 96.642 104.271 96.4148 104.483C96.1913 104.691 95.9091 104.86 95.5682 104.989C95.2311 105.114 94.8352 105.176 94.3807 105.176ZM94.9148 103.665C95.3277 103.665 95.6856 103.583 95.9886 103.42C96.2917 103.254 96.5246 103.034 96.6875 102.761C96.8542 102.489 96.9375 102.191 96.9375 101.869V100.841C96.8731 100.894 96.7633 100.943 96.608 100.989C96.4564 101.034 96.286 101.074 96.0966 101.108C95.9072 101.142 95.7197 101.172 95.5341 101.199C95.3485 101.225 95.1875 101.248 95.0511 101.267C94.7443 101.309 94.4697 101.377 94.2273 101.472C93.9848 101.566 93.7936 101.699 93.6534 101.869C93.5133 102.036 93.4432 102.252 93.4432 102.517C93.4432 102.896 93.5814 103.182 93.858 103.375C94.1345 103.568 94.4867 103.665 94.9148 103.665ZM103.114 99.8864V105H101.057V96.2727H103.023V97.7557H103.125C103.326 97.267 103.646 96.8788 104.085 96.5909C104.528 96.303 105.076 96.1591 105.727 96.1591C106.33 96.1591 106.854 96.2879 107.301 96.5455C107.752 96.803 108.1 97.1761 108.347 97.6648C108.597 98.1534 108.72 98.7462 108.716 99.4432V105H106.659V99.7614C106.659 99.178 106.508 98.7216 106.205 98.392C105.905 98.0625 105.491 97.8977 104.96 97.8977C104.6 97.8977 104.28 97.9773 104 98.1364C103.723 98.2917 103.506 98.517 103.347 98.8125C103.191 99.108 103.114 99.4659 103.114 99.8864ZM114.614 105.17C113.742 105.17 112.994 104.979 112.369 104.597C111.748 104.214 111.269 103.686 110.932 103.011C110.598 102.333 110.432 101.553 110.432 100.67C110.432 99.7841 110.602 99.0019 110.943 98.3239C111.284 97.642 111.765 97.1117 112.386 96.733C113.011 96.3504 113.75 96.1591 114.602 96.1591C115.311 96.1591 115.938 96.2898 116.483 96.5511C117.032 96.8087 117.47 97.1742 117.795 97.6477C118.121 98.1174 118.307 98.6667 118.352 99.2955H116.386C116.307 98.875 116.117 98.5246 115.818 98.2443C115.523 97.9602 115.127 97.8182 114.631 97.8182C114.21 97.8182 113.841 97.9318 113.523 98.1591C113.205 98.3826 112.956 98.7045 112.778 99.125C112.604 99.5455 112.517 100.049 112.517 100.636C112.517 101.231 112.604 101.742 112.778 102.17C112.953 102.595 113.197 102.922 113.511 103.153C113.83 103.381 114.203 103.494 114.631 103.494C114.934 103.494 115.205 103.437 115.443 103.324C115.686 103.206 115.888 103.038 116.051 102.818C116.214 102.598 116.326 102.331 116.386 102.017H118.352C118.303 102.634 118.121 103.182 117.807 103.659C117.492 104.133 117.064 104.504 116.523 104.773C115.981 105.038 115.345 105.17 114.614 105.17ZM123.905 105.17C123.03 105.17 122.274 104.989 121.638 104.625C121.005 104.258 120.518 103.739 120.178 103.068C119.837 102.394 119.666 101.6 119.666 100.688C119.666 99.7898 119.837 99.0019 120.178 98.3239C120.522 97.642 121.003 97.1117 121.621 96.733C122.238 96.3504 122.964 96.1591 123.797 96.1591C124.335 96.1591 124.842 96.2462 125.32 96.4205C125.801 96.5909 126.225 96.8561 126.592 97.2159C126.964 97.5758 127.255 98.0341 127.467 98.5909C127.679 99.1439 127.786 99.803 127.786 100.568V101.199H120.632V99.8125H125.814C125.81 99.4186 125.725 99.0682 125.558 98.7614C125.392 98.4508 125.159 98.2064 124.859 98.0284C124.564 97.8504 124.219 97.7614 123.825 97.7614C123.405 97.7614 123.036 97.8636 122.717 98.0682C122.399 98.2689 122.151 98.5341 121.973 98.8636C121.799 99.1894 121.71 99.5473 121.706 99.9375V101.148C121.706 101.655 121.799 102.091 121.984 102.455C122.17 102.814 122.429 103.091 122.763 103.284C123.096 103.473 123.486 103.568 123.933 103.568C124.232 103.568 124.503 103.527 124.746 103.443C124.988 103.356 125.198 103.229 125.376 103.062C125.554 102.896 125.689 102.689 125.78 102.443L127.7 102.659C127.579 103.167 127.348 103.61 127.007 103.989C126.67 104.364 126.238 104.655 125.712 104.864C125.185 105.068 124.583 105.17 123.905 105.17ZM132.764 105.153C132.079 105.153 131.465 104.977 130.923 104.625C130.382 104.273 129.954 103.761 129.639 103.091C129.325 102.42 129.168 101.606 129.168 100.648C129.168 99.678 129.327 98.8598 129.645 98.1932C129.967 97.5227 130.401 97.017 130.946 96.6761C131.491 96.3314 132.099 96.1591 132.77 96.1591C133.281 96.1591 133.702 96.2462 134.031 96.4205C134.361 96.5909 134.622 96.7973 134.815 97.0398C135.009 97.2784 135.158 97.5038 135.264 97.7159H135.349V93.3636H137.412V105H135.389V103.625H135.264C135.158 103.837 135.005 104.062 134.804 104.301C134.603 104.536 134.338 104.737 134.009 104.903C133.679 105.07 133.264 105.153 132.764 105.153ZM133.338 103.466C133.774 103.466 134.145 103.348 134.452 103.114C134.759 102.875 134.991 102.544 135.151 102.119C135.31 101.695 135.389 101.201 135.389 100.636C135.389 100.072 135.31 99.5814 135.151 99.1648C134.995 98.7481 134.764 98.4242 134.457 98.1932C134.154 97.9621 133.781 97.8466 133.338 97.8466C132.88 97.8466 132.497 97.9659 132.19 98.2045C131.884 98.4432 131.652 98.7727 131.497 99.1932C131.342 99.6136 131.264 100.095 131.264 100.636C131.264 101.182 131.342 101.669 131.497 102.097C131.656 102.521 131.889 102.856 132.196 103.102C132.507 103.345 132.887 103.466 133.338 103.466Z" fill="black"/>
<path d="M74.843 60.2727V48.2727H75.826V49.9375H75.9453C76.0665 49.6761 76.2332 49.4091 76.4453 49.1364C76.6574 48.8598 76.9377 48.6269 77.2862 48.4375C77.6385 48.2481 78.0817 48.1534 78.6158 48.1534C79.3355 48.1534 79.9643 48.3428 80.5021 48.7216C81.0438 49.0966 81.4643 49.6231 81.7635 50.3011C82.0665 50.9754 82.218 51.7614 82.218 52.6591C82.218 53.5606 82.0665 54.3504 81.7635 55.0284C81.4643 55.7064 81.0438 56.2348 80.5021 56.6136C79.9643 56.9924 79.3393 57.1818 78.6271 57.1818C78.1006 57.1818 77.6593 57.0871 77.3033 56.8977C76.951 56.7083 76.665 56.4754 76.4453 56.1989C76.2294 55.9186 76.0627 55.6458 75.9453 55.3807H75.8544V60.2727H74.843ZM75.843 52.642C75.843 53.3466 75.9472 53.9716 76.1555 54.517C76.3677 55.0587 76.6707 55.4848 77.0646 55.7955C77.4624 56.1023 77.9434 56.2557 78.5078 56.2557C79.0874 56.2557 79.576 56.0966 79.9737 55.7784C80.3752 55.4564 80.6802 55.0227 80.8885 54.4773C81.1006 53.9318 81.2067 53.3201 81.2067 52.642C81.2067 51.9716 81.1025 51.3674 80.8942 50.8295C80.6896 50.2917 80.3866 49.8655 79.9851 49.5511C79.5836 49.233 79.0911 49.0739 78.5078 49.0739C77.9396 49.0739 77.4567 49.2273 77.0589 49.5341C76.6612 49.8371 76.3582 50.2576 76.1499 50.7955C75.9453 51.3295 75.843 51.9451 75.843 52.642ZM84.8288 60.2727C84.6281 60.2727 84.4406 60.2538 84.2663 60.2159C84.0921 60.178 83.9538 60.1364 83.8516 60.0909L84.1243 59.1989C84.469 59.3049 84.7758 59.3428 85.0447 59.3125C85.3137 59.286 85.5523 59.1648 85.7607 58.9489C85.969 58.7367 86.1546 58.411 86.3175 57.9716L86.6357 57.0852L83.4254 48.2727H84.522L87.1129 55.6648H87.1925L89.7834 48.2727H90.88L87.1868 58.3807C87.0315 58.8011 86.8402 59.1515 86.6129 59.4318C86.3857 59.7159 86.1224 59.9261 85.8232 60.0625C85.5277 60.2027 85.1963 60.2727 84.8288 60.2727ZM96.2962 48.2727V49.1534H92.1314V48.2727H96.2962ZM93.4325 46.1818H94.4496V54.7216C94.4496 55.0852 94.5121 55.3712 94.6371 55.5795C94.7621 55.7841 94.925 55.9299 95.1257 56.017C95.3265 56.1004 95.5405 56.142 95.7678 56.142C95.9003 56.142 96.014 56.1345 96.1087 56.1193C96.2034 56.1004 96.2867 56.0814 96.3587 56.0625L96.5746 56.9773C96.4761 57.0152 96.3549 57.0492 96.2109 57.0795C96.067 57.1136 95.889 57.1307 95.6768 57.1307C95.3056 57.1307 94.9477 57.0492 94.603 56.8864C94.2621 56.7235 93.9818 56.4811 93.7621 56.1591C93.5424 55.8371 93.4325 55.4375 93.4325 54.9602V46.1818ZM99.7919 51.5455V57H98.7805V45.3636H99.7919V49.642H99.8828C100.087 49.1913 100.404 48.8314 100.832 48.5625C101.263 48.2936 101.809 48.1591 102.468 48.1591C103.059 48.1591 103.578 48.2803 104.025 48.5227C104.472 48.7652 104.82 49.1231 105.07 49.5966C105.32 50.0701 105.445 50.6534 105.445 51.3466V57H104.428V51.4091C104.428 50.6894 104.228 50.1231 103.826 49.7102C103.428 49.2936 102.89 49.0852 102.212 49.0852C101.746 49.0852 101.332 49.1837 100.968 49.3807C100.604 49.5777 100.317 49.8617 100.104 50.233C99.8961 50.6004 99.7919 51.0379 99.7919 51.5455ZM111.501 57.1818C110.747 57.1818 110.08 56.9905 109.501 56.608C108.925 56.2254 108.474 55.697 108.148 55.0227C107.823 54.3447 107.66 53.5625 107.66 52.6761C107.66 51.7822 107.823 50.9962 108.148 50.3182C108.474 49.6364 108.925 49.1061 109.501 48.7273C110.08 48.3447 110.747 48.1534 111.501 48.1534C112.254 48.1534 112.919 48.3447 113.495 48.7273C114.071 49.1098 114.522 49.6402 114.847 50.3182C115.177 50.9962 115.342 51.7822 115.342 52.6761C115.342 53.5625 115.179 54.3447 114.853 55.0227C114.527 55.697 114.075 56.2254 113.495 56.608C112.919 56.9905 112.254 57.1818 111.501 57.1818ZM111.501 56.2557C112.107 56.2557 112.62 56.0928 113.04 55.767C113.461 55.4413 113.779 55.0076 113.995 54.4659C114.215 53.9242 114.325 53.3277 114.325 52.6761C114.325 52.0246 114.215 51.4261 113.995 50.8807C113.779 50.3352 113.461 49.8977 113.04 49.5682C112.62 49.2386 112.107 49.0739 111.501 49.0739C110.898 49.0739 110.385 49.2386 109.961 49.5682C109.54 49.8977 109.22 50.3352 109.001 50.8807C108.785 51.4261 108.677 52.0246 108.677 52.6761C108.677 53.3277 108.785 53.9242 109.001 54.4659C109.22 55.0076 109.54 55.4413 109.961 55.767C110.381 56.0928 110.895 56.2557 111.501 56.2557ZM118.573 51.5455V57H117.562V48.2727H118.545V49.642H118.636C118.84 49.1951 119.158 48.8371 119.59 48.5682C120.026 48.2955 120.564 48.1591 121.204 48.1591C121.791 48.1591 122.306 48.2822 122.749 48.5284C123.196 48.7708 123.543 49.1288 123.789 49.6023C124.039 50.0758 124.164 50.6572 124.164 51.3466V57H123.153V51.4091C123.153 50.6932 122.952 50.1269 122.55 49.7102C122.153 49.2936 121.619 49.0852 120.948 49.0852C120.49 49.0852 120.083 49.1837 119.727 49.3807C119.371 49.5777 119.088 49.8617 118.88 50.233C118.675 50.6004 118.573 51.0379 118.573 51.5455Z" fill="black"/>
<path d="M70.5014 151.5V150.636L75.6889 142.364H76.3253V143.812H75.8537L71.6889 150.472V150.545H78.4901V151.5H70.5014ZM75.9332 154V151.227V150.83V142.364H76.9446V154H75.9332ZM86.0398 157.273C85.839 157.273 85.6515 157.254 85.4773 157.216C85.303 157.178 85.1648 157.136 85.0625 157.091L85.3352 156.199C85.6799 156.305 85.9867 156.343 86.2557 156.312C86.5246 156.286 86.7633 156.165 86.9716 155.949C87.1799 155.737 87.3655 155.411 87.5284 154.972L87.8466 154.085L84.6364 145.273H85.733L88.3239 152.665H88.4034L90.9943 145.273H92.0909L88.3977 155.381C88.2424 155.801 88.0511 156.152 87.8239 156.432C87.5966 156.716 87.3333 156.926 87.0341 157.062C86.7386 157.203 86.4072 157.273 86.0398 157.273ZM97.2855 154.182C96.4711 154.182 95.7666 153.992 95.1719 153.614C94.5772 153.231 94.117 152.703 93.7912 152.028C93.4692 151.35 93.3082 150.57 93.3082 149.688C93.3082 148.809 93.4692 148.028 93.7912 147.347C94.117 146.661 94.5658 146.125 95.1378 145.739C95.7135 145.348 96.3783 145.153 97.1321 145.153C97.6056 145.153 98.062 145.241 98.5014 145.415C98.9408 145.585 99.3348 145.848 99.6832 146.205C100.036 146.557 100.314 147.002 100.518 147.54C100.723 148.074 100.825 148.706 100.825 149.438V149.938H94.0071V149.045H99.7912C99.7912 148.485 99.6776 147.981 99.4503 147.534C99.2268 147.083 98.9143 146.727 98.5128 146.466C98.1151 146.205 97.6548 146.074 97.1321 146.074C96.5791 146.074 96.0923 146.222 95.6719 146.517C95.2514 146.812 94.9219 147.203 94.6832 147.688C94.4484 148.172 94.3291 148.703 94.3253 149.278V149.812C94.3253 150.506 94.4446 151.112 94.6832 151.631C94.9257 152.146 95.2685 152.545 95.7116 152.83C96.1548 153.114 96.6795 153.256 97.2855 153.256C97.6984 153.256 98.0601 153.191 98.3707 153.062C98.6851 152.934 98.9484 152.761 99.1605 152.545C99.3764 152.326 99.5393 152.085 99.6491 151.824L100.609 152.136C100.477 152.504 100.259 152.843 99.956 153.153C99.6567 153.464 99.2817 153.714 98.831 153.903C98.384 154.089 97.8688 154.182 97.2855 154.182ZM105.491 154.199C104.965 154.199 104.484 154.097 104.048 153.892C103.613 153.684 103.266 153.384 103.009 152.994C102.751 152.6 102.622 152.123 102.622 151.562C102.622 151.131 102.704 150.767 102.866 150.472C103.029 150.176 103.26 149.934 103.56 149.744C103.859 149.555 104.213 149.405 104.622 149.295C105.031 149.186 105.482 149.1 105.974 149.04C106.463 148.979 106.876 148.926 107.213 148.881C107.554 148.835 107.813 148.763 107.991 148.665C108.17 148.566 108.259 148.407 108.259 148.188V147.983C108.259 147.388 108.08 146.92 107.724 146.58C107.372 146.235 106.865 146.062 106.202 146.062C105.573 146.062 105.06 146.201 104.662 146.477C104.268 146.754 103.991 147.08 103.832 147.455L102.872 147.108C103.069 146.631 103.342 146.25 103.69 145.966C104.039 145.678 104.429 145.472 104.861 145.347C105.293 145.218 105.73 145.153 106.173 145.153C106.507 145.153 106.853 145.197 107.213 145.284C107.577 145.371 107.914 145.523 108.224 145.739C108.535 145.951 108.787 146.248 108.98 146.631C109.173 147.009 109.27 147.491 109.27 148.074V154H108.259V152.619H108.196C108.075 152.877 107.895 153.127 107.656 153.369C107.418 153.612 107.118 153.811 106.759 153.966C106.399 154.121 105.976 154.199 105.491 154.199ZM105.628 153.273C106.166 153.273 106.632 153.153 107.026 152.915C107.42 152.676 107.723 152.36 107.935 151.966C108.151 151.568 108.259 151.131 108.259 150.653V149.392C108.183 149.464 108.056 149.528 107.878 149.585C107.704 149.642 107.501 149.693 107.27 149.739C107.043 149.78 106.815 149.816 106.588 149.847C106.361 149.877 106.156 149.903 105.974 149.926C105.482 149.987 105.062 150.081 104.713 150.21C104.365 150.339 104.098 150.517 103.912 150.744C103.726 150.968 103.634 151.256 103.634 151.608C103.634 152.138 103.823 152.549 104.202 152.841C104.58 153.129 105.056 153.273 105.628 153.273ZM111.96 154V145.273H112.943V146.614H113.017C113.191 146.174 113.494 145.82 113.926 145.551C114.362 145.278 114.854 145.142 115.403 145.142C115.487 145.142 115.58 145.144 115.682 145.148C115.784 145.152 115.869 145.155 115.938 145.159V146.188C115.892 146.18 115.813 146.169 115.699 146.153C115.585 146.138 115.462 146.131 115.33 146.131C114.875 146.131 114.47 146.227 114.114 146.42C113.761 146.61 113.483 146.873 113.278 147.21C113.074 147.547 112.972 147.932 112.972 148.364V154H111.96ZM120.895 141.818L117.145 155.75H116.196L119.946 141.818H120.895ZM128.511 147.188L127.585 147.449C127.494 147.187 127.366 146.951 127.199 146.739C127.032 146.527 126.814 146.358 126.545 146.233C126.28 146.108 125.951 146.045 125.557 146.045C124.966 146.045 124.481 146.186 124.102 146.466C123.723 146.746 123.534 147.108 123.534 147.551C123.534 147.926 123.663 148.231 123.92 148.466C124.182 148.697 124.583 148.881 125.125 149.017L126.443 149.341C127.174 149.519 127.722 149.801 128.085 150.188C128.453 150.574 128.636 151.059 128.636 151.642C128.636 152.134 128.5 152.572 128.227 152.955C127.955 153.337 127.574 153.638 127.085 153.858C126.6 154.074 126.038 154.182 125.398 154.182C124.545 154.182 123.843 153.991 123.29 153.608C122.737 153.222 122.383 152.665 122.227 151.938L123.199 151.699C123.324 152.218 123.568 152.61 123.932 152.875C124.299 153.14 124.782 153.273 125.381 153.273C126.051 153.273 126.587 153.123 126.989 152.824C127.39 152.521 127.591 152.142 127.591 151.688C127.591 151.335 127.473 151.04 127.239 150.801C127.004 150.559 126.648 150.381 126.17 150.267L124.744 149.926C123.987 149.744 123.426 149.456 123.062 149.062C122.699 148.669 122.517 148.18 122.517 147.597C122.517 147.116 122.648 146.693 122.909 146.33C123.17 145.962 123.53 145.674 123.989 145.466C124.447 145.258 124.97 145.153 125.557 145.153C126.356 145.153 126.994 145.335 127.472 145.699C127.953 146.059 128.299 146.555 128.511 147.188Z" fill="black"/>
<defs>
<filter id="filter0_d_181_854" x="9.39746" y="0" width="181.205" height="208" filterUnits="userSpaceOnUse" color-interpolation-filters="sRGB">
<feFlood flood-opacity="0" result="BackgroundImageFix"/>
<feColorMatrix in="SourceAlpha" type="matrix" values="0 0 0 0 0 0 0 0 0 0 0 0 0 0 0 0 0 0 127 0" result="hardAlpha"/>
<feOffset dy="4"/>
<feGaussianBlur stdDeviation="2"/>
<feComposite in2="hardAlpha" operator="out"/>
<feColorMatrix type="matrix" values="0 0 0 0 0 0 0 0 0 0 0 0 0 0 0 0 0 0 0.25 0"/>
<feBlend mode="normal" in2="BackgroundImageFix" result="effect1_dropShadow_181_854"/>
<feBlend mode="normal" in="SourceGraphic" in2="effect1_dropShadow_181_854" result="shape"/>
</filter>
</defs>
</svg>
