<svg width="1708" height="1122" viewBox="0 0 1708 1122" fill="none" xmlns="http://www.w3.org/2000/svg">
<path d="M20.1538 894.802L83.5408 926.361V989.48L20.1538 1021.04L-43.2332 989.48V926.361L20.1538 894.802Z" fill="#303030"/>
<path d="M-47.1836 995.792L16.2034 1027.35V1090.47L-47.1836 1122.03L-110.571 1090.47V1027.35L-47.1836 995.792Z" fill="#303030"/>
<path d="M-47.1836 793.812L16.2034 825.371V888.49L-47.1836 920.05L-110.571 888.49V825.371L-47.1836 793.812Z" fill="#303030"/>
<path d="M20.1538 1096.78L83.5408 1128.34V1191.46L20.1538 1223.02L-43.2332 1191.46V1128.34L20.1538 1096.78Z" fill="#303030"/>
<path d="M88.6625 995.792L152.049 1027.35V1090.47L88.6625 1122.03L25.2755 1090.47V1027.35L88.6625 995.792Z" fill="#303030"/>
<path d="M223.338 995.792L286.725 1027.35V1090.47L223.338 1122.03L159.951 1090.47V1027.35L223.338 995.792Z" fill="#303030"/>
<path d="M156 1096.78L219.387 1128.34V1191.46L156 1223.02L92.613 1191.46V1128.34L156 1096.78Z" fill="#303030"/>
<path d="M20.1538 288.861L83.5408 320.421V383.54L20.1538 415.099L-43.2332 383.54V320.421L20.1538 288.861Z" fill="#303030"/>
<path d="M-47.1836 389.852L16.2034 421.411V484.53L-47.1836 516.089L-110.571 484.53V421.411L-47.1836 389.852Z" fill="#303030"/>
<path d="M20.1538 86.8811L83.5408 118.441V181.559L20.1538 213.119L-43.2332 181.559V118.441L20.1538 86.8811Z" fill="#303030"/>
<path d="M-47.1836 187.871L16.2034 219.431V282.55L-47.1836 314.109L-110.571 282.55V219.431L-47.1836 187.871Z" fill="#303030"/>
<path d="M20.1538 490.841L83.5408 522.401V585.52L20.1538 617.079L-43.2332 585.52V522.401L20.1538 490.841Z" fill="#303030"/>
<path d="M-47.1836 591.832L16.2034 623.391V686.51L-47.1836 718.069L-110.571 686.51V623.391L-47.1836 591.832Z" fill="#303030"/>
<path d="M88.6625 591.832L152.049 623.391V686.51L88.6625 718.069L25.2755 686.51V623.391L88.6625 591.832Z" fill="#303030"/>
<path d="M223.338 591.832L286.725 623.391V686.51L223.338 718.069L159.951 686.51V623.391L223.338 591.832Z" fill="#303030"/>
<path d="M156 692.822L219.387 724.381V787.5L156 819.059L92.613 787.5V724.381L156 692.822Z" fill="#303030"/>
<path d="M88.6625 389.852L152.049 421.411V484.53L88.6625 516.089L25.2755 484.53V421.411L88.6625 389.852Z" fill="#303030"/>
<path d="M223.338 389.852L286.725 421.411V484.53L223.338 516.089L159.951 484.53V421.411L223.338 389.852Z" fill="#303030"/>
<path d="M156 490.841L219.387 522.401V585.52L156 617.079L92.613 585.52V522.401L156 490.841Z" fill="#303030"/>
<path d="M88.6625 793.812L152.049 825.371V888.49L88.6625 920.05L25.2755 888.49V825.371L88.6625 793.812Z" fill="#303030"/>
<path d="M223.338 793.812L286.725 825.371V888.49L223.338 920.05L159.951 888.49V825.371L223.338 793.812Z" fill="#303030"/>
<g filter="url(#filter0_d_68_2162)">
<path d="M156 894.802L219.387 926.361V989.48L156 1021.04L92.613 989.48V926.361L156 894.802Z" fill="#2CC140"/>
</g>
<path d="M291.846 894.802L355.233 926.361V989.48L291.846 1021.04L228.459 989.48V926.361L291.846 894.802Z" fill="#303030"/>
<path d="M426.521 894.802L489.908 926.361V989.48L426.521 1021.04L363.134 989.48V926.361L426.521 894.802Z" fill="#303030"/>
<path d="M359.184 995.792L422.571 1027.35V1090.47L359.184 1122.03L295.797 1090.47V1027.35L359.184 995.792Z" fill="#303030"/>
<path d="M291.846 692.822L355.233 724.381V787.5L291.846 819.059L228.459 787.5V724.381L291.846 692.822Z" fill="#303030"/>
<path d="M426.521 692.822L489.908 724.381V787.5L426.521 819.059L363.134 787.5V724.381L426.521 692.822Z" fill="#303030"/>
<path d="M359.184 793.812L422.571 825.371V888.49L359.184 920.05L295.797 888.49V825.371L359.184 793.812Z" fill="#303030"/>
<path d="M495.03 793.812L558.417 825.371V888.49L495.03 920.05L431.643 888.49V825.371L495.03 793.812Z" fill="#303030"/>
<path d="M629.705 793.812L693.092 825.371V888.49L629.705 920.05L566.318 888.49V825.371L629.705 793.812Z" fill="#303030"/>
<path d="M562.367 894.802L625.754 926.361V989.48L562.367 1021.04L498.98 989.48V926.361L562.367 894.802Z" fill="#303030"/>
<path d="M698.213 894.802L761.6 926.361V989.48L698.213 1021.04L634.827 989.48V926.361L698.213 894.802Z" fill="#303030"/>
<path d="M832.889 894.802L896.275 926.361V989.48L832.889 1021.04L769.502 989.48V926.361L832.889 894.802Z" fill="#303030"/>
<path d="M765.551 995.792L828.938 1027.35V1090.47L765.551 1122.03L702.164 1090.47V1027.35L765.551 995.792Z" fill="#303030"/>
<path d="M698.213 692.822L761.6 724.381V787.5L698.213 819.059L634.827 787.5V724.381L698.213 692.822Z" fill="#303030"/>
<path d="M832.889 692.822L896.275 724.381V787.5L832.889 819.059L769.502 787.5V724.381L832.889 692.822Z" fill="#303030"/>
<path d="M765.551 793.812L828.938 825.371V888.49L765.551 920.05L702.164 888.49V825.371L765.551 793.812Z" fill="#303030"/>
<path d="M291.846 1096.78L355.233 1128.34V1191.46L291.846 1223.02L228.459 1191.46V1128.34L291.846 1096.78Z" fill="#303030"/>
<path d="M426.521 1096.78L489.908 1128.34V1191.46L426.521 1223.02L363.134 1191.46V1128.34L426.521 1096.78Z" fill="#303030"/>
<path d="M495.03 995.792L558.417 1027.35V1090.47L495.03 1122.03L431.643 1090.47V1027.35L495.03 995.792Z" fill="#303030"/>
<path d="M629.705 995.792L693.092 1027.35V1090.47L629.705 1122.03L566.318 1090.47V1027.35L629.705 995.792Z" fill="#303030"/>
<path d="M562.367 1096.78L625.754 1128.34V1191.46L562.367 1223.02L498.98 1191.46V1128.34L562.367 1096.78Z" fill="#303030"/>
<path d="M698.213 1096.78L761.6 1128.34V1191.46L698.213 1223.02L634.827 1191.46V1128.34L698.213 1096.78Z" fill="#303030"/>
<path d="M832.889 1096.78L896.275 1128.34V1191.46L832.889 1223.02L769.502 1191.46V1128.34L832.889 1096.78Z" fill="#303030"/>
<path d="M901.397 995.792L964.784 1027.35V1090.47L901.397 1122.03L838.01 1090.47V1027.35L901.397 995.792Z" fill="#303030"/>
<path d="M1036.07 995.792L1099.46 1027.35V1090.47L1036.07 1122.03L972.685 1090.47V1027.35L1036.07 995.792Z" fill="#303030"/>
<path d="M968.735 1096.78L1032.12 1128.34V1191.46L968.735 1223.02L905.348 1191.46V1128.34L968.735 1096.78Z" fill="#303030"/>
<path d="M901.397 793.812L964.784 825.371V888.49L901.397 920.05L838.01 888.49V825.371L901.397 793.812Z" fill="#303030"/>
<path d="M1036.07 793.812L1099.46 825.371V888.49L1036.07 920.05L972.685 888.49V825.371L1036.07 793.812Z" fill="#303030"/>
<path d="M1104.58 894.802L1167.97 926.361V989.48L1104.58 1021.04L1041.19 989.48V926.361L1104.58 894.802Z" fill="#303030"/>
<path d="M1239.26 894.802L1302.64 926.361V989.48L1239.26 1021.04L1175.87 989.48V926.361L1239.26 894.802Z" fill="#303030"/>
<path d="M1171.92 995.792L1235.31 1027.35V1090.47L1171.92 1122.03L1108.53 1090.47V1027.35L1171.92 995.792Z" fill="#303030"/>
<path d="M1104.58 692.822L1167.97 724.381V787.5L1104.58 819.059L1041.19 787.5V724.381L1104.58 692.822Z" fill="#303030"/>
<path d="M1239.26 692.822L1302.64 724.381V787.5L1239.26 819.059L1175.87 787.5V724.381L1239.26 692.822Z" fill="#303030"/>
<path d="M1171.92 793.812L1235.31 825.371V888.49L1171.92 920.05L1108.53 888.49V825.371L1171.92 793.812Z" fill="#303030"/>
<path d="M1307.76 793.812L1371.15 825.371V888.49L1307.76 920.05L1244.38 888.49V825.371L1307.76 793.812Z" fill="#303030"/>
<path d="M1442.44 793.812L1505.83 825.371V888.49L1442.44 920.05L1379.05 888.49V825.371L1442.44 793.812Z" fill="#303030"/>
<path d="M1375.1 894.802L1438.49 926.361V989.48L1375.1 1021.04L1311.72 989.48V926.361L1375.1 894.802Z" fill="#303030"/>
<path d="M1510.95 894.802L1574.34 926.361V989.48L1510.95 1021.04L1447.56 989.48V926.361L1510.95 894.802Z" fill="#303030"/>
<path d="M1645.62 894.802L1709.01 926.361V989.48L1645.62 1021.04L1582.24 989.48V926.361L1645.62 894.802Z" fill="#303030"/>
<path d="M1578.29 995.792L1641.67 1027.35V1090.47L1578.29 1122.03L1514.9 1090.47V1027.35L1578.29 995.792Z" fill="#303030"/>
<path d="M1510.95 692.822L1574.34 724.381V787.5L1510.95 819.059L1447.56 787.5V724.381L1510.95 692.822Z" fill="#303030"/>
<path d="M1645.62 692.822L1709.01 724.381V787.5L1645.62 819.059L1582.24 787.5V724.381L1645.62 692.822Z" fill="#303030"/>
<path d="M1578.29 793.812L1641.67 825.371V888.49L1578.29 920.05L1514.9 888.49V825.371L1578.29 793.812Z" fill="#303030"/>
<path d="M1104.58 1096.78L1167.97 1128.34V1191.46L1104.58 1223.02L1041.19 1191.46V1128.34L1104.58 1096.78Z" fill="#303030"/>
<path d="M1239.26 1096.78L1302.64 1128.34V1191.46L1239.26 1223.02L1175.87 1191.46V1128.34L1239.26 1096.78Z" fill="#303030"/>
<path d="M1307.76 995.792L1371.15 1027.35V1090.47L1307.76 1122.03L1244.38 1090.47V1027.35L1307.76 995.792Z" fill="#303030"/>
<path d="M1442.44 995.792L1505.83 1027.35V1090.47L1442.44 1122.03L1379.05 1090.47V1027.35L1442.44 995.792Z" fill="#303030"/>
<path d="M1375.1 1096.78L1438.49 1128.34V1191.46L1375.1 1223.02L1311.72 1191.46V1128.34L1375.1 1096.78Z" fill="#303030"/>
<path d="M1510.95 1096.78L1574.34 1128.34V1191.46L1510.95 1223.02L1447.56 1191.46V1128.34L1510.95 1096.78Z" fill="#303030"/>
<path d="M1645.62 1096.78L1709.01 1128.34V1191.46L1645.62 1223.02L1582.24 1191.46V1128.34L1645.62 1096.78Z" fill="#303030"/>
<path d="M1714.13 995.792L1777.52 1027.35V1090.47L1714.13 1122.03L1650.74 1090.47V1027.35L1714.13 995.792Z" fill="#303030"/>
<path d="M88.6625 187.871L152.049 219.431V282.55L88.6625 314.109L25.2755 282.55V219.431L88.6625 187.871Z" fill="#303030"/>
<path d="M223.338 187.871L286.725 219.431V282.55L223.338 314.109L159.951 282.55V219.431L223.338 187.871Z" fill="#303030"/>
<path d="M291.846 288.861L355.233 320.421V383.54L291.846 415.099L228.459 383.54V320.421L291.846 288.861Z" fill="#303030"/>
<path d="M426.521 288.861L489.908 320.421V383.54L426.521 415.099L363.134 383.54V320.421L426.521 288.861Z" fill="#303030"/>
<path d="M359.184 389.852L422.571 421.411V484.53L359.184 516.089L295.797 484.53V421.411L359.184 389.852Z" fill="#303030"/>
<path d="M291.846 86.8811L355.233 118.441V181.559L291.846 213.119L228.459 181.559V118.441L291.846 86.8811Z" fill="#303030"/>
<path d="M426.521 86.8811L489.908 118.441V181.559L426.521 213.119L363.134 181.559V118.441L426.521 86.8811Z" fill="#303030"/>
<path d="M359.184 187.871L422.571 219.431V282.55L359.184 314.109L295.797 282.55V219.431L359.184 187.871Z" fill="#303030"/>
<path d="M495.03 187.871L558.417 219.431V282.55L495.03 314.109L431.643 282.55V219.431L495.03 187.871Z" fill="#303030"/>
<path d="M629.705 187.871L693.092 219.431V282.55L629.705 314.109L566.318 282.55V219.431L629.705 187.871Z" fill="#303030"/>
<path d="M562.367 288.861L625.754 320.421V383.54L562.367 415.099L498.98 383.54V320.421L562.367 288.861Z" fill="#303030"/>
<path d="M698.213 288.861L761.6 320.421V383.54L698.213 415.099L634.827 383.54V320.421L698.213 288.861Z" fill="#303030"/>
<path d="M832.889 288.861L896.275 320.421V383.54L832.889 415.099L769.502 383.54V320.421L832.889 288.861Z" fill="#303030"/>
<path d="M765.551 389.852L828.938 421.411V484.53L765.551 516.089L702.164 484.53V421.411L765.551 389.852Z" fill="#303030"/>
<path d="M698.213 86.8811L761.6 118.441V181.559L698.213 213.119L634.827 181.559V118.441L698.213 86.8811Z" fill="#303030"/>
<path d="M832.889 86.8811L896.275 118.441V181.559L832.889 213.119L769.502 181.559V118.441L832.889 86.8811Z" fill="#303030"/>
<path d="M765.551 187.871L828.938 219.431V282.55L765.551 314.109L702.164 282.55V219.431L765.551 187.871Z" fill="#303030"/>
<path d="M291.846 490.841L355.233 522.401V585.52L291.846 617.079L228.459 585.52V522.401L291.846 490.841Z" fill="#303030"/>
<path d="M426.521 490.841L489.908 522.401V585.52L426.521 617.079L363.134 585.52V522.401L426.521 490.841Z" fill="#303030"/>
<path d="M359.184 591.832L422.571 623.391V686.51L359.184 718.069L295.797 686.51V623.391L359.184 591.832Z" fill="#303030"/>
<path d="M495.03 591.832L558.417 623.391V686.51L495.03 718.069L431.643 686.51V623.391L495.03 591.832Z" fill="#303030"/>
<path d="M629.705 591.832L693.092 623.391V686.51L629.705 718.069L566.318 686.51V623.391L629.705 591.832Z" fill="#303030"/>
<path d="M562.367 692.822L625.754 724.381V787.5L562.367 819.059L498.98 787.5V724.381L562.367 692.822Z" fill="#303030"/>
<path d="M495.03 389.852L558.417 421.411V484.53L495.03 516.089L431.643 484.53V421.411L495.03 389.852Z" fill="#303030"/>
<g filter="url(#filter1_d_68_2162)">
<path d="M698.213 490.841L761.6 522.401V585.52L698.213 617.079L634.827 585.52V522.401L698.213 490.841Z" fill="#2CC140"/>
</g>
<path d="M832.889 490.841L896.275 522.401V585.52L832.889 617.079L769.502 585.52V522.401L832.889 490.841Z" fill="#303030"/>
<path d="M765.551 591.832L828.938 623.391V686.51L765.551 718.069L702.164 686.51V623.391L765.551 591.832Z" fill="#303030"/>
<path d="M901.397 591.832L964.784 623.391V686.51L901.397 718.069L838.01 686.51V623.391L901.397 591.832Z" fill="#303030"/>
<path d="M1036.07 591.832L1099.46 623.391V686.51L1036.07 718.069L972.685 686.51V623.391L1036.07 591.832Z" fill="#303030"/>
<path d="M968.735 692.822L1032.12 724.381V787.5L968.735 819.059L905.348 787.5V724.381L968.735 692.822Z" fill="#303030"/>
<path d="M901.397 389.852L964.784 421.411V484.53L901.397 516.089L838.01 484.53V421.411L901.397 389.852Z" fill="#303030"/>
<path d="M1036.07 389.852L1099.46 421.411V484.53L1036.07 516.089L972.685 484.53V421.411L1036.07 389.852Z" fill="#303030"/>
<path d="M968.735 490.841L1032.12 522.401V585.52L968.735 617.079L905.348 585.52V522.401L968.735 490.841Z" fill="#303030"/>
<path d="M901.397 187.871L964.784 219.431V282.55L901.397 314.109L838.01 282.55V219.431L901.397 187.871Z" fill="#303030"/>
<path d="M968.735 288.861L1032.12 320.421V383.54L968.735 415.099L905.348 383.54V320.421L968.735 288.861Z" fill="#303030"/>
<path d="M1104.58 288.861L1167.97 320.421V383.54L1104.58 415.099L1041.19 383.54V320.421L1104.58 288.861Z" fill="#303030"/>
<path d="M1239.26 288.861L1302.64 320.421V383.54L1239.26 415.099L1175.87 383.54V320.421L1239.26 288.861Z" fill="#303030"/>
<path d="M1171.92 389.852L1235.31 421.411V484.53L1171.92 516.089L1108.53 484.53V421.411L1171.92 389.852Z" fill="#303030"/>
<path d="M1104.58 86.8811L1167.97 118.441V181.559L1104.58 213.119L1041.19 181.559V118.441L1104.58 86.8811Z" fill="#303030"/>
<path d="M1239.26 86.8811L1302.64 118.441V181.559L1239.26 213.119L1175.87 181.559V118.441L1239.26 86.8811Z" fill="#303030"/>
<path d="M1171.92 187.871L1235.31 219.431V282.55L1171.92 314.109L1108.53 282.55V219.431L1171.92 187.871Z" fill="#303030"/>
<path d="M1307.76 187.871L1371.15 219.431V282.55L1307.76 314.109L1244.38 282.55V219.431L1307.76 187.871Z" fill="#303030"/>
<path d="M1442.44 187.871L1505.83 219.431V282.55L1442.44 314.109L1379.05 282.55V219.431L1442.44 187.871Z" fill="#303030"/>
<path d="M1375.1 288.861L1438.49 320.421V383.54L1375.1 415.099L1311.72 383.54V320.421L1375.1 288.861Z" fill="#303030"/>
<path d="M1510.95 288.861L1574.34 320.421V383.54L1510.95 415.099L1447.56 383.54V320.421L1510.95 288.861Z" fill="#303030"/>
<path d="M1645.62 288.861L1709.01 320.421V383.54L1645.62 415.099L1582.24 383.54V320.421L1645.62 288.861Z" fill="#303030"/>
<path d="M1578.29 389.852L1641.67 421.411V484.53L1578.29 516.089L1514.9 484.53V421.411L1578.29 389.852Z" fill="#303030"/>
<path d="M1510.95 86.8811L1574.34 118.441V181.559L1510.95 213.119L1447.56 181.559V118.441L1510.95 86.8811Z" fill="#303030"/>
<path d="M1645.62 86.8811L1709.01 118.441V181.559L1645.62 213.119L1582.24 181.559V118.441L1645.62 86.8811Z" fill="#303030"/>
<path d="M1578.29 187.871L1641.67 219.431V282.55L1578.29 314.109L1514.9 282.55V219.431L1578.29 187.871Z" fill="#303030"/>
<path d="M1104.58 490.841L1167.97 522.401V585.52L1104.58 617.079L1041.19 585.52V522.401L1104.58 490.841Z" fill="#303030"/>
<path d="M1239.26 490.841L1302.64 522.401V585.52L1239.26 617.079L1175.87 585.52V522.401L1239.26 490.841Z" fill="#303030"/>
<path d="M1171.92 591.832L1235.31 623.391V686.51L1171.92 718.069L1108.53 686.51V623.391L1171.92 591.832Z" fill="#303030"/>
<path d="M1442.44 591.832L1505.83 623.391V686.51L1442.44 718.069L1379.05 686.51V623.391L1442.44 591.832Z" fill="#303030"/>
<path d="M1375.1 692.822L1438.49 724.381V787.5L1375.1 819.059L1311.72 787.5V724.381L1375.1 692.822Z" fill="#303030"/>
<path d="M1307.76 389.852L1371.15 421.411V484.53L1307.76 516.089L1244.38 484.53V421.411L1307.76 389.852Z" fill="#303030"/>
<path d="M1442.44 389.852L1505.83 421.411V484.53L1442.44 516.089L1379.05 484.53V421.411L1442.44 389.852Z" fill="#303030"/>
<path d="M1510.95 490.841L1574.34 522.401V585.52L1510.95 617.079L1447.56 585.52V522.401L1510.95 490.841Z" fill="#303030"/>
<path d="M1645.62 490.841L1709.01 522.401V585.52L1645.62 617.079L1582.24 585.52V522.401L1645.62 490.841Z" fill="#303030"/>
<path d="M1578.29 591.832L1641.67 623.391V686.51L1578.29 718.069L1514.9 686.51V623.391L1578.29 591.832Z" fill="#303030"/>
<path d="M1714.13 591.832L1777.52 623.391V686.51L1714.13 718.069L1650.74 686.51V623.391L1714.13 591.832Z" fill="#303030"/>
<path d="M1714.13 389.852L1777.52 421.411V484.53L1714.13 516.089L1650.74 484.53V421.411L1714.13 389.852Z" fill="#303030"/>
<path d="M20.1538 -115.099L83.5408 -83.5397V-20.4209L20.1538 11.1385L-43.2332 -20.4209V-83.5397L20.1538 -115.099Z" fill="#303030"/>
<path d="M88.6625 -14.1089L152.049 17.4505V80.5693L88.6625 112.129L25.2755 80.5693V17.4505L88.6625 -14.1089Z" fill="#303030"/>
<path d="M223.338 -14.1089L286.725 17.4505V80.5693L223.338 112.129L159.951 80.5693V17.4505L223.338 -14.1089Z" fill="#303030"/>
<path d="M156 86.8811L219.387 118.441V181.559L156 213.119L92.613 181.559V118.441L156 86.8811Z" fill="#303030"/>
<path d="M156 -115.099L219.387 -83.5397V-20.4209L156 11.1385L92.613 -20.4209V-83.5397L156 -115.099Z" fill="#303030"/>
<g filter="url(#filter2_d_68_2162)">
<path d="M359.184 -14.1089L422.571 17.4505V80.5693L359.184 112.129L295.797 80.5693V17.4505L359.184 -14.1089Z" fill="#2CC140"/>
</g>
<path d="M629.705 -14.1089L693.092 17.4505V80.5693L629.705 112.129L566.318 80.5693V17.4505L629.705 -14.1089Z" fill="#303030"/>
<path d="M562.367 86.8811L625.754 118.441V181.559L562.367 213.119L498.98 181.559V118.441L562.367 86.8811Z" fill="#303030"/>
<path d="M562.367 -115.099L625.754 -83.5397V-20.4209L562.367 11.1385L498.98 -20.4209V-83.5397L562.367 -115.099Z" fill="#303030"/>
<path d="M765.551 -14.1089L828.938 17.4505V80.5693L765.551 112.129L702.164 80.5693V17.4505L765.551 -14.1089Z" fill="#303030"/>
<path d="M901.397 -14.1089L964.784 17.4505V80.5693L901.397 112.129L838.01 80.5693V17.4505L901.397 -14.1089Z" fill="#303030"/>
<path d="M1036.07 -14.1089L1099.46 17.4505V80.5693L1036.07 112.129L972.685 80.5693V17.4505L1036.07 -14.1089Z" fill="#303030"/>
<path d="M968.735 86.8811L1032.12 118.441V181.559L968.735 213.119L905.348 181.559V118.441L968.735 86.8811Z" fill="#303030"/>
<path d="M1104.58 -115.099L1167.97 -83.5397V-20.4209L1104.58 11.1385L1041.19 -20.4209V-83.5397L1104.58 -115.099Z" fill="#303030"/>
<path d="M1171.92 -14.1089L1235.31 17.4505V80.5693L1171.92 112.129L1108.53 80.5693V17.4505L1171.92 -14.1089Z" fill="#303030"/>
<path d="M1307.76 -14.1089L1371.15 17.4505V80.5693L1307.76 112.129L1244.38 80.5693V17.4505L1307.76 -14.1089Z" fill="#303030"/>
<path d="M1442.44 -14.1089L1505.83 17.4505V80.5693L1442.44 112.129L1379.05 80.5693V17.4505L1442.44 -14.1089Z" fill="#303030"/>
<path d="M1375.1 86.8811L1438.49 118.441V181.559L1375.1 213.119L1311.72 181.559V118.441L1375.1 86.8811Z" fill="#303030"/>
<path d="M1375.1 -115.099L1438.49 -83.5397V-20.4209L1375.1 11.1385L1311.72 -20.4209V-83.5397L1375.1 -115.099Z" fill="#303030"/>
<path d="M1510.95 -115.099L1574.34 -83.5397V-20.4209L1510.95 11.1385L1447.56 -20.4209V-83.5397L1510.95 -115.099Z" fill="#303030"/>
<path d="M1645.62 -115.099L1709.01 -83.5397V-20.4209L1645.62 11.1385L1582.24 -20.4209V-83.5397L1645.62 -115.099Z" fill="#303030"/>
<path d="M1578.29 -14.1089L1641.67 17.4505V80.5693L1578.29 112.129L1514.9 80.5693V17.4505L1578.29 -14.1089Z" fill="#303030"/>
<path d="M1714.13 -14.1089L1777.52 17.4505V80.5693L1714.13 112.129L1650.74 80.5693V17.4505L1714.13 -14.1089Z" fill="#303030"/>
<defs>
<filter id="filter0_d_68_2162" x="88.613" y="886.802" width="134.774" height="134.238" filterUnits="userSpaceOnUse" color-interpolation-filters="sRGB">
<feFlood flood-opacity="0" result="BackgroundImageFix"/>
<feColorMatrix in="SourceAlpha" type="matrix" values="0 0 0 0 0 0 0 0 0 0 0 0 0 0 0 0 0 0 127 0" result="hardAlpha"/>
<feOffset dy="-4"/>
<feGaussianBlur stdDeviation="2"/>
<feComposite in2="hardAlpha" operator="out"/>
<feColorMatrix type="matrix" values="0 0 0 0 0 0 0 0 0 0 0 0 0 0 0 0 0 0 0.25 0"/>
<feBlend mode="normal" in2="BackgroundImageFix" result="effect1_dropShadow_68_2162"/>
<feBlend mode="normal" in="SourceGraphic" in2="effect1_dropShadow_68_2162" result="shape"/>
</filter>
<filter id="filter1_d_68_2162" x="630.827" y="490.841" width="134.774" height="134.238" filterUnits="userSpaceOnUse" color-interpolation-filters="sRGB">
<feFlood flood-opacity="0" result="BackgroundImageFix"/>
<feColorMatrix in="SourceAlpha" type="matrix" values="0 0 0 0 0 0 0 0 0 0 0 0 0 0 0 0 0 0 127 0" result="hardAlpha"/>
<feOffset dy="4"/>
<feGaussianBlur stdDeviation="2"/>
<feComposite in2="hardAlpha" operator="out"/>
<feColorMatrix type="matrix" values="0 0 0 0 0 0 0 0 0 0 0 0 0 0 0 0 0 0 0.25 0"/>
<feBlend mode="normal" in2="BackgroundImageFix" result="effect1_dropShadow_68_2162"/>
<feBlend mode="normal" in="SourceGraphic" in2="effect1_dropShadow_68_2162" result="shape"/>
</filter>
<filter id="filter2_d_68_2162" x="291.797" y="-14.1089" width="134.774" height="134.238" filterUnits="userSpaceOnUse" color-interpolation-filters="sRGB">
<feFlood flood-opacity="0" result="BackgroundImageFix"/>
<feColorMatrix in="SourceAlpha" type="matrix" values="0 0 0 0 0 0 0 0 0 0 0 0 0 0 0 0 0 0 127 0" result="hardAlpha"/>
<feOffset dy="4"/>
<feGaussianBlur stdDeviation="2"/>
<feComposite in2="hardAlpha" operator="out"/>
<feColorMatrix type="matrix" values="0 0 0 0 0 0 0 0 0 0 0 0 0 0 0 0 0 0 0.25 0"/>
<feBlend mode="normal" in2="BackgroundImageFix" result="effect1_dropShadow_68_2162"/>
<feBlend mode="normal" in="SourceGraphic" in2="effect1_dropShadow_68_2162" result="shape"/>
</filter>
</defs>
</svg>
