<svg width="200" height="208" viewBox="0 0 200 208" fill="none" xmlns="http://www.w3.org/2000/svg">
<g filter="url(#filter0_d_181_842)">
<path d="M100 0L186.603 50V150L100 200L13.3975 150V50L100 0Z" fill="white"/>
<path d="M14.3975 50.5774L100 1.1547L185.603 50.5774V149.423L100 198.845L14.3975 149.423V50.5774Z" stroke="#2CC140" stroke-width="2"/>
</g>
<path d="M53.4041 93.3636V105H51.2962V93.3636H53.4041ZM57.6527 99.8864V105H55.5959V96.2727H57.5618V97.7557H57.6641C57.8648 97.267 58.1849 96.8788 58.6243 96.5909C59.0675 96.303 59.6148 96.1591 60.2663 96.1591C60.8686 96.1591 61.3932 96.2879 61.8402 96.5455C62.291 96.803 62.6394 97.1761 62.8857 97.6648C63.1357 98.1534 63.2588 98.7462 63.255 99.4432V105H61.1982V99.7614C61.1982 99.178 61.0466 98.7216 60.7436 98.392C60.4444 98.0625 60.0296 97.8977 59.4993 97.8977C59.1394 97.8977 58.8194 97.9773 58.5391 98.1364C58.2625 98.2917 58.0447 98.517 57.8857 98.8125C57.7304 99.108 57.6527 99.4659 57.6527 99.8864ZM69.7038 96.2727V97.8636H64.6868V96.2727H69.7038ZM65.9254 94.1818H67.9822V102.375C67.9822 102.652 68.0239 102.864 68.1072 103.011C68.1944 103.155 68.308 103.254 68.4482 103.307C68.5883 103.36 68.7436 103.386 68.9141 103.386C69.0429 103.386 69.1603 103.377 69.2663 103.358C69.3762 103.339 69.4595 103.322 69.5163 103.307L69.8629 104.915C69.7531 104.953 69.5959 104.994 69.3913 105.04C69.1906 105.085 68.9444 105.112 68.6527 105.119C68.1375 105.134 67.6735 105.057 67.2607 104.886C66.8478 104.712 66.5201 104.443 66.2777 104.08C66.0391 103.716 65.9216 103.261 65.9254 102.716V94.1818ZM75.1939 105.17C74.3189 105.17 73.5632 104.989 72.9268 104.625C72.2943 104.258 71.8075 103.739 71.4666 103.068C71.1257 102.394 70.9553 101.6 70.9553 100.688C70.9553 99.7898 71.1257 99.0019 71.4666 98.3239C71.8113 97.642 72.2924 97.1117 72.9098 96.733C73.5272 96.3504 74.2526 96.1591 75.0859 96.1591C75.6238 96.1591 76.1314 96.2462 76.6087 96.4205C77.0897 96.5909 77.514 96.8561 77.8814 97.2159C78.2526 97.5758 78.5443 98.0341 78.7564 98.5909C78.9685 99.1439 79.0746 99.803 79.0746 100.568V101.199H71.9212V99.8125H77.103C77.0992 99.4186 77.014 99.0682 76.8473 98.7614C76.6806 98.4508 76.4477 98.2064 76.1484 98.0284C75.853 97.8504 75.5083 97.7614 75.1143 97.7614C74.6939 97.7614 74.3246 97.8636 74.0064 98.0682C73.6882 98.2689 73.4401 98.5341 73.2621 98.8636C73.0878 99.1894 72.9988 99.5473 72.995 99.9375V101.148C72.995 101.655 73.0878 102.091 73.2734 102.455C73.459 102.814 73.7185 103.091 74.0518 103.284C74.3852 103.473 74.7753 103.568 75.2223 103.568C75.5215 103.568 75.7924 103.527 76.0348 103.443C76.2772 103.356 76.4875 103.229 76.6655 103.062C76.8435 102.896 76.978 102.689 77.0689 102.443L78.9893 102.659C78.8681 103.167 78.6371 103.61 78.2962 103.989C77.959 104.364 77.5272 104.655 77.0007 104.864C76.4742 105.068 75.8719 105.17 75.1939 105.17ZM80.8146 105V96.2727H82.8089V97.7273H82.8999C83.0589 97.2235 83.3317 96.8352 83.718 96.5625C84.1082 96.286 84.5533 96.1477 85.0533 96.1477C85.1669 96.1477 85.2938 96.1534 85.4339 96.1648C85.5779 96.1723 85.6972 96.1856 85.7919 96.2045V98.0966C85.7048 98.0663 85.5665 98.0398 85.3771 98.017C85.1915 97.9905 85.0116 97.9773 84.8374 97.9773C84.4624 97.9773 84.1252 98.0587 83.826 98.2216C83.5305 98.3807 83.2976 98.6023 83.1271 98.8864C82.9567 99.1705 82.8714 99.4981 82.8714 99.8693V105H80.8146ZM87.1584 105V96.2727H89.1243V97.7557H89.2266C89.4084 97.2557 89.7095 96.8655 90.13 96.5852C90.5504 96.3011 91.0523 96.1591 91.6357 96.1591C92.2266 96.1591 92.7247 96.303 93.13 96.5909C93.5391 96.875 93.8269 97.2633 93.9936 97.7557H94.0845C94.2777 97.2708 94.6035 96.8845 95.0618 96.5966C95.5239 96.3049 96.0713 96.1591 96.7038 96.1591C97.5069 96.1591 98.1622 96.4129 98.6697 96.9205C99.1773 97.428 99.4311 98.1686 99.4311 99.142V105H97.3686V99.4602C97.3686 98.9186 97.2247 98.5227 96.9368 98.2727C96.6489 98.0189 96.2966 97.892 95.88 97.892C95.3838 97.892 94.9955 98.0473 94.7152 98.358C94.4387 98.6648 94.3004 99.0644 94.3004 99.5568V105H92.2834V99.375C92.2834 98.9242 92.147 98.5644 91.8743 98.2955C91.6054 98.0265 91.2531 97.892 90.8175 97.892C90.522 97.892 90.2531 97.9678 90.0107 98.1193C89.7682 98.267 89.575 98.4773 89.4311 98.75C89.2872 99.0189 89.2152 99.3333 89.2152 99.6932V105H87.1584ZM105.381 105.17C104.506 105.17 103.751 104.989 103.114 104.625C102.482 104.258 101.995 103.739 101.654 103.068C101.313 102.394 101.143 101.6 101.143 100.688C101.143 99.7898 101.313 99.0019 101.654 98.3239C101.999 97.642 102.48 97.1117 103.097 96.733C103.715 96.3504 104.44 96.1591 105.273 96.1591C105.811 96.1591 106.319 96.2462 106.796 96.4205C107.277 96.5909 107.701 96.8561 108.069 97.2159C108.44 97.5758 108.732 98.0341 108.944 98.5909C109.156 99.1439 109.262 99.803 109.262 100.568V101.199H102.109V99.8125H107.29C107.287 99.4186 107.201 99.0682 107.035 98.7614C106.868 98.4508 106.635 98.2064 106.336 98.0284C106.04 97.8504 105.696 97.7614 105.302 97.7614C104.881 97.7614 104.512 97.8636 104.194 98.0682C103.876 98.2689 103.628 98.5341 103.45 98.8636C103.275 99.1894 103.186 99.5473 103.183 99.9375V101.148C103.183 101.655 103.275 102.091 103.461 102.455C103.647 102.814 103.906 103.091 104.239 103.284C104.573 103.473 104.963 103.568 105.41 103.568C105.709 103.568 105.98 103.527 106.222 103.443C106.465 103.356 106.675 103.229 106.853 103.062C107.031 102.896 107.165 102.689 107.256 102.443L109.177 102.659C109.056 103.167 108.825 103.61 108.484 103.989C108.147 104.364 107.715 104.655 107.188 104.864C106.662 105.068 106.059 105.17 105.381 105.17ZM114.241 105.153C113.555 105.153 112.942 104.977 112.4 104.625C111.858 104.273 111.43 103.761 111.116 103.091C110.801 102.42 110.644 101.606 110.644 100.648C110.644 99.678 110.803 98.8598 111.121 98.1932C111.443 97.5227 111.877 97.017 112.423 96.6761C112.968 96.3314 113.576 96.1591 114.246 96.1591C114.758 96.1591 115.178 96.2462 115.508 96.4205C115.837 96.5909 116.099 96.7973 116.292 97.0398C116.485 97.2784 116.635 97.5038 116.741 97.7159H116.826V93.3636H118.888V105H116.866V103.625H116.741C116.635 103.837 116.481 104.062 116.281 104.301C116.08 104.536 115.815 104.737 115.485 104.903C115.156 105.07 114.741 105.153 114.241 105.153ZM114.815 103.466C115.25 103.466 115.621 103.348 115.928 103.114C116.235 102.875 116.468 102.544 116.627 102.119C116.786 101.695 116.866 101.201 116.866 100.636C116.866 100.072 116.786 99.5814 116.627 99.1648C116.472 98.7481 116.241 98.4242 115.934 98.1932C115.631 97.9621 115.258 97.8466 114.815 97.8466C114.356 97.8466 113.974 97.9659 113.667 98.2045C113.36 98.4432 113.129 98.7727 112.974 99.1932C112.818 99.6136 112.741 100.095 112.741 100.636C112.741 101.182 112.818 101.669 112.974 102.097C113.133 102.521 113.366 102.856 113.673 103.102C113.983 103.345 114.364 103.466 114.815 103.466ZM121.08 105V96.2727H123.137V105H121.08ZM122.114 95.0341C121.789 95.0341 121.508 94.9261 121.273 94.7102C121.039 94.4905 120.921 94.2273 120.921 93.9205C120.921 93.6098 121.039 93.3466 121.273 93.1307C121.508 92.911 121.789 92.8011 122.114 92.8011C122.444 92.8011 122.724 92.911 122.955 93.1307C123.19 93.3466 123.308 93.6098 123.308 93.9205C123.308 94.2273 123.19 94.4905 122.955 94.7102C122.724 94.9261 122.444 95.0341 122.114 95.0341ZM127.763 105.176C127.21 105.176 126.712 105.078 126.269 104.881C125.83 104.68 125.481 104.384 125.224 103.994C124.97 103.604 124.843 103.123 124.843 102.551C124.843 102.059 124.934 101.652 125.116 101.33C125.298 101.008 125.546 100.75 125.86 100.557C126.174 100.364 126.529 100.218 126.923 100.119C127.32 100.017 127.731 99.9432 128.156 99.8977C128.667 99.8447 129.082 99.7973 129.4 99.7557C129.718 99.7102 129.949 99.642 130.093 99.5511C130.241 99.4564 130.315 99.3106 130.315 99.1136V99.0795C130.315 98.6515 130.188 98.3201 129.934 98.0852C129.68 97.8504 129.315 97.733 128.837 97.733C128.334 97.733 127.934 97.8428 127.638 98.0625C127.347 98.2822 127.15 98.5417 127.048 98.8409L125.127 98.5682C125.279 98.0379 125.529 97.5947 125.877 97.2386C126.226 96.8788 126.652 96.6098 127.156 96.4318C127.659 96.25 128.216 96.1591 128.826 96.1591C129.246 96.1591 129.665 96.2083 130.082 96.3068C130.498 96.4053 130.879 96.5682 131.224 96.7955C131.568 97.0189 131.845 97.3239 132.053 97.7102C132.265 98.0966 132.371 98.5795 132.371 99.1591V105H130.394V103.801H130.326C130.201 104.044 130.025 104.271 129.798 104.483C129.574 104.691 129.292 104.86 128.951 104.989C128.614 105.114 128.218 105.176 127.763 105.176ZM128.298 103.665C128.71 103.665 129.068 103.583 129.371 103.42C129.674 103.254 129.907 103.034 130.07 102.761C130.237 102.489 130.32 102.191 130.32 101.869V100.841C130.256 100.894 130.146 100.943 129.991 100.989C129.839 101.034 129.669 101.074 129.479 101.108C129.29 101.142 129.103 101.172 128.917 101.199C128.731 101.225 128.57 101.248 128.434 101.267C128.127 101.309 127.853 101.377 127.61 101.472C127.368 101.566 127.176 101.699 127.036 101.869C126.896 102.036 126.826 102.252 126.826 102.517C126.826 102.896 126.964 103.182 127.241 103.375C127.517 103.568 127.87 103.665 128.298 103.665ZM138.798 96.2727V97.8636H133.781V96.2727H138.798ZM135.019 94.1818H137.076V102.375C137.076 102.652 137.118 102.864 137.201 103.011C137.288 103.155 137.402 103.254 137.542 103.307C137.682 103.36 137.837 103.386 138.008 103.386C138.137 103.386 138.254 103.377 138.36 103.358C138.47 103.339 138.553 103.322 138.61 103.307L138.957 104.915C138.847 104.953 138.69 104.994 138.485 105.04C138.284 105.085 138.038 105.112 137.746 105.119C137.231 105.134 136.767 105.057 136.354 104.886C135.942 104.712 135.614 104.443 135.371 104.08C135.133 103.716 135.015 103.261 135.019 102.716V94.1818ZM144.288 105.17C143.413 105.17 142.657 104.989 142.021 104.625C141.388 104.258 140.901 103.739 140.56 103.068C140.219 102.394 140.049 101.6 140.049 100.688C140.049 99.7898 140.219 99.0019 140.56 98.3239C140.905 97.642 141.386 97.1117 142.004 96.733C142.621 96.3504 143.346 96.1591 144.18 96.1591C144.718 96.1591 145.225 96.2462 145.702 96.4205C146.183 96.5909 146.608 96.8561 146.975 97.2159C147.346 97.5758 147.638 98.0341 147.85 98.5909C148.062 99.1439 148.168 99.803 148.168 100.568V101.199H141.015V99.8125H146.197C146.193 99.4186 146.108 99.0682 145.941 98.7614C145.774 98.4508 145.541 98.2064 145.242 98.0284C144.947 97.8504 144.602 97.7614 144.208 97.7614C143.788 97.7614 143.418 97.8636 143.1 98.0682C142.782 98.2689 142.534 98.5341 142.356 98.8636C142.182 99.1894 142.093 99.5473 142.089 99.9375V101.148C142.089 101.655 142.182 102.091 142.367 102.455C142.553 102.814 142.812 103.091 143.146 103.284C143.479 103.473 143.869 103.568 144.316 103.568C144.615 103.568 144.886 103.527 145.129 103.443C145.371 103.356 145.581 103.229 145.759 103.062C145.937 102.896 146.072 102.689 146.163 102.443L148.083 102.659C147.962 103.167 147.731 103.61 147.39 103.989C147.053 104.364 146.621 104.655 146.094 104.864C145.568 105.068 144.966 105.17 144.288 105.17Z" fill="black"/>
<path d="M75.8572 53.6648V48.2727H76.8686V57H75.8572V55.5511H75.7777C75.5732 55.9981 75.2493 56.3712 74.8061 56.6705C74.3629 56.9659 73.8213 57.1136 73.1811 57.1136C72.6243 57.1136 72.13 56.9924 71.6982 56.75C71.2663 56.5038 70.9273 56.1439 70.6811 55.6705C70.4349 55.197 70.3118 54.6155 70.3118 53.9261V48.2727H71.3232V53.8636C71.3232 54.5455 71.5239 55.0947 71.9254 55.5114C72.3269 55.9242 72.8421 56.1307 73.4709 56.1307C73.8648 56.1307 74.2436 56.036 74.6072 55.8466C74.9709 55.6572 75.2701 55.3807 75.505 55.017C75.7398 54.6496 75.8572 54.1989 75.8572 53.6648ZM80.5575 51.5455V57H79.5462V48.2727H80.5291V49.642H80.62C80.8246 49.1951 81.1428 48.8371 81.5746 48.5682C82.0102 48.2955 82.5481 48.1591 83.1882 48.1591C83.7753 48.1591 84.2905 48.2822 84.7337 48.5284C85.1806 48.7708 85.5272 49.1288 85.7734 49.6023C86.0234 50.0758 86.1484 50.6572 86.1484 51.3466V57H85.1371V51.4091C85.1371 50.6932 84.9363 50.1269 84.5348 49.7102C84.1371 49.2936 83.603 49.0852 82.9325 49.0852C82.4742 49.0852 82.067 49.1837 81.7109 49.3807C81.3549 49.5777 81.0727 49.8617 80.8643 50.233C80.6598 50.6004 80.5575 51.0379 80.5575 51.5455ZM88.8232 57V48.2727H89.8402V57H88.8232ZM89.3402 46.7727C89.1319 46.7727 88.9538 46.7027 88.8061 46.5625C88.6584 46.4186 88.5845 46.2462 88.5845 46.0455C88.5845 45.8447 88.6584 45.6742 88.8061 45.5341C88.9538 45.3902 89.1319 45.3182 89.3402 45.3182C89.5485 45.3182 89.7266 45.3902 89.8743 45.5341C90.022 45.6742 90.0959 45.8447 90.0959 46.0455C90.0959 46.2462 90.022 46.4186 89.8743 46.5625C89.7266 46.7027 89.5485 46.7727 89.3402 46.7727ZM95.9524 48.2727V49.1534H91.7876V48.2727H95.9524ZM93.0888 46.1818H94.1058V54.7216C94.1058 55.0852 94.1683 55.3712 94.2933 55.5795C94.4183 55.7841 94.5812 55.9299 94.782 56.017C94.9827 56.1004 95.1967 56.142 95.424 56.142C95.5566 56.142 95.6702 56.1345 95.7649 56.1193C95.8596 56.1004 95.9429 56.0814 96.0149 56.0625L96.2308 56.9773C96.1323 57.0152 96.0111 57.0492 95.8672 57.0795C95.7232 57.1136 95.5452 57.1307 95.3331 57.1307C94.9619 57.1307 94.6039 57.0492 94.2592 56.8864C93.9183 56.7235 93.638 56.4811 93.4183 56.1591C93.1986 55.8371 93.0888 55.4375 93.0888 54.9602V46.1818ZM98.9538 60.2727C98.7531 60.2727 98.5656 60.2538 98.3913 60.2159C98.2171 60.178 98.0788 60.1364 97.9766 60.0909L98.2493 59.1989C98.594 59.3049 98.9008 59.3428 99.1697 59.3125C99.4387 59.286 99.6773 59.1648 99.8857 58.9489C100.094 58.7367 100.28 58.411 100.442 57.9716L100.761 57.0852L97.5504 48.2727H98.647L101.238 55.6648H101.317L103.908 48.2727H105.005L101.312 58.3807C101.156 58.8011 100.965 59.1515 100.738 59.4318C100.511 59.7159 100.247 59.9261 99.9482 60.0625C99.6527 60.2027 99.3213 60.2727 98.9538 60.2727ZM115.222 57.1591C114.506 57.1591 113.866 57.0303 113.302 56.7727C112.737 56.5114 112.29 56.1496 111.961 55.6875C111.631 55.2254 111.457 54.6932 111.438 54.0909H112.512C112.531 54.5152 112.662 54.8864 112.904 55.2045C113.147 55.5189 113.469 55.7652 113.87 55.9432C114.272 56.1174 114.719 56.2045 115.211 56.2045C115.749 56.2045 116.222 56.1042 116.631 55.9034C117.044 55.7027 117.366 55.428 117.597 55.0795C117.832 54.7273 117.95 54.3295 117.95 53.8864C117.95 53.4167 117.83 53.0019 117.592 52.642C117.353 52.2822 117.01 52.0019 116.563 51.8011C116.12 51.6004 115.59 51.5 114.972 51.5H114.29V50.5455H114.972C115.476 50.5455 115.921 50.4545 116.308 50.2727C116.698 50.0871 117.004 49.8277 117.228 49.4943C117.451 49.161 117.563 48.7689 117.563 48.3182C117.563 47.8902 117.467 47.5133 117.273 47.1875C117.08 46.8617 116.808 46.6061 116.455 46.4205C116.107 46.2348 115.7 46.142 115.234 46.142C114.783 46.142 114.37 46.2292 113.995 46.4034C113.62 46.5777 113.317 46.8239 113.086 47.142C112.859 47.4602 112.737 47.8371 112.722 48.2727H111.694C111.709 47.6667 111.876 47.1345 112.194 46.6761C112.516 46.214 112.942 45.8542 113.472 45.5966C114.006 45.3352 114.597 45.2045 115.245 45.2045C115.931 45.2045 116.523 45.3447 117.023 45.625C117.523 45.9053 117.91 46.2784 118.183 46.7443C118.459 47.2064 118.597 47.7159 118.597 48.2727C118.597 48.9356 118.417 49.5038 118.058 49.9773C117.698 50.447 117.213 50.7727 116.603 50.9545V51.0284C117.345 51.1761 117.929 51.5057 118.353 52.017C118.781 52.5246 118.995 53.1477 118.995 53.8864C118.995 54.5076 118.832 55.0663 118.506 55.5625C118.181 56.0549 117.734 56.4451 117.165 56.733C116.601 57.017 115.953 57.1591 115.222 57.1591ZM124.688 57.1818C123.972 57.1818 123.345 56.9924 122.808 56.6136C122.27 56.2348 121.849 55.7064 121.546 55.0284C121.247 54.3504 121.097 53.5606 121.097 52.6591C121.097 51.7614 121.247 50.9754 121.546 50.3011C121.849 49.6231 122.272 49.0966 122.813 48.7216C123.355 48.3428 123.986 48.1534 124.705 48.1534C125.236 48.1534 125.677 48.2481 126.029 48.4375C126.381 48.6231 126.664 48.8542 126.876 49.1307C127.088 49.4072 127.253 49.6761 127.37 49.9375H127.461V45.3636H128.478V57H127.489V55.3807H127.37C127.253 55.6458 127.086 55.9186 126.87 56.1989C126.654 56.4754 126.368 56.7083 126.012 56.8977C125.66 57.0871 125.219 57.1818 124.688 57.1818ZM124.808 56.2557C125.372 56.2557 125.853 56.1023 126.251 55.7955C126.648 55.4848 126.951 55.0587 127.16 54.517C127.372 53.9716 127.478 53.3466 127.478 52.642C127.478 51.9451 127.374 51.3295 127.165 50.7955C126.957 50.2576 126.654 49.8371 126.256 49.5341C125.859 49.2273 125.376 49.0739 124.808 49.0739C124.224 49.0739 123.732 49.233 123.33 49.5511C122.933 49.8655 122.629 50.2917 122.421 50.8295C122.217 51.3674 122.114 51.9716 122.114 52.642C122.114 53.3201 122.219 53.9318 122.427 54.4773C122.635 55.0227 122.938 55.4564 123.336 55.7784C123.737 56.0966 124.228 56.2557 124.808 56.2557Z" fill="black"/>
<path d="M75.8161 142.364V154H74.7536V143.477H74.6854L71.9581 145.29V144.188L74.7081 142.364H75.8161ZM84.5945 157.273C84.3937 157.273 84.2062 157.254 84.032 157.216C83.8577 157.178 83.7195 157.136 83.6172 157.091L83.8899 156.199C84.2346 156.305 84.5414 156.343 84.8104 156.312C85.0793 156.286 85.3179 156.165 85.5263 155.949C85.7346 155.737 85.9202 155.411 86.0831 154.972L86.4013 154.085L83.1911 145.273H84.2876L86.8786 152.665H86.9581L89.549 145.273H90.6456L86.9524 155.381C86.7971 155.801 86.6058 156.152 86.3786 156.432C86.1513 156.716 85.888 156.926 85.5888 157.062C85.2933 157.203 84.9619 157.273 84.5945 157.273ZM95.8402 154.182C95.0258 154.182 94.3213 153.992 93.7266 153.614C93.1319 153.231 92.6716 152.703 92.3459 152.028C92.0239 151.35 91.8629 150.57 91.8629 149.688C91.8629 148.809 92.0239 148.028 92.3459 147.347C92.6716 146.661 93.1205 146.125 93.6925 145.739C94.2682 145.348 94.933 145.153 95.6868 145.153C96.1603 145.153 96.6167 145.241 97.0561 145.415C97.4955 145.585 97.8894 145.848 98.2379 146.205C98.5902 146.557 98.8686 147.002 99.0732 147.54C99.2777 148.074 99.38 148.706 99.38 149.438V149.938H92.5618V149.045H98.3459C98.3459 148.485 98.2322 147.981 98.005 147.534C97.7815 147.083 97.469 146.727 97.0675 146.466C96.6697 146.205 96.2095 146.074 95.6868 146.074C95.1338 146.074 94.647 146.222 94.2266 146.517C93.8061 146.812 93.4766 147.203 93.2379 147.688C93.0031 148.172 92.8838 148.703 92.88 149.278V149.812C92.88 150.506 92.9993 151.112 93.2379 151.631C93.4804 152.146 93.8232 152.545 94.2663 152.83C94.7095 153.114 95.2341 153.256 95.8402 153.256C96.2531 153.256 96.6148 153.191 96.9254 153.062C97.2398 152.934 97.5031 152.761 97.7152 152.545C97.9311 152.326 98.094 152.085 98.2038 151.824L99.1641 152.136C99.0315 152.504 98.8137 152.843 98.5107 153.153C98.2114 153.464 97.8364 153.714 97.3857 153.903C96.9387 154.089 96.4235 154.182 95.8402 154.182ZM104.046 154.199C103.52 154.199 103.039 154.097 102.603 153.892C102.167 153.684 101.821 153.384 101.563 152.994C101.306 152.6 101.177 152.123 101.177 151.562C101.177 151.131 101.258 150.767 101.421 150.472C101.584 150.176 101.815 149.934 102.114 149.744C102.414 149.555 102.768 149.405 103.177 149.295C103.586 149.186 104.037 149.1 104.529 149.04C105.018 148.979 105.431 148.926 105.768 148.881C106.109 148.835 106.368 148.763 106.546 148.665C106.724 148.566 106.813 148.407 106.813 148.188V147.983C106.813 147.388 106.635 146.92 106.279 146.58C105.927 146.235 105.419 146.062 104.756 146.062C104.128 146.062 103.614 146.201 103.217 146.477C102.823 146.754 102.546 147.08 102.387 147.455L101.427 147.108C101.624 146.631 101.897 146.25 102.245 145.966C102.594 145.678 102.984 145.472 103.415 145.347C103.847 145.218 104.285 145.153 104.728 145.153C105.061 145.153 105.408 145.197 105.768 145.284C106.131 145.371 106.469 145.523 106.779 145.739C107.09 145.951 107.342 146.248 107.535 146.631C107.728 147.009 107.825 147.491 107.825 148.074V154H106.813V152.619H106.751C106.629 152.877 106.45 153.127 106.211 153.369C105.972 153.612 105.673 153.811 105.313 153.966C104.953 154.121 104.531 154.199 104.046 154.199ZM104.183 153.273C104.72 153.273 105.186 153.153 105.58 152.915C105.974 152.676 106.277 152.36 106.489 151.966C106.705 151.568 106.813 151.131 106.813 150.653V149.392C106.737 149.464 106.611 149.528 106.433 149.585C106.258 149.642 106.056 149.693 105.825 149.739C105.597 149.78 105.37 149.816 105.143 149.847C104.915 149.877 104.711 149.903 104.529 149.926C104.037 149.987 103.616 150.081 103.268 150.21C102.919 150.339 102.652 150.517 102.467 150.744C102.281 150.968 102.188 151.256 102.188 151.608C102.188 152.138 102.378 152.549 102.756 152.841C103.135 153.129 103.611 153.273 104.183 153.273ZM110.515 154V145.273H111.498V146.614H111.572C111.746 146.174 112.049 145.82 112.481 145.551C112.916 145.278 113.409 145.142 113.958 145.142C114.041 145.142 114.134 145.144 114.237 145.148C114.339 145.152 114.424 145.155 114.492 145.159V146.188C114.447 146.18 114.367 146.169 114.254 146.153C114.14 146.138 114.017 146.131 113.884 146.131C113.43 146.131 113.024 146.227 112.668 146.42C112.316 146.61 112.038 146.873 111.833 147.21C111.629 147.547 111.526 147.932 111.526 148.364V154H110.515ZM119.45 141.818L115.7 155.75H114.751L118.501 141.818H119.45ZM127.066 147.188L126.14 147.449C126.049 147.187 125.92 146.951 125.754 146.739C125.587 146.527 125.369 146.358 125.1 146.233C124.835 146.108 124.505 146.045 124.112 146.045C123.521 146.045 123.036 146.186 122.657 146.466C122.278 146.746 122.089 147.108 122.089 147.551C122.089 147.926 122.218 148.231 122.475 148.466C122.737 148.697 123.138 148.881 123.68 149.017L124.998 149.341C125.729 149.519 126.276 149.801 126.64 150.188C127.007 150.574 127.191 151.059 127.191 151.642C127.191 152.134 127.055 152.572 126.782 152.955C126.509 153.337 126.129 153.638 125.64 153.858C125.155 154.074 124.593 154.182 123.952 154.182C123.1 154.182 122.397 153.991 121.844 153.608C121.291 153.222 120.937 152.665 120.782 151.938L121.754 151.699C121.879 152.218 122.123 152.61 122.487 152.875C122.854 153.14 123.337 153.273 123.935 153.273C124.606 153.273 125.142 153.123 125.543 152.824C125.945 152.521 126.146 152.142 126.146 151.688C126.146 151.335 126.028 151.04 125.793 150.801C125.558 150.559 125.202 150.381 124.725 150.267L123.299 149.926C122.541 149.744 121.981 149.456 121.617 149.062C121.254 148.669 121.072 148.18 121.072 147.597C121.072 147.116 121.202 146.693 121.464 146.33C121.725 145.962 122.085 145.674 122.543 145.466C123.002 145.258 123.524 145.153 124.112 145.153C124.911 145.153 125.549 145.335 126.026 145.699C126.507 146.059 126.854 146.555 127.066 147.188Z" fill="black"/>
<defs>
<filter id="filter0_d_181_842" x="9.39746" y="0" width="181.205" height="208" filterUnits="userSpaceOnUse" color-interpolation-filters="sRGB">
<feFlood flood-opacity="0" result="BackgroundImageFix"/>
<feColorMatrix in="SourceAlpha" type="matrix" values="0 0 0 0 0 0 0 0 0 0 0 0 0 0 0 0 0 0 127 0" result="hardAlpha"/>
<feOffset dy="4"/>
<feGaussianBlur stdDeviation="2"/>
<feComposite in2="hardAlpha" operator="out"/>
<feColorMatrix type="matrix" values="0 0 0 0 0 0 0 0 0 0 0 0 0 0 0 0 0 0 0.25 0"/>
<feBlend mode="normal" in2="BackgroundImageFix" result="effect1_dropShadow_181_842"/>
<feBlend mode="normal" in="SourceGraphic" in2="effect1_dropShadow_181_842" result="shape"/>
</filter>
</defs>
</svg>
